<svg width="39" height="39" viewBox="0 0 39 39" fill="none" xmlns="http://www.w3.org/2000/svg">
<circle cx="19.9158" cy="19.0039" r="19" fill="url(#paint0_linear_892_1444)"/>
<path d="M30.7269 12.3752C30.8265 12.0614 30.8772 11.7337 30.8772 11.3989C30.8772 10.6312 30.6028 9.88806 30.1064 9.30616C30.1047 9.30441 30.1029 9.30266 30.1012 9.29915C29.4913 8.5858 28.6017 8.17742 27.6649 8.17742C27.4499 8.17742 27.235 8.19845 27.0235 8.24227C26.473 8.35445 25.9504 8.61735 25.5275 8.99769C23.8584 7.89348 21.9255 7.31158 19.9156 7.31158C17.9058 7.31158 15.9728 7.89348 14.3055 8.99769C13.8791 8.61735 13.3548 8.35269 12.8043 8.24227C12.598 8.20021 12.3831 8.17742 12.1681 8.17742C11.2313 8.17742 10.3418 8.5858 9.73183 9.29915C9.73008 9.30091 9.72833 9.30266 9.72658 9.30616C9.22849 9.88806 8.9541 10.6312 8.9541 11.3989C8.9541 11.7302 9.00478 12.0579 9.10266 12.3699C9.30539 13.0184 9.72134 13.5968 10.2719 14.0017C10.2876 14.0139 10.3051 14.0262 10.3225 14.0385C10.2334 14.2803 10.1548 14.5222 10.0884 14.7623C9.83319 15.665 9.70386 16.6027 9.70386 17.5527C9.70386 17.6105 9.70386 17.6666 9.70736 17.7419C9.78251 18.8619 9.98699 19.9731 10.3138 21.044C11.3484 24.425 13.5733 27.3187 16.5775 29.1924C16.8956 29.3904 17.2259 29.5797 17.558 29.7515C17.9145 29.9373 18.285 30.1108 18.659 30.2668C19.0068 30.4123 19.3669 30.5472 19.7321 30.6682C19.7898 30.6874 19.8492 30.6962 19.9104 30.6962C19.9716 30.6962 20.031 30.6874 20.0887 30.6682C20.4452 30.5507 20.7965 30.4193 21.1303 30.2808C21.1443 30.2756 21.1582 30.2703 21.1757 30.2633C21.5427 30.109 21.908 29.9373 22.2628 29.7532C22.5931 29.5815 22.9217 29.3939 23.2415 29.1941C26.2021 27.3485 28.4112 24.5074 29.4615 21.193C29.8356 20.017 30.0593 18.7918 30.1257 17.5456C30.1257 17.5404 30.1257 17.5246 30.1257 17.5194C30.1222 16.5834 29.9946 15.6562 29.7429 14.7623C29.6748 14.5222 29.5961 14.2803 29.5087 14.0385C29.5227 14.028 29.5367 14.0192 29.5507 14.0087C30.1047 13.6073 30.5224 13.0254 30.7269 12.3752ZM27.2472 9.36225C27.3818 9.33421 27.5199 9.32194 27.6579 9.32194C27.8851 9.32194 28.1088 9.35875 28.3203 9.42885C28.2539 9.4604 28.1892 9.49721 28.1263 9.53402C28.1071 9.54453 28.0879 9.5568 28.0634 9.57258C28.011 9.60413 27.9603 9.63743 27.9044 9.67599L27.8519 9.71279C27.7855 9.76187 27.7191 9.81094 27.6579 9.86353C27.5915 9.91961 27.5303 9.9792 27.4692 10.0388L27.4237 10.0861C27.3661 10.1457 27.3084 10.2088 27.2507 10.2772C27.228 10.3052 27.2053 10.335 27.1826 10.363C27.1022 10.2807 27.02 10.2018 26.9379 10.1212L26.8645 10.0493C26.7421 9.93539 26.6093 9.81796 26.4695 9.70052C26.7019 9.53577 26.9658 9.42009 27.249 9.36225H27.2472ZM14.1815 10.5033C14.3213 10.3876 14.4471 10.2912 14.5694 10.2018C14.5694 10.2018 14.5712 10.2018 14.5729 10.2C16.1319 9.05728 17.9792 8.45435 19.9174 8.45435C21.8556 8.45435 23.7064 9.05903 25.2671 10.2036C25.3842 10.2894 25.5065 10.3841 25.6533 10.505C25.6778 10.526 25.7914 10.6207 25.8036 10.633C25.7966 10.633 25.69 10.6312 25.6638 10.6312C25.6236 10.6312 25.3859 10.6347 25.3859 10.6347C25.2531 10.6382 25.122 10.6417 24.9944 10.6505C23.2031 10.7557 21.4519 11.2955 19.9121 12.2104C19.6745 12.0684 19.4298 11.9352 19.1834 11.8125C18.3532 11.3989 17.4724 11.0869 16.5653 10.8889C15.9991 10.7644 15.4171 10.6855 14.8403 10.6505C14.6114 10.6365 14.3824 10.6295 14.1622 10.6295C14.1203 10.6295 14.0766 10.6295 14.0346 10.6295C14.0469 10.6189 14.1552 10.5278 14.1832 10.5033H14.1815ZM18.5402 21.491C18.5804 21.477 18.6206 21.4629 18.6608 21.4489L18.7604 21.4174C18.8024 21.4051 18.8443 21.3946 18.9037 21.3788C18.9317 21.3718 18.9579 21.3648 18.9859 21.3578C19.0296 21.3473 19.0733 21.3385 19.1169 21.3297L19.2131 21.3105C19.2585 21.3017 19.3057 21.2964 19.3546 21.2894C19.3546 21.2894 19.4263 21.2789 19.4455 21.2772C19.4927 21.2719 19.5399 21.2684 19.6011 21.2631L19.678 21.2561C19.7549 21.2509 19.8335 21.2491 19.9104 21.2491C19.9873 21.2491 20.0659 21.2509 20.1428 21.2561L20.2215 21.2631C20.2739 21.2666 20.3263 21.2719 20.377 21.2772C20.3963 21.2789 20.4697 21.2912 20.4697 21.2912C20.5168 21.2982 20.5623 21.3034 20.6095 21.3122C20.6304 21.3157 20.7178 21.3332 20.7178 21.3332C20.758 21.342 20.7982 21.349 20.8384 21.3595C20.8629 21.3648 20.9363 21.3841 20.9363 21.3841C20.9782 21.3946 21.0202 21.4069 21.0639 21.4191C21.0918 21.4279 21.1181 21.4366 21.1617 21.4507C21.2019 21.4647 21.2421 21.477 21.2841 21.4927C21.3173 21.505 21.3487 21.5173 21.3802 21.5295C21.3994 21.5366 21.4204 21.5453 21.4396 21.5541C21.4396 21.5663 21.4291 21.6417 21.4291 21.6417C21.4256 21.6663 21.4239 21.6908 21.4187 21.7188C21.4134 21.7504 21.4082 21.7802 21.3994 21.824L21.3924 21.8555C21.3889 21.8783 21.3837 21.8994 21.3785 21.9221C21.3715 21.9502 21.3645 21.9782 21.3575 22.0063L21.347 22.0466C21.34 22.0711 21.3348 22.0957 21.326 22.1202C21.319 22.1447 21.3103 22.1693 21.3016 22.1921C21.3016 22.1921 21.2666 22.2955 21.2596 22.313C21.2509 22.3358 21.2404 22.3586 21.2317 22.3814L21.2072 22.441C21.1984 22.462 21.1897 22.483 21.181 22.5023C21.1687 22.5268 21.1565 22.5514 21.1443 22.5759L21.1181 22.6285C21.1093 22.6478 21.0988 22.6671 21.0883 22.6863C21.0761 22.7091 21.0621 22.7301 21.0499 22.7529L21.0149 22.8125C21.0045 22.8283 20.9957 22.8458 20.9852 22.8634C20.9712 22.8844 20.9555 22.9072 20.9415 22.9282L20.9013 22.986C20.8909 23.0018 20.8804 23.0176 20.8681 23.0334C20.8524 23.0544 20.8367 23.0754 20.8192 23.0947L20.7773 23.1473C20.765 23.1631 20.7528 23.1788 20.7388 23.1946C20.7213 23.2156 20.7038 23.2349 20.6846 23.2542C20.6846 23.2542 20.613 23.3331 20.6007 23.3453C20.5798 23.3664 20.557 23.3874 20.5361 23.4067C20.5361 23.4067 20.4627 23.4768 20.4504 23.4873C20.4312 23.5048 20.4102 23.5224 20.3893 23.5381C20.3893 23.5381 20.3036 23.6083 20.2914 23.6188C20.2687 23.6363 20.2442 23.6521 20.2215 23.6696C20.2215 23.6696 20.1358 23.7309 20.1219 23.7397C20.0922 23.759 20.0624 23.7765 20.031 23.7958L19.9453 23.8484C19.9331 23.8554 19.9191 23.8624 19.9069 23.8694C19.8947 23.8624 19.8824 23.8554 19.8702 23.8484L19.7933 23.8011C19.7583 23.78 19.7251 23.7607 19.6902 23.738C19.6797 23.7309 19.5993 23.6731 19.5993 23.6731C19.5731 23.6556 19.5469 23.6363 19.5224 23.617C19.5102 23.6083 19.4997 23.5977 19.4875 23.589L19.4263 23.5381C19.4053 23.5206 19.3826 23.5031 19.3634 23.4856C19.3511 23.475 19.2725 23.3997 19.2725 23.3997C19.2515 23.3804 19.2305 23.3611 19.2113 23.3418C19.1991 23.3296 19.1239 23.2472 19.1239 23.2472C19.1065 23.2279 19.089 23.2104 19.0715 23.1894C19.0593 23.1753 19.0488 23.1613 19.0365 23.1473L18.9911 23.0912C18.9754 23.0719 18.9597 23.0509 18.9439 23.0316C18.9334 23.0158 18.874 22.93 18.874 22.93C18.8583 22.9072 18.8426 22.8844 18.8286 22.8616C18.8181 22.8458 18.8093 22.8283 18.7989 22.8125L18.7657 22.7564C18.7517 22.7337 18.7377 22.7091 18.7237 22.6846C18.7132 22.6653 18.7045 22.6478 18.6957 22.6285L18.6713 22.5812C18.6573 22.5549 18.6451 22.5286 18.6328 22.5023C18.6241 22.483 18.5856 22.3884 18.5856 22.3884C18.5752 22.3638 18.5647 22.3375 18.5542 22.313C18.5454 22.292 18.5385 22.2692 18.5315 22.2464L18.5157 22.1991C18.507 22.1728 18.4983 22.1465 18.4895 22.1167C18.4825 22.0957 18.4598 22.0028 18.4598 22.0028C18.4528 21.973 18.4441 21.9449 18.4388 21.9186C18.4336 21.8941 18.4284 21.8678 18.4231 21.8415L18.4161 21.8065C18.4091 21.7749 18.4039 21.7434 18.3986 21.7118C18.3951 21.6873 18.3812 21.5646 18.3794 21.5488C18.3986 21.5401 18.4179 21.533 18.4388 21.526C18.472 21.5138 18.5053 21.4997 18.5367 21.4892L18.5402 21.491ZM18.535 20.2939C18.5402 20.2799 18.5752 20.1835 18.5752 20.1835C18.5926 20.1414 18.6101 20.0993 18.6293 20.0573L18.6521 20.0047C18.68 19.9468 18.7097 19.889 18.7429 19.8277C18.7429 19.8259 18.7534 19.8101 18.7552 19.8066C18.7831 19.7593 18.8111 19.7102 18.8408 19.6647L18.8793 19.6086C18.902 19.5735 18.9264 19.5385 18.9509 19.5052L18.9998 19.4438C19.0226 19.414 19.047 19.3825 19.0733 19.3527C19.0907 19.3316 19.1082 19.3124 19.1257 19.2931C19.1501 19.265 19.1764 19.237 19.2026 19.209C19.2218 19.1897 19.241 19.1704 19.2603 19.1511C19.2865 19.1248 19.3144 19.1003 19.3424 19.074C19.3634 19.0565 19.3826 19.0372 19.4036 19.0197C19.4315 18.9951 19.4612 18.9706 19.5014 18.939L19.5556 18.8952C19.5871 18.8724 19.6203 18.8497 19.6517 18.8269L19.7164 18.7831C19.7531 18.7603 19.7898 18.7375 19.8283 18.7147L19.8597 18.6954C19.8597 18.6954 19.9052 18.6691 19.9139 18.6656L19.9401 18.6796L19.996 18.7129C20.0345 18.7357 20.0712 18.7568 20.1079 18.7813L20.1726 18.8251C20.2058 18.8479 20.239 18.8707 20.2704 18.8935L20.3333 18.9425C20.3648 18.9671 20.3945 18.9916 20.4242 19.0179C20.4434 19.0354 20.4644 19.053 20.4836 19.0705C20.5134 19.0968 20.5413 19.1231 20.5693 19.1511C20.5868 19.1686 20.606 19.1879 20.6235 19.2055C20.6514 19.2352 20.6776 19.2633 20.7056 19.2948L20.7545 19.3492C20.7825 19.3825 20.8087 19.4158 20.8349 19.4491L20.8751 19.4999C20.9048 19.5402 20.9328 19.5805 20.959 19.6191L20.9852 19.6577C21.0569 19.7698 21.1215 19.8873 21.1775 20.0047C21.1775 20.0082 21.1845 20.0205 21.1862 20.024C21.2107 20.0765 21.2334 20.1309 21.2561 20.1852C21.2561 20.1852 21.2876 20.2693 21.2946 20.2886C21.2509 20.2764 21.2089 20.2658 21.1652 20.2553C21.1425 20.2501 21.0761 20.2343 21.0761 20.2343C21.0114 20.2203 20.9485 20.2062 20.8804 20.1922L20.779 20.1747C20.7178 20.1642 20.6567 20.1554 20.5937 20.1467L20.4906 20.1344C20.426 20.1274 20.3613 20.1221 20.2949 20.1169L20.204 20.1098C20.1079 20.1046 20.0135 20.1011 19.9174 20.1011C19.8213 20.1011 19.7269 20.1046 19.6325 20.1098L19.5399 20.1169C19.4752 20.1221 19.4088 20.1274 19.3459 20.1344C19.3109 20.1379 19.2742 20.1432 19.241 20.1484C19.1799 20.1572 19.1187 20.1659 19.0575 20.1765L18.9544 20.194C18.8897 20.2062 18.8251 20.2203 18.7622 20.2343L18.6748 20.2536C18.6311 20.2641 18.5874 20.2764 18.5437 20.2886L18.535 20.2939ZM21.4064 24.1551C21.4466 24.1148 21.4851 24.0745 21.527 24.0272C21.5497 24.0026 21.5725 23.9763 21.5952 23.95C21.6336 23.9062 21.6703 23.8606 21.707 23.8133C21.707 23.8133 21.7542 23.7537 21.7699 23.7344C21.8119 23.6784 21.8503 23.6223 21.8905 23.5627L21.929 23.5084C21.9797 23.4312 22.0269 23.3524 22.0705 23.2717C22.0793 23.2577 22.102 23.2104 22.102 23.2104C22.1352 23.149 22.1667 23.0877 22.1964 23.0246C22.2069 23.0018 22.2174 22.9808 22.2261 22.958L22.2383 22.9317C22.2628 22.8774 22.2855 22.823 22.3065 22.7687C22.3187 22.7389 22.3292 22.7091 22.3449 22.6635C22.3642 22.611 22.3816 22.5584 22.3991 22.504C22.4113 22.4672 22.4218 22.4322 22.4323 22.3936C22.448 22.3393 22.462 22.2867 22.4743 22.2324C22.483 22.1956 22.4917 22.1588 22.5005 22.1202C22.5127 22.0641 22.5232 22.0063 22.5319 21.9502L22.5354 21.9309C22.5407 21.9011 22.5459 21.8713 22.5494 21.8415C22.5582 21.7784 22.5651 21.7136 22.5704 21.6522C22.5704 21.6522 22.5774 21.5821 22.5791 21.5576C22.5861 21.4629 22.5896 21.3665 22.5896 21.2701C22.5896 21.2386 22.5896 21.207 22.5896 21.1895C22.5896 21.1825 22.5896 21.1772 22.5896 21.1702C22.5512 19.5823 21.5899 18.1468 20.1376 17.5123C20.0659 17.4808 19.9873 17.465 19.9086 17.465C19.83 17.465 19.7531 17.4808 19.6814 17.5123C19.5014 17.5912 19.3249 17.6841 19.1589 17.7875C17.9827 18.5219 17.2626 19.7838 17.2294 21.1772C17.2294 21.1808 17.2294 21.2421 17.2294 21.2701C17.2294 21.3665 17.2329 21.4629 17.2399 21.5576C17.2399 21.5804 17.2487 21.6487 17.2487 21.6487C17.2539 21.7136 17.2609 21.7767 17.2696 21.8398C17.2731 21.8696 17.2784 21.8994 17.2836 21.9292L17.2871 21.9484C17.2958 22.0063 17.3063 22.0641 17.3186 22.1202C17.3273 22.157 17.336 22.1956 17.3448 22.2306C17.3588 22.285 17.3727 22.3393 17.3867 22.3936C17.3972 22.4304 17.4077 22.4672 17.4199 22.504C17.4374 22.5584 17.4549 22.611 17.4741 22.6635C17.4741 22.6635 17.5021 22.7407 17.5126 22.7687C17.5335 22.823 17.558 22.8774 17.5807 22.93L17.593 22.9562C17.6034 22.979 17.6122 23.0018 17.6227 23.0246C17.6524 23.0877 17.6838 23.149 17.717 23.2086C17.717 23.2086 17.7415 23.256 17.7502 23.2717C17.7957 23.3524 17.8429 23.4312 17.8936 23.5084C17.9023 23.5224 17.9338 23.5662 17.9338 23.5662C17.9722 23.624 18.0124 23.6801 18.0526 23.7344C18.0666 23.7537 18.1155 23.8151 18.1155 23.8151C18.1522 23.8606 18.1889 23.9062 18.2274 23.9518C18.2483 23.9746 18.3025 24.0342 18.3025 24.0342C18.341 24.0762 18.3777 24.1165 18.4161 24.1551C18.4406 24.1796 18.4651 24.2042 18.4895 24.2287C18.4371 24.2287 18.3829 24.2287 18.3322 24.2235C17.7083 24.1884 17.1228 23.9605 16.6422 23.5662C16.4674 23.4225 16.3084 23.2577 16.1686 23.0772C15.7666 22.5549 15.5534 21.9309 15.5534 21.2684V21.1527C15.5639 21.0475 15.5726 20.9424 15.5831 20.8372C15.8994 17.8857 17.4724 15.2478 19.9104 13.5635C22.3484 15.2478 23.9214 17.8857 24.2377 20.846C24.2482 20.9476 24.2569 21.0493 24.2639 21.1369C24.2656 21.1808 24.2674 21.2246 24.2674 21.2684C24.2674 21.9292 24.0542 22.5549 23.6522 23.0754C23.6505 23.0789 23.647 23.0824 23.6435 23.0877L23.626 23.1087C23.065 23.8151 22.2296 24.2199 21.333 24.2252C21.3575 24.2024 21.382 24.1779 21.4064 24.1533V24.1551ZM12.1664 9.32019C12.3044 9.32019 12.4425 9.33421 12.5771 9.36225C12.8619 9.41834 13.1276 9.53402 13.3618 9.70052L13.2919 9.76012C13.2027 9.83724 13.1136 9.91435 13.028 9.99323L12.9755 10.0405C12.8759 10.1317 12.7798 10.2263 12.6837 10.3227L12.647 10.3595C12.6243 10.3297 12.5998 10.2982 12.5753 10.2684L12.5718 10.2649C12.5177 10.2 12.4617 10.1369 12.4006 10.0756L12.3551 10.03C12.2957 9.97044 12.2345 9.9126 12.1699 9.85827C12.1681 9.85651 12.1646 9.85476 12.1629 9.85126C12.1 9.79868 12.0353 9.7496 11.9706 9.70228L11.9112 9.66021C11.8605 9.62516 11.8098 9.59361 11.7522 9.5568C11.7347 9.54629 11.7155 9.53402 11.698 9.52525C11.6333 9.48845 11.5687 9.45339 11.5075 9.4236C11.719 9.35349 11.9409 9.31668 12.1646 9.31668L12.1664 9.32019ZM10.188 12.0264C10.1233 11.8248 10.0919 11.6127 10.0919 11.3989C10.0919 10.9975 10.2089 10.6032 10.4257 10.2684C10.4361 10.2684 10.4449 10.2719 10.4554 10.2737C10.4798 10.2772 10.5043 10.2824 10.5288 10.2877C10.5602 10.2947 10.5899 10.3017 10.6301 10.3122C10.6511 10.3175 10.6721 10.3227 10.6931 10.3297C10.7228 10.3385 10.7525 10.349 10.7822 10.3595C10.7822 10.3595 10.8346 10.3771 10.8503 10.3841C10.8801 10.3963 10.9098 10.4086 10.9377 10.4226C10.9377 10.4226 10.9919 10.4454 11.0041 10.4524C11.0321 10.4665 11.0583 10.4805 11.0933 10.4998L11.1527 10.5313C11.1842 10.5506 11.2156 10.5716 11.2471 10.5927L11.2943 10.6224C11.3415 10.6557 11.3869 10.6908 11.4323 10.7294C11.4795 10.7697 11.5285 10.8152 11.5826 10.8713C11.5826 10.8713 11.5931 10.8818 11.6019 10.8906C11.6473 10.9379 11.6892 10.9888 11.7347 11.0466L11.7504 11.0676C11.7731 11.0992 11.7941 11.1325 11.8168 11.164C11.836 11.1938 11.8518 11.2254 11.8658 11.2552L11.8413 11.285C11.7906 11.3516 11.7399 11.4182 11.691 11.4848L11.6246 11.5759C11.5547 11.6741 11.4848 11.7722 11.4184 11.8721L11.3974 11.9037C11.338 11.9948 11.2785 12.086 11.2226 12.1789L11.1597 12.284C11.1195 12.3524 11.0775 12.4207 11.0374 12.4908L10.9692 12.6153C10.9342 12.6801 10.8975 12.745 10.8643 12.8116C10.8416 12.8554 10.7927 12.95 10.7909 12.9553C10.5113 12.7064 10.3016 12.3822 10.1897 12.0264H10.188ZM28.3762 20.846C27.4063 23.9027 25.3702 26.523 22.6403 28.2249C22.3449 28.4089 22.0426 28.5824 21.7385 28.7402C21.4187 28.9067 21.0848 29.0627 20.751 29.2046C20.7388 29.2082 20.7301 29.2134 20.7231 29.2152C20.4627 29.3256 20.1918 29.429 19.9121 29.5254C19.6343 29.429 19.3634 29.3256 19.0995 29.2152C18.7552 29.0714 18.4144 28.9119 18.0841 28.7402C17.7782 28.5807 17.4741 28.4072 17.1805 28.2231C14.4087 26.495 12.3569 23.8256 11.4044 20.7093C11.102 19.7225 10.915 18.7007 10.8469 17.6841C10.8469 17.6438 10.8469 17.6035 10.8469 17.5527C10.8469 16.7078 10.9622 15.8736 11.1877 15.0726C11.289 14.7133 11.4131 14.3592 11.5582 14.0157C11.6019 13.9123 11.6473 13.8089 11.6962 13.7072L11.7609 13.574C11.7889 13.5179 11.8151 13.4601 11.8448 13.404C11.857 13.3795 11.9234 13.255 11.9234 13.255C11.9496 13.2059 11.9759 13.1569 12.0038 13.106C12.0196 13.078 12.0965 12.9465 12.0965 12.9465C12.1209 12.9027 12.1471 12.8589 12.1734 12.8151C12.1908 12.787 12.2765 12.6521 12.2765 12.6521C12.3027 12.6118 12.3272 12.5715 12.3551 12.5294C12.3743 12.5013 12.4582 12.3787 12.4582 12.3787C12.4862 12.3366 12.5159 12.2945 12.5456 12.2525C12.5666 12.2244 12.6557 12.1017 12.6557 12.1017C12.6854 12.0614 12.7151 12.0211 12.7466 11.9808C12.7693 11.951 12.792 11.923 12.8165 11.8932L12.8462 11.8546C12.8602 11.8546 13.0105 11.8336 13.042 11.8301C13.1066 11.8231 13.1713 11.8178 13.2342 11.8125L13.3233 11.8038C13.353 11.8003 13.3828 11.7985 13.4142 11.7968C13.4911 11.7915 13.5698 11.788 13.6467 11.7827L13.7882 11.7757C13.9123 11.7705 14.0381 11.7687 14.1622 11.7687C14.3615 11.7687 14.5677 11.7757 14.7739 11.7862C14.8788 11.7933 14.9819 11.8003 15.085 11.809L15.1881 11.8195C15.2563 11.8266 15.3262 11.8336 15.3961 11.8423L15.5377 11.8616C15.5936 11.8686 15.6478 11.8756 15.7037 11.8844L15.8557 11.9089C15.9064 11.9177 15.9589 11.9265 16.0095 11.9352L16.1441 11.9615C16.2018 11.9738 16.2595 11.9843 16.3154 11.9966C16.3608 12.0071 16.4063 12.0176 16.4517 12.0281C16.5076 12.0404 16.5636 12.0544 16.6177 12.0684L16.7278 12.0965C16.7278 12.0965 16.8624 12.1333 16.9183 12.1473C16.9638 12.1596 17.0092 12.1736 17.0547 12.1876C17.1088 12.2034 17.163 12.2209 17.2172 12.2367C17.2626 12.2507 17.3081 12.2665 17.3518 12.2805C17.406 12.298 17.4601 12.3173 17.5126 12.3348C17.5563 12.3506 17.6017 12.3664 17.6454 12.3822C17.6996 12.4014 17.752 12.4225 17.8044 12.4418L17.9355 12.4926C17.9897 12.5136 18.0421 12.5364 18.0963 12.5592C18.0963 12.5592 18.1854 12.596 18.2221 12.6118C18.2763 12.6363 18.3305 12.6608 18.3847 12.6854L18.5052 12.7415C18.5524 12.7643 18.5996 12.787 18.6468 12.8116L18.7831 12.8799C18.8059 12.8922 18.8286 12.9045 18.853 12.9167L18.8111 12.9483C18.7377 13.0044 18.666 13.0622 18.5856 13.1253L18.5647 13.1411C18.4825 13.2077 18.4021 13.2743 18.3217 13.3426L18.2676 13.3917C18.2081 13.4443 18.147 13.4951 18.0893 13.5495L17.9774 13.6529C17.939 13.6879 17.9005 13.7247 17.8604 13.7615L17.7345 13.8842C17.7031 13.9158 17.6699 13.9473 17.6384 13.9806L17.5388 14.084C17.5003 14.1244 17.4619 14.1629 17.4234 14.2032C17.4234 14.2032 17.2556 14.3873 17.2155 14.4311L17.156 14.4994C17.156 14.4994 17.0407 14.6326 17.0127 14.6659C16.983 14.701 16.955 14.7343 16.9253 14.7729C16.8886 14.8167 16.8519 14.8622 16.8187 14.9061C16.7943 14.9376 16.7331 15.0147 16.7331 15.0147C16.6981 15.0603 16.6632 15.1041 16.63 15.1497L16.5478 15.2619C16.5146 15.3074 16.4814 15.353 16.4482 15.4003C16.422 15.4389 16.394 15.4774 16.3696 15.5143C16.3381 15.5616 16.3049 15.6071 16.2752 15.6527C16.249 15.6913 16.2228 15.7316 16.1983 15.7701C16.1686 15.8175 16.1371 15.8648 16.1092 15.9104L16.0462 16.012C16.0462 16.012 15.9781 16.1259 15.9484 16.175C15.9239 16.2153 15.9012 16.2556 15.8785 16.296C15.8505 16.345 15.8225 16.3924 15.7963 16.4414C15.7736 16.4835 15.7509 16.5238 15.7282 16.5659C15.7019 16.615 15.6757 16.664 15.6513 16.7114C15.6303 16.7534 15.6076 16.7955 15.5866 16.8393C15.5621 16.8884 15.5377 16.9375 15.5132 16.9883L15.452 17.1162C15.4276 17.1671 15.4048 17.2179 15.3821 17.2687L15.3244 17.4002C15.3017 17.451 15.2808 17.5018 15.2598 17.5527C15.2406 17.5965 15.2231 17.6403 15.2056 17.6841C15.1864 17.7314 15.1672 17.7805 15.1497 17.8296C15.1497 17.8296 15.1095 17.933 15.0955 17.9751C15.0763 18.0276 15.057 18.0802 15.0378 18.1328L14.9906 18.266C14.9767 18.3098 14.9609 18.3536 14.9469 18.3975C14.9469 18.3975 14.905 18.5289 14.8945 18.5622C14.877 18.6165 14.8613 18.6709 14.8456 18.7252L14.8054 18.8602C14.7897 18.9163 14.7355 19.1231 14.725 19.1616C14.7145 19.2055 14.6603 19.4351 14.6533 19.4649C14.6428 19.5122 14.6341 19.5595 14.6236 19.6068L14.5904 19.7733C14.5799 19.8294 14.5694 19.8838 14.5607 19.9398L14.5362 20.0818C14.5258 20.1502 14.5153 20.2185 14.5048 20.2921L14.489 20.3938C14.4751 20.499 14.4628 20.6024 14.4506 20.7075C14.4436 20.7654 14.4384 20.825 14.4331 20.8828C14.4279 20.9424 14.4226 21.002 14.4174 21.0738C14.4139 21.1352 14.4139 21.1983 14.4139 21.2596C14.4139 22.1745 14.7093 23.0421 15.2668 23.766C16.0462 24.7791 17.2259 25.361 18.5035 25.361C18.701 25.361 18.9002 25.3469 19.096 25.3189C19.3739 25.2786 19.6482 25.2085 19.9121 25.1121C20.052 25.1629 20.1953 25.2085 20.3421 25.2435C20.405 25.2593 20.4697 25.2733 20.5326 25.2856C20.7895 25.3364 21.0534 25.361 21.319 25.361C22.5949 25.361 23.7728 24.7808 24.5575 23.7625C24.5593 23.759 24.5645 23.7537 24.568 23.7485C24.5872 23.7222 24.6047 23.6959 24.6239 23.6696L24.6501 23.6328C25.1465 22.9352 25.4086 22.1132 25.4086 21.2596V21.165C25.4086 21.1334 25.4051 21.1001 25.4034 21.0563C25.3947 20.9406 25.3842 20.8267 25.3719 20.711C25.3719 20.704 25.3702 20.6953 25.3684 20.6882C25.358 20.5866 25.344 20.4832 25.3317 20.3833L25.3178 20.2921C25.3073 20.2185 25.2968 20.1432 25.2846 20.0695L25.2601 19.9346C25.2496 19.8767 25.2391 19.8189 25.2286 19.7593L25.2007 19.6226C25.1884 19.5648 25.1779 19.5087 25.1657 19.4526L25.1395 19.3369C25.1255 19.2738 25.1098 19.209 25.0941 19.1476L25.0626 19.0284C25.0626 19.0284 25.0276 18.897 25.0137 18.8444C25.0137 18.8444 24.9438 18.6078 24.9263 18.5464L24.8896 18.4308C24.8704 18.3712 24.8511 18.3098 24.8302 18.2502L24.79 18.1346C24.769 18.075 24.748 18.0171 24.727 17.9575L24.6833 17.8418C24.6606 17.784 24.6379 17.7262 24.6152 17.6666L24.568 17.5527C24.5435 17.4966 24.5208 17.4387 24.4946 17.3809L24.4457 17.2687C24.4194 17.2126 24.395 17.1548 24.3688 17.1005L24.3163 16.99C24.2901 16.9339 24.2622 16.8796 24.2342 16.8235L24.1783 16.7131C24.1503 16.6588 24.1206 16.6044 24.0909 16.5484L24.0332 16.4414C24.0035 16.3871 23.972 16.3328 23.9423 16.2784L23.8812 16.1733C23.8497 16.1189 23.8182 16.0664 23.785 16.0138L23.7204 15.9086C23.6872 15.856 23.654 15.8052 23.6208 15.7509L23.5543 15.6492C23.5194 15.5984 23.4844 15.5458 23.4477 15.4932L23.3796 15.3951C23.3429 15.3442 23.3062 15.2934 23.2695 15.2426L23.1978 15.1444C23.1611 15.0954 23.1227 15.0445 23.0842 14.9955L23.0108 14.9008C22.9724 14.8517 22.9322 14.8027 22.892 14.7553L22.8151 14.6624C22.7749 14.6134 22.7329 14.566 22.691 14.517L22.6141 14.4276C22.5774 14.3855 22.5389 14.3452 22.5022 14.3031L22.4061 14.198C22.3659 14.1542 22.324 14.1103 22.282 14.0683L22.1911 13.9754C22.1527 13.9368 22.1142 13.8983 22.074 13.8597L21.9692 13.7563C21.9167 13.7055 21.8626 13.6564 21.8084 13.6073L21.742 13.546C21.6773 13.4881 21.6109 13.4303 21.5358 13.3637L21.5078 13.3391C21.4274 13.2708 21.347 13.2042 21.2649 13.1376L21.2491 13.1253C21.174 13.064 21.0971 13.0044 21.0202 12.9448L20.98 12.915C21.0027 12.9027 21.0272 12.8905 21.0499 12.8782L21.1652 12.8221C21.2194 12.7941 21.2753 12.7678 21.3295 12.7415L21.4466 12.6871C21.5025 12.6608 21.5567 12.6363 21.6127 12.6118L21.7367 12.5592C21.7909 12.5364 21.8468 12.5136 21.901 12.4908L22.0286 12.4418C22.0828 12.4207 22.137 12.3997 22.1929 12.3804C22.2366 12.3646 22.2785 12.3489 22.3222 12.3348C22.3764 12.3156 22.4323 12.2963 22.4865 12.2788C22.5302 12.2647 22.5739 12.2507 22.6193 12.2367C22.6735 12.2192 22.7294 12.2016 22.7854 12.1859C22.829 12.1718 22.8745 12.1596 22.9182 12.1473C22.9741 12.1315 23.03 12.1158 23.086 12.1017C23.1314 12.0895 23.1751 12.0789 23.2205 12.0667C23.2765 12.0527 23.3324 12.0386 23.3901 12.0264C23.4355 12.0158 23.4792 12.0053 23.5246 11.9966C23.5736 11.9861 23.6225 11.9755 23.6714 11.9668L23.8305 11.9352C23.8899 11.9247 23.9493 11.9142 24.007 11.9054L24.1381 11.8844C24.1992 11.8756 24.2604 11.8669 24.3251 11.8581L24.4474 11.8423C24.5173 11.8336 24.5872 11.8266 24.6589 11.8195L24.7602 11.809C24.8634 11.8003 24.9682 11.7915 25.0731 11.7862C25.2671 11.774 25.4698 11.7687 25.676 11.7687C25.8019 11.7687 25.9277 11.7705 26.0535 11.7757L26.1969 11.7827C26.2755 11.7862 26.3524 11.7898 26.4293 11.7968C26.4608 11.7985 26.494 11.802 26.5254 11.8055L26.6111 11.8125C26.6757 11.8178 26.7386 11.8231 26.8033 11.8301C26.8418 11.8336 26.9886 11.8528 27.0025 11.8546L27.0078 11.8616C27.0078 11.8616 27.0829 11.9545 27.1057 11.9843C27.1354 12.0246 27.1651 12.0649 27.1948 12.1035L27.2402 12.1648C27.2629 12.1946 27.2839 12.2244 27.3066 12.256C27.3329 12.2928 27.3591 12.3313 27.3853 12.3681L27.4412 12.4488C27.4604 12.4768 27.4797 12.5049 27.4989 12.5329C27.5251 12.5732 27.5513 12.6135 27.5758 12.6538L27.6265 12.7327C27.6439 12.7608 27.6632 12.7888 27.6789 12.8151C27.7051 12.8589 27.7296 12.9027 27.7558 12.9465C27.7558 12.9465 27.8327 13.0797 27.8484 13.106C27.8729 13.1481 27.8956 13.1919 27.9183 13.2357C27.9183 13.2357 27.9935 13.3777 28.0075 13.4022C28.0337 13.4531 28.0581 13.5039 28.0809 13.553L28.1543 13.7037C28.198 13.7966 28.2399 13.8912 28.2784 13.9859L28.2906 14.0122C28.4356 14.354 28.5597 14.708 28.6611 15.0691C28.8831 15.856 28.9967 16.6745 29.0019 17.5018C28.939 18.6411 28.7328 19.7646 28.3902 20.8425L28.3762 20.846ZM29.0403 12.9535C29.0403 12.9535 28.9914 12.8554 28.9687 12.8133C28.9337 12.7467 28.8988 12.6819 28.8638 12.617L28.7957 12.4943C28.7555 12.4242 28.7153 12.3559 28.6751 12.2875L28.6122 12.1806C28.5562 12.0912 28.5003 12.0018 28.4426 11.9142L28.4164 11.8739C28.35 11.774 28.2801 11.6741 28.2102 11.5759L28.1455 11.4883C28.0948 11.4199 28.0442 11.3516 27.9935 11.285L27.9603 11.2429L27.9708 11.2254C28.004 11.171 28.0407 11.1185 28.0809 11.0659L28.1018 11.0396C28.142 10.9888 28.184 10.9397 28.2347 10.8854L28.2469 10.8731C28.2993 10.8188 28.3483 10.7732 28.3937 10.7329C28.4374 10.6961 28.4828 10.661 28.5283 10.6277L28.5825 10.5927C28.6122 10.5734 28.6419 10.5523 28.6716 10.5348L28.738 10.498C28.7642 10.4822 28.7922 10.4682 28.8201 10.4542C28.8341 10.4472 28.897 10.4191 28.897 10.4191C28.9233 10.4069 28.9495 10.3963 28.9757 10.3858C28.9949 10.3788 29.0141 10.3718 29.0473 10.3595C29.0771 10.349 29.1085 10.3385 29.1365 10.3297C29.1574 10.3227 29.1784 10.3175 29.2099 10.3105C29.2396 10.3017 29.271 10.2947 29.3025 10.2877C29.327 10.2824 29.3514 10.2772 29.3777 10.2737C29.3864 10.2737 29.3969 10.2702 29.4056 10.2684C29.6206 10.6032 29.7377 10.9975 29.7377 11.3971C29.7377 11.6127 29.7045 11.8248 29.6416 12.0281C29.5297 12.3839 29.32 12.7064 29.0421 12.9535H29.0403Z" fill="white"/>
<defs>
<linearGradient id="paint0_linear_892_1444" x1="19.9158" y1="0.00390625" x2="19.9158" y2="38.0039" gradientUnits="userSpaceOnUse">
<stop stop-color="#24EA5B"/>
<stop offset="1" stop-color="#068E55"/>
</linearGradient>
</defs>
</svg>
