<svg
        width="586"
        height="130"
        viewBox="0 0 586 130"
        fill="none"
        xmlns="http://www.w3.org/2000/svg"
      >
        <g filter="url(#filter0_d_2218_4478)">
          <path
            d="M109.183 64.9302C109.183 64.9302 100.334 77.2525 87.9311 77.7533C75.528 78.254 73.7905 68.094 73.7905 68.094C73.7905 68.094 72.0529 72.7572 72.8807 78.254C73.7085 83.7508 75.4433 95.5724 90.0785 98.3208C104.714 101.069 125.138 93.5751 137.374 67.4282L109.183 64.9302Z"
            fill="url(#paint0_linear_2218_4478)"
          />
          <path
            d="M97.0614 95.5255C89.2752 95.5255 83.3523 93.6602 79.8363 90.0755C77.2245 87.4124 76.0279 83.8827 76.2847 79.5881L77.6234 79.6679C77.3912 83.5635 78.4566 86.7466 80.7925 89.1264C84.3468 92.7496 90.9909 94.5213 99.4983 94.1142C112.142 93.5089 123.813 80.3695 123.93 80.2374L124.936 81.1315C124.813 81.2718 121.879 84.5925 117.286 88.0424C113.022 91.2447 106.487 95.1321 99.5638 95.4622C98.7087 95.5063 97.8755 95.5255 97.0614 95.5255Z"
            fill="white"
          />
          <path
            d="M476.859 64.9302C476.859 64.9302 485.708 77.2525 498.111 77.7533C510.515 78.254 512.252 68.094 512.252 68.094C512.252 68.094 513.99 72.7572 513.162 78.254C512.334 83.7508 510.599 95.5724 495.964 98.3208C481.329 101.069 460.905 93.5751 448.668 67.4282L476.859 64.9302Z"
            fill="url(#paint1_linear_2218_4478)"
          />
          <path
            d="M488.981 95.5255C496.767 95.5255 502.69 93.6602 506.206 90.0755C508.818 87.4124 510.015 83.8827 509.758 79.5881L508.419 79.6679C508.651 83.5635 507.586 86.7466 505.25 89.1264C501.696 92.7496 495.052 94.5213 486.544 94.1142C473.901 93.5089 462.23 80.3695 462.112 80.2374L461.107 81.1315C461.23 81.2718 464.164 84.5925 468.756 88.0424C473.021 91.2447 479.556 95.1321 486.479 95.4622C487.334 95.5063 488.167 95.5255 488.981 95.5255Z"
            fill="white"
          />
          <g filter="url(#filter1_b_2218_4478)">
            <path
              d="M82.2999 36.5H503.743C506.228 36.5 508.243 38.5147 508.243 41V79C508.243 81.4853 506.228 83.5 503.743 83.5H82.2999C79.8146 83.5 77.7999 81.4853 77.7999 79V41C77.7999 38.5147 79.8146 36.5 82.2999 36.5Z"
              fill="url(#paint2_linear_2218_4478)"
              fill-opacity="0.1"
              stroke="url(#paint3_linear_2218_4478)"
            />
          </g>
          <path
            d="M67.0534 38.244C67.0534 38.244 66.2065 29.2093 35.633 31.5835C35.633 31.5835 43.3235 37.7048 44.8725 41.3253C46.4215 44.9486 40.4686 54.5033 40.4686 54.5033L62.9172 51.6916C62.9199 51.6916 68.892 43.5922 67.0534 38.244Z"
            fill="url(#paint4_linear_2218_4478)"
          />
          <path
            d="M64.3241 40.8302C65.0263 41.7711 65.1574 42.8385 64.7285 44.0958L65.9961 44.536C66.5726 42.8468 66.3704 41.3254 65.3978 40.0186C61.207 34.398 43.1732 34.7089 39.3976 34.8382C39.8512 35.2591 40.3183 35.7021 40.78 36.1588C42.8836 36.123 46.4051 36.1312 50.1124 36.4311C57.7182 37.0419 62.6331 38.5633 64.3241 40.8302Z"
            fill="white"
          />
          <path
            d="M30.3822 59.3509C30.3822 59.3509 29.3085 51.7357 37.9907 50.2144C46.6729 48.693 67.9249 49.2762 67.0561 38.2441C67.0561 38.2441 68.9576 43.8235 68.586 51.026C68.2145 58.2285 63.6248 67.2632 53.1231 68.7213C42.6187 70.1767 31.4968 67.4283 30.3822 59.3509Z"
            fill="url(#paint5_linear_2218_4478)"
          />
          <path
            d="M33.2917 63.0566C33.3026 63.0621 33.3135 63.0704 33.3245 63.0759C33.3873 63.1144 33.4556 63.1474 33.5184 63.1859C34.0102 63.4528 34.5539 63.6756 35.1467 63.8572C36.4444 64.2396 38.0836 64.4075 40.1571 64.1819C44.6239 63.6922 49.1071 61.1776 53.1586 58.531C50.1671 60.2587 43.0257 63.86 36.9116 62.8806C33.8108 62.3826 31.9421 60.8392 31.6498 58.5338C31.352 56.1815 32.8682 53.5707 35.103 52.5913C38.6873 51.0176 42.4656 50.5885 46.1238 50.1758C48.088 49.9529 50.1206 49.7218 52.0439 49.3147C52.8034 49.1551 53.6449 49.0093 54.5382 48.858C59.9748 47.9336 67.4222 46.6681 67.2064 39.0804C67.1627 37.5068 66.3267 36.1009 64.7257 34.9042C58.3165 30.1144 40.5942 30.5821 35.633 31.5808C42.0477 31.1846 57.7565 31.3745 63.928 35.9854C65.182 36.9208 65.8322 37.9745 65.865 39.1162C66.048 45.5264 59.5432 46.6351 54.3169 47.5237C53.4099 47.6777 52.5521 47.8236 51.768 47.9914C49.9075 48.3848 47.9979 48.6021 45.9762 48.8332C42.2225 49.2597 38.3404 49.6998 34.5703 51.3533C31.77 52.5775 29.945 55.7386 30.3193 58.7016C30.4095 59.4224 30.6226 60.0882 30.9449 60.6907C31.3684 61.428 32.0924 62.3386 33.2917 63.0566Z"
            fill="#F3BA2F"
          />
          <path
            d="M77.9048 91.6053C77.9048 91.6053 75.3231 88.912 76.129 83.9159C76.9349 78.9198 80.0357 77.0463 84.314 75.4231C88.5922 73.7999 90.0812 66.4929 86.1744 62.6826C83.9971 60.5587 80.1614 56.3769 77.1917 53.0921C74.9378 50.5968 70.818 51.5707 69.9301 54.8225C69.5996 56.0358 69.3127 57.4416 69.1187 59.0565C68.1899 66.7432 73.4189 86.7413 77.9048 91.6053Z"
            fill="url(#paint6_linear_2218_4478)"
          />
          <path
            d="M89.0594 67.1586C89.0594 67.1586 87.7672 62.6824 80.9045 64.4322C74.0418 66.1819 67.8812 75.2579 60.5212 78.0036C53.1613 80.7519 41.2964 82.8318 36.5018 76.672C31.7071 70.5094 30.3821 59.3536 30.3821 59.3536C30.3821 59.3536 31.6006 65.12 40.1599 64.1818C48.7191 63.2464 57.3385 54.8774 62.8571 52.3794C68.3756 49.8814 72.0092 48.9982 75.7929 51.5128L87.0541 63.1281C87.0541 63.1281 88.7179 64.8531 89.0594 67.1586Z"
            fill="url(#paint7_linear_2218_4478)"
          />
          <path
            d="M76.506 52.25C74.6838 51.6833 72.0119 51.3312 68.8101 52.3518C64.0264 53.8732 60.7917 56.1924 56.314 59.403C55.2813 60.1431 54.2131 60.9106 53.0275 61.7387C46.7685 66.1103 42.4247 66.8394 37.8295 66.5835C34.4036 66.3937 32.0487 64.9493 30.8794 62.3632C31.0652 63.3151 31.3138 64.4404 31.6307 65.6564C33.1415 67.0099 35.2041 67.7913 37.7558 67.9343C38.3076 67.9646 38.8567 67.9811 39.4031 67.9811C43.6923 67.9811 47.9624 66.9219 53.7897 62.8502C54.9836 62.0166 56.0545 61.249 57.0899 60.5062C61.6304 57.2516 64.6302 55.1002 69.2117 53.6421C74.5472 51.9447 78.1835 54.4592 78.3364 54.5665L78.5086 54.3217L76.506 52.25Z"
            fill="white"
          />
          <path
            d="M85.7264 61.7608L84.0626 60.0441C82.9398 59.912 81.6639 59.912 80.2351 60.1266C76.7792 60.6493 73.0009 63.9535 69.0012 67.4502C65.1246 70.8396 61.114 74.3445 56.9177 75.9099C50.2244 78.4052 40.8264 78.6363 34.6003 73.6705C35.1112 74.6444 35.6767 75.5715 36.305 76.4134C39.6189 78.2209 43.4546 78.9829 47.2384 78.9829C50.8255 78.9829 54.3661 78.3007 57.3822 77.1754C61.808 75.5275 65.9114 71.94 69.8809 68.4708C73.7303 65.1062 77.3638 61.9286 80.4345 61.4637C82.601 61.1363 84.3604 61.3481 85.7264 61.7608Z"
            fill="white"
          />
          <path
            d="M125.818 83.8526C124.755 85.0081 121.471 88.3865 116.707 91.5641C111.358 95.1351 102.984 99.182 93.477 98.1806C86.5214 97.4515 81.6066 95.3359 78.8637 91.897C76.3066 88.6919 76.6453 85.4208 76.648 85.3905L76.6562 85.308L76.648 85.2282C76.6207 84.9998 76.0798 79.6214 82.713 76.8069C88.0103 74.5593 90.1057 71.1341 88.9337 66.6277C88.6769 65.6345 87.6497 64.3195 85.934 63.618C84.2539 62.9302 81.4208 62.6193 77.4594 65.0265C76.5388 65.5878 75.67 66.237 74.8176 66.9386C74.304 67.3678 73.8232 67.7859 73.367 68.1904C73.3506 68.2069 73.3314 68.2206 73.315 68.2371C73.2331 68.3114 73.1539 68.3829 73.0719 68.4572C72.7495 68.7488 72.4272 69.046 72.1048 69.3486C68.0697 73.1259 66.4715 75.2415 60.065 78.0119C53.4864 80.8566 43.5256 80.4082 43.4136 80.3944C48.0143 81.4261 53.4345 80.4742 53.735 80.4164C63.6849 78.4769 68.3292 74.6913 72.6758 70.6581C74.5116 68.9552 76.2437 67.3458 78.1561 66.1848C81.6421 64.0636 84.0353 64.3002 85.4313 64.8697C86.7946 65.4282 87.4994 66.4296 87.6388 66.9689C88.0021 68.3692 89.1086 72.628 82.1939 75.5607C78.2463 77.2361 76.5852 79.8002 75.8858 81.6545C75.2083 83.4537 75.2793 84.9421 75.3094 85.308C75.2602 85.8885 75.0963 89.3026 77.7927 92.7086C80.7624 96.4584 85.9914 98.7501 93.3377 99.5204C94.384 99.6304 95.4167 99.6827 96.4357 99.6827C105.055 99.6827 112.527 95.9769 117.48 92.6645C122.786 89.1183 126.676 84.9201 127.591 83.8966L125.818 83.8526Z"
            fill="#F3BA2F"
          />
          <path
            d="M518.989 38.244C518.989 38.244 519.836 29.2093 550.41 31.5835C550.41 31.5835 542.719 37.7048 541.17 41.3253C539.621 44.9486 545.574 54.5033 545.574 54.5033L523.125 51.6916C523.123 51.6916 517.151 43.5922 518.989 38.244Z"
            fill="url(#paint8_linear_2218_4478)"
          />
          <path
            d="M521.718 40.8302C521.016 41.7711 520.885 42.8385 521.314 44.0958L520.046 44.536C519.47 42.8468 519.672 41.3254 520.645 40.0186C524.836 34.398 542.869 34.7089 546.645 34.8382C546.191 35.2591 545.724 35.7021 545.263 36.1588C543.159 36.123 539.637 36.1312 535.93 36.4311C528.324 37.0419 523.409 38.5633 521.718 40.8302Z"
            fill="white"
          />
          <path
            d="M555.66 59.3509C555.66 59.3509 556.734 51.7358 548.052 50.2144C539.37 48.693 518.118 49.2762 518.986 38.2441C518.986 38.2441 517.085 43.8235 517.457 51.026C517.828 58.2285 522.418 67.2632 532.919 68.7213C543.424 70.1767 554.546 67.4283 555.66 59.3509Z"
            fill="url(#paint9_linear_2218_4478)"
          />
          <path
            d="M552.751 63.0566C552.74 63.0621 552.729 63.0704 552.718 63.0759C552.655 63.1144 552.587 63.1474 552.524 63.1859C552.032 63.4528 551.489 63.6756 550.896 63.8572C549.598 64.2396 547.959 64.4075 545.885 64.1819C541.419 63.6922 536.935 61.1776 532.884 58.531C535.875 60.2587 543.017 63.86 549.131 62.8806C552.232 62.3826 554.1 60.8392 554.393 58.5338C554.691 56.1815 553.174 53.5707 550.94 52.5913C547.355 51.0176 543.577 50.5885 539.919 50.1758C537.955 49.9529 535.922 49.7218 533.999 49.3147C533.239 49.1551 532.398 49.0093 531.504 48.858C526.068 47.9336 518.62 46.6681 518.836 39.0804C518.88 37.5068 519.716 36.1009 521.317 34.9042C527.726 30.1144 545.448 30.5821 550.41 31.5808C543.995 31.1846 528.286 31.3745 522.115 35.9854C520.861 36.9208 520.21 37.9745 520.178 39.1162C519.995 45.5264 526.499 46.6351 531.726 47.5237C532.633 47.6777 533.49 47.8236 534.275 47.9914C536.135 48.3848 538.045 48.6021 540.066 48.8332C543.82 49.2597 547.702 49.6998 551.472 51.3533C554.273 52.5775 556.098 55.7386 555.723 58.7016C555.633 59.4224 555.42 60.0882 555.098 60.6907C554.674 61.428 553.95 62.3386 552.751 63.0566Z"
            fill="#F3BA2F"
          />
          <path
            d="M508.138 91.6053C508.138 91.6053 510.719 88.912 509.914 83.9159C509.108 78.9198 506.007 77.0463 501.729 75.4231C497.45 73.7999 495.961 66.4929 499.868 62.6826C502.045 60.5587 505.881 56.3769 508.851 53.0921C511.105 50.5968 515.224 51.5707 516.112 54.8225C516.443 56.0358 516.73 57.4416 516.924 59.0565C517.853 66.7432 512.624 86.7413 508.138 91.6053Z"
            fill="url(#paint10_linear_2218_4478)"
          />
          <path
            d="M496.983 67.1586C496.983 67.1586 498.275 62.6824 505.138 64.4322C512.001 66.1819 518.161 75.2579 525.521 78.0036C532.881 80.7519 544.746 82.8318 549.541 76.672C554.335 70.5094 555.66 59.3536 555.66 59.3536C555.66 59.3536 554.442 65.12 545.883 64.1818C537.323 63.2464 528.704 54.8774 523.185 52.3794C517.667 49.8814 514.033 48.9982 510.25 51.5128L498.988 63.1281C498.988 63.1281 497.325 64.8531 496.983 67.1586Z"
            fill="url(#paint11_linear_2218_4478)"
          />
          <path
            d="M509.537 52.25C511.359 51.6833 514.031 51.3312 517.232 52.3518C522.016 53.8732 525.251 56.1924 529.729 59.403C530.761 60.1431 531.829 60.9106 533.015 61.7387C539.274 66.1103 543.618 66.8394 548.213 66.5835C551.639 66.3937 553.994 64.9493 555.163 62.3632C554.977 63.3151 554.729 64.4404 554.412 65.6564C552.901 67.0099 550.838 67.7913 548.287 67.9343C547.735 67.9646 547.186 67.9811 546.639 67.9811C542.35 67.9811 538.08 66.9219 532.253 62.8502C531.059 62.0166 529.988 61.249 528.953 60.5062C524.412 57.2516 521.412 55.1002 516.831 53.6421C511.495 51.9447 507.859 54.4592 507.706 54.5665L507.534 54.3217L509.537 52.25Z"
            fill="white"
          />
          <path
            d="M500.316 61.7608L501.98 60.0441C503.103 59.912 504.379 59.912 505.807 60.1266C509.263 60.6493 513.042 63.9535 517.041 67.4502C520.918 70.8396 524.928 74.3445 529.125 75.9099C535.818 78.4052 545.216 78.6363 551.442 73.6705C550.931 74.6444 550.366 75.5715 549.738 76.4134C546.424 78.2209 542.588 78.983 538.804 78.983C535.217 78.983 531.676 78.3007 528.66 77.1754C524.235 75.5275 520.131 71.94 516.162 68.4708C512.312 65.1062 508.679 61.9286 505.608 61.4637C503.442 61.1363 501.682 61.3481 500.316 61.7608Z"
            fill="white"
          />
          <path
            d="M460.224 83.8526C461.287 85.0081 464.571 88.3865 469.336 91.5641C474.685 95.1351 483.058 99.182 492.566 98.1806C499.521 97.4515 504.436 95.3359 507.179 91.897C509.736 88.6919 509.397 85.4208 509.394 85.3905L509.386 85.308L509.394 85.2282C509.422 84.9998 509.963 79.6214 503.33 76.8069C498.032 74.5593 495.937 71.1341 497.109 66.6277C497.366 65.6345 498.393 64.3195 500.109 63.618C501.789 62.9302 504.622 62.6193 508.583 65.0265C509.504 65.5878 510.373 66.237 511.225 66.9386C511.739 67.3678 512.219 67.7859 512.676 68.1904C512.692 68.2069 512.711 68.2206 512.727 68.2371C512.809 68.3114 512.889 68.3829 512.971 68.4572C513.293 68.7488 513.615 69.046 513.938 69.3486C517.973 73.1259 519.571 75.2415 525.978 78.0119C532.556 80.8566 542.517 80.4082 542.629 80.3944C538.028 81.4261 532.608 80.4742 532.308 80.4164C522.358 78.4769 517.713 74.6913 513.367 70.6581C511.531 68.9552 509.799 67.3458 507.886 66.1848C504.4 64.0636 502.007 64.3002 500.611 64.8697C499.248 65.4282 498.543 66.4296 498.404 66.9689C498.04 68.3692 496.934 72.628 503.849 75.5607C507.796 77.2361 509.457 79.8002 510.157 81.6545C510.834 83.4537 510.763 84.9421 510.733 85.308C510.782 85.8885 510.946 89.3026 508.25 92.7086C505.28 96.4584 500.051 98.7501 492.705 99.5204C491.659 99.6304 490.626 99.6827 489.607 99.6827C480.987 99.6827 473.516 95.9769 468.562 92.6645C463.257 89.1183 459.367 84.9201 458.451 83.8966L460.224 83.8526Z"
            fill="#F3BA2F"
          />
        </g>
        <defs>
          <filter
            id="filter0_d_2218_4478"
            x="0.270752"
            y="0.929199"
            width="585.501"
            height="128.754"
            filterUnits="userSpaceOnUse"
            color-interpolation-filters="sRGB"
          >
            <feFlood flood-opacity="0" result="BackgroundImageFix" />
            <feColorMatrix
              in="SourceAlpha"
              type="matrix"
              values="0 0 0 0 0 0 0 0 0 0 0 0 0 0 0 0 0 0 127 0"
              result="hardAlpha"
            />
            <feOffset />
            <feGaussianBlur stdDeviation="15" />
            <feComposite in2="hardAlpha" operator="out" />
            <feColorMatrix
              type="matrix"
              values="0 0 0 0 0.992157 0 0 0 0 0.956863 0 0 0 0 0.329412 0 0 0 0.2 0"
            />
            <feBlend
              mode="normal"
              in2="BackgroundImageFix"
              result="effect1_dropShadow_2218_4478"
            />
            <feBlend
              mode="normal"
              in="SourceGraphic"
              in2="effect1_dropShadow_2218_4478"
              result="shape"
            />
          </filter>
          <filter
            id="filter1_b_2218_4478"
            x="27.2999"
            y="-14"
            width="531.443"
            height="148"
            filterUnits="userSpaceOnUse"
            color-interpolation-filters="sRGB"
          >
            <feFlood flood-opacity="0" result="BackgroundImageFix" />
            <feGaussianBlur in="BackgroundImageFix" stdDeviation="25" />
            <feComposite
              in2="SourceAlpha"
              operator="in"
              result="effect1_backgroundBlur_2218_4478"
            />
            <feBlend
              mode="normal"
              in="SourceGraphic"
              in2="effect1_backgroundBlur_2218_4478"
              result="shape"
            />
          </filter>
          <linearGradient
            id="paint0_linear_2218_4478"
            x1="72.6572"
            y1="64.9302"
            x2="139.417"
            y2="69.5911"
            gradientUnits="userSpaceOnUse"
          >
            <stop stop-color="#FDF454" />
            <stop offset="1" stop-color="#F3BA2F" />
          </linearGradient>
          <linearGradient
            id="paint1_linear_2218_4478"
            x1="513.385"
            y1="64.9302"
            x2="446.625"
            y2="69.5911"
            gradientUnits="userSpaceOnUse"
          >
            <stop stop-color="#FDF454" />
            <stop offset="1" stop-color="#F3BA2F" />
          </linearGradient>
          <linearGradient
            id="paint2_linear_2218_4478"
            x1="77.2999"
            y1="36"
            x2="480.863"
            y2="168.753"
            gradientUnits="userSpaceOnUse"
          >
            <stop stop-color="#FDF454" />
            <stop offset="1" stop-color="#F3BA2F" />
          </linearGradient>
          <linearGradient
            id="paint3_linear_2218_4478"
            x1="77.2999"
            y1="59.7876"
            x2="502.543"
            y2="67.5138"
            gradientUnits="userSpaceOnUse"
          >
            <stop stop-color="#FCEF00" />
            <stop offset="0.270833" stop-color="#E78C22" />
            <stop offset="0.510417" stop-color="#81954D" />
            <stop offset="0.744792" stop-color="#1A5B78" />
            <stop offset="1" stop-color="#F1BE7E" />
          </linearGradient>
          <linearGradient
            id="paint4_linear_2218_4478"
            x1="35.633"
            y1="31.1859"
            x2="68.486"
            y2="32.8242"
            gradientUnits="userSpaceOnUse"
          >
            <stop stop-color="#FDF454" />
            <stop offset="1" stop-color="#F3BA2F" />
          </linearGradient>
          <linearGradient
            id="paint5_linear_2218_4478"
            x1="30.34"
            y1="38.2441"
            x2="69.9539"
            y2="40.0438"
            gradientUnits="userSpaceOnUse"
          >
            <stop stop-color="#FDF454" />
            <stop offset="1" stop-color="#F3BA2F" />
          </linearGradient>
          <linearGradient
            id="paint6_linear_2218_4478"
            x1="69.0105"
            y1="51.6847"
            x2="89.1441"
            y2="52.0433"
            gradientUnits="userSpaceOnUse"
          >
            <stop stop-color="#FDF454" />
            <stop offset="1" stop-color="#F3BA2F" />
          </linearGradient>
          <linearGradient
            id="paint7_linear_2218_4478"
            x1="30.3821"
            y1="50.0103"
            x2="90.9102"
            y2="54.2477"
            gradientUnits="userSpaceOnUse"
          >
            <stop stop-color="#FDF454" />
            <stop offset="1" stop-color="#F3BA2F" />
          </linearGradient>
          <linearGradient
            id="paint8_linear_2218_4478"
            x1="550.41"
            y1="31.1859"
            x2="517.557"
            y2="32.8242"
            gradientUnits="userSpaceOnUse"
          >
            <stop stop-color="#FDF454" />
            <stop offset="1" stop-color="#F3BA2F" />
          </linearGradient>
          <linearGradient
            id="paint9_linear_2218_4478"
            x1="555.703"
            y1="38.2441"
            x2="516.089"
            y2="40.0438"
            gradientUnits="userSpaceOnUse"
          >
            <stop stop-color="#FDF454" />
            <stop offset="1" stop-color="#F3BA2F" />
          </linearGradient>
          <linearGradient
            id="paint10_linear_2218_4478"
            x1="517.032"
            y1="51.6847"
            x2="496.898"
            y2="52.0433"
            gradientUnits="userSpaceOnUse"
          >
            <stop stop-color="#FDF454" />
            <stop offset="1" stop-color="#F3BA2F" />
          </linearGradient>
          <linearGradient
            id="paint11_linear_2218_4478"
            x1="555.66"
            y1="50.0103"
            x2="495.132"
            y2="54.2477"
            gradientUnits="userSpaceOnUse"
          >
            <stop stop-color="#FDF454" />
            <stop offset="1" stop-color="#F3BA2F" />
          </linearGradient>
        </defs>
      </svg>
