<svg width="384" height="118" viewBox="0 0 384 118" fill="none" xmlns="http://www.w3.org/2000/svg">
<g filter="url(#filter0_d_2218_4684)">
<path d="M95.7191 58.2378C95.7191 58.2378 88.3778 68.4608 78.0878 68.8762C67.7977 69.2916 66.3562 60.8626 66.3562 60.8626C66.3562 60.8626 64.9147 64.7313 65.6015 69.2916C66.2882 73.8519 67.7275 83.6595 79.8693 85.9397C92.011 88.2198 108.956 82.0025 119.107 60.3102L95.7191 58.2378Z" fill="url(#paint0_linear_2218_4684)"/>
<path d="M85.6622 83.6206C79.2026 83.6206 74.2887 82.0731 71.3717 79.0991C69.2049 76.8897 68.2122 73.9613 68.4252 70.3984L69.5358 70.4646C69.3432 73.6966 70.2271 76.3373 72.165 78.3116C75.1137 81.3176 80.6259 82.7875 87.6839 82.4497C98.1734 81.9475 107.856 71.0466 107.953 70.9371L108.788 71.6789C108.686 71.7953 106.251 74.5502 102.441 77.4124C98.9032 80.0691 93.4817 83.2942 87.7383 83.5681C87.0289 83.6046 86.3376 83.6206 85.6622 83.6206Z" fill="white"/>
<path d="M288.281 58.2378C288.281 58.2378 295.622 68.4608 305.912 68.8762C316.202 69.2916 317.644 60.8626 317.644 60.8626C317.644 60.8626 319.085 64.7313 318.399 69.2916C317.712 73.8519 316.273 83.6595 304.131 85.9397C291.989 88.2198 275.044 82.0025 264.893 60.3102L288.281 58.2378Z" fill="url(#paint1_linear_2218_4684)"/>
<path d="M298.338 83.6206C304.797 83.6206 309.711 82.0731 312.628 79.0991C314.795 76.8897 315.788 73.9613 315.575 70.3984L314.464 70.4646C314.657 73.6966 313.773 76.3373 311.835 78.3116C308.886 81.3176 303.374 82.7875 296.316 82.4497C285.827 81.9475 276.144 71.0466 276.047 70.9371L275.212 71.6789C275.314 71.7953 277.749 74.5502 281.559 77.4124C285.097 80.0691 290.518 83.2942 296.262 83.5681C296.971 83.6046 297.662 83.6206 298.338 83.6206Z" fill="white"/>
<g filter="url(#filter1_b_2218_4684)">
<path d="M74.2363 34.7365H307.976C310.461 34.7365 312.476 36.7512 312.476 39.2365V69.0587C312.476 71.544 310.461 73.5587 307.976 73.5587H74.2363C71.751 73.5587 69.7363 71.544 69.7363 69.0587V39.2364C69.7363 36.7512 71.751 34.7365 74.2363 34.7365Z" fill="url(#paint2_linear_2218_4684)" fill-opacity="0.1" stroke="url(#paint3_linear_2218_4684)"/>
<path d="M93.7931 59.1476V48.4976H100.948V50.3126H95.8631V53.0576H100.093V54.7376H95.8631V59.1476H93.7931ZM102.406 59.1476V48.4976H107.116C107.606 48.4976 108.056 48.5976 108.466 48.7976C108.886 48.9976 109.246 49.2676 109.546 49.6076C109.856 49.9476 110.091 50.3276 110.251 50.7476C110.421 51.1676 110.506 51.5976 110.506 52.0376C110.506 52.4876 110.426 52.9226 110.266 53.3426C110.116 53.7526 109.896 54.1126 109.606 54.4226C109.316 54.7326 108.976 54.9726 108.586 55.1426L111.016 59.1476H108.736L106.546 55.5776H104.476V59.1476H102.406ZM104.476 53.7626H107.071C107.331 53.7626 107.561 53.6876 107.761 53.5376C107.961 53.3776 108.121 53.1676 108.241 52.9076C108.361 52.6476 108.421 52.3576 108.421 52.0376C108.421 51.6976 108.351 51.4026 108.211 51.1526C108.071 50.8926 107.891 50.6876 107.671 50.5376C107.461 50.3876 107.231 50.3126 106.981 50.3126H104.476V53.7626ZM119.777 57.3326V59.1476H112.382V48.4976H119.642V50.3126H114.452V52.8776H118.937V54.5576H114.452V57.3326H119.777ZM128.786 57.3326V59.1476H121.391V48.4976H128.651V50.3126H123.461V52.8776H127.946V54.5576H123.461V57.3326H128.786ZM142.688 59.1476V52.1576L139.958 57.3626H138.803L136.073 52.1576V59.1476H134.003V48.4976H136.223L139.373 54.5576L142.553 48.4976H144.758V59.1476H142.688ZM146.982 59.1476V48.4976H149.052V59.1476H146.982ZM153.344 52.3076V59.1476H151.274V48.4976H152.924L158.429 55.5176V48.5126H160.499V59.1476H158.774L153.344 52.3076ZM170.679 50.3126H167.274V59.1476H165.219V50.3126H161.814V48.4976H170.679V50.3126ZM175.809 48.4976L178.434 53.5076L181.104 48.4976H183.339L179.469 55.4276V59.1476H177.414V55.3976L173.559 48.4976H175.809ZM188.367 59.2226C187.587 59.2226 186.877 59.0726 186.237 58.7726C185.607 58.4726 185.062 58.0676 184.602 57.5576C184.152 57.0376 183.802 56.4576 183.552 55.8176C183.302 55.1676 183.177 54.5026 183.177 53.8226C183.177 53.1126 183.307 52.4376 183.567 51.7976C183.837 51.1476 184.202 50.5726 184.662 50.0726C185.132 49.5626 185.682 49.1626 186.312 48.8726C186.952 48.5726 187.652 48.4226 188.412 48.4226C189.182 48.4226 189.882 48.5776 190.512 48.8876C191.152 49.1976 191.697 49.6126 192.147 50.1326C192.597 50.6526 192.947 51.2326 193.197 51.8726C193.447 52.5126 193.572 53.1726 193.572 53.8526C193.572 54.5526 193.442 55.2276 193.182 55.8776C192.922 56.5176 192.557 57.0926 192.087 57.6026C191.627 58.1026 191.077 58.4976 190.437 58.7876C189.807 59.0776 189.117 59.2226 188.367 59.2226ZM185.277 53.8226C185.277 54.2826 185.347 54.7276 185.487 55.1576C185.627 55.5876 185.827 55.9726 186.087 56.3126C186.357 56.6426 186.682 56.9076 187.062 57.1076C187.452 57.2976 187.892 57.3926 188.382 57.3926C188.882 57.3926 189.327 57.2926 189.717 57.0926C190.107 56.8826 190.432 56.6076 190.692 56.2676C190.952 55.9176 191.147 55.5326 191.277 55.1126C191.417 54.6826 191.487 54.2526 191.487 53.8226C191.487 53.3626 191.412 52.9226 191.262 52.5026C191.122 52.0726 190.917 51.6926 190.647 51.3626C190.387 51.0226 190.062 50.7576 189.672 50.5676C189.292 50.3676 188.862 50.2676 188.382 50.2676C187.872 50.2676 187.422 50.3726 187.032 50.5826C186.652 50.7826 186.332 51.0526 186.072 51.3926C185.812 51.7326 185.612 52.1126 185.472 52.5326C185.342 52.9526 185.277 53.3826 185.277 53.8226ZM199.675 59.2226C198.825 59.2226 198.1 59.0826 197.5 58.8026C196.91 58.5126 196.43 58.1176 196.06 57.6176C195.7 57.1176 195.435 56.5526 195.265 55.9226C195.095 55.2826 195.01 54.6176 195.01 53.9276V48.4976H197.08V53.9276C197.08 54.3676 197.12 54.7976 197.2 55.2176C197.29 55.6276 197.435 55.9976 197.635 56.3276C197.835 56.6576 198.1 56.9176 198.43 57.1076C198.76 57.2976 199.17 57.3926 199.66 57.3926C200.16 57.3926 200.575 57.2976 200.905 57.1076C201.245 56.9076 201.51 56.6426 201.7 56.3126C201.9 55.9826 202.045 55.6126 202.135 55.2026C202.225 54.7826 202.27 54.3576 202.27 53.9276V48.4976H204.325V53.9276C204.325 54.6576 204.235 55.3426 204.055 55.9826C203.885 56.6226 203.61 57.1876 203.23 57.6776C202.86 58.1576 202.38 58.5376 201.79 58.8176C201.2 59.0876 200.495 59.2226 199.675 59.2226ZM206.41 59.1476V48.4976H211.12C211.61 48.4976 212.06 48.5976 212.47 48.7976C212.89 48.9976 213.25 49.2676 213.55 49.6076C213.86 49.9476 214.095 50.3276 214.255 50.7476C214.425 51.1676 214.51 51.5976 214.51 52.0376C214.51 52.4876 214.43 52.9226 214.27 53.3426C214.12 53.7526 213.9 54.1126 213.61 54.4226C213.32 54.7326 212.98 54.9726 212.59 55.1426L215.02 59.1476H212.74L210.55 55.5776H208.48V59.1476H206.41ZM208.48 53.7626H211.075C211.335 53.7626 211.565 53.6876 211.765 53.5376C211.965 53.3776 212.125 53.1676 212.245 52.9076C212.365 52.6476 212.425 52.3576 212.425 52.0376C212.425 51.6976 212.355 51.4026 212.215 51.1526C212.075 50.8926 211.895 50.6876 211.675 50.5376C211.465 50.3876 211.235 50.3126 210.985 50.3126H208.48V53.7626ZM222.059 52.3076V59.1476H219.989V48.4976H221.639L227.144 55.5176V48.5126H229.214V59.1476H227.489L222.059 52.3076ZM231.43 59.1476V48.4976H238.585V50.3126H233.5V53.0576H237.73V54.7376H233.5V59.1476H231.43ZM248.008 50.3126H244.603V59.1476H242.548V50.3126H239.143V48.4976H248.008V50.3126ZM254.564 52.3076V59.1476H252.494V48.4976H254.144L259.649 55.5176V48.5126H261.719V59.1476H259.994L254.564 52.3076ZM268.48 59.2226C267.7 59.2226 266.99 59.0726 266.35 58.7726C265.72 58.4726 265.175 58.0676 264.715 57.5576C264.265 57.0376 263.915 56.4576 263.665 55.8176C263.415 55.1676 263.29 54.5026 263.29 53.8226C263.29 53.1126 263.42 52.4376 263.68 51.7976C263.95 51.1476 264.315 50.5726 264.775 50.0726C265.245 49.5626 265.795 49.1626 266.425 48.8726C267.065 48.5726 267.765 48.4226 268.525 48.4226C269.295 48.4226 269.995 48.5776 270.625 48.8876C271.265 49.1976 271.81 49.6126 272.26 50.1326C272.71 50.6526 273.06 51.2326 273.31 51.8726C273.56 52.5126 273.685 53.1726 273.685 53.8526C273.685 54.5526 273.555 55.2276 273.295 55.8776C273.035 56.5176 272.67 57.0926 272.2 57.6026C271.74 58.1026 271.19 58.4976 270.55 58.7876C269.92 59.0776 269.23 59.2226 268.48 59.2226ZM265.39 53.8226C265.39 54.2826 265.46 54.7276 265.6 55.1576C265.74 55.5876 265.94 55.9726 266.2 56.3126C266.47 56.6426 266.795 56.9076 267.175 57.1076C267.565 57.2976 268.005 57.3926 268.495 57.3926C268.995 57.3926 269.44 57.2926 269.83 57.0926C270.22 56.8826 270.545 56.6076 270.805 56.2676C271.065 55.9176 271.26 55.5326 271.39 55.1126C271.53 54.6826 271.6 54.2526 271.6 53.8226C271.6 53.3626 271.525 52.9226 271.375 52.5026C271.235 52.0726 271.03 51.6926 270.76 51.3626C270.5 51.0226 270.175 50.7576 269.785 50.5676C269.405 50.3676 268.975 50.2676 268.495 50.2676C267.985 50.2676 267.535 50.3726 267.145 50.5826C266.765 50.7826 266.445 51.0526 266.185 51.3926C265.925 51.7326 265.725 52.1126 265.585 52.5326C265.455 52.9526 265.39 53.3826 265.39 53.8226ZM278.493 48.5276H280.413L281.628 52.0526L282.858 48.5276H284.763L282.933 53.3726L284.283 56.7626L287.298 48.4976H289.548L285.288 59.1476H283.503L281.628 54.6776L279.768 59.1476H277.983L273.738 48.4976H275.958L278.988 56.7626L280.308 53.3726L278.493 48.5276Z" fill="white"/>
</g>
<path d="M60.767 36.0982C60.767 36.0982 60.0644 28.6027 34.6997 30.5724C34.6997 30.5724 41.08 35.6508 42.3651 38.6545C43.6502 41.6605 38.7115 49.5873 38.7115 49.5873L57.3355 47.2547C57.3378 47.2547 62.2924 40.5352 60.767 36.0982Z" fill="url(#paint4_linear_2218_4684)"/>
<path d="M58.503 38.2438C59.0855 39.0243 59.1943 39.9099 58.8385 40.953L59.8901 41.3182C60.3684 39.9168 60.2006 38.6546 59.3938 37.5704C55.9169 32.9074 40.9556 33.1653 37.8232 33.2726C38.1995 33.6218 38.5871 33.9893 38.9701 34.3682C40.7153 34.3385 43.6369 34.3454 46.7126 34.5941C53.0226 35.1008 57.1 36.363 58.503 38.2438Z" fill="white"/>
<path d="M30.3436 53.6091C30.3436 53.6091 29.4529 47.2913 36.6559 46.0291C43.8589 44.7669 61.4902 45.2508 60.7695 36.0983C60.7695 36.0983 62.347 40.727 62.0387 46.7024C61.7305 52.6779 57.9227 60.1734 49.2102 61.3831C40.4954 62.5905 31.2684 60.3103 30.3436 53.6091Z" fill="url(#paint5_linear_2218_4684)"/>
<path d="M32.7572 56.6834C32.7663 56.688 32.7754 56.6949 32.7844 56.6994C32.8366 56.7314 32.8932 56.7588 32.9454 56.7907C33.3533 57.0121 33.8044 57.197 34.2962 57.3476C35.3728 57.6649 36.7327 57.8041 38.453 57.617C42.1588 57.2107 45.8782 55.1245 49.2394 52.9288C46.7576 54.3622 40.8329 57.3499 35.7604 56.5374C33.1879 56.1242 31.6376 54.8438 31.3951 52.9311C31.148 50.9796 32.4059 48.8136 34.2599 48.0011C37.2336 46.6955 40.3682 46.3395 43.4031 45.9971C45.0327 45.8122 46.719 45.6205 48.3147 45.2827C48.9448 45.1503 49.6429 45.0293 50.384 44.9038C54.8944 44.1369 61.0729 43.087 60.8939 36.792C60.8576 35.4865 60.1641 34.3202 58.8359 33.3273C53.5186 29.3536 38.8157 29.7416 34.6997 30.5701C40.0215 30.2415 53.054 30.3989 58.1741 34.2243C59.2144 35.0003 59.7538 35.8745 59.781 36.8217C59.9329 42.1398 54.5363 43.0596 50.2004 43.7968C49.4479 43.9246 48.7362 44.0456 48.0857 44.1848C46.5422 44.5112 44.9579 44.6915 43.2807 44.8833C40.1665 45.237 36.9458 45.6022 33.818 46.974C31.4948 47.9897 29.9807 50.6122 30.2913 53.0703C30.3661 53.6683 30.5428 54.2207 30.8103 54.7205C31.1616 55.3322 31.7622 56.0877 32.7572 56.6834Z" fill="#F3BA2F"/>
<path d="M69.7696 80.3683C69.7696 80.3683 67.6277 78.1338 68.2963 73.9889C68.965 69.844 71.5375 68.2896 75.0868 66.943C78.6362 65.5964 79.8715 59.5342 76.6304 56.3731C74.8239 54.611 71.6417 51.1417 69.178 48.4165C67.3081 46.3463 63.8902 47.1543 63.1536 49.8522C62.8793 50.8587 62.6414 52.025 62.4804 53.3648C61.7098 59.7419 66.0479 76.3329 69.7696 80.3683Z" fill="url(#paint6_linear_2218_4684)"/>
<path d="M79.0237 60.0865C79.0237 60.0865 77.9516 56.373 72.2581 57.8246C66.5646 59.2762 61.4536 66.806 55.3476 69.0838C49.2415 71.364 39.398 73.0895 35.4203 67.9791C31.4425 62.8665 30.3433 53.6112 30.3433 53.6112C30.3433 53.6112 31.3541 58.3952 38.4552 57.6169C45.5562 56.8409 52.7071 49.8977 57.2854 47.8253C61.8638 45.7528 64.8783 45.0202 68.0174 47.1063L77.3601 56.7427C77.3601 56.7427 78.7404 58.1738 79.0237 60.0865Z" fill="url(#paint7_linear_2218_4684)"/>
<path d="M68.6091 47.718C67.0973 47.2478 64.8807 46.9556 62.2243 47.8024C58.2556 49.0646 55.572 50.9887 51.8572 53.6523C51.0005 54.2663 50.1143 54.9031 49.1306 55.5901C43.938 59.2169 40.3342 59.8217 36.5219 59.6094C33.6797 59.4519 31.7259 58.2537 30.7559 56.1082C30.91 56.8979 31.1162 57.8314 31.3792 58.8403C32.6325 59.9632 34.3438 60.6114 36.4607 60.7301C36.9185 60.7552 37.3741 60.7689 37.8274 60.7689C41.3859 60.7689 44.9284 59.8902 49.7629 56.5122C50.7534 55.8206 51.6419 55.1838 52.5009 54.5675C56.2679 51.8674 58.7565 50.0826 62.5575 48.8729C66.984 47.4646 70.0007 49.5507 70.1277 49.6398L70.2705 49.4366L68.6091 47.718Z" fill="white"/>
<path d="M76.2585 55.6084L74.8782 54.1842C73.9467 54.0746 72.8882 54.0746 71.7028 54.2526C68.8357 54.6863 65.7011 57.4275 62.3829 60.3285C59.1667 63.1404 55.8394 66.0482 52.358 67.3469C46.805 69.4171 39.0082 69.6088 33.8428 65.489C34.2666 66.297 34.7358 67.0662 35.2571 67.7646C38.0064 69.2642 41.1886 69.8964 44.3277 69.8964C47.3037 69.8964 50.2411 69.3304 52.7433 68.3969C56.4151 67.0297 59.8194 64.0534 63.1127 61.1753C66.3062 58.3838 69.3207 55.7476 71.8683 55.3619C73.6656 55.0903 75.1253 55.266 76.2585 55.6084Z" fill="white"/>
<path d="M109.52 73.9365C108.638 74.8951 105.914 77.6979 101.961 80.3341C97.5233 83.2967 90.5764 86.6542 82.6889 85.8234C76.9183 85.2185 72.8408 83.4633 70.5652 80.6103C68.4437 77.9513 68.7248 75.2374 68.7271 75.2123L68.7339 75.1439L68.7271 75.0777C68.7044 74.8882 68.2556 70.4261 73.7588 68.0911C78.1535 66.2264 79.892 63.3848 78.9196 59.6461C78.7066 58.8222 77.8544 57.7312 76.431 57.1492C75.0371 56.5786 72.6867 56.3206 69.4002 58.3178C68.6364 58.7834 67.9156 59.322 67.2085 59.9041C66.7824 60.2601 66.3835 60.607 66.005 60.9426C65.9914 60.9563 65.9755 60.9677 65.9619 60.9814C65.8939 61.043 65.8282 61.1023 65.7602 61.164C65.4927 61.4059 65.2253 61.6524 64.9578 61.9035C61.6102 65.0372 60.2843 66.7924 54.9693 69.0908C49.5115 71.4509 41.2477 71.0788 41.1548 71.0674C44.9716 71.9233 49.4684 71.1336 49.7177 71.0857C57.9724 69.4766 61.8255 66.336 65.4315 62.9899C66.9546 61.5771 68.3916 60.2419 69.9782 59.2787C72.8703 57.5189 74.8557 57.7152 76.0139 58.1877C77.1449 58.651 77.7297 59.4818 77.8453 59.9292C78.1467 61.0909 79.0647 64.6241 73.3281 67.0572C70.053 68.4472 68.6749 70.5744 68.0947 72.1128C67.5326 73.6055 67.5915 74.8403 67.6165 75.1439C67.5757 75.6255 67.4397 78.4579 69.6767 81.2836C72.1405 84.3946 76.4786 86.2958 82.5733 86.9349C83.4413 87.0262 84.2981 87.0696 85.1435 87.0696C92.2944 87.0696 98.4933 83.9951 102.603 81.2471C107.004 78.305 110.232 74.822 110.991 73.973L109.52 73.9365Z" fill="#F3BA2F"/>
<path d="M323.233 36.0982C323.233 36.0982 323.936 28.6027 349.3 30.5724C349.3 30.5724 342.92 35.6508 341.635 38.6545C340.35 41.6605 345.289 49.5873 345.289 49.5873L326.665 47.2547C326.662 47.2547 321.708 40.5352 323.233 36.0982Z" fill="url(#paint8_linear_2218_4684)"/>
<path d="M325.497 38.2438C324.914 39.0243 324.806 39.9099 325.162 40.953L324.11 41.3182C323.632 39.9168 323.799 38.6546 324.606 37.5704C328.083 32.9074 343.044 33.1653 346.177 33.2726C345.801 33.6218 345.413 33.9893 345.03 34.3682C343.285 34.3385 340.363 34.3454 337.287 34.5941C330.977 35.1008 326.9 36.363 325.497 38.2438Z" fill="white"/>
<path d="M353.656 53.6091C353.656 53.6091 354.547 47.2913 347.344 46.0291C340.141 44.7669 322.51 45.2508 323.231 36.0983C323.231 36.0983 321.653 40.727 321.961 46.7024C322.27 52.6779 326.077 60.1734 334.79 61.3831C343.505 62.5905 352.732 60.3103 353.656 53.6091Z" fill="url(#paint9_linear_2218_4684)"/>
<path d="M351.243 56.6834C351.234 56.688 351.225 56.6949 351.216 56.6994C351.163 56.7314 351.107 56.7588 351.055 56.7907C350.647 57.0121 350.196 57.197 349.704 57.3476C348.627 57.6649 347.267 57.8041 345.547 57.617C341.841 57.2107 338.122 55.1245 334.761 52.9288C337.242 54.3622 343.167 57.3499 348.24 56.5374C350.812 56.1242 352.362 54.8438 352.605 52.9311C352.852 50.9796 351.594 48.8136 349.74 48.0011C346.766 46.6955 343.632 46.3395 340.597 45.9971C338.967 45.8122 337.281 45.6205 335.685 45.2827C335.055 45.1503 334.357 45.0293 333.616 44.9038C329.106 44.1369 322.927 43.087 323.106 36.792C323.142 35.4865 323.836 34.3202 325.164 33.3273C330.481 29.3536 345.184 29.7416 349.3 30.5701C343.979 30.2415 330.946 30.3989 325.826 34.2243C324.786 35.0003 324.246 35.8745 324.219 36.8217C324.067 42.1398 329.464 43.0596 333.8 43.7968C334.552 43.9246 335.264 44.0456 335.914 44.1848C337.458 44.5112 339.042 44.6915 340.719 44.8833C343.833 45.237 347.054 45.6022 350.182 46.974C352.505 47.9897 354.019 50.6122 353.709 53.0703C353.634 53.6683 353.457 54.2207 353.19 54.7205C352.838 55.3322 352.238 56.0877 351.243 56.6834Z" fill="#F3BA2F"/>
<path d="M314.23 80.3683C314.23 80.3683 316.372 78.1338 315.704 73.9889C315.035 69.844 312.463 68.2896 308.913 66.943C305.364 65.5964 304.129 59.5342 307.37 56.3731C309.176 54.611 312.358 51.1417 314.822 48.4165C316.692 46.3463 320.11 47.1543 320.846 49.8522C321.121 50.8587 321.359 52.025 321.52 53.3648C322.29 59.7419 317.952 76.3329 314.23 80.3683Z" fill="url(#paint10_linear_2218_4684)"/>
<path d="M304.976 60.0865C304.976 60.0865 306.048 56.373 311.742 57.8246C317.435 59.2762 322.546 66.806 328.652 69.0838C334.758 71.364 344.602 73.0895 348.58 67.9791C352.557 62.8665 353.657 53.6112 353.657 53.6112C353.657 53.6112 352.646 58.3952 345.545 57.6169C338.444 56.8409 331.293 49.8977 326.715 47.8253C322.136 45.7528 319.122 45.0202 315.983 47.1063L306.64 56.7427C306.64 56.7427 305.26 58.1738 304.976 60.0865Z" fill="url(#paint11_linear_2218_4684)"/>
<path d="M315.391 47.718C316.903 47.2478 319.119 46.9556 321.776 47.8024C325.744 49.0646 328.428 50.9887 332.143 53.6523C333 54.2663 333.886 54.9031 334.869 55.5901C340.062 59.2169 343.666 59.8217 347.478 59.6094C350.32 59.4519 352.274 58.2537 353.244 56.1082C353.09 56.8979 352.884 57.8314 352.621 58.8403C351.367 59.9632 349.656 60.6114 347.539 60.7301C347.081 60.7552 346.626 60.7689 346.173 60.7689C342.614 60.7689 339.072 59.8902 334.237 56.5122C333.247 55.8206 332.358 55.1838 331.499 54.5675C327.732 51.8674 325.243 50.0826 321.443 48.8729C317.016 47.4646 313.999 49.5507 313.872 49.6398L313.73 49.4366L315.391 47.718Z" fill="white"/>
<path d="M307.741 55.6084L309.122 54.1842C310.053 54.0746 311.112 54.0746 312.297 54.2526C315.164 54.6863 318.299 57.4275 321.617 60.3285C324.833 63.1404 328.161 66.0482 331.642 67.3469C337.195 69.4171 344.992 69.6088 350.157 65.489C349.733 66.297 349.264 67.0662 348.743 67.7646C345.994 69.2642 342.811 69.8964 339.672 69.8964C336.696 69.8964 333.759 69.3304 331.257 68.3969C327.585 67.0297 324.181 64.0534 320.887 61.1753C317.694 58.3838 314.679 55.7476 312.132 55.3619C310.334 55.0903 308.875 55.266 307.741 55.6084Z" fill="white"/>
<path d="M274.48 73.9365C275.362 74.8951 278.086 77.6979 282.039 80.3341C286.477 83.2967 293.424 86.6542 301.311 85.8234C307.082 85.2185 311.159 83.4633 313.435 80.6103C315.556 77.9513 315.275 75.2374 315.273 75.2123L315.266 75.1439L315.273 75.0777C315.296 74.8882 315.744 70.4261 310.241 68.0911C305.846 66.2264 304.108 63.3848 305.08 59.6461C305.293 58.8222 306.146 57.7312 307.569 57.1492C308.963 56.5786 311.313 56.3206 314.6 58.3178C315.364 58.7834 316.084 59.322 316.792 59.9041C317.218 60.2601 317.617 60.607 317.995 60.9426C318.009 60.9563 318.024 60.9677 318.038 60.9814C318.106 61.043 318.172 61.1023 318.24 61.164C318.507 61.4059 318.775 61.6524 319.042 61.9035C322.39 65.0372 323.716 66.7924 329.031 69.0908C334.489 71.4509 342.752 71.0788 342.845 71.0674C339.028 71.9233 334.532 71.1336 334.282 71.0857C326.028 69.4766 322.175 66.336 318.568 62.9899C317.045 61.5771 315.608 60.2419 314.022 59.2787C311.13 57.5189 309.144 57.7152 307.986 58.1877C306.855 58.651 306.27 59.4818 306.155 59.9292C305.853 61.0909 304.935 64.6241 310.672 67.0572C313.947 68.4472 315.325 70.5744 315.905 72.1128C316.467 73.6055 316.408 74.8403 316.384 75.1439C316.424 75.6255 316.56 78.4579 314.323 81.2836C311.86 84.3946 307.521 86.2958 301.427 86.9349C300.559 87.0262 299.702 87.0696 298.856 87.0696C291.706 87.0696 285.507 83.9951 281.397 81.2471C276.996 78.305 273.768 74.822 273.009 73.973L274.48 73.9365Z" fill="#F3BA2F"/>
</g>
<defs>
<filter id="filter0_d_2218_4684" x="0.250977" y="0.029541" width="383.498" height="117.04" filterUnits="userSpaceOnUse" color-interpolation-filters="sRGB">
<feFlood flood-opacity="0" result="BackgroundImageFix"/>
<feColorMatrix in="SourceAlpha" type="matrix" values="0 0 0 0 0 0 0 0 0 0 0 0 0 0 0 0 0 0 127 0" result="hardAlpha"/>
<feOffset/>
<feGaussianBlur stdDeviation="15"/>
<feComposite in2="hardAlpha" operator="out"/>
<feColorMatrix type="matrix" values="0 0 0 0 0.992157 0 0 0 0 0.956863 0 0 0 0 0.329412 0 0 0 0.2 0"/>
<feBlend mode="normal" in2="BackgroundImageFix" result="effect1_dropShadow_2218_4684"/>
<feBlend mode="normal" in="SourceGraphic" in2="effect1_dropShadow_2218_4684" result="shape"/>
</filter>
<filter id="filter1_b_2218_4684" x="19.2363" y="-15.7635" width="343.74" height="139.822" filterUnits="userSpaceOnUse" color-interpolation-filters="sRGB">
<feFlood flood-opacity="0" result="BackgroundImageFix"/>
<feGaussianBlur in="BackgroundImageFix" stdDeviation="25"/>
<feComposite in2="SourceAlpha" operator="in" result="effect1_backgroundBlur_2218_4684"/>
<feBlend mode="normal" in="SourceGraphic" in2="effect1_backgroundBlur_2218_4684" result="shape"/>
</filter>
<linearGradient id="paint0_linear_2218_4684" x1="65.416" y1="58.2378" x2="120.802" y2="62.1046" gradientUnits="userSpaceOnUse">
<stop stop-color="#FDF454"/>
<stop offset="1" stop-color="#F3BA2F"/>
</linearGradient>
<linearGradient id="paint1_linear_2218_4684" x1="318.584" y1="58.2378" x2="263.198" y2="62.1046" gradientUnits="userSpaceOnUse">
<stop stop-color="#FDF454"/>
<stop offset="1" stop-color="#F3BA2F"/>
</linearGradient>
<linearGradient id="paint2_linear_2218_4684" x1="69.2363" y1="34.2365" x2="309.824" y2="88.1285" gradientUnits="userSpaceOnUse">
<stop stop-color="#FDF454"/>
<stop offset="1" stop-color="#F3BA2F"/>
</linearGradient>
<linearGradient id="paint3_linear_2218_4684" x1="69.2363" y1="53.9713" x2="309.516" y2="56.9441" gradientUnits="userSpaceOnUse">
<stop stop-color="#FCEF00"/>
<stop offset="0.270833" stop-color="#E78C22"/>
<stop offset="0.510417" stop-color="#81954D"/>
<stop offset="0.744792" stop-color="#1A5B78"/>
<stop offset="1" stop-color="#F1BE7E"/>
</linearGradient>
<linearGradient id="paint4_linear_2218_4684" x1="34.6997" y1="30.2426" x2="61.9556" y2="31.6017" gradientUnits="userSpaceOnUse">
<stop stop-color="#FDF454"/>
<stop offset="1" stop-color="#F3BA2F"/>
</linearGradient>
<linearGradient id="paint5_linear_2218_4684" x1="30.3086" y1="36.0983" x2="63.1735" y2="37.5913" gradientUnits="userSpaceOnUse">
<stop stop-color="#FDF454"/>
<stop offset="1" stop-color="#F3BA2F"/>
</linearGradient>
<linearGradient id="paint6_linear_2218_4684" x1="62.3906" y1="47.2489" x2="79.094" y2="47.5464" gradientUnits="userSpaceOnUse">
<stop stop-color="#FDF454"/>
<stop offset="1" stop-color="#F3BA2F"/>
</linearGradient>
<linearGradient id="paint7_linear_2218_4684" x1="30.3433" y1="45.8597" x2="80.5592" y2="49.3753" gradientUnits="userSpaceOnUse">
<stop stop-color="#FDF454"/>
<stop offset="1" stop-color="#F3BA2F"/>
</linearGradient>
<linearGradient id="paint8_linear_2218_4684" x1="349.3" y1="30.2426" x2="322.044" y2="31.6017" gradientUnits="userSpaceOnUse">
<stop stop-color="#FDF454"/>
<stop offset="1" stop-color="#F3BA2F"/>
</linearGradient>
<linearGradient id="paint9_linear_2218_4684" x1="353.691" y1="36.0983" x2="320.826" y2="37.5913" gradientUnits="userSpaceOnUse">
<stop stop-color="#FDF454"/>
<stop offset="1" stop-color="#F3BA2F"/>
</linearGradient>
<linearGradient id="paint10_linear_2218_4684" x1="321.609" y1="47.2489" x2="304.906" y2="47.5464" gradientUnits="userSpaceOnUse">
<stop stop-color="#FDF454"/>
<stop offset="1" stop-color="#F3BA2F"/>
</linearGradient>
<linearGradient id="paint11_linear_2218_4684" x1="353.657" y1="45.8597" x2="303.441" y2="49.3753" gradientUnits="userSpaceOnUse">
<stop stop-color="#FDF454"/>
<stop offset="1" stop-color="#F3BA2F"/>
</linearGradient>
</defs>
</svg>
