<svg width="27" height="27" viewBox="0 0 27 27" fill="none" xmlns="http://www.w3.org/2000/svg">
<path d="M13.9619 26.7456C21.1418 26.7456 26.9619 20.9255 26.9619 13.7456C26.9619 6.56571 21.1418 0.745605 13.9619 0.745605C6.78201 0.745605 0.961914 6.56571 0.961914 13.7456C0.961914 20.9255 6.78201 26.7456 13.9619 26.7456Z" fill="url(#paint0_linear_676_576)"/>
<path d="M20.9619 17.1919C20.9389 16.3752 20.6547 15.6099 20.1809 14.9188C19.6812 14.1878 19.015 13.688 18.1967 13.3739C18.0273 13.3111 17.6913 13.194 17.6913 13.194C17.6913 13.194 17.9641 12.9827 18.0962 12.8599C18.6044 12.3944 19.015 11.8576 19.2333 11.2008C19.7099 9.76153 19.5463 8.35085 18.8887 7.02013C18.188 5.60088 16.9275 4.87841 15.3912 4.79845C13.967 4.72421 9.67121 4.74991 9.67121 4.74991L9.68557 7.92251C9.68557 7.92251 10.5441 7.45704 10.9605 7.26286C11.4142 7.04869 11.8248 6.80881 11.9282 6.26624C11.9942 5.83219 12.7523 5.19538 13.5046 5.20395C14.2943 5.21252 14.8686 5.5609 15.1787 6.30622C15.1931 6.33763 15.2304 6.4233 15.2304 6.4233C15.2304 6.4233 15.3596 6.43758 15.4027 6.44615C16.0919 6.5461 16.7782 6.65461 17.3984 6.98586C17.6138 7.10009 17.9871 7.44276 17.9727 7.46846C17.8866 7.4599 16.3359 7.33996 15.6468 7.28856C15.3424 7.26571 15.0811 7.33425 14.9145 7.62838C14.8772 7.69406 14.6532 7.83684 14.6532 7.83684C14.6532 7.83684 14.5929 7.60268 14.5757 7.52843C14.5068 7.24572 14.4781 6.94588 14.3718 6.68031C14.1967 6.2434 13.7372 6.05207 13.2319 6.15202C12.8586 6.22627 12.6461 6.53753 12.6346 7.02298C12.6346 7.05154 12.6346 7.0801 12.6346 7.1058C12.6317 7.40849 12.5571 7.49131 12.2728 7.62267C11.4803 7.99104 10.682 8.348 9.90667 8.75349C9.27207 9.08475 8.86145 9.60447 8.82412 10.3584C8.82125 10.4383 8.74372 10.5354 8.67193 10.5868C7.88801 11.1494 7.10122 11.7062 6.31156 12.2631C5.91817 12.5401 5.85787 12.8056 6.12492 13.1997C6.30869 13.471 6.49821 13.7394 6.69922 13.9964C7.0036 14.3848 7.39125 14.6075 7.91099 14.5875C8.26992 14.5733 8.6346 14.599 8.99354 14.6218C9.38406 14.6447 9.77459 14.6989 10.1651 14.716C10.9088 14.7446 11.6411 14.8217 12.3618 15.0159C12.5484 15.0673 12.7437 15.0987 12.939 15.1215C13.519 15.1901 14.0617 15.39 14.5585 15.667C15.4487 16.1638 15.7301 17.0063 15.71 17.9686C15.6927 18.811 15.4314 19.5992 15.1184 20.3702C14.9576 20.7671 14.5958 21.5467 14.5958 21.5467C14.5958 21.5467 14.9059 19.5563 14.8514 18.6768C14.8083 17.9943 14.5901 17.3689 14.1651 16.8435C13.7975 16.3923 13.2979 16.0982 12.7179 15.9497C11.2247 15.6356 9.67121 15.6727 9.67121 15.6727V22.7432H14.412C14.412 22.7432 16.0947 22.7718 16.9303 22.6318C17.5104 22.5347 18.0674 22.3777 18.5671 22.0693C20.379 20.9413 21.0165 19.2194 20.9562 17.1976L20.9619 17.1919ZM9.75448 10.6839C9.64823 10.6725 9.52189 10.5725 9.45872 10.4783C9.38406 10.3641 9.49031 10.2755 9.59655 10.2213C9.69418 10.1699 9.79468 10.1185 9.89805 10.0785C10.0876 10.0014 10.1421 10.0385 10.1421 10.2356C10.1421 10.4869 9.97558 10.7067 9.75448 10.6839Z" fill="white"/>
<defs>
<linearGradient id="paint0_linear_676_576" x1="-3.53809" y1="-5.7544" x2="30.4619" y2="28.2456" gradientUnits="userSpaceOnUse">
<stop stop-color="#205A62"/>
<stop offset="0.213542" stop-color="#FCF21C"/>
<stop offset="0.40625" stop-color="#EFB872"/>
<stop offset="0.609375" stop-color="#798D48"/>
<stop offset="0.802083" stop-color="#922528"/>
<stop offset="1" stop-color="#EC9D48"/>
</linearGradient>
</defs>
</svg>
