<svg width="79" height="73" viewBox="0 0 79 73" fill="none" xmlns="http://www.w3.org/2000/svg">
<path d="M70.7157 67.3118L75.8754 61.05L76.6587 60.1027L76.5676 60.0253C83.3441 49.8743 74.7597 30.2963 56.6846 15.4091C38.6049 0.512718 17.7017 -4.20074 9.03991 4.40189L8.98981 4.36091L8.21107 5.30815L3.05131 11.5746C-5.03672 21.3886 3.55681 41.8227 22.2422 57.2154C40.9275 72.6082 62.6276 77.1258 70.7157 67.3118Z" fill="black"/>
<path d="M70.7157 67.3113L75.8754 61.0494L75.1104 59.8517L70.7658 65.5443C62.6777 75.3629 42.0296 71.246 23.3442 55.8532C4.65434 40.4559 -3.40636 20.9463 4.67711 11.1277L9.33137 5.74936L8.20651 5.30762L3.05131 11.574C-5.03672 21.388 3.55681 41.8222 22.2422 57.2149C40.9275 72.6077 62.6276 77.1253 70.7157 67.3113Z" fill="#F0B90B"/>
<path d="M75.8754 61.0451C83.9635 51.2311 75.3699 30.7924 56.6846 15.4042C37.9992 0.0114634 16.2945 -4.50617 8.21107 5.3124C0.123039 15.1264 8.71657 35.5605 27.4019 50.9533C46.0873 66.3415 67.7874 70.8637 75.8754 61.0451ZM30.526 47.1597C13.7898 33.3746 5.71088 15.5363 12.4782 7.31619C19.2501 -0.903905 38.3044 3.60918 55.0406 17.3943C71.7768 31.1795 79.8557 49.0178 73.0838 57.2379C66.3164 65.458 47.2622 60.9449 30.526 47.1597Z" fill="url(#paint0_linear_2649_1577)"/>
<path d="M73.0884 57.2379C66.3165 65.458 47.2622 60.9449 30.526 47.1597C13.7898 33.3746 5.7109 15.5363 12.4782 7.31619C19.2501 -0.903908 38.3044 3.60917 55.0406 17.3943C71.7768 31.1841 79.8557 49.0224 73.0884 57.2379Z" fill="url(#paint1_linear_2649_1577)"/>
<path d="M67.2455 57.7479C68.0834 59.4466 71.7176 57.379 72.9654 54.3825C74.2269 51.3586 73.5893 48.6079 72.1912 48.8766C71.4261 49.0223 70.866 50.7574 69.6637 52.6701C68.466 54.5874 66.6626 56.5593 67.2455 57.7479Z" fill="white"/>
<path d="M22.2923 5.63084C21.4452 4.1371 18.8084 4.83843 17.3739 5.57164C15.9393 6.30484 13.7762 7.83956 14.3272 9.40161C14.8782 10.9682 16.964 9.77504 18.5989 8.88244C20.2384 7.98529 22.8388 6.58719 22.2923 5.63084Z" fill="white"/>
<path d="M71.8633 46.8404C73.7623 46.722 73.9126 43.4567 71.7449 43.0514C69.5726 42.6415 69.9688 46.9588 71.8633 46.8404Z" fill="white"/>
<path d="M13.8354 11.5832C12.0365 10.9684 10.6475 13.924 12.4965 15.1308C14.3454 16.3376 15.6342 12.198 13.8354 11.5832Z" fill="white"/>
<path d="M55.4413 31.5845L53.9795 33.0645L59.8223 37.3363L61.2842 35.8562L55.4413 31.5845Z" fill="url(#paint2_linear_2649_1577)"/>
<path d="M51.3199 28.5698L41.2736 21.2241L39.8118 22.7042L49.858 30.0499L51.3199 28.5698Z" fill="url(#paint3_linear_2649_1577)"/>
<path d="M47.162 37.332L48.6284 35.8519L42.7036 31.521L41.2417 33.0056L47.162 37.332Z" fill="url(#paint4_linear_2649_1577)"/>
<path d="M32.7393 24.2254L37.0019 12.7173L35.5355 14.2019L31.2729 25.71L37.1157 29.9818L38.5822 28.5017L32.7393 24.2254Z" fill="url(#paint5_linear_2649_1577)"/>
<path d="M38.5594 40.2144L54.4531 51.8364L55.9195 50.3564L40.0258 38.7344L38.5594 40.2144Z" fill="url(#paint6_linear_2649_1577)"/>
<path d="M31.6327 27.2173L30.1662 28.6974L28.5996 32.9326L34.4425 37.2044L35.9089 35.7243L30.0661 31.4526L31.6327 27.2173Z" fill="url(#paint7_linear_2649_1577)"/>
<path d="M57.0125 27.3496L62.8554 31.6259L61.2842 35.8566L55.4413 31.5849L57.0125 27.3496Z" fill="white"/>
<path d="M55.4413 31.5849L53.9795 33.065L55.5461 28.8342L57.0125 27.3496L55.4413 31.5849Z" fill="url(#paint8_linear_2649_1577)"/>
<path d="M44.2884 27.2173L50.2178 31.5528L48.6284 35.8518L42.7036 31.5209L44.2884 27.2173Z" fill="white"/>
<path d="M42.7036 31.5209L41.2417 33.0055L42.822 28.6974L44.2884 27.2173L42.7036 31.5209Z" fill="url(#paint9_linear_2649_1577)"/>
<path d="M51.6432 41.8493L50.1768 43.3294L52.8728 36.0475L54.3347 34.5674L51.6432 41.8493Z" fill="url(#paint10_linear_2649_1577)"/>
<path d="M37.0019 12.7217L52.8865 24.3346L51.3199 28.5698L41.2736 21.2241L38.5822 28.5015L32.7393 24.2253L37.0019 12.7217Z" fill="white"/>
<path d="M54.3347 34.5675L60.1821 38.8392L55.9195 50.3565L40.0258 38.7345L41.6015 34.5083L51.6432 41.8495L54.3347 34.5675Z" fill="white"/>
<path d="M40.0258 38.7345L38.5594 40.2145L40.1396 35.9884L41.6015 34.5083L40.0258 38.7345Z" fill="url(#paint11_linear_2649_1577)"/>
<path d="M31.6327 27.2173L37.471 31.489L35.9089 35.7243L30.0661 31.4526L31.6327 27.2173Z" fill="white"/>
<defs>
<linearGradient id="paint0_linear_2649_1577" x1="6.7117" y1="35.8165" x2="77.4008" y2="30.5181" gradientUnits="userSpaceOnUse">
<stop stop-color="#F5EBFF"/>
<stop offset="0.3275" stop-color="#F7F4FA"/>
<stop offset="0.4179" stop-color="#F8F8F8"/>
<stop offset="0.4999" stop-color="#F6EEFD"/>
<stop offset="0.596" stop-color="white"/>
<stop offset="1" stop-color="#F6EFFD"/>
</linearGradient>
<linearGradient id="paint1_linear_2649_1577" x1="28.3408" y1="-1.18671" x2="59.3846" y2="64.7578" gradientUnits="userSpaceOnUse">
<stop offset="0.00558659" stop-color="#E6D44D"/>
<stop offset="0.2783" stop-color="#DDCC56"/>
<stop offset="0.7303" stop-color="#C3B86F"/>
<stop offset="1" stop-color="#B1A981"/>
</linearGradient>
<linearGradient id="paint2_linear_2649_1577" x1="53.9773" y1="34.4605" x2="61.2863" y2="34.4605" gradientUnits="userSpaceOnUse">
<stop stop-color="#F0B90B"/>
<stop offset="0.5899" stop-color="#ECB006"/>
<stop offset="1" stop-color="#E8A600"/>
</linearGradient>
<linearGradient id="paint3_linear_2649_1577" x1="39.8113" y1="25.6364" x2="51.3202" y2="25.6364" gradientUnits="userSpaceOnUse">
<stop stop-color="#F0B90B"/>
<stop offset="0.5899" stop-color="#ECB006"/>
<stop offset="1" stop-color="#E8A600"/>
</linearGradient>
<linearGradient id="paint4_linear_2649_1577" x1="41.2408" y1="34.4284" x2="48.6271" y2="34.4284" gradientUnits="userSpaceOnUse">
<stop stop-color="#F0B90B"/>
<stop offset="0.5899" stop-color="#ECB006"/>
<stop offset="1" stop-color="#E8A600"/>
</linearGradient>
<linearGradient id="paint5_linear_2649_1577" x1="31.2743" y1="21.3501" x2="38.5804" y2="21.3501" gradientUnits="userSpaceOnUse">
<stop stop-color="#F0B90B"/>
<stop offset="0.5899" stop-color="#ECB006"/>
<stop offset="1" stop-color="#E8A600"/>
</linearGradient>
<linearGradient id="paint6_linear_2649_1577" x1="38.561" y1="45.2845" x2="55.918" y2="45.2845" gradientUnits="userSpaceOnUse">
<stop stop-color="#F0B90B"/>
<stop offset="0.5899" stop-color="#ECB006"/>
<stop offset="1" stop-color="#E8A600"/>
</linearGradient>
<linearGradient id="paint7_linear_2649_1577" x1="28.601" y1="32.2097" x2="35.9071" y2="32.2097" gradientUnits="userSpaceOnUse">
<stop stop-color="#F0B90B"/>
<stop offset="0.5899" stop-color="#ECB006"/>
<stop offset="1" stop-color="#E8A600"/>
</linearGradient>
<linearGradient id="paint8_linear_2649_1577" x1="53.9773" y1="30.2086" x2="57.0119" y2="30.2086" gradientUnits="userSpaceOnUse">
<stop stop-color="#F0B90B"/>
<stop offset="0.5899" stop-color="#ECB006"/>
<stop offset="1" stop-color="#E8A600"/>
</linearGradient>
<linearGradient id="paint9_linear_2649_1577" x1="41.2408" y1="30.1109" x2="44.2874" y2="30.1109" gradientUnits="userSpaceOnUse">
<stop stop-color="#F0B90B"/>
<stop offset="0.5899" stop-color="#ECB006"/>
<stop offset="1" stop-color="#E8A600"/>
</linearGradient>
<linearGradient id="paint10_linear_2649_1577" x1="50.1779" y1="38.9483" x2="54.3354" y2="38.9483" gradientUnits="userSpaceOnUse">
<stop stop-color="#F0B90B"/>
<stop offset="0.5899" stop-color="#ECB006"/>
<stop offset="1" stop-color="#E8A600"/>
</linearGradient>
<linearGradient id="paint11_linear_2649_1577" x1="38.561" y1="37.3605" x2="41.6018" y2="37.3605" gradientUnits="userSpaceOnUse">
<stop stop-color="#F0B90B"/>
<stop offset="0.5899" stop-color="#ECB006"/>
<stop offset="1" stop-color="#E8A600"/>
</linearGradient>
</defs>
</svg>
