<svg width="116" height="124" viewBox="0 0 116 124" fill="none" xmlns="http://www.w3.org/2000/svg">
<path d="M65.2772 104.624L72.6228 101.916L73.7352 101.504L73.6975 101.398C84.2844 96.2375 86.6599 75.7424 78.8412 54.5388C71.0234 33.3271 55.8978 19.2263 44.4935 22.1835L44.4713 22.1243L43.3589 22.5359L36.0133 25.2444C24.498 29.4908 21.7139 50.7031 29.7949 72.6214C37.8759 94.5396 53.762 108.871 65.2772 104.624Z" fill="url(#paint0_linear_1499_1321)"/>
<path d="M65.2775 104.624L72.627 101.916L72.5719 100.544L66.1822 103.17C54.6669 107.417 39.4597 93.9375 31.3751 72.0148C23.294 50.0966 26.072 29.9121 37.5872 25.6657L44.0843 23.4494L43.3595 22.5318L36.0099 25.2399C24.4947 29.4863 21.7105 50.6986 29.7915 72.6169C37.8762 94.5395 53.7622 108.87 65.2775 104.624Z" fill="url(#paint1_linear_1499_1321)"/>
<path d="M72.6269 101.916C84.1421 97.6693 86.9263 76.4569 78.8453 54.5387C70.7607 32.616 54.8742 18.2891 43.3589 22.5354C31.8436 26.7818 29.0594 47.9941 37.1405 69.9124C45.2215 91.8306 61.108 106.158 72.6269 101.916ZM41.5895 68.2697C34.35 48.635 36.2992 29.8391 45.9412 26.2823C55.5828 22.7295 69.2675 35.7642 76.5069 55.3989C83.7464 75.0336 81.7973 93.8295 72.1552 97.3863C62.5136 100.939 48.829 87.9044 41.5895 68.2697Z" fill="url(#paint2_linear_1499_1321)"/>
<path d="M72.1553 97.3864C62.5137 100.939 48.8286 87.9084 41.5891 68.2738C34.3496 48.6391 36.2988 29.8432 45.9408 26.2864C55.5828 22.7295 69.2675 35.7643 76.507 55.399C83.7464 75.0336 81.7973 93.8295 72.1553 97.3864Z" fill="url(#paint3_linear_1499_1321)"/>
<path d="M67.0433 94.9678C66.9128 96.7915 70.9488 96.8372 73.4479 94.9492C75.9693 93.0431 76.7795 90.437 75.4815 89.9837C74.7759 89.7348 73.4619 90.9058 71.5267 91.914C69.5951 92.9267 67.1325 93.6925 67.0433 94.9678Z" fill="white"/>
<path d="M54.9411 29.6543C54.961 27.9937 52.4239 27.3005 50.8719 27.2148C49.3199 27.1291 46.7719 27.3534 46.4688 28.9233C46.1658 30.4931 48.4845 30.5171 50.2841 30.5678C52.0837 30.6185 54.9266 30.7219 54.9411 29.6543Z" fill="white"/>
<path d="M76.1971 88.1239C77.8379 88.9507 79.5511 86.3012 77.9416 84.9045C76.3317 83.5119 74.5558 87.3011 76.1971 88.1239Z" fill="white"/>
<path d="M44.9944 30.5002C43.7948 29.11 41.1964 30.8982 42.1505 32.8074C43.1054 34.7085 46.1944 31.8864 44.9944 30.5002Z" fill="white"/>
<path d="M67.9557 55.3844C67.9517 55.3839 67.9517 55.3839 67.9477 55.3835C67.9396 55.3827 67.9312 55.3859 67.9191 55.3846C67.9111 55.3837 67.8986 55.3865 67.8901 55.3897C67.8776 55.3924 67.8692 55.3956 67.8567 55.3984C67.8482 55.4015 67.8398 55.4047 67.8357 55.4043L65.5958 56.2952C65.6341 56.2788 65.6756 56.271 65.7158 56.2752C65.7363 56.2733 65.752 56.279 65.7672 56.2888C65.7829 56.2945 65.7941 56.3038 65.8049 56.3171C65.8121 56.326 65.8193 56.3349 65.8265 56.3438C65.8337 56.3527 65.8445 56.366 65.8517 56.3749C65.8656 56.3967 65.8756 56.418 65.8855 56.4394C65.8855 56.4394 65.8855 56.4394 65.8851 56.4434C65.8951 56.4648 65.9046 56.4902 65.9137 56.5196C65.9137 56.5196 65.9133 56.5236 65.9173 56.524C65.9268 56.5494 65.9319 56.5784 65.9415 56.6038L65.941 56.6078C65.9465 56.6328 65.952 56.6578 65.9576 56.6827C65.9607 56.6912 65.9599 56.6992 65.9626 56.7117C65.9682 56.7367 65.9737 56.7617 65.9756 56.7822C66.0099 56.9972 66.0438 57.2162 66.0729 57.4428C66.079 57.5004 66.082 57.5495 66.0854 57.5946C66.085 57.5986 66.0846 57.6026 66.0837 57.6106C66.0835 57.6513 66.0842 57.6839 66.0812 57.712C66.0761 57.7603 66.0611 57.7871 66.0357 57.7967L68.2757 56.9058C68.297 56.8959 68.3121 56.869 68.3211 56.8212C68.3228 56.8051 68.3245 56.789 68.3266 56.7689C68.3283 56.7528 68.326 56.7363 68.3281 56.7162C68.3285 56.7122 68.3289 56.7081 68.3294 56.7041C68.3298 56.7001 68.3298 56.7001 68.3302 56.6961C68.3296 56.6635 68.3253 56.6265 68.3215 56.5854C68.3187 56.5729 68.3196 56.5649 68.3168 56.5524C68.3098 56.5029 68.3028 56.4534 68.2958 56.4039C68.2694 56.2303 68.2429 56.0568 68.2155 55.8913C68.2132 55.8748 68.2108 55.8583 68.2081 55.8458C68.2049 55.8374 68.2058 55.8293 68.2026 55.8209C68.1994 55.8124 68.2007 55.8003 68.1975 55.7919C68.1979 55.7879 68.1947 55.7794 68.1952 55.7754C68.1928 55.7589 68.1869 55.7379 68.1805 55.721C68.1805 55.721 68.1805 55.721 68.181 55.717L68.1814 55.713C68.1786 55.7005 68.1759 55.688 68.1731 55.6755C68.1704 55.663 68.1676 55.6505 68.1608 55.6376C68.1613 55.6336 68.1572 55.6332 68.1577 55.6292L68.1581 55.6251C68.1545 55.6207 68.1553 55.6127 68.1517 55.6082C68.1486 55.5997 68.1454 55.5913 68.1422 55.5828C68.139 55.5744 68.1359 55.5659 68.1323 55.5614C68.1327 55.5574 68.1287 55.557 68.1291 55.553C68.1291 55.553 68.1291 55.553 68.1295 55.549C68.1299 55.5449 68.1259 55.5445 68.1263 55.5405C68.1232 55.532 68.1196 55.5276 68.116 55.5232C68.1124 55.5187 68.1092 55.5102 68.1056 55.5058C68.102 55.5014 68.0988 55.4929 68.0952 55.4885C68.092 55.48 68.0884 55.4755 68.0808 55.4707C68.0772 55.4662 68.0736 55.4618 68.066 55.4569C68.0588 55.448 68.0516 55.4392 68.044 55.4343C68.0404 55.4298 68.0404 55.4298 68.0368 55.4254C68.0332 55.421 68.0256 55.4161 68.0215 55.4157C68.0179 55.4112 68.0139 55.4108 68.0099 55.4104L68.0059 55.41C68.0019 55.4095 68.0019 55.4095 67.9983 55.4051C67.9942 55.4047 67.9902 55.4043 67.9866 55.3998C67.9826 55.3994 67.9786 55.399 67.9746 55.3985C67.9705 55.3981 67.9665 55.3977 67.9625 55.3973C67.9638 55.3852 67.9597 55.3848 67.9557 55.3844Z" fill="#88569C"/>
<path d="M69.9609 61.3344C69.97 61.4411 69.9787 61.5517 69.9834 61.662C69.987 61.7437 69.9951 61.8218 69.9947 61.903C69.9964 61.9642 69.9985 62.0213 70.0002 62.0825C70.0032 62.2088 70.0062 62.3351 70.0124 62.4699C70.016 62.6289 70.0192 62.7918 70.0256 62.9632C70.0273 63.0244 70.0291 63.0855 70.0308 63.1467C70.0367 63.3221 70.0427 63.4975 70.0514 63.6855C70.0506 63.6935 70.0533 63.706 70.0521 63.7181C70.0667 64.0042 70.0842 64.3027 70.1164 64.6151C70.1211 64.6481 70.1181 64.6762 70.1228 64.7092C70.1332 64.8038 70.1468 64.9069 70.1572 65.0015C70.1671 65.1001 70.1775 65.1947 70.1911 65.2977C70.1962 65.3267 70.1972 65.3553 70.2019 65.3883C70.228 65.5658 70.2577 65.7478 70.2909 65.9343C70.2964 65.9592 70.3015 65.9882 70.307 66.0132C70.3231 66.0921 70.3392 66.171 70.3558 66.2459C70.364 66.2834 70.3727 66.3168 70.3814 66.3503C70.3865 66.3793 70.3956 66.4087 70.4011 66.4336C70.407 66.4546 70.4089 66.4751 70.4149 66.4961C70.4346 66.5794 70.4587 66.6592 70.4788 66.7386C70.4784 66.7426 70.4824 66.743 70.482 66.747C70.4848 66.7595 70.4875 66.772 70.4943 66.7849C70.5157 66.8522 70.5331 66.9191 70.5549 66.9823C70.5608 67.0033 70.5672 67.0202 70.5731 67.0411C70.585 67.083 70.6013 67.1213 70.6135 67.1592C70.6227 67.1886 70.6354 67.2225 70.644 67.2559C70.654 67.2773 70.6599 67.2982 70.6695 67.3236C70.6976 67.4038 70.7258 67.484 70.7584 67.5606C70.7643 67.5816 70.7743 67.6029 70.7802 67.6239C70.787 67.6368 70.7897 67.6493 70.7965 67.6622C70.8382 67.7682 70.8763 67.8698 70.9185 67.9717C70.957 68.0693 70.9956 68.1668 71.0341 68.2644C71.0441 68.2858 71.05 68.3067 71.0559 68.3277C71.0881 68.4083 71.1163 68.4885 71.1444 68.5687C71.1726 68.6489 71.2012 68.725 71.2249 68.8088C71.2285 68.8133 71.2281 68.8173 71.2313 68.8258C71.2586 68.914 71.2859 69.0022 71.3092 69.09C71.3156 69.107 71.3179 69.1235 71.3243 69.1404C71.3476 69.2282 71.3668 69.3156 71.3897 69.4074C71.392 69.424 71.3944 69.4405 71.4011 69.4534C71.4196 69.5488 71.4376 69.6483 71.4512 69.7513C71.4543 69.7598 71.4531 69.7718 71.4563 69.7803C71.4671 69.8709 71.4779 69.9614 71.4843 70.0556C71.4881 70.0967 71.4919 70.1377 71.4917 70.1783C71.4932 70.2029 71.4943 70.2315 71.4953 70.26C71.4797 70.2543 71.46 70.2482 71.4447 70.2385C71.4251 70.2323 71.4098 70.2226 71.3906 70.2124C71.3753 70.2027 71.3556 70.1966 71.3404 70.1868C71.3095 70.1714 71.279 70.1519 71.2485 70.1325C71.2369 70.1272 71.2257 70.1179 71.214 70.1126C71.1414 70.0684 71.0737 70.0166 71.01 69.9652C71.0064 69.9607 71.0024 69.9603 70.9988 69.9558C70.9463 69.9137 70.8978 69.8721 70.8534 69.8308C70.8458 69.826 70.8386 69.8171 70.8309 69.8122C70.7901 69.7754 70.7533 69.739 70.7204 69.703C70.7128 69.6982 70.7096 69.6897 70.702 69.6848C70.6728 69.6533 70.6432 69.6258 70.6252 69.6036C70.6216 69.5992 70.618 69.5947 70.614 69.5943C70.5956 69.5761 70.5852 69.5588 70.5776 69.5539L68.3376 70.4447C68.3452 70.4496 68.3556 70.467 68.3776 70.4896C68.3812 70.494 68.3812 70.494 68.3848 70.4985C68.4068 70.5211 68.4325 70.5482 68.4617 70.5797C68.4693 70.5846 68.4725 70.5931 68.4801 70.5979C68.5133 70.6299 68.5501 70.6663 68.5906 70.7071C68.5982 70.7119 68.6054 70.7208 68.613 70.7257C68.6575 70.767 68.7059 70.8086 68.7544 70.8503C68.7584 70.8507 68.758 70.8547 68.758 70.8547C68.762 70.8552 68.7616 70.8592 68.7656 70.8596C68.8293 70.911 68.8975 70.9588 68.9697 71.0071C68.9737 71.0075 68.9773 71.0119 68.9773 71.0119C68.9849 71.0168 68.9925 71.0217 69.0042 71.0269C69.0346 71.0464 69.0655 71.0618 69.0964 71.0773C69.1041 71.0821 69.1117 71.087 69.1193 71.0919C69.1269 71.0967 69.1386 71.102 69.1466 71.1029C69.1659 71.113 69.1815 71.1187 69.2008 71.1289C69.2124 71.1342 69.22 71.139 69.2317 71.1443C69.2433 71.1496 69.2554 71.1509 69.271 71.1566C69.2827 71.1619 69.2943 71.1672 69.3064 71.1684C69.3144 71.1693 69.318 71.1737 69.3261 71.1746C69.3498 71.1811 69.3775 71.1881 69.4012 71.1946L69.4052 71.1951C69.4092 71.1955 69.4133 71.1959 69.4173 71.1963C69.4374 71.1984 69.453 71.2042 69.4731 71.2063C69.4892 71.208 69.5013 71.2092 69.5174 71.2109C69.5214 71.2113 69.5254 71.2118 69.5294 71.2122C69.5335 71.2126 69.5335 71.2126 69.5375 71.213C69.5576 71.2151 69.5781 71.2132 69.5986 71.2113C69.6111 71.2086 69.6192 71.2094 69.6316 71.2066C69.6357 71.2071 69.6397 71.2075 69.6441 71.2039C69.6482 71.2043 69.6522 71.2047 69.6566 71.2011C69.6771 71.1992 69.6941 71.1929 69.715 71.1869C69.7275 71.1842 69.7404 71.1774 69.7529 71.1747L71.5007 70.4801C71.5028 70.5372 71.5005 70.598 71.5026 70.6551C71.5007 70.7118 71.5033 70.7649 71.4974 70.8212C71.4913 70.9954 71.4799 71.1812 71.4596 71.3742C71.349 72.1959 71.0695 72.5731 70.7341 72.7086L72.9741 71.8178C73.3095 71.6822 73.5929 71.3055 73.6996 70.4833C73.7203 70.2863 73.7312 70.1045 73.7377 69.9263C73.7398 69.9062 73.742 69.8861 73.74 69.8656C73.7398 69.829 73.7392 69.7964 73.739 69.7598C73.7411 69.6625 73.7387 69.5687 73.7363 69.475C73.7353 69.4464 73.7387 69.4142 73.7376 69.3857C73.7374 69.3491 73.7327 69.316 73.728 69.283C73.7242 69.242 73.7244 69.2014 73.7206 69.1603C73.7191 69.1358 73.7181 69.1072 73.7161 69.0867C73.7113 69.017 73.7019 68.951 73.6926 68.885C73.6894 68.8765 73.6907 68.8645 73.6875 68.856C73.6879 68.852 73.6879 68.852 73.6884 68.848C73.679 68.7819 73.6697 68.7159 73.6564 68.6495C73.6513 68.6205 73.6422 68.5911 73.6375 68.5581C73.6352 68.5416 73.6328 68.5251 73.6265 68.5081C73.6237 68.4956 73.6214 68.4791 73.6186 68.4666C73.6044 68.4082 73.5902 68.3498 73.5761 68.2914C73.5697 68.2745 73.5674 68.258 73.561 68.2411C73.5587 68.2246 73.5523 68.2076 73.546 68.1907C73.5405 68.1657 73.535 68.1408 73.5254 68.1154C73.5076 68.0525 73.4898 67.9897 73.468 67.9264C73.468 67.9264 73.468 67.9264 73.4685 67.9224C73.4689 67.9184 73.4649 67.918 73.4653 67.9139C73.4443 67.8426 73.4189 67.7749 73.3939 67.7032C73.3912 67.6907 73.3844 67.6778 73.3816 67.6653C73.3535 67.5851 73.3213 67.5045 73.2931 67.4243C73.2868 67.4074 73.2804 67.3905 73.274 67.3735C73.2705 67.3691 73.2709 67.3651 73.2673 67.3606C73.2287 67.2631 73.1902 67.1655 73.1517 67.068C73.1095 66.966 73.0714 66.8644 73.0297 66.7584C73.017 66.7246 73.0043 66.6907 72.9916 66.6569C72.963 66.5807 72.9308 66.5001 72.9026 66.4199C72.884 66.3651 72.8649 66.3143 72.8463 66.2595C72.834 66.2216 72.8181 66.1793 72.8058 66.1414C72.7781 66.0572 72.7504 65.973 72.7271 65.8852C72.7243 65.8727 72.7215 65.8602 72.7148 65.8473C72.6847 65.7466 72.6591 65.6422 72.6338 65.5339C72.6288 65.5049 72.6192 65.4795 72.6141 65.4505C72.5889 65.3422 72.5641 65.2298 72.5402 65.1094C72.4927 64.8646 72.4565 64.6291 72.4283 64.3944C72.4143 64.2954 72.4043 64.1967 72.3943 64.0981C72.3797 63.9665 72.3647 63.8389 72.3536 63.7117C72.325 63.4038 72.3039 63.1008 72.2893 62.8147C72.281 62.6228 72.2727 62.4308 72.2675 62.2474C72.2662 62.1822 72.2645 62.121 72.2628 62.0599C72.26 61.8929 72.2528 61.7295 72.2491 61.5706C72.2466 61.4403 72.2436 61.3139 72.2406 61.1876C72.2389 61.1264 72.2376 61.0613 72.2355 61.0041C72.2348 60.9715 72.2342 60.939 72.2335 60.9064C72.2306 60.8573 72.2272 60.8122 72.2242 60.7631C72.2195 60.6528 72.2112 60.5382 72.2021 60.4315C72.2014 60.3989 72.1968 60.3659 72.1961 60.3333C72.1862 60.2347 72.1762 60.1361 72.1618 60.0411C72.1626 60.033 72.1594 60.0246 72.1603 60.0165L69.9203 60.9074C69.9333 61.0551 69.9471 61.1948 69.9609 61.3344Z" fill="#88569C"/>
<path d="M71.2362 71.2163L68.9963 72.1072C68.9309 72.2263 67.7054 74.5286 67.1344 76.5216L69.3743 75.6307C69.5908 74.8851 69.8972 74.0961 70.1988 73.392C70.3006 73.1588 70.4014 72.9336 70.4966 72.7241C70.6394 72.4098 70.7787 72.1277 70.8925 71.8957C71.0839 71.5052 71.2159 71.2548 71.2362 71.2163Z" fill="#88569C"/>
<path d="M60.3939 46.716C60.063 46.8479 59.7888 47.059 59.6287 47.3836C59.4231 47.7929 59.269 49.2606 58.9436 50.9663C58.7267 52.1021 58.4338 53.3437 58.0043 54.4531C57.468 55.844 56.8774 57.7129 55.3163 58.3336L57.5562 57.4427C59.1174 56.8221 59.7083 54.9491 60.2442 53.5623C60.6777 52.4533 60.9667 51.2112 61.1835 50.0754C61.509 48.3697 61.6671 46.9025 61.8686 46.4928C61.9877 46.2492 62.1732 46.0695 62.3944 45.9382C62.4682 45.8931 62.5492 45.8569 62.6299 45.8247L60.3939 46.716Z" fill="#88569C"/>
<path d="M68.2461 79.4477C68.2783 79.4511 68.3069 79.45 68.339 79.4534C68.3797 79.4536 68.4235 79.4622 68.4641 79.4624C68.5168 79.4639 68.5703 79.4573 68.6194 79.4544C68.644 79.4529 68.6681 79.4554 68.689 79.4495C68.7015 79.4467 68.7136 79.448 68.7216 79.4488C68.8078 79.4416 68.8903 79.4299 68.9732 79.4143C68.9857 79.4115 68.9982 79.4088 69.0107 79.406C69.0357 79.4005 69.0606 79.395 69.0816 79.3891C69.1275 79.3776 69.173 79.3702 69.2193 79.3547C69.2741 79.3361 69.3289 79.3175 69.3842 79.2948L71.6241 78.4039C71.5266 78.4425 71.4258 78.4726 71.3215 78.4982C71.2965 78.5037 71.2756 78.5096 71.2506 78.5151C71.1467 78.5368 71.0392 78.5539 70.9286 78.5626C70.904 78.5641 70.8795 78.5656 70.8589 78.5675C70.7652 78.5699 70.6714 78.5722 70.5785 78.5665C70.5464 78.5632 70.5178 78.5642 70.4856 78.5608C70.3646 78.5522 70.2444 78.5355 70.117 78.5099C69.9856 78.4839 69.8474 78.445 69.7136 78.4025C69.6662 78.3894 69.6197 78.3683 69.5687 78.3507C69.4434 78.3051 69.3181 78.2594 69.186 78.2008C69.0383 78.1365 68.8842 78.0553 68.7301 77.9741C68.6378 77.9237 68.546 77.8694 68.4501 77.8146C68.3318 77.7412 68.2095 77.6674 68.088 77.5855C68.0387 77.5519 67.9893 77.5182 67.936 77.4842C67.7544 77.3553 67.5696 77.2181 67.3781 77.0679C67.1605 76.8946 66.9442 76.7093 66.7215 76.507C66.5064 76.3097 66.2999 76.1091 66.0981 75.9009C66.0357 75.8374 65.9737 75.77 65.9116 75.7025C65.7724 75.5578 65.6375 75.4094 65.5071 75.2575C65.4379 75.1812 65.3731 75.1012 65.3084 75.0212C65.182 74.8697 65.0641 74.7151 64.9421 74.56C64.885 74.4849 64.8242 74.4053 64.7675 74.3262C64.6005 74.0973 64.4379 73.8647 64.2882 73.6254C64.1453 73.3991 64.0109 73.1695 63.8764 72.9399C63.8453 72.8879 63.8142 72.8358 63.7871 72.7842C63.6539 72.5426 63.5288 72.3018 63.4081 72.0574C63.3882 72.0146 63.3647 71.9675 63.3448 71.9247C63.2317 71.6852 63.1231 71.4421 63.0225 71.1998C63.0098 71.1659 62.9971 71.1321 62.9804 71.0978C62.8739 70.8346 62.7754 70.5722 62.6854 70.3067C62.6672 70.2478 62.6449 70.1886 62.6272 70.1257C62.5962 70.0331 62.5698 69.9368 62.5397 69.8361C62.5365 69.8276 62.5373 69.8196 62.5342 69.8111C62.4867 69.6435 62.4365 69.4634 62.3908 69.2798C62.3884 69.2633 62.3821 69.2463 62.3798 69.2298C62.3363 69.0627 62.2969 68.8959 62.2575 68.7292C62.2552 68.7127 62.2484 68.6998 62.2461 68.6832C62.2067 68.5165 62.1713 68.3502 62.1351 68.1919C62.1268 68.1544 62.1181 68.121 62.1099 68.0836C62.0984 68.0376 62.091 67.9921 62.0832 67.9507C62.0749 67.9132 62.0662 67.8798 62.062 67.8428C62.0541 67.8013 62.0463 67.7598 62.034 67.7219C62.0262 67.6805 62.0183 67.639 62.0105 67.5975C62.0054 67.5685 61.9963 67.5391 61.9912 67.5101C61.9829 67.4727 61.9778 67.4437 61.9692 67.4102C61.9641 67.3812 61.9554 67.3478 61.9503 67.3188C61.9456 67.2858 61.9401 67.2608 61.931 67.2314C61.9251 67.2105 61.9236 67.1859 61.9177 67.165C61.9011 67.0901 61.8906 67.0361 61.8831 66.9906C61.878 66.9616 61.8725 66.9367 61.8698 66.9242C61.8702 66.9202 61.867 66.9117 61.8675 66.9077L59.6275 67.7985C59.6307 67.807 59.6354 67.84 59.6432 67.8815C59.6561 67.9519 59.6809 68.0643 59.7099 68.2137C59.7127 68.2262 59.715 68.2427 59.7178 68.2552C59.7288 68.3051 59.7362 68.3506 59.7468 68.4046C59.7496 68.4171 59.7527 68.4255 59.7555 68.438C59.7657 68.496 59.7799 68.5544 59.7936 68.6168C59.7991 68.6418 59.8042 68.6708 59.8097 68.6957C59.8208 68.7457 59.8282 68.7912 59.8392 68.8411C59.8475 68.8786 59.8557 68.916 59.864 68.9535C59.8722 68.9909 59.8805 69.0284 59.8888 69.0658C59.8883 69.0699 59.8919 69.0743 59.8911 69.0823C59.8907 69.0864 59.8939 69.0948 59.8934 69.0988C59.8431 69.1139 59.7923 69.1329 59.7423 69.144C59.7299 69.1467 59.7134 69.149 59.7009 69.1518C59.5724 69.1749 59.4372 69.1851 59.2988 69.1868C59.2867 69.1856 59.2743 69.1883 59.2622 69.187C59.1242 69.1847 58.9791 69.1736 58.8307 69.1539C58.7905 69.1497 58.7547 69.1419 58.7145 69.1377C58.5626 69.1136 58.4075 69.081 58.246 69.0316C58.1869 69.0132 58.1283 68.9907 58.0693 68.9724C57.9946 68.9482 57.9239 68.9246 57.8456 68.896C57.8026 68.8793 57.7601 68.8586 57.7131 68.8415C57.6159 68.7987 57.5148 68.7556 57.4144 68.7044C57.3679 68.6833 57.3258 68.6585 57.2796 68.6333C57.1099 68.5464 56.9334 68.4466 56.7581 68.3347C56.7545 68.3302 56.7465 68.3294 56.7429 68.3249C56.5981 68.2325 56.4502 68.1316 56.2986 68.0263C56.2533 67.993 56.2044 67.9554 56.1551 67.9218C56.0493 67.8456 55.9479 67.7658 55.8389 67.6812C55.7564 67.6156 55.6702 67.5456 55.5841 67.4756C55.5432 67.4388 55.4979 67.4056 55.4571 67.3688C55.3229 67.253 55.1887 67.1373 55.0473 67.0127C54.7501 66.7457 54.4711 66.4603 54.1926 66.1709C54.1193 66.0941 54.0461 66.0173 53.9733 65.9365C53.7364 65.6759 53.4999 65.4112 53.2768 65.1357C53.2444 65.0957 53.208 65.0553 53.1756 65.0153C52.9314 64.7092 52.7004 64.3923 52.4743 64.0677C52.368 63.9183 52.2707 63.7617 52.1688 63.6088C51.9868 63.3295 51.8007 63.0498 51.6283 62.7553C51.5904 62.6903 51.5458 62.6124 51.5087 62.5394C51.358 62.2716 51.2117 62.0001 51.0738 61.7255C51.0707 61.717 51.0671 61.7126 51.0639 61.7041C50.9432 61.4597 50.8265 61.2157 50.7183 60.9686C50.6953 60.9174 50.6726 60.8622 50.6459 60.8065C50.5413 60.5638 50.4376 60.3131 50.3414 60.0672C50.3251 60.0289 50.3133 59.987 50.297 59.9487C50.1985 59.6863 50.1045 59.4204 50.0189 59.1512L49.715 58.1355C49.709 58.1146 49.6143 57.7388 49.5663 57.5386C49.5324 57.3968 49.5025 57.2555 49.4766 57.1145C49.4601 57.0396 49.4476 56.9651 49.4311 56.8902C49.4131 56.7908 49.395 56.6913 49.3811 56.5923C49.3666 56.4973 49.3482 56.4018 49.3338 56.3068C49.3217 56.2283 49.3141 56.1462 49.302 56.0677C49.2837 55.9316 49.2691 55.8 49.2549 55.6644C49.2379 55.5163 49.2246 55.3726 49.2116 55.2249C49.198 55.0446 49.1889 54.8607 49.1793 54.6808C49.2367 54.7153 49.2985 54.7462 49.3598 54.7811C49.4136 54.8111 49.4678 54.8371 49.5215 54.8672C49.6022 54.9122 49.6873 54.9537 49.7719 54.9991C49.8028 55.0146 49.8297 55.0296 49.8646 55.0455C49.8915 55.0605 49.9188 55.0715 49.9461 55.0825C50.0581 55.1389 50.1704 55.1914 50.2868 55.2443C50.341 55.2703 50.3952 55.2963 50.4534 55.3227C50.6123 55.3963 50.7798 55.4668 50.9476 55.5332C50.9592 55.5384 50.9668 55.5433 50.9785 55.5486L50.9825 55.549C51.2166 55.6427 51.4519 55.7243 51.6921 55.7983C51.7198 55.8053 51.7507 55.8207 51.7785 55.8277C51.7981 55.8339 51.8223 55.8364 51.842 55.8425C51.9878 55.8863 52.1304 55.9216 52.2775 55.9533C52.3092 55.9607 52.3406 55.9721 52.3723 55.9795C52.3803 55.9804 52.3844 55.9808 52.3924 55.9816C52.468 55.9977 52.5403 56.0053 52.6123 56.0169C52.6883 56.0289 52.7638 56.045 52.8362 56.0526C52.8442 56.0535 52.8523 56.0543 52.8603 56.0551C52.8925 56.0585 52.9251 56.0579 52.9613 56.0617C53.0461 56.0665 53.1265 56.075 53.2078 56.0754C53.2323 56.0739 53.2569 56.0724 53.2814 56.0709C53.318 56.0707 53.3506 56.07 53.3836 56.0654C53.4247 56.0616 53.4689 56.0662 53.51 56.0624C53.5796 56.0575 53.6501 56.0446 53.7205 56.0316C53.733 56.0289 53.7451 56.0302 53.7576 56.0274C53.7616 56.0278 53.766 56.0242 53.7741 56.0251C53.853 56.009 53.9279 55.9924 54.0037 55.9679C54.05 55.9524 54.0963 55.9369 54.1387 55.9211L56.3786 55.0302C56.2597 55.0787 56.13 55.1139 55.9975 55.1365C55.985 55.1393 55.973 55.138 55.9605 55.1408C55.853 55.1579 55.7379 55.1703 55.6236 55.1745C55.591 55.1752 55.554 55.1794 55.5214 55.18C55.4156 55.1811 55.3106 55.1742 55.2016 55.1668C55.1695 55.1634 55.1369 55.1641 55.1007 55.1603C55.0203 55.1518 54.9407 55.1353 54.8567 55.1224C54.7807 55.1104 54.7083 55.1028 54.6328 55.0867C54.593 55.0785 54.5576 55.0667 54.5179 55.0584C54.3748 55.0271 54.2281 54.9914 54.0823 54.9476C54.0309 54.9341 53.9839 54.917 53.9329 54.8994C53.6927 54.8254 53.4574 54.7438 53.2233 54.6501C53.2117 54.6448 53.2 54.6395 53.1884 54.6343C53.0205 54.5679 52.8572 54.4979 52.6942 54.4238C52.64 54.3978 52.5858 54.3718 52.5276 54.3454C52.4112 54.2925 52.2993 54.236 52.1869 54.1836C52.1291 54.1531 52.0709 54.1267 52.0131 54.0962C51.9285 54.0507 51.8434 54.0093 51.7627 53.9642C51.709 53.9342 51.6548 53.9082 51.601 53.8781C51.5204 53.8331 51.4438 53.7885 51.3668 53.7479C51.3246 53.7231 51.2785 53.6979 51.2364 53.6732C51.1557 53.6281 51.0831 53.5839 51.0141 53.5442C50.9873 53.5291 50.9568 53.5097 50.9339 53.4951C50.8461 53.4411 50.7619 53.3916 50.6973 53.3483C50.5754 53.2704 50.4956 53.2173 50.4687 53.2023L49.1623 53.7197C49.1634 53.671 49.1604 53.6219 49.1619 53.5692C49.1684 53.391 49.1789 53.2132 49.189 53.0395C49.1947 52.9466 49.196 52.8573 49.2057 52.7648C49.2259 52.4946 49.2542 52.2252 49.2905 51.9566L49.4012 51.1349L49.5425 50.0603L50.7911 40.6464L48.5512 41.5372L47.3026 50.9511L47.1613 52.0258L47.0506 52.8475C47.0143 53.116 46.9856 53.3895 46.9657 53.6557C46.96 53.7486 46.9548 53.8375 46.9491 53.9304C46.939 54.1041 46.9248 54.2774 46.9228 54.452C46.9223 54.456 46.9219 54.46 46.9215 54.4641C46.9114 54.7923 46.9179 55.1182 46.9283 55.4445C46.929 55.4771 46.9292 55.5137 46.9298 55.5463C46.9386 55.7342 46.9517 55.9185 46.9645 56.1068C46.9732 56.2175 46.9819 56.3282 46.9946 56.4393C46.9988 56.4763 47.0035 56.5093 47.0078 56.5464C47.022 56.682 47.0406 56.814 47.0548 56.9497C47.0614 57.0032 47.0676 57.0608 47.0741 57.1143C47.0796 57.1393 47.0811 57.1638 47.0866 57.1888C47.1011 57.2838 47.1155 57.3788 47.1339 57.4743C47.1468 57.5447 47.1553 57.6188 47.1682 57.6893C47.1733 57.7182 47.1788 57.7432 47.1839 57.7722C47.1964 57.8467 47.213 57.9216 47.2295 57.9965C47.2424 58.067 47.2549 58.1415 47.2719 58.2123C47.2888 58.2832 47.3017 58.3537 47.3191 58.4206C47.3672 58.6207 47.4615 59.0006 47.4678 59.0175L47.7718 60.0332C47.8232 60.2012 47.8791 60.3656 47.9391 60.5304C47.9732 60.6316 48.0113 60.7331 48.0498 60.8307C48.0661 60.869 48.0784 60.9069 48.0943 60.9492C48.1038 60.9746 48.1129 61.004 48.1225 61.0294C48.19 61.1991 48.2576 61.3688 48.3255 61.5345C48.3486 61.5857 48.3717 61.6369 48.3948 61.6881C48.4178 61.7393 48.4405 61.7945 48.4636 61.8457C48.493 61.9138 48.522 61.986 48.5555 62.0545C48.6387 62.23 48.7219 62.4054 48.8091 62.5812C48.8123 62.5897 48.8159 62.5941 48.8191 62.6026L48.8227 62.607C48.9271 62.8131 49.0355 63.0196 49.1443 63.2221C49.1822 63.2871 49.2161 63.3516 49.254 63.4165C49.2707 63.4508 49.2914 63.4855 49.3086 63.5158C49.3289 63.5545 49.3533 63.5936 49.374 63.6283C49.453 63.7667 49.5364 63.9015 49.6198 64.0363C49.7136 64.1884 49.8163 64.3333 49.9145 64.4819C50.0163 64.6348 50.1137 64.7914 50.22 64.9408C50.2555 64.9892 50.2862 65.0453 50.3218 65.0938C50.5168 65.3663 50.7166 65.6312 50.9253 65.8888C50.9577 65.9288 50.9941 65.9692 51.0265 66.0092C51.2496 66.2847 51.4857 66.5534 51.7225 66.814C51.7958 66.8908 51.8646 66.9712 51.9378 67.048C52.2164 67.3375 52.4958 67.6188 52.7925 67.8898C52.9299 68.014 53.0677 68.1342 53.2023 68.2459C53.2472 68.2831 53.2885 68.3159 53.3333 68.3531C53.3966 68.4086 53.4639 68.4644 53.5281 68.5118C53.5469 68.526 53.5697 68.5406 53.5882 68.5588C53.6931 68.643 53.7986 68.7231 53.9044 68.7993C53.9497 68.8325 53.9986 68.8701 54.0479 68.9038C54.1994 69.0091 54.3474 69.11 54.4921 69.2025L54.4962 69.2029C54.4998 69.2073 54.5038 69.2078 54.5078 69.2082C54.6871 69.3205 54.86 69.4159 55.0333 69.5073C55.0566 69.5178 55.0791 69.5365 55.1023 69.547C55.1256 69.5576 55.1489 69.5682 55.1682 69.5783C55.2685 69.6295 55.3696 69.6727 55.4668 69.7154C55.4981 69.7268 55.5286 69.7463 55.5599 69.7577C55.5715 69.763 55.5836 69.7642 55.5952 69.7695C55.6695 69.7977 55.7442 69.8218 55.8189 69.8459C55.8623 69.8585 55.9049 69.8793 55.9442 69.8915C55.9599 69.8972 55.9756 69.903 55.9916 69.9046C56.1102 69.9374 56.2291 69.9662 56.3404 69.99C56.3802 69.9983 56.4204 70.0025 56.4606 70.0067C56.5004 70.015 56.5406 70.0192 56.5768 70.023C56.613 70.0268 56.6528 70.035 56.6849 70.0384C56.7895 70.0494 56.8904 70.0559 56.9878 70.058C56.9918 70.0584 56.9998 70.0593 57.0043 70.0557C57.0163 70.057 57.0288 70.0542 57.0409 70.0555C57.1141 70.055 57.1873 70.0546 57.2574 70.0457C57.3189 70.0399 57.3809 70.0302 57.4389 70.02C57.4514 70.0173 57.4679 70.0149 57.48 70.0162C57.4884 70.013 57.4965 70.0139 57.5045 70.0147C57.5834 69.9986 57.6588 69.9781 57.7341 69.9575C57.7845 69.9425 57.8353 69.9234 57.882 69.9039L59.8761 69.1092C59.906 69.2506 59.9394 69.3964 59.9765 69.5466C59.9829 69.5635 59.9848 69.5841 59.9911 69.601C60.0305 69.7677 60.0699 69.9345 60.1098 70.0972C60.1125 70.1097 60.1153 70.1222 60.1184 70.1306C60.118 70.1346 60.1216 70.1391 60.1212 70.1431C60.167 70.3268 60.2172 70.5069 60.2646 70.6744C60.2682 70.6789 60.2674 70.6869 60.2709 70.6914C60.2705 70.6954 60.2745 70.6958 60.2741 70.6998C60.3042 70.8006 60.3307 70.8968 60.3616 70.9895C60.3648 70.998 60.3675 71.0105 60.3707 71.0189C60.3857 71.0693 60.4044 71.1241 60.4198 71.1704C60.4349 71.2208 60.4539 71.2716 60.473 71.3224C60.5234 71.4618 60.5734 71.6053 60.6278 71.7451C60.6568 71.8173 60.6858 71.8894 60.7184 71.966C60.7311 71.9999 60.7438 72.0337 60.7606 72.068C60.7773 72.1023 60.7896 72.1402 60.8023 72.174C60.8639 72.3228 60.93 72.4679 60.9956 72.6171C61.0219 72.6768 61.0521 72.7369 61.0828 72.7929C61.1027 72.8357 61.1262 72.8829 61.1461 72.9256C61.1732 72.9772 61.1959 73.0325 61.2226 73.0881C61.3098 73.2639 61.4015 73.4362 61.4968 73.6128C61.5035 73.6258 61.5139 73.6431 61.5207 73.656C61.5478 73.7076 61.5829 73.7601 61.61 73.8117C61.6926 73.9546 61.7747 74.1014 61.8618 74.2406C61.9136 74.3274 61.9659 74.4101 62.0218 74.4973C62.1507 74.7019 62.2845 74.8988 62.4223 75.0962C62.4471 75.1314 62.4759 75.1669 62.5007 75.202C62.5574 75.2812 62.6186 75.3567 62.6753 75.4358C62.7932 75.5905 62.9152 75.7456 63.0415 75.8971C63.1063 75.977 63.1711 76.057 63.2403 76.1334C63.3707 76.2853 63.5055 76.4336 63.6444 76.5823C63.7064 76.6498 63.7684 76.7173 63.8309 76.7808C64.0326 76.989 64.2392 77.1895 64.4543 77.3869C64.6769 77.5891 64.8973 77.7749 65.1108 77.9477C65.1144 77.9522 65.118 77.9566 65.1221 77.957C65.306 78.1024 65.4872 78.2352 65.6652 78.3596C65.7145 78.3932 65.7678 78.4273 65.8171 78.4609C65.8853 78.5087 65.9575 78.5569 66.026 78.6007C66.0794 78.6348 66.13 78.6564 66.1833 78.6904C66.2792 78.7452 66.371 78.7996 66.4633 78.8499C66.5094 78.8751 66.5588 78.9087 66.6053 78.9299C66.7097 78.9815 66.814 79.0331 66.9192 79.0766C66.9966 79.1132 67.0705 79.1454 67.1488 79.1739C67.1994 79.1955 67.2508 79.209 67.3018 79.2266C67.3488 79.2437 67.3958 79.2608 67.4428 79.278C67.4665 79.2845 67.4938 79.2955 67.5211 79.3065C67.6275 79.338 67.7344 79.3655 67.8381 79.3845C67.8421 79.3849 67.8461 79.3854 67.8461 79.3854C67.9494 79.4084 68.0535 79.4234 68.1541 79.4339C68.2095 79.4479 68.226 79.4456 68.2461 79.4477Z" fill="#88569C"/>
<path d="M58.2228 69.0578C57.2795 68.788 56.2156 68.1193 55.0277 67.0434C53.6988 65.8388 52.5634 64.4187 51.6132 62.7823C51.5753 62.7173 51.5306 62.6395 51.4936 62.5665C50.879 61.4897 50.3841 60.3564 50.0078 59.1787L49.7038 58.163C49.6979 58.142 49.6032 57.7662 49.5551 57.5661C49.3759 56.7952 49.2574 56.0266 49.2005 55.2523C49.1109 54.1697 49.1396 53.0833 49.2826 51.9926L49.3892 51.1704L49.5305 50.0958L50.7791 40.6819L58.8254 47.9863C58.8257 48.0229 58.7928 48.7227 58.6596 49.7209C58.4384 51.401 57.9316 53.8276 56.8319 54.7772C55.0716 56.2875 50.6885 53.3923 50.4563 53.2419C50.6636 53.475 54.5822 57.8906 56.7448 57.6583C58.9075 57.4261 59.594 55.1851 60.213 53.5874C60.6465 52.4784 60.9355 51.2364 61.1523 50.1006C61.4777 48.3949 61.6359 46.9277 61.8374 46.5179C62.3222 45.5403 63.8435 45.57 64.9084 45.8038C65.4726 45.928 65.9086 46.112 65.9821 46.2254C66.0104 46.265 66.0429 46.3822 66.0943 46.5502C66.2311 47.028 66.4568 47.9379 66.7095 48.9767C67.233 51.1537 67.8795 53.9005 68.0999 54.318C68.4156 54.9121 68.9278 55.2992 69.6337 56.6295C70.0512 57.4538 70.3046 58.3707 70.3196 58.4211C70.8993 60.9535 71.088 65.6605 71.0982 65.9502C71.1005 65.9667 72.794 67.2218 72.5326 69.17C72.5266 69.2263 72.5163 69.2862 72.5064 69.342C72.1201 71.395 70.6184 69.6682 70.5424 69.5789C70.5056 69.697 69.8381 71.9115 69.3642 75.496C69.3587 75.5483 69.3488 75.6042 69.3429 75.6605C69.9179 73.6679 71.143 71.3697 71.2048 71.2461C71.3089 71.3383 73.3267 73.0665 73.6644 70.5084C73.9346 67.935 72.9164 67.2956 72.5118 65.1474C72.1077 62.9951 72.3106 61.3334 72.123 60.0617L75.4667 63.0998L74.0743 73.6125C73.8232 75.5008 73.3531 76.8417 72.6632 77.6433C71.9693 78.4444 71.1126 78.7447 70.0898 78.5357C69.7912 78.4759 69.4811 78.3702 69.1628 78.227C68.3929 77.8941 67.5702 77.3281 66.6983 76.5332C65.7596 75.6786 64.9456 74.7191 64.2614 73.6472C63.5768 72.5794 63.0468 71.4708 62.6582 70.3324C62.2787 69.2235 61.8682 67.0543 61.8474 66.9423C61.8113 67.0158 61.1349 68.4245 60.5467 68.8383C59.938 69.2541 59.166 69.3275 58.2228 69.0578ZM67.5955 55.948C67.629 56.2482 67.8119 56.5967 68.0377 56.8074C68.2007 56.9587 68.2799 56.9792 68.2978 56.8469C68.3042 56.7866 68.301 56.7009 68.2891 56.5818C68.26 56.3552 68.2221 56.1357 68.1918 55.9212C68.1551 55.6897 68.0748 55.4089 67.924 55.4133C67.7904 55.4074 67.6459 55.5061 67.6045 55.6684C67.5983 55.6881 67.5958 55.7122 67.5937 55.7323C67.5825 55.8003 67.5834 55.8695 67.5955 55.948Z" fill="white"/>
<ellipse cx="57.7731" cy="61.961" rx="45.887" ry="35.8773" transform="rotate(70.8227 57.7731 61.961)" fill="url(#paint4_radial_1499_1321)" style="mix-blend-mode:screen"/>
<defs>
<linearGradient id="paint0_linear_1499_1321" x1="21.1386" y1="47.4011" x2="87.4649" y2="79.742" gradientUnits="userSpaceOnUse">
<stop offset="0.00266426" stop-color="#EBD4FF"/>
<stop offset="1" stop-color="#E8C2FF"/>
</linearGradient>
<linearGradient id="paint1_linear_1499_1321" x1="54.1685" y1="23.6699" x2="45.7507" y2="103.84" gradientUnits="userSpaceOnUse">
<stop offset="0.00267928" stop-color="#A943FF"/>
<stop offset="0.4406" stop-color="#A543FF"/>
<stop offset="1" stop-color="#AD43FF"/>
</linearGradient>
<linearGradient id="paint2_linear_1499_1321" x1="27.2477" y1="47.2328" x2="88.7372" y2="77.2153" gradientUnits="userSpaceOnUse">
<stop stop-color="#F5EBFF"/>
<stop offset="0.3275" stop-color="#F7F4FA"/>
<stop offset="0.4179" stop-color="#F8F8F8"/>
<stop offset="0.4999" stop-color="#F6EEFD"/>
<stop offset="0.596" stop-color="white"/>
<stop offset="1" stop-color="#F6EFFD"/>
</linearGradient>
<linearGradient id="paint3_linear_1499_1321" x1="63.299" y1="26.9029" x2="57.0777" y2="96.9689" gradientUnits="userSpaceOnUse">
<stop stop-color="#9F67B9"/>
<stop offset="0.4963" stop-color="#9B90CD"/>
<stop offset="1" stop-color="#96BAE1"/>
</linearGradient>
<radialGradient id="paint4_radial_1499_1321" cx="0" cy="0" r="1" gradientUnits="userSpaceOnUse" gradientTransform="translate(57.7731 61.961) rotate(90) scale(35.8772 45.887)">
<stop stop-color="#9F67B9"/>
<stop offset="1" stop-opacity="0"/>
</radialGradient>
</defs>
</svg>
