<svg width="107" height="59" viewBox="0 0 107 59" fill="none" xmlns="http://www.w3.org/2000/svg">
<path d="M104.756 56.2327C104.897 56.2433 104.967 56.2468 105.108 56.2573C104.82 55.7058 104.851 54.8453 104.851 54.8453C104.844 54.8418 104.542 55.6532 104.756 56.2327ZM47.0164 6.2626C48.5233 6.8211 50.9505 6.75085 52.482 6.09751C75.349 16.3824 93.4177 32.2874 105.838 54.1217C105.954 54.1111 106.077 54.1111 106.211 54.1217C93.7936 32.1153 75.5281 16.0171 52.5066 5.71814C50.9716 6.37149 48.5408 6.44174 47.0304 5.88324C46.3806 5.64438 45.9134 4.96645 45.9134 4.96645C45.8959 4.96645 46.1418 5.93944 47.0164 6.2626ZM29.1022 2.53574C29.7239 2.14584 30.0365 1.95265 30.6653 1.56977C32.2846 1.90347 34.8031 1.49601 36.3381 0.645961C39.798 1.51357 43.2684 2.5814 46.6195 3.80378C46.7424 3.72299 46.8864 3.64572 47.041 3.57195C43.553 2.28634 39.9315 1.16934 36.3241 0.266602C34.7891 1.11665 32.2635 1.52762 30.6407 1.19393C29.8855 1.65408 29.5096 1.88591 28.7614 2.35659C28.9371 2.39523 29.0495 2.45846 29.1022 2.53574ZM101.897 56.0747C102.003 56.0782 102.055 56.0817 102.164 56.0852C102.115 55.9974 102.083 55.8428 102.076 55.8358C102.055 55.8253 101.911 55.9658 101.897 56.0747ZM26.1551 4.42902C26.5801 4.14802 26.7909 4.01102 27.2159 3.73353C27.6866 3.81783 28.4207 3.66679 28.8563 3.39281C29.183 3.18557 29.1127 2.82377 29.0495 2.83431C29.0249 2.83782 28.923 2.96076 28.8247 3.02399C28.3891 3.29797 27.655 3.45252 27.1808 3.36471C26.6293 3.72299 26.3553 3.90213 25.8074 4.26393C25.9865 4.29203 26.1024 4.35175 26.1551 4.42902ZM99.3821 56.0114C99.4875 56.0114 99.5402 56.015 99.6456 56.015C99.5964 55.9271 99.5612 55.7726 99.5542 55.7691C99.5367 55.7585 99.3962 55.9025 99.3821 56.0114ZM23.2677 6.38905C23.6822 6.10102 23.8895 5.957 24.3075 5.67248C24.7782 5.74625 25.5018 5.57764 25.9303 5.29312C26.2499 5.07885 26.1762 4.71706 26.1129 4.72759C26.0884 4.73111 25.99 4.85756 25.8917 4.9243C25.4666 5.20531 24.7395 5.37742 24.2653 5.30366C23.7244 5.67248 23.4574 5.85865 22.92 6.23098C23.0956 6.25557 23.2151 6.31177 23.2677 6.38905ZM39.1763 10.2951C39.5978 10.425 40.2652 10.3513 40.6726 10.13C42.3025 9.2483 43.1315 8.81625 44.8035 7.98377C45.1231 7.8257 45.0845 7.46039 45.0212 7.4639C45.0002 7.4639 44.8983 7.56226 44.8105 7.60792C43.135 8.4404 42.306 8.86894 40.6691 9.75411C40.2617 9.97541 39.5943 10.0457 39.1728 9.91569C39.0744 9.88408 38.962 9.80329 38.9444 9.80329C38.9163 9.8068 38.8531 9.94028 38.8566 10.007C38.8566 10.1264 38.962 10.2318 39.1763 10.2951ZM96.8917 56.0185C96.9971 56.0185 97.0462 56.015 97.1516 56.015C97.1024 55.9307 97.0638 55.7796 97.0568 55.7761C97.0392 55.762 96.9022 55.9096 96.8917 56.0185ZM20.4436 8.40528C20.8476 8.11022 21.0513 7.96269 21.4588 7.66763C21.9294 7.73086 22.6495 7.54469 23.064 7.25315C23.3801 7.03185 23.2958 6.67357 23.2361 6.68411C23.2115 6.68762 23.1167 6.81759 23.0184 6.88433C22.6004 7.17587 21.8838 7.36204 21.4096 7.30232C20.8827 7.68168 20.6193 7.87136 20.0959 8.25775C20.2715 8.27531 20.3874 8.33151 20.4436 8.40528ZM94.4258 56.0922C94.5277 56.0887 94.5804 56.0852 94.6858 56.0817C94.6331 55.9974 94.5945 55.8464 94.5874 55.8428C94.5664 55.8358 94.4329 55.9833 94.4258 56.0922ZM17.2401 10.8184C17.8092 10.3758 18.0937 10.1581 18.6698 9.7225C19.1369 9.77168 19.8465 9.57146 20.2575 9.26938C20.5666 9.04106 20.4752 8.68629 20.4155 8.70034C20.3909 8.70385 20.2996 8.83381 20.2048 8.90407C19.7938 9.20615 19.0878 9.40637 18.6136 9.35719C17.8829 9.90867 17.5211 10.1862 16.8046 10.7447C16.9626 10.7622 17.1102 10.7868 17.2401 10.8184ZM31.6383 14.8122C32.0598 14.9141 32.7061 14.8017 33.0925 14.5593C34.6415 13.5828 35.4283 13.1086 37.0231 12.1813C37.3287 12.0057 37.2689 11.6474 37.2092 11.6509C37.1882 11.6544 37.0968 11.7563 37.009 11.8055C35.4143 12.7328 34.624 13.2105 33.0714 14.1835C32.685 14.4259 32.0317 14.5418 31.6102 14.4399C31.5118 14.4153 31.3959 14.3416 31.3783 14.3416C31.3502 14.3451 31.294 14.4856 31.301 14.5488C31.3151 14.6647 31.4275 14.7596 31.6383 14.8122ZM88.3526 56.5735C88.4861 56.5594 88.5493 56.5524 88.6828 56.5348C88.3526 56.0536 88.2858 55.2176 88.2858 55.2176C88.2788 55.2176 88.0891 56.0536 88.3526 56.5735ZM10.6049 16.291C11.1739 15.7923 11.4619 15.5429 12.038 15.0511C13.6222 15.1284 15.951 14.3556 17.2928 13.3018C18.0551 12.7012 18.1288 11.7106 18.1288 11.7106C18.1148 11.7141 17.7916 12.4974 17.2296 12.94C15.8878 13.9973 13.5484 14.7701 11.9642 14.6928C11.2758 15.2794 10.9315 15.578 10.2536 16.1716C10.4257 16.1822 10.5416 16.2243 10.6049 16.291ZM85.6022 56.9317C85.7006 56.9177 85.7497 56.9107 85.8516 56.8966C85.7954 56.8193 85.7462 56.6753 85.7427 56.6718C85.7216 56.6648 85.6022 56.8229 85.6022 56.9317ZM24.4972 19.7474C24.9152 19.8212 25.5474 19.6702 25.9127 19.4067C27.3775 18.3459 28.1221 17.826 29.6326 16.8109C29.9206 16.6177 29.8433 16.2665 29.7871 16.277C29.766 16.2805 29.6817 16.3894 29.601 16.4421C28.087 17.4607 27.3388 17.9806 25.8706 19.0414C25.5088 19.3049 24.873 19.4559 24.455 19.3821C24.3566 19.3646 24.2407 19.2978 24.2232 19.3013C24.1951 19.3084 24.1494 19.4489 24.1599 19.5121C24.174 19.621 24.2864 19.7123 24.4972 19.7474ZM8.06525 18.5742C8.43056 18.2405 8.6097 18.0719 8.97852 17.7417C9.43867 17.7523 10.1131 17.4924 10.4889 17.1622C10.7735 16.9128 10.6575 16.5721 10.5978 16.5896C10.5732 16.5966 10.496 16.7336 10.4081 16.8074C10.0323 17.1376 9.35788 17.3975 8.89422 17.3905C8.42002 17.819 8.18116 18.0368 7.71399 18.4689C7.88259 18.4689 8.00202 18.5075 8.06525 18.5742ZM83.2593 57.3076C83.3577 57.29 83.4068 57.283 83.5052 57.2654C83.449 57.1917 83.3963 57.0477 83.3928 57.0441C83.3717 57.0371 83.2593 57.1987 83.2593 57.3076ZM5.58887 20.9066C5.94364 20.5659 6.12278 20.3938 6.47756 20.0565C6.93419 20.0565 7.6051 19.7791 7.96689 19.4418C8.24088 19.1854 8.12145 18.8482 8.06525 18.8693C8.04066 18.8763 7.96689 19.0133 7.87908 19.0906C7.51377 19.4278 6.84638 19.7053 6.38623 19.7088C5.92257 20.1479 5.69425 20.3692 5.2341 20.8118C5.40621 20.8082 5.52564 20.8434 5.58887 20.9066ZM80.9445 57.7396C81.0429 57.7186 81.092 57.7115 81.1869 57.6905C81.1307 57.6167 81.0745 57.4762 81.071 57.4727C81.0569 57.4692 80.9445 57.6343 80.9445 57.7396ZM3.17572 23.2916C3.51995 22.9439 3.69207 22.7683 4.03982 22.424C4.49294 22.41 5.15331 22.122 5.50808 21.7742C5.77855 21.5108 5.64858 21.1806 5.59238 21.2017C5.56779 21.2087 5.49754 21.3457 5.41675 21.4265C5.05847 21.7742 4.40513 22.0622 3.94498 22.0763C3.49536 22.5259 3.27056 22.7507 2.82446 23.2038C2.99658 23.1933 3.11249 23.2284 3.17572 23.2916ZM17.7705 25.069C18.185 25.1182 18.7962 24.9285 19.1405 24.644C20.5174 23.5059 21.2199 22.9474 22.6425 21.848C22.913 21.6372 22.8181 21.2965 22.7619 21.3105C22.7409 21.3141 22.6636 21.4265 22.5863 21.4862C21.1602 22.5856 20.4577 23.1441 19.0737 24.2857C18.7295 24.5702 18.1183 24.7599 17.7003 24.7142C17.6054 24.7037 17.486 24.644 17.4685 24.6475C17.4404 24.6545 17.4052 24.7985 17.4193 24.8583C17.4439 24.9672 17.5633 25.0444 17.7705 25.069ZM78.6648 58.2314C78.7597 58.2103 78.8089 58.1998 78.9037 58.1752C78.8475 58.1049 78.7913 57.9644 78.7843 57.9609C78.7667 57.9609 78.6613 58.126 78.6648 58.2314ZM0.534249 26.0385C0.987373 25.5538 1.21569 25.3149 1.67233 24.8337C2.12545 24.8091 2.76826 24.507 3.11952 24.1522C3.37945 23.8853 3.24597 23.5586 3.18977 23.5797C3.16518 23.5867 3.09844 23.7272 3.01765 23.808C2.6699 24.1628 2.02359 24.4684 1.56695 24.493C0.976836 25.1077 0.685291 25.4168 0.105713 26.0385C0.260267 26.028 0.404283 26.028 0.534249 26.0385ZM16.5271 28.3111C16.6851 28.3287 16.7624 28.3357 16.9205 28.3533C17.3385 27.8826 17.2858 27.1063 17.2858 27.1063C17.2753 27.1063 17.0188 27.8756 16.5271 28.3111ZM0.913609 27.9774C1.06816 27.9669 1.14544 27.9634 1.29999 27.9529C1.62667 27.4611 1.50021 26.7656 1.50021 26.7656C1.48616 26.7691 1.31756 27.5103 0.913609 27.9774Z" fill="#19D845"/>
<path d="M74.6043 36.2916C74.8291 36.4883 75.082 36.6393 75.3595 36.7412C75.637 36.8431 75.8759 36.8747 76.0691 36.8255C76.178 36.7974 76.2552 36.7482 76.2974 36.678C76.3431 36.6077 76.3466 36.5234 76.3079 36.4286C76.2728 36.3372 76.192 36.2284 76.0691 36.1195C75.9426 36.0071 75.7846 35.9017 75.6054 35.8033C75.4263 35.705 75.2506 35.6312 75.075 35.5785C74.9591 35.5434 74.8467 35.5153 74.7343 35.5048C74.6254 35.4907 74.5411 35.4942 74.4849 35.5083C74.3058 35.5539 74.2179 35.5785 74.0388 35.6242C74.095 35.7296 74.1758 35.842 74.2777 35.9649C74.3865 36.0878 74.4954 36.1967 74.6043 36.2916ZM82.5322 44.7113C83.0521 45.2838 83.305 45.5718 83.8108 46.1549C84.3904 46.0566 84.682 46.0109 85.2686 45.9231C84.7838 45.3541 84.5415 45.0731 84.0462 44.5146C83.9443 44.4022 83.8249 44.3073 83.6809 44.23C83.5404 44.1563 83.3963 44.1001 83.2418 44.0685C83.0908 44.0404 82.9467 44.0368 82.8062 44.0614C82.6657 44.086 82.5639 44.1352 82.4901 44.1984C82.4198 44.2652 82.3812 44.3424 82.3812 44.4232C82.3847 44.5075 82.4339 44.6024 82.5322 44.7113ZM77.3371 40.7526C77.4811 40.8896 77.6568 41.0125 77.864 41.1109C78.0642 41.2092 78.282 41.283 78.5033 41.3216C78.7211 41.3602 78.9424 41.3638 79.1672 41.3357C78.5033 40.6718 78.1661 40.3416 77.4811 39.6918C77.295 39.7515 77.1615 39.8428 77.0948 39.9517C77.0245 40.0606 77.0105 40.187 77.0491 40.3205C77.0807 40.454 77.1791 40.598 77.3371 40.7526ZM43.3879 19.4382C43.5881 19.5119 43.82 19.5611 44.0799 19.5787C44.3363 19.5962 44.5962 19.5857 44.8562 19.5471C45.1126 19.5049 45.3655 19.4311 45.6044 19.3258C44.67 18.9534 44.1993 18.7708 43.2509 18.4195C43.0577 18.5424 42.9383 18.6689 42.8891 18.7954C42.8435 18.9218 42.861 19.0412 42.9383 19.1501C43.0156 19.2555 43.1666 19.3539 43.3879 19.4382ZM80.1015 45.3787C80.5617 45.8704 80.79 46.1198 81.2431 46.6186C81.7876 46.5132 82.058 46.4605 82.606 46.3622C82.174 45.8739 81.9562 45.6316 81.5136 45.1468C81.4293 45.052 81.3204 44.9677 81.1975 44.8974C81.0745 44.8272 80.9375 44.778 80.797 44.7534C80.6495 44.7253 80.5055 44.7288 80.3474 44.7604C80.1929 44.792 80.0805 44.8412 80.0243 44.9045C79.9645 44.9677 79.9364 45.0414 79.9505 45.1187C79.9645 45.196 80.0137 45.2838 80.1015 45.3787ZM45.0213 7.46725C45.1969 7.6218 45.1231 7.82904 44.8035 7.98711C43.1315 8.81959 42.306 9.24813 40.6727 10.1333C40.2652 10.3546 39.5978 10.4248 39.1763 10.2984C38.9656 10.2352 38.8602 10.1298 38.8532 10.0139C38.8496 9.94714 38.8813 9.87688 38.941 9.81015C38.9901 9.75746 39.0569 9.70477 39.1412 9.6591C40.771 8.75637 41.6 8.31378 43.272 7.46022C43.69 7.24947 44.375 7.19678 44.7929 7.34431C44.8913 7.37592 44.9686 7.41807 45.0213 7.46725ZM37.2093 11.6507C37.3884 11.7948 37.3287 12.002 37.0231 12.1811C35.4284 13.1085 34.6451 13.5862 33.0925 14.5592C32.7061 14.8015 32.0598 14.9139 31.6383 14.8121C31.4275 14.7629 31.3151 14.6681 31.3011 14.5521C31.2941 14.4854 31.3186 14.4152 31.3784 14.3449C31.4205 14.2922 31.4837 14.236 31.568 14.1833C33.1171 13.1893 33.9039 12.701 35.4951 11.7526C35.892 11.5173 36.563 11.4224 36.9809 11.5454C37.0793 11.57 37.1566 11.6086 37.2093 11.6507ZM63.5432 25.536C61.4075 26.2983 60.3537 26.7057 58.2848 27.5593C57.6947 27.215 57.3961 27.0464 56.7955 26.7092C58.8714 25.8241 59.9252 25.4061 62.0644 24.6122C62.6615 24.981 62.9566 25.1637 63.5432 25.536ZM81.3801 39.8604C81.7068 40.1941 81.9316 40.5067 82.044 40.7947C82.1564 41.0792 82.181 41.3427 82.1213 41.5675C82.0616 41.7923 81.9211 41.9855 81.7068 42.1365C81.496 42.2876 81.2185 42.4 80.8848 42.4632C80.4106 42.558 79.8978 42.5651 79.3463 42.4843C78.7984 42.4035 78.2504 42.2384 77.7059 41.989C77.165 41.7396 76.6732 41.4094 76.2271 40.9914C75.7846 40.5734 75.5176 40.187 75.4333 39.8323C75.349 39.4775 75.4228 39.1754 75.6441 38.926C75.8653 38.6766 76.2061 38.494 76.6592 38.3851C76.747 38.364 76.8383 38.3464 76.9332 38.3359C77.028 38.3219 77.1088 38.3113 77.1791 38.3008C78.3663 39.4072 78.9459 39.9693 80.0769 41.1144C80.2842 41.0582 80.4247 40.9739 80.4879 40.8615C80.5547 40.7491 80.5617 40.6191 80.5125 40.4751C80.4598 40.3311 80.365 40.1906 80.228 40.0501C80.0453 39.8674 79.8205 39.7128 79.5571 39.5794C79.2936 39.4494 79.0372 39.3791 78.8054 39.3651C78.549 38.9366 78.419 38.7223 78.1556 38.2973C78.5244 38.3324 78.8967 38.4167 79.2761 38.5502C79.6519 38.6837 80.0243 38.8593 80.3931 39.0806C80.7549 39.3019 81.0851 39.5618 81.3801 39.8604ZM74.8397 37.8231C74.5938 38.0584 74.4708 38.1743 74.2285 38.4097C73.7437 38.227 73.2976 38.0268 72.8972 37.802C72.4968 37.5772 72.1279 37.3243 71.7907 37.0433C71.162 36.5199 70.8458 36.0668 70.8423 35.6734C70.8423 35.2835 71.1866 34.9814 71.8786 34.7847C72.3984 34.6371 72.6619 34.5634 73.1852 34.4194C73.3398 34.3772 73.4276 34.3316 73.4522 34.2789C73.4768 34.2297 73.4417 34.1594 73.3503 34.0786C73.8737 33.9381 74.1372 33.8679 74.6675 33.7309C74.8081 33.8152 74.931 33.8925 75.0329 33.9698C75.1312 34.0435 75.219 34.1138 75.2858 34.1735C75.5281 34.3807 75.6476 34.5564 75.6546 34.6933C75.6581 34.8268 75.5773 34.9392 75.4122 35.02C75.3349 35.0551 75.2963 35.0727 75.219 35.1078C75.6932 35.1921 76.1393 35.3256 76.5468 35.5153C76.9578 35.705 77.2985 35.9298 77.5725 36.1827C77.8429 36.4321 78.0151 36.6709 78.0888 36.8993C78.1661 37.1311 78.138 37.3313 78.0151 37.4999C77.8956 37.6685 77.6778 37.7915 77.3722 37.8617C77.0456 37.939 76.6838 37.939 76.2833 37.8652C75.8829 37.7915 75.479 37.6545 75.068 37.4542C74.657 37.254 74.2812 37.0046 73.9334 36.7026C73.7648 36.555 73.6173 36.4075 73.4873 36.26C73.3574 36.1089 73.266 35.9754 73.2063 35.8525C73.1185 35.8771 73.0728 35.8876 72.985 35.9122C72.711 35.9895 72.5705 36.1054 72.5705 36.26C72.5705 36.4145 72.711 36.6112 72.992 36.8501C73.2204 37.0468 73.4838 37.2189 73.7824 37.3699C74.0845 37.521 74.4357 37.672 74.8397 37.8231ZM58.7625 22.5819C59.1876 22.8208 59.4931 23.0667 59.6758 23.3125C59.8549 23.5584 59.9357 23.8008 59.9111 24.0326C59.883 24.2645 59.7671 24.4822 59.5599 24.6789C59.3526 24.8792 59.0681 25.0478 58.6993 25.1953C58.2181 25.3885 57.6701 25.5114 57.0554 25.5641C56.4442 25.6168 55.812 25.5887 55.1691 25.4833C54.5263 25.378 53.9257 25.1848 53.3602 24.8967C52.7771 24.5982 52.4047 24.2961 52.2502 23.9799C52.0956 23.6638 52.1237 23.3617 52.338 23.0702C53.1354 23.2809 53.5358 23.3898 54.3261 23.6181C54.2664 23.7376 54.2664 23.8605 54.3261 23.9764C54.3858 24.0923 54.5123 24.2012 54.695 24.2996C54.9057 24.4085 55.1516 24.4858 55.4326 24.5244C55.7171 24.563 56.0051 24.5701 56.3037 24.5384C56.5988 24.5068 56.8833 24.4366 57.1502 24.3242C57.4207 24.2118 57.6069 24.0853 57.7158 23.9448C57.8247 23.8078 57.8493 23.6673 57.7895 23.5233C57.7298 23.3828 57.5999 23.2528 57.3961 23.1439C57.2627 23.0702 57.1151 23.014 56.9571 22.9683C56.8025 22.9262 56.6339 22.8981 56.4618 22.884C56.2897 22.87 56.1281 22.8664 55.9806 22.8805C55.5731 22.4836 55.3659 22.2834 54.9514 21.89C55.3623 21.8373 55.7874 21.8232 56.2194 21.8548C56.655 21.8864 57.0835 21.9602 57.5226 22.0761C57.9617 22.192 58.3726 22.3641 58.7625 22.5819ZM47.6627 17.1971C48.1229 17.3868 48.4636 17.5976 48.6744 17.8189C48.8816 18.0401 48.987 18.2685 48.9835 18.4968C48.98 18.7216 48.8816 18.9464 48.6814 19.1607C48.4882 19.3714 48.2107 19.5716 47.8524 19.7473C47.3466 20.0002 46.7741 20.1863 46.1312 20.3058C45.492 20.4252 44.8316 20.4709 44.1537 20.4357C43.4722 20.4006 42.8259 20.2742 42.2112 20.0494C41.5965 19.8245 41.189 19.5681 40.9958 19.2766C40.8026 18.985 40.7991 18.683 40.9818 18.3738C41.1644 18.0647 41.4876 17.7767 41.9653 17.5133C42.0602 17.4606 42.155 17.4149 42.2569 17.3692C42.3622 17.3236 42.4465 17.2849 42.5203 17.2498C44.1537 17.8364 44.9616 18.1455 46.5598 18.7989C46.7776 18.6759 46.9075 18.546 46.9497 18.423C46.9918 18.2966 46.9637 18.1736 46.8654 18.0612C46.767 17.9488 46.623 17.854 46.4298 17.7732C46.1734 17.6678 45.8748 17.6046 45.5446 17.58C45.2074 17.5519 44.9054 17.5765 44.6384 17.6467C44.2309 17.3447 44.0237 17.1971 43.6127 16.8986C44.0377 16.8002 44.4768 16.744 44.937 16.7335C45.3971 16.7194 45.8608 16.7545 46.335 16.8248C46.8057 16.9021 47.2518 17.025 47.6627 17.1971ZM68.6575 33.4007C68.1552 33.3902 67.6845 33.3305 67.249 33.2181C66.8099 33.1021 66.4551 32.9511 66.1846 32.7614C66.1249 32.7193 66.0757 32.6841 66.0476 32.6631C66.0195 32.642 65.995 32.6209 65.9739 32.5998C66.5324 32.4067 66.8134 32.3118 67.3789 32.1256C67.7091 32.368 68.0674 32.5647 68.4538 32.7263C68.8366 32.8879 69.209 32.9757 69.5602 32.9933C70.7967 32.6139 71.4184 32.4312 72.6759 32.0835C73.2063 32.512 73.4698 32.7263 73.9931 33.1619C71.9277 33.7063 70.9091 34.0014 68.8999 34.6371C68.4151 34.2648 68.1728 34.0786 67.681 33.7098C68.0709 33.5869 68.2676 33.5237 68.6575 33.4007ZM40.2406 18.1701C39.7489 18.4511 39.503 18.5916 39.0147 18.8761C38.7302 18.7848 38.5897 18.7356 38.3052 18.6478C37.6343 19.0412 37.3041 19.2415 36.6402 19.6454C35.9623 19.4382 35.6216 19.3398 34.9366 19.1431C35.597 18.7286 35.9307 18.5249 36.5981 18.1174C36.1449 17.9804 35.9166 17.9137 35.4635 17.7837C35.9518 17.4852 36.1941 17.3341 36.6859 17.0391C37.1425 17.1761 37.3673 17.2428 37.8205 17.3833C38.674 16.881 39.1026 16.6316 39.9702 16.1398C40.1423 16.0345 40.2266 15.9466 40.2196 15.8764C40.2125 15.8061 40.1282 15.7464 39.9772 15.6937C39.8472 15.6516 39.6927 15.62 39.517 15.6024C39.3449 15.5848 39.1833 15.5708 39.0393 15.5532C39.4222 15.2195 39.6154 15.0509 40.0053 14.7207C40.2231 14.7313 40.4584 14.7524 40.7113 14.7805C40.9642 14.8086 41.2101 14.8472 41.4525 14.8964C41.6913 14.9456 41.9161 15.0088 42.1234 15.079C42.4079 15.1774 42.6222 15.2933 42.7662 15.4268C42.9102 15.5567 42.9418 15.7078 42.8751 15.8694C42.8083 16.0309 42.6011 16.2066 42.2604 16.3927C41.1574 16.9934 40.6095 17.299 39.5276 17.9207C39.8156 18.0261 39.9561 18.0718 40.2406 18.1701ZM87.6571 47.0436C84.9805 47.3808 83.6598 47.5986 81.064 48.1115C80.0102 46.9242 79.4658 46.3411 78.3558 45.1925C78.1204 44.9501 77.9975 44.7183 77.987 44.5075C77.9764 44.2968 78.0572 44.1106 78.2223 43.9561C78.3874 43.8015 78.6122 43.6926 78.8932 43.6329C79.1988 43.5662 79.5606 43.5626 79.9716 43.6294C80.386 43.6961 81.1588 44.072 81.1588 44.072C81.1694 44.0614 80.9621 43.4608 81.0851 43.2289C81.208 42.9971 81.4925 42.8355 81.9456 42.7477C82.3391 42.674 82.7395 42.695 83.1469 42.8145C83.5509 42.9339 83.9478 43.1236 84.3307 43.387C84.7136 43.6505 85.0613 43.9561 85.3669 44.3073C86.3048 45.3822 86.7649 45.9301 87.6571 47.0436ZM63.8488 31.4688C63.2868 31.6725 63.0093 31.7779 62.4508 31.9887C60.3608 30.6047 59.2859 29.9408 57.087 28.6798C57.649 28.4409 57.93 28.3215 58.4956 28.0897C59.2894 28.5568 59.6828 28.7957 60.4626 29.2769C62.6826 28.4023 63.8101 27.9913 66.1039 27.2256C66.6905 27.6225 66.982 27.8262 67.5581 28.2337C65.2714 28.9678 64.1473 29.3647 61.9344 30.2078C62.7107 30.703 63.0936 30.9559 63.8488 31.4688ZM57.7017 27.8016C57.1292 28.0405 56.8447 28.1634 56.2756 28.4093C55.682 28.0756 55.3834 27.914 54.7828 27.5874C55.3518 27.331 55.6363 27.208 56.2124 26.9586C56.813 27.2923 57.1116 27.4609 57.7017 27.8016ZM55.5696 20.9556C52.5698 22.2342 51.1051 22.9191 48.2388 24.3698C47.6065 24.0888 47.2904 23.9483 46.6546 23.6779C48.3231 22.8102 49.1696 22.3887 50.8838 21.5773C49.3137 21.6581 48.5268 21.7108 46.9567 21.8443C46.2753 21.5563 45.931 21.4158 45.2426 21.1383C46.904 20.9767 47.7365 20.9099 49.405 20.8116C49.7738 19.8632 49.9635 19.3925 50.3499 18.4441C51.0419 18.7532 51.3861 18.9113 52.0675 19.2309C51.7619 19.8807 51.6109 20.2074 51.3123 20.8572C51.7619 20.8572 51.9867 20.8572 52.4364 20.8608C53.0581 20.5762 53.3707 20.4392 53.9959 20.1618C54.6247 20.4744 54.9408 20.6324 55.5696 20.9556ZM29.7836 16.2768C29.9663 16.4068 29.9206 16.6175 29.6291 16.8107C28.1187 17.8259 27.374 18.3457 25.9093 19.4065C25.5439 19.67 24.9117 19.8245 24.4937 19.7473C24.2829 19.7086 24.1705 19.6208 24.153 19.5084C24.1424 19.4452 24.1635 19.3714 24.2162 19.2977C24.2548 19.2415 24.3145 19.1817 24.3918 19.1255C25.8566 18.0437 26.5977 17.5133 28.1081 16.477C28.484 16.2206 29.1338 16.0871 29.5518 16.1785C29.6537 16.2031 29.7274 16.2347 29.7836 16.2768ZM22.762 21.3104C22.9481 21.4263 22.913 21.6406 22.6425 21.8478C21.2199 22.9437 20.5174 23.5057 19.1405 24.6438C18.7963 24.9283 18.1851 25.118 17.7706 25.0688C17.5633 25.0443 17.4439 24.967 17.4193 24.8581C17.4053 24.7949 17.4228 24.7246 17.4685 24.6473C17.5036 24.5876 17.5598 24.5244 17.6336 24.4647C19.007 23.3055 19.706 22.7365 21.1286 21.6195C21.4834 21.342 22.1157 21.1699 22.5266 21.2366C22.6285 21.2471 22.7058 21.2717 22.762 21.3104ZM1.02254 28.318C4.41219 28.0932 7.88965 28.0721 11.2828 28.2548C12.4455 27.1553 14.6198 26.365 16.0951 26.509C16.7309 26.5722 17.1313 26.7935 17.2894 27.1026C17.458 27.4398 17.3385 27.8789 16.924 28.3496C16.8327 28.4515 16.7273 28.5568 16.6079 28.6622C39.0077 31.6198 58.4569 41.1319 73.958 57.6341C75.068 57.3742 76.603 57.9221 77.3933 58.8846C77.9553 58.7476 78.2399 58.6773 78.8089 58.5474C78.7211 58.4385 78.6754 58.3261 78.6719 58.2277C78.6684 58.1223 78.707 58.0275 78.7913 57.9608C78.8405 57.9221 78.9037 57.8905 78.981 57.8729C79.3147 57.7992 79.7819 57.9818 80.0172 58.2804C80.4423 58.1891 80.6565 58.1469 81.0851 58.0591C80.9972 57.9467 80.9551 57.8343 80.9516 57.7324C80.9481 57.6236 80.9937 57.5322 81.078 57.4655C81.1272 57.4268 81.1904 57.4023 81.2677 57.3847C81.6084 57.318 82.0756 57.5147 82.3074 57.8203C82.7395 57.7395 82.9573 57.7008 83.3928 57.6271C83.3085 57.5112 83.2664 57.3987 83.2664 57.2969C83.2664 57.1915 83.312 57.0967 83.3999 57.0334C83.4525 56.9983 83.5158 56.9702 83.5966 56.9562C83.9373 56.9 84.408 57.1072 84.6363 57.4198C85.0754 57.3496 85.2931 57.318 85.7357 57.2547C85.6514 57.1353 85.6128 57.0229 85.6128 56.921C85.6128 56.8121 85.662 56.7208 85.7498 56.6611C85.8025 56.626 85.8692 56.6014 85.95 56.5909C86.2977 56.5417 86.7684 56.763 86.9932 57.0826C87.6185 57.0018 87.9311 56.9632 88.5599 56.8929C88.4826 56.7805 88.4194 56.6716 88.3632 56.5627C88.0997 56.0429 88.0857 55.5617 88.2964 55.2104C88.4791 54.9048 88.8338 54.694 89.3432 54.6414C90.562 54.5149 92.1919 55.3614 92.9295 56.5171C93.5723 56.4784 93.892 56.4609 94.5383 56.4328C94.4575 56.3063 94.4259 56.1834 94.4329 56.0815C94.4399 55.9726 94.4961 55.8848 94.5945 55.8321C94.6507 55.8005 94.7209 55.783 94.8052 55.7794C95.167 55.7654 95.6377 56.0359 95.8485 56.3836C96.3086 56.3696 96.5405 56.366 97.0006 56.359C96.9233 56.2291 96.8917 56.1061 96.9023 56.0042C96.9128 55.8954 96.969 55.8111 97.0674 55.7584C97.1236 55.7303 97.1973 55.7127 97.2816 55.7127C97.6504 55.7092 98.1176 55.9937 98.3249 56.3485C98.792 56.3485 99.0239 56.3485 99.491 56.3555C99.4138 56.222 99.3857 56.0991 99.3962 55.9972C99.4067 55.8883 99.4665 55.804 99.5683 55.7549C99.628 55.7267 99.6983 55.7127 99.7861 55.7127C100.155 55.7197 100.622 56.0183 100.826 56.3801C101.297 56.3941 101.532 56.4012 102.003 56.4222C101.929 56.2853 101.901 56.1623 101.911 56.0604C101.925 55.9516 101.985 55.8673 102.087 55.8216C102.147 55.797 102.22 55.783 102.305 55.7865C102.677 55.804 103.141 56.1166 103.337 56.4855C103.973 56.5206 104.293 56.5417 104.932 56.5909C104.865 56.4644 104.809 56.3379 104.767 56.2185C104.553 55.6389 104.595 55.1507 104.862 54.831C105.094 54.5535 105.491 54.4095 106.035 54.4517C105.961 54.3147 105.926 54.2444 105.849 54.1074C93.4283 32.2732 75.3595 16.3682 52.4926 6.08328C50.9611 6.73663 48.5339 6.80688 47.027 6.24838C46.1488 5.92171 45.78 5.44399 45.924 4.95223C46.0294 4.59746 46.3982 4.23917 47.041 3.9406C46.8759 3.88089 46.7951 3.84928 46.6265 3.79307C43.2755 2.57069 39.8051 1.50286 36.3452 0.635254C34.8137 1.4853 32.2916 1.89276 30.6723 1.55907C30.0436 1.94194 29.731 2.13513 29.1092 2.52503C28.9828 2.60582 28.9195 2.64446 28.7931 2.72525C28.909 2.74632 28.9968 2.78145 29.0601 2.8236C29.2532 2.95708 29.1935 3.17837 28.8669 3.3821C28.4313 3.65608 27.6972 3.80712 27.2265 3.72282C26.8015 4.00032 26.5872 4.13731 26.1657 4.41832C26.0427 4.49911 25.983 4.54126 25.8601 4.62205C25.976 4.63961 26.0638 4.67474 26.127 4.71689C26.3237 4.84685 26.264 5.06815 25.9444 5.28241C25.5158 5.56693 24.7922 5.73554 24.3216 5.66177C23.9036 5.94629 23.6963 6.09031 23.2818 6.37834C23.1624 6.46264 23.0992 6.5048 22.9798 6.5891C23.0957 6.60666 23.1835 6.63476 23.2467 6.67691C23.4434 6.79985 23.3942 7.02115 23.0746 7.24595C22.6601 7.5375 21.94 7.72367 21.4693 7.66044C21.0619 7.95198 20.8581 8.09951 20.4542 8.39808C20.3348 8.4859 20.2786 8.52805 20.1591 8.61235C20.2715 8.6264 20.3629 8.6545 20.4261 8.69314C20.6263 8.81257 20.5771 9.03386 20.268 9.26218C19.8571 9.56426 19.151 9.76448 18.6803 9.71531C18.1043 10.1509 17.8198 10.3686 17.2507 10.8112C17.0997 10.9271 17.0259 10.9869 16.8749 11.1028C17.5598 11.166 17.9848 11.3908 18.1359 11.7034C18.3396 12.1214 18.0656 12.694 17.2999 13.2946C15.9616 14.3484 13.6292 15.1212 12.0451 15.0439C11.469 15.5357 11.181 15.7851 10.6119 16.2839C10.503 16.3787 10.4503 16.4279 10.3414 16.5227C10.4538 16.5262 10.5417 16.5473 10.6084 16.5789C10.8121 16.6808 10.7805 16.9021 10.4995 17.1515C10.1237 17.4852 9.44573 17.7416 8.9891 17.731C8.62379 18.0612 8.44113 18.2298 8.07582 18.5635C7.97044 18.6619 7.91775 18.7111 7.81238 18.8059C7.92478 18.8059 8.01259 18.8235 8.07933 18.8551C8.28306 18.9499 8.25848 19.1747 7.98098 19.4276C7.61567 19.7648 6.94828 20.0423 6.49164 20.0423C6.13336 20.383 5.95773 20.5517 5.60296 20.8924C5.50109 20.9907 5.4484 21.0434 5.34654 21.1418C5.45894 21.1418 5.54675 21.1558 5.61349 21.1839C5.81722 21.2752 5.79966 21.4965 5.52919 21.7565C5.17442 22.1007 4.51405 22.3923 4.06093 22.4063C3.71318 22.7505 3.54106 22.9262 3.19683 23.2739C3.09497 23.3758 3.04579 23.425 2.94744 23.5268C3.05633 23.5233 3.14414 23.5374 3.21088 23.5619C3.41461 23.6462 3.40056 23.8675 3.14063 24.1345C2.79288 24.4893 2.14657 24.7913 1.69344 24.8159C1.23329 25.2937 1.00497 25.536 0.555361 26.0208C0.428907 26.1577 0.365681 26.2245 0.239227 26.3615C0.903107 26.3158 1.33516 26.4669 1.52132 26.7479C1.711 27.0324 1.64778 27.4469 1.32111 27.9351C1.22275 28.0721 1.12791 28.1915 1.02254 28.318Z" fill="#24EA5B"/>
<path d="M85.2685 45.9201C84.6854 46.0079 84.3939 46.057 83.8108 46.1519C83.305 45.5723 83.0486 45.2808 82.5322 44.7082C82.4339 44.5993 82.3847 44.5045 82.3847 44.4167C82.3812 44.3324 82.4198 44.2551 82.4936 44.1919C82.5673 44.1286 82.6692 44.0795 82.8097 44.0549C82.9502 44.0303 83.0942 44.0338 83.2453 44.0619C83.3998 44.0935 83.5438 44.1462 83.6843 44.2235C83.8284 44.3008 83.9478 44.3956 84.0497 44.508C84.5379 45.07 84.7838 45.351 85.2685 45.9201ZM82.606 46.3626C82.058 46.461 81.7876 46.5137 81.2431 46.6191C80.79 46.1203 80.5617 45.8709 80.1015 45.3791C80.0137 45.2843 79.9645 45.1965 79.9505 45.1157C79.9364 45.0384 79.9645 44.9646 80.0242 44.9014C80.0804 44.8417 80.1893 44.7925 80.3474 44.7574C80.5019 44.7258 80.6495 44.7223 80.797 44.7504C80.9375 44.7785 81.0745 44.8276 81.1974 44.8944C81.3204 44.9646 81.4293 45.0489 81.5136 45.1438C81.9562 45.632 82.1739 45.8744 82.606 46.3626ZM78.3593 45.1894C79.4692 46.3381 80.0137 46.9211 81.0675 48.1084C83.6598 47.5956 84.9805 47.3778 87.6606 47.0406C86.7649 45.9306 86.3083 45.3826 85.3669 44.2972C85.0648 43.946 84.7171 43.6404 84.3307 43.3769C83.9478 43.1135 83.5509 42.9238 83.1469 42.8044C82.743 42.685 82.339 42.6639 81.9456 42.7376C81.4925 42.822 81.208 42.987 81.085 43.2189C80.9621 43.4542 81.1588 44.0619 81.1588 44.0619C81.1483 44.0724 80.386 43.686 79.9715 43.6193C79.5606 43.5526 79.2023 43.5561 78.8932 43.6228C78.6122 43.686 78.3874 43.7949 78.2223 43.946C78.0537 44.1005 77.9764 44.2867 77.9869 44.4975C78.001 44.7152 78.1239 44.9471 78.3593 45.1894Z" fill="white"/>
<path d="M79.1637 41.3398C78.9389 41.3679 78.7176 41.3643 78.4998 41.3257C78.2785 41.2871 78.0642 41.2133 77.8605 41.115C77.6532 41.0131 77.4776 40.8937 77.3336 40.7567C77.1755 40.6056 77.0772 40.4581 77.0385 40.3246C76.9999 40.1911 77.0175 40.0682 77.0842 39.9558C77.1545 39.8469 77.2844 39.7556 77.4706 39.6959C78.1626 40.3457 78.4998 40.6759 79.1637 41.3398ZM76.2306 40.992C76.6732 41.4135 77.165 41.7437 77.7094 41.9896C78.2539 42.239 78.8019 42.4041 79.3498 42.4849C79.9013 42.5657 80.4141 42.5586 80.8883 42.4638C81.222 42.397 81.496 42.2846 81.7103 42.1371C81.9246 41.9861 82.0651 41.7929 82.1248 41.5681C82.1845 41.3433 82.1599 41.0833 82.0475 40.7953C81.9351 40.5073 81.7103 40.1947 81.3836 39.861C81.0886 39.5624 80.7619 39.2989 80.3966 39.0812C80.0278 38.8599 79.6589 38.6842 79.2796 38.5508C78.9002 38.4173 78.5279 38.333 78.1591 38.2979C78.4225 38.7229 78.5525 38.9371 78.8089 39.3657C79.0442 39.3797 79.2971 39.45 79.5606 39.5799C79.8275 39.7099 80.0523 39.868 80.2315 40.0506C80.3685 40.1876 80.4633 40.3316 80.516 40.4757C80.5687 40.6197 80.5582 40.7496 80.4914 40.862C80.4247 40.9744 80.2877 41.0623 80.0804 41.115C78.9494 39.9698 78.3698 39.4043 77.1826 38.3014C77.1158 38.3119 77.035 38.3224 76.9367 38.3365C76.8418 38.3505 76.754 38.3646 76.6627 38.3857C76.2096 38.4946 75.8688 38.6807 75.6476 38.9266C75.4227 39.176 75.3525 39.4781 75.4368 39.8329C75.5211 40.1876 75.7881 40.574 76.2306 40.992Z" fill="white"/>
<path d="M76.0691 36.1195C76.192 36.2284 76.2728 36.3408 76.3079 36.4286C76.3466 36.5235 76.3395 36.6078 76.2974 36.678C76.2552 36.7448 76.178 36.7975 76.0691 36.8256C75.8759 36.8747 75.637 36.8431 75.3595 36.7412C75.0855 36.6394 74.8326 36.4883 74.6043 36.2916C74.4919 36.1933 74.383 36.0844 74.2776 35.9615C74.1723 35.8385 74.095 35.7296 74.0388 35.6207C74.2179 35.5751 74.3057 35.5505 74.4849 35.5048C74.5411 35.4908 74.6254 35.4873 74.7343 35.5013C74.8432 35.5154 74.9591 35.5399 75.075 35.5751C75.2471 35.6278 75.4263 35.7015 75.6054 35.7999C75.7845 35.9017 75.9426 36.0071 76.0691 36.1195ZM71.7942 37.0468C72.1314 37.3279 72.5003 37.5808 72.9007 37.8056C73.3011 38.0304 73.7472 38.2341 74.232 38.4132C74.4743 38.1779 74.5973 38.0585 74.8432 37.8266C74.4392 37.6721 74.0845 37.5246 73.7824 37.37C73.4838 37.219 73.2204 37.0468 72.992 36.8501C72.711 36.6113 72.5705 36.4146 72.5705 36.26C72.5705 36.1055 72.711 35.986 72.985 35.9123C73.0728 35.8877 73.1185 35.8772 73.2063 35.8526C73.266 35.9755 73.3573 36.109 73.4873 36.26C73.6173 36.4111 73.7648 36.5586 73.9334 36.7026C74.2812 37.0047 74.6605 37.2541 75.068 37.4543C75.4754 37.6545 75.8829 37.7915 76.2833 37.8653C76.6838 37.939 77.0456 37.939 77.3722 37.8618C77.6778 37.7915 77.8956 37.6686 78.015 37.5C78.138 37.3279 78.1626 37.1276 78.0888 36.8993C78.015 36.671 77.8429 36.4321 77.5725 36.1827C77.295 35.9298 76.9578 35.705 76.5468 35.5154C76.1393 35.3257 75.6932 35.1887 75.219 35.1079C75.2963 35.0728 75.3349 35.0552 75.4122 35.0201C75.5808 34.9358 75.6616 34.8269 75.6546 34.6934C75.6511 34.5564 75.5281 34.3843 75.2858 34.1735C75.2155 34.1138 75.1312 34.0436 75.0329 33.9698C74.931 33.8925 74.808 33.8153 74.6675 33.731C74.1407 33.8679 73.8772 33.9347 73.3503 34.0787C73.4416 34.163 73.4768 34.2297 73.4522 34.2789C73.4276 34.3281 73.3398 34.3773 73.1852 34.4194C72.6619 34.5634 72.3984 34.6337 71.8785 34.7847C71.1866 34.9814 70.8423 35.2835 70.8423 35.6734C70.8458 36.0668 71.1655 36.52 71.7942 37.0468Z" fill="white"/>
<path d="M66.0476 32.6634C66.0757 32.6845 66.1249 32.7196 66.1846 32.7617C66.4551 32.9549 66.8134 33.1024 67.2489 33.2184C67.6845 33.3308 68.1552 33.3905 68.6575 33.401C68.2676 33.524 68.0709 33.5872 67.681 33.7172C68.1728 34.0825 68.4151 34.2686 68.8999 34.6445C70.9091 34.0087 71.9277 33.7136 73.9931 33.1692C73.4697 32.7336 73.2063 32.5158 72.6759 32.0908C71.4184 32.4386 70.7967 32.6212 69.5602 33.0006C69.209 32.983 68.8366 32.8917 68.4538 32.7336C68.0674 32.572 67.7091 32.3753 67.3789 32.133C66.8134 32.3191 66.5324 32.414 65.9739 32.6072C65.995 32.6212 66.0195 32.6423 66.0476 32.6634Z" fill="white"/>
<path d="M57.0905 28.6804C59.2894 29.9414 60.3643 30.6053 62.4542 31.9892C63.0092 31.7785 63.2902 31.6766 63.8523 31.4694C63.0935 30.9565 62.7107 30.7036 61.9379 30.2048C64.1508 29.3618 65.2784 28.9649 67.5616 28.2308C66.9855 27.8233 66.6939 27.6231 66.1073 27.2227C63.8171 27.9884 62.6861 28.4029 60.4661 29.274C59.6863 28.7893 59.2929 28.5539 58.4991 28.0868C57.9335 28.3221 57.6525 28.4415 57.0905 28.6804Z" fill="white"/>
<path d="M56.7955 26.7126C57.3926 27.0463 57.6912 27.2185 58.2848 27.5627C60.3573 26.7091 61.4075 26.3017 63.5432 25.5394C62.9566 25.1671 62.6615 24.9809 62.0679 24.6191C59.9252 25.406 58.8714 25.8275 56.7955 26.7126ZM54.7828 27.5908C55.3834 27.914 55.682 28.079 56.2756 28.4127C56.8447 28.1669 57.1292 28.0439 57.7017 27.8051C57.1116 27.4643 56.8131 27.2957 56.2124 26.9656C55.6398 27.2079 55.3518 27.3344 54.7828 27.5908Z" fill="white"/>
<path d="M53.3602 24.8968C53.9257 25.1848 54.5263 25.378 55.1691 25.4834C55.8155 25.5888 56.4442 25.6169 57.0554 25.5642C57.6701 25.5115 58.2181 25.3886 58.6993 25.1954C59.0646 25.0479 59.3526 24.8757 59.5599 24.679C59.7636 24.4823 59.883 24.2645 59.9111 24.0327C59.9357 23.8009 59.8549 23.5585 59.6758 23.3126C59.4931 23.0668 59.1911 22.8209 58.7625 22.582C58.3726 22.3642 57.9617 22.1956 57.5261 22.0797C57.087 21.9638 56.6585 21.89 56.2229 21.8584C55.7874 21.8268 55.3658 21.8373 54.9549 21.8935C55.3694 22.287 55.5766 22.4872 55.9841 22.8841C56.1316 22.87 56.2932 22.8736 56.4653 22.8876C56.6374 22.9017 56.8095 22.9298 56.9606 22.9719C57.1186 23.0141 57.2626 23.0738 57.3996 23.1475C57.6034 23.2599 57.7333 23.3864 57.793 23.5269C57.8528 23.6674 57.8247 23.8079 57.7193 23.9484C57.6104 24.0889 57.4242 24.2154 57.1538 24.3278C56.8868 24.4402 56.6023 24.5104 56.3072 24.542C56.0122 24.5737 55.7206 24.5701 55.4361 24.528C55.1516 24.4894 54.9092 24.4121 54.6985 24.3032C54.5123 24.2048 54.3858 24.0959 54.3296 23.98C54.2699 23.8606 54.2699 23.7412 54.3296 23.6217C53.5393 23.3934 53.1389 23.2845 52.3415 23.0738C52.1308 23.3653 52.0991 23.6674 52.2537 23.9835C52.4047 24.2962 52.7771 24.5982 53.3602 24.8968Z" fill="white"/>
<path d="M46.6546 23.6787C47.2939 23.9492 47.61 24.0897 48.2388 24.3707C51.1015 22.92 52.5698 22.235 55.5696 20.9564C54.9408 20.6333 54.6282 20.4717 53.9924 20.1591C53.3637 20.433 53.0545 20.5735 52.4328 20.8581C51.9832 20.8546 51.7584 20.8546 51.3088 20.8546C51.6074 20.2047 51.7584 19.8781 52.064 19.2282C51.3826 18.9086 51.0383 18.7505 50.3463 18.4414C49.9635 19.3863 49.7738 19.8605 49.4014 20.8089C47.7365 20.9108 46.904 20.974 45.239 21.1356C45.9275 21.4131 46.2717 21.5536 46.9532 21.8416C48.5233 21.7081 49.3101 21.6554 50.8803 21.5746C49.1661 22.3896 48.3231 22.8111 46.6546 23.6787Z" fill="white"/>
<path d="M45.6009 19.3263C45.362 19.4317 45.1091 19.5055 44.8527 19.5476C44.5927 19.5898 44.3328 19.6003 44.0764 19.5792C43.8165 19.5581 43.5846 19.5125 43.3844 19.4387C43.1631 19.3544 43.0121 19.2596 42.9348 19.1507C42.8575 19.0418 42.8365 18.9224 42.8856 18.7959C42.9313 18.6695 43.0542 18.543 43.2474 18.4201C44.1958 18.7713 44.6665 18.954 45.6009 19.3263ZM42.2147 20.0534C42.8294 20.2782 43.4757 20.4047 44.1572 20.4398C44.8351 20.4749 45.499 20.4293 46.1348 20.3098C46.7776 20.1904 47.3501 20.0042 47.8559 19.7513C48.2107 19.5757 48.4882 19.3755 48.6849 19.1647C48.8816 18.9505 48.9835 18.7257 48.987 18.5009C48.9905 18.2725 48.8851 18.0442 48.6779 17.8229C48.4671 17.6016 48.1299 17.3909 47.6663 17.2012C47.2518 17.0291 46.8092 16.9061 46.3385 16.8324C45.8643 16.7586 45.4006 16.727 44.9405 16.741C44.4803 16.7551 44.0378 16.8078 43.6162 16.9061C44.0272 17.2012 44.2345 17.3522 44.6419 17.6543C44.9089 17.5841 45.211 17.5595 45.5482 17.5876C45.8819 17.6157 46.1769 17.6754 46.4333 17.7808C46.6265 17.8581 46.7706 17.9529 46.8689 18.0688C46.9673 18.1812 46.9954 18.3042 46.9532 18.4306C46.9111 18.5535 46.7811 18.6835 46.5633 18.8065C44.9686 18.1566 44.1607 17.8475 42.5238 17.2574C42.4501 17.2925 42.3622 17.3277 42.2604 17.3768C42.1585 17.4225 42.0637 17.4682 41.9688 17.5208C41.4946 17.7843 41.168 18.0723 40.9853 18.3814C40.8027 18.6905 40.8062 18.9926 40.9994 19.2842C41.1926 19.5722 41.6 19.8286 42.2147 20.0534Z" fill="white"/>
<path d="M34.9401 19.1433C35.6251 19.3365 35.9658 19.4383 36.6437 19.6456C37.3041 19.2416 37.6378 19.0414 38.3087 18.648C38.5932 18.7393 38.7372 18.785 39.0182 18.8763C39.5065 18.5918 39.7524 18.4513 40.2441 18.1703C39.9596 18.0754 39.8191 18.0263 39.5346 17.9314C40.6165 17.3097 41.1644 17.0041 42.2674 16.4034C42.6116 16.2173 42.8153 16.0416 42.8821 15.8801C42.9488 15.7185 42.9172 15.5674 42.7732 15.4375C42.6292 15.304 42.4114 15.1881 42.1304 15.0897C41.9231 15.016 41.6983 14.9527 41.4595 14.9071C41.2171 14.8579 40.9712 14.8228 40.7183 14.7912C40.4689 14.7631 40.2301 14.742 40.0123 14.7314C39.6259 15.0616 39.4327 15.2302 39.0463 15.5639C39.1903 15.578 39.3484 15.5955 39.524 15.6131C39.6997 15.6307 39.8542 15.6623 39.9842 15.7044C40.1352 15.7536 40.216 15.8133 40.2266 15.8871C40.2336 15.9573 40.1528 16.0452 39.9772 16.1505C39.1131 16.6388 38.681 16.8882 37.8275 17.394C37.3743 17.2535 37.146 17.1832 36.6929 17.0498C36.2011 17.3448 35.9552 17.4959 35.4705 17.7944C35.9271 17.9244 36.152 17.9911 36.6051 18.1281C35.9342 18.525 35.6005 18.7288 34.9401 19.1433Z" fill="white"/>
</svg>
