<svg width="493" height="488" viewBox="0 0 493 488" fill="none" xmlns="http://www.w3.org/2000/svg">
<path d="M209.911 471.179C209.433 473.806 206.947 475.526 204.319 475.048C201.69 474.571 199.969 472.086 200.447 469.459C200.925 466.831 203.41 465.112 206.039 465.589C208.668 466.067 210.389 468.551 209.911 471.179Z" fill="#81FF7C"/>
<path style="mix-blend-mode:screen" d="M215.694 472.231C214.643 478.059 209.051 481.881 203.267 480.83C197.436 479.779 193.612 474.189 194.663 468.409C195.715 462.628 201.307 458.759 207.091 459.81C212.874 460.861 216.746 466.45 215.694 472.231Z" fill="url(#paint0_radial_604_1200)"/>
<path style="mix-blend-mode:color-dodge" d="M221.239 473.234C219.614 482.12 211.106 487.996 202.263 486.372C193.373 484.747 187.494 476.244 189.119 467.406C190.744 458.568 199.252 452.644 208.095 454.269C216.985 455.893 222.864 464.396 221.239 473.234Z" fill="url(#paint1_radial_604_1200)"/>
<path d="M289.829 471.657C289.351 474.284 286.865 476.004 284.236 475.526C281.607 475.049 279.887 472.564 280.365 469.937C280.843 467.31 283.328 465.59 285.957 466.067C288.586 466.545 290.307 469.029 289.829 471.657Z" fill="#81FF7C"/>
<path style="mix-blend-mode:screen" d="M295.66 472.709C294.608 478.537 289.016 482.359 283.233 481.308C277.401 480.257 273.577 474.667 274.629 468.887C275.681 463.107 281.273 459.237 287.056 460.288C292.84 461.339 296.712 466.928 295.66 472.709Z" fill="url(#paint2_radial_604_1200)"/>
<path style="mix-blend-mode:color-dodge" d="M301.205 473.712C299.579 482.598 291.071 488.474 282.229 486.85C273.338 485.225 267.459 476.722 269.084 467.884C270.71 459.046 279.218 453.122 288.06 454.747C296.951 456.371 302.83 464.874 301.205 473.712Z" fill="url(#paint3_radial_604_1200)"/>
<path d="M365.11 444.762C364.632 447.389 362.147 449.109 359.518 448.631C356.889 448.154 355.168 445.669 355.646 443.042C356.124 440.414 358.61 438.695 361.238 439.172C363.867 439.65 365.588 442.134 365.11 444.762Z" fill="#81FF7C"/>
<path style="mix-blend-mode:screen" d="M370.941 445.813C369.89 451.641 364.298 455.463 358.514 454.412C352.683 453.361 348.859 447.772 349.91 441.991C350.962 436.211 356.554 432.341 362.338 433.392C368.121 434.443 371.993 440.033 370.941 445.813Z" fill="url(#paint4_radial_604_1200)"/>
<path style="mix-blend-mode:color-dodge" d="M376.438 446.816C374.813 455.702 366.305 461.577 357.462 459.953C348.572 458.329 342.693 449.826 344.318 440.988C345.943 432.15 354.451 426.226 363.294 427.85C372.184 429.475 378.063 437.978 376.438 446.816Z" fill="url(#paint5_radial_604_1200)"/>
<path d="M426.673 393.789C426.195 396.417 423.71 398.136 421.081 397.659C418.452 397.181 416.732 394.697 417.21 392.069C417.688 389.442 420.173 387.722 422.802 388.2C425.431 388.677 427.151 391.162 426.673 393.789Z" fill="#81FF7C"/>
<path style="mix-blend-mode:screen" d="M432.457 394.84C431.405 400.668 425.813 404.49 420.03 403.439C414.198 402.388 410.374 396.799 411.426 391.018C412.478 385.238 418.07 381.368 423.853 382.419C429.637 383.47 433.509 389.06 432.457 394.84Z" fill="url(#paint6_radial_604_1200)"/>
<path style="mix-blend-mode:color-dodge" d="M438.002 395.843C436.376 404.729 427.868 410.605 419.026 408.981C410.135 407.356 404.256 398.853 405.881 390.015C407.507 381.177 416.015 375.253 424.857 376.878C433.748 378.502 439.627 387.005 438.002 395.843Z" fill="url(#paint7_radial_604_1200)"/>
<path d="M467.063 324.807C466.585 327.434 464.099 329.154 461.47 328.676C458.841 328.199 457.121 325.714 457.599 323.087C458.077 320.459 460.562 318.74 463.191 319.217C465.82 319.695 467.541 322.179 467.063 324.807Z" fill="#81FF7C"/>
<path style="mix-blend-mode:screen" d="M472.846 325.857C471.795 331.685 466.202 335.507 460.419 334.456C454.587 333.405 450.764 327.816 451.815 322.035C452.867 316.255 458.459 312.385 464.243 313.436C470.026 314.487 473.898 320.077 472.846 325.857Z" fill="url(#paint8_radial_604_1200)"/>
<path style="mix-blend-mode:color-dodge" d="M478.391 326.86C476.765 335.746 468.258 341.622 459.415 339.998C450.525 338.373 444.645 329.87 446.271 321.032C447.896 312.194 456.404 306.27 465.246 307.895C474.137 309.519 480.016 318.022 478.391 326.86Z" fill="url(#paint9_radial_604_1200)"/>
<path d="M481.402 246.22C480.924 248.847 478.439 250.567 475.81 250.089C473.181 249.612 471.46 247.127 471.938 244.5C472.416 241.872 474.901 240.153 477.53 240.63C480.159 241.108 481.88 243.592 481.402 246.22Z" fill="#81FF7C"/>
<path style="mix-blend-mode:screen" d="M487.185 247.272C486.134 253.1 480.542 256.922 474.758 255.871C468.927 254.82 465.103 249.23 466.154 243.45C467.206 237.669 472.798 233.8 478.582 234.851C484.365 235.902 488.237 241.491 487.185 247.272Z" fill="url(#paint10_radial_604_1200)"/>
<path style="mix-blend-mode:color-dodge" d="M492.73 248.274C491.105 257.16 482.597 263.036 473.754 261.412C464.864 259.787 458.985 251.284 460.61 242.446C462.235 233.608 470.743 227.684 479.586 229.309C488.476 230.933 494.355 239.436 492.73 248.274Z" fill="url(#paint11_radial_604_1200)"/>
<path d="M468.018 167.444C467.541 170.072 465.055 171.792 462.426 171.314C459.797 170.836 458.077 168.352 458.555 165.725C459.033 163.097 461.518 161.377 464.147 161.855C466.776 162.333 468.496 164.817 468.018 167.444Z" fill="#81FF7C"/>
<path style="mix-blend-mode:screen" d="M473.802 168.495C472.75 174.323 467.158 178.145 461.375 177.094C455.543 176.043 451.72 170.454 452.771 164.673C453.823 158.893 459.415 155.023 465.198 156.074C470.982 157.125 474.854 162.714 473.802 168.495Z" fill="url(#paint12_radial_604_1200)"/>
<path style="mix-blend-mode:color-dodge" d="M479.347 169.497C477.721 178.383 469.213 184.259 460.371 182.635C451.481 181.011 445.601 172.507 447.227 163.669C448.852 154.831 457.36 148.908 466.202 150.532C475.093 152.156 480.972 160.66 479.347 169.497Z" fill="url(#paint13_radial_604_1200)"/>
<path d="M428.442 98.0308C427.964 100.658 425.479 102.378 422.85 101.9C420.221 101.423 418.5 98.9385 418.978 96.311C419.456 93.6835 421.942 91.9637 424.57 92.4414C427.199 92.9192 428.92 95.4033 428.442 98.0308V98.0308Z" fill="#81FF7C"/>
<path style="mix-blend-mode:screen" d="M434.226 99.0813C433.174 104.91 427.582 108.731 421.798 107.68C415.967 106.629 412.143 101.04 413.195 95.2595C414.246 89.4791 419.838 85.6095 425.622 86.6605C431.406 87.7115 435.277 93.3009 434.226 99.0813Z" fill="url(#paint14_radial_604_1200)"/>
<path style="mix-blend-mode:color-dodge" d="M439.77 100.084C438.145 108.97 429.637 114.846 420.794 113.221C411.904 111.597 406.025 103.094 407.65 94.2557C409.275 85.4178 417.783 79.4941 426.626 81.1183C435.516 82.7426 441.395 91.246 439.77 100.084Z" fill="url(#paint15_radial_604_1200)"/>
<path d="M367.5 46.293C367.022 48.9205 364.536 50.6403 361.908 50.1626C359.279 49.6848 357.558 47.2007 358.036 44.5732C358.514 41.9457 360.999 40.2259 363.628 40.7037C366.257 41.1814 367.978 43.6655 367.5 46.293Z" fill="#81FF7C"/>
<path style="mix-blend-mode:screen" d="M373.283 47.3435C372.232 53.1717 366.64 56.9935 360.856 55.9425C355.025 54.8915 351.201 49.3022 352.252 43.5217C353.304 37.7413 358.896 33.8717 364.68 34.9227C370.463 35.9737 374.335 41.5631 373.283 47.3435V47.3435Z" fill="url(#paint16_radial_604_1200)"/>
<path style="mix-blend-mode:color-dodge" d="M378.828 48.3471C377.203 57.2327 368.695 63.1087 359.852 61.4845C350.962 59.8602 345.083 51.3568 346.708 42.5189C348.333 33.681 356.841 27.7572 365.684 29.3815C374.574 31.0058 380.453 39.5092 378.828 48.3471Z" fill="url(#paint17_radial_604_1200)"/>
<path d="M292.553 18.5381C292.075 21.1656 289.59 22.8854 286.961 22.4077C284.332 21.93 282.611 19.4458 283.089 16.8183C283.567 14.1909 286.053 12.471 288.681 12.9488C291.31 13.4265 293.031 15.9107 292.553 18.5381V18.5381Z" fill="#81FF7C"/>
<path style="mix-blend-mode:screen" d="M298.337 19.5886C297.285 25.4168 291.693 29.2386 285.909 28.1876C280.078 27.1366 276.254 21.5473 277.306 15.7668C278.357 9.98639 283.949 6.11684 289.733 7.16783C295.517 8.21882 299.388 13.8082 298.337 19.5886Z" fill="url(#paint18_radial_604_1200)"/>
<path style="mix-blend-mode:color-dodge" d="M303.881 20.5917C302.256 29.4774 293.748 35.3534 284.905 33.7291C276.015 32.1049 270.136 23.6014 271.761 14.7635C273.386 5.92564 281.846 0.00187359 290.737 1.62613C299.627 3.25039 305.506 11.7539 303.881 20.5917Z" fill="url(#paint19_radial_604_1200)"/>
<path d="M212.635 18.0596C212.157 20.6871 209.672 22.4069 207.043 21.9292C204.414 21.4514 202.693 18.9673 203.171 16.3398C203.649 13.7123 206.135 11.9925 208.764 12.4703C211.393 12.948 213.113 15.4321 212.635 18.0596Z" fill="#81FF7C"/>
<path style="mix-blend-mode:screen" d="M218.419 19.1106C217.367 24.9388 211.775 28.7606 205.991 27.7096C200.16 26.6586 196.336 21.0693 197.388 15.2888C198.439 9.50836 204.032 5.63881 209.815 6.6898C215.599 7.74079 219.47 13.3301 218.419 19.1106V19.1106Z" fill="url(#paint20_radial_604_1200)"/>
<path style="mix-blend-mode:color-dodge" d="M223.963 20.1147C222.338 29.0003 213.83 34.8763 204.988 33.2521C196.097 31.6278 190.218 23.1243 191.843 14.2865C193.469 5.44859 201.929 -0.475177 210.819 1.14908C219.709 2.77334 225.589 11.2768 223.963 20.1147Z" fill="url(#paint21_radial_604_1200)"/>
<path d="M137.354 44.9078C136.876 47.5352 134.39 49.255 131.762 48.7773C129.133 48.2996 127.412 45.8154 127.89 43.188C128.368 40.5605 130.853 38.8407 133.482 39.3184C136.111 39.7961 137.832 42.2803 137.354 44.9078Z" fill="#81FF7C"/>
<path style="mix-blend-mode:screen" d="M143.137 46.0061C142.086 51.8343 136.494 55.6561 130.71 54.6051C124.879 53.5541 121.055 47.9648 122.106 42.1843C123.158 36.4039 128.75 32.5343 134.534 33.5853C140.317 34.6363 144.189 40.2257 143.137 46.0061V46.0061Z" fill="url(#paint22_radial_604_1200)"/>
<path style="mix-blend-mode:color-dodge" d="M148.682 47.0097C147.057 55.8953 138.549 61.7713 129.706 60.1471C120.816 58.5228 114.937 50.0193 116.562 41.1815C118.187 32.3436 126.695 26.4198 135.538 28.0441C144.428 29.6684 150.307 38.1718 148.682 47.0097Z" fill="url(#paint23_radial_604_1200)"/>
<path d="M75.7904 95.9288C75.3125 98.5562 72.827 100.276 70.1981 99.7983C67.5692 99.3206 65.8485 96.8364 66.3265 94.209C66.8045 91.5815 69.2899 89.8617 71.9188 90.3394C74.5477 90.8171 76.2684 93.3013 75.7904 95.9288Z" fill="#81FF7C"/>
<path style="mix-blend-mode:screen" d="M81.5739 96.9792C80.5224 102.807 74.9301 106.629 69.1465 105.578C63.3152 104.527 59.4914 98.9379 60.5429 93.1575C61.5945 87.377 67.1868 83.5075 72.9704 84.5585C78.7539 85.6094 82.6255 91.1988 81.5739 96.9792Z" fill="url(#paint24_radial_604_1200)"/>
<path style="mix-blend-mode:color-dodge" d="M87.1185 97.9824C85.4934 106.868 76.9854 112.744 68.1428 111.12C59.2524 109.495 53.3733 100.992 54.9984 92.1541C56.6235 83.3163 65.1315 77.3925 73.9741 79.0168C82.8645 80.641 88.7436 89.1445 87.1185 97.9824Z" fill="url(#paint25_radial_604_1200)"/>
<path d="M35.4014 164.864C34.9234 167.492 32.438 169.212 29.8091 168.734C27.1802 168.256 25.4595 165.772 25.9375 163.145C26.4155 160.517 28.9009 158.797 31.5298 159.275C34.1587 159.753 35.8794 162.237 35.4014 164.864Z" fill="#81FF7C"/>
<path style="mix-blend-mode:screen" d="M41.1849 165.915C40.1334 171.743 34.541 175.565 28.7575 174.514C22.9262 173.463 19.1024 167.874 20.1539 162.093C21.2055 156.313 26.7978 152.443 32.5813 153.494C38.3649 154.545 42.2365 160.135 41.1849 165.915V165.915Z" fill="url(#paint26_radial_604_1200)"/>
<path style="mix-blend-mode:color-dodge" d="M46.7295 166.918C45.1044 175.804 36.5964 181.68 27.7538 180.056C18.8634 178.432 12.9843 169.928 14.6094 161.09C16.2345 152.252 24.7425 146.329 33.5851 147.953C42.4755 149.577 48.3546 158.081 46.7295 166.918Z" fill="url(#paint27_radial_604_1200)"/>
<path d="M21.0621 243.497C20.5841 246.124 18.0986 247.844 15.4697 247.366C12.8408 246.888 11.1201 244.404 11.5981 241.777C12.0761 239.149 14.5616 237.43 17.1904 237.907C19.8193 238.385 21.54 240.869 21.0621 243.497Z" fill="#81FF7C"/>
<path style="mix-blend-mode:screen" d="M26.8456 244.548C25.794 250.376 20.2017 254.198 14.4182 253.147C8.58685 252.096 4.76303 246.507 5.81458 240.726C6.86613 234.946 12.4585 231.076 18.242 232.127C24.0255 233.178 27.8971 238.768 26.8456 244.548Z" fill="url(#paint28_radial_604_1200)"/>
<path style="mix-blend-mode:color-dodge" d="M32.3901 245.552C30.765 254.437 22.257 260.313 13.4144 258.689C4.52406 257.065 -1.35506 248.561 0.270061 239.723C1.89518 230.886 10.4032 224.962 19.2458 226.586C28.1361 228.21 34.0153 236.714 32.3901 245.552Z" fill="url(#paint29_radial_604_1200)"/>
<path d="M34.4932 322.226C34.0153 324.854 31.5298 326.573 28.9009 326.096C26.272 325.618 24.5513 323.134 25.0293 320.506C25.5073 317.879 27.9927 316.159 30.6216 316.637C33.2505 317.114 34.9712 319.599 34.4932 322.226V322.226Z" fill="#81FF7C"/>
<path style="mix-blend-mode:screen" d="M40.2768 323.277C39.2252 329.105 33.6329 332.927 27.8494 331.876C22.018 330.825 18.1942 325.236 19.2458 319.455C20.2973 313.675 25.8897 309.805 31.6732 310.856C37.4567 311.907 41.3283 317.497 40.2768 323.277V323.277Z" fill="url(#paint30_radial_604_1200)"/>
<path style="mix-blend-mode:color-dodge" d="M45.8213 324.28C44.1962 333.166 35.6882 339.042 26.8456 337.418C17.9552 335.793 12.0761 327.29 13.7012 318.452C15.3264 309.614 23.8343 303.69 32.6769 305.315C41.5673 306.939 47.4464 315.442 45.8213 324.28Z" fill="url(#paint31_radial_604_1200)"/>
<path d="M74.0219 391.687C73.544 394.314 71.0585 396.034 68.4296 395.556C65.8007 395.078 64.08 392.594 64.558 389.967C65.036 387.339 67.5214 385.619 70.1503 386.097C72.7792 386.575 74.4999 389.059 74.0219 391.687Z" fill="#81FF7C"/>
<path style="mix-blend-mode:screen" d="M79.8055 392.738C78.7539 398.566 73.1616 402.388 67.378 401.337C61.5467 400.286 57.7229 394.696 58.7745 388.916C59.826 383.135 65.4183 379.266 71.2019 380.317C76.9854 381.368 80.857 386.957 79.8055 392.738Z" fill="url(#paint32_radial_604_1200)"/>
<path style="mix-blend-mode:color-dodge" d="M85.35 393.741C83.7249 402.626 75.2169 408.502 66.3743 406.878C57.4839 405.254 51.6048 396.75 53.2299 387.912C54.855 379.075 63.363 373.151 72.2056 374.775C81.096 376.399 86.9751 384.903 85.35 393.741Z" fill="url(#paint33_radial_604_1200)"/>
<path d="M134.964 443.376C134.486 446.003 132.001 447.723 129.372 447.246C126.743 446.768 125.022 444.284 125.5 441.656C125.978 439.029 128.464 437.309 131.092 437.787C133.721 438.264 135.442 440.749 134.964 443.376Z" fill="#81FF7C"/>
<path style="mix-blend-mode:screen" d="M140.748 444.427C139.696 450.256 134.104 454.077 128.32 453.027C122.489 451.976 118.665 446.386 119.717 440.606C120.768 434.825 126.36 430.956 132.144 432.007C137.928 433.058 141.799 438.647 140.748 444.427Z" fill="url(#paint34_radial_604_1200)"/>
<path style="mix-blend-mode:color-dodge" d="M146.292 445.431C144.667 454.316 136.159 460.192 127.316 458.568C118.426 456.944 112.547 448.44 114.172 439.602C115.797 430.765 124.305 424.841 133.148 426.465C142.038 428.089 147.917 436.593 146.292 445.431Z" fill="url(#paint35_radial_604_1200)"/>
<defs>
<radialGradient id="paint0_radial_604_1200" cx="0" cy="0" r="1" gradientUnits="userSpaceOnUse" gradientTransform="translate(204.963 470.293) rotate(10.3146) scale(10.7065 10.7012)">
<stop stop-color="#81FF7C"/>
<stop offset="0.09" stop-color="#6CD567" stop-opacity="0.84"/>
<stop offset="0.23" stop-color="#4F9D4C" stop-opacity="0.62"/>
<stop offset="0.36" stop-color="#376D35" stop-opacity="0.43"/>
<stop offset="0.5" stop-color="#234622" stop-opacity="0.27"/>
<stop offset="0.63" stop-color="#132713" stop-opacity="0.15"/>
<stop offset="0.76" stop-color="#081108" stop-opacity="0.07"/>
<stop offset="0.89" stop-color="#020402" stop-opacity="0.02"/>
<stop offset="1" stop-opacity="0"/>
</radialGradient>
<radialGradient id="paint1_radial_604_1200" cx="0" cy="0" r="1" gradientUnits="userSpaceOnUse" gradientTransform="translate(204.963 470.294) rotate(10.3146) scale(16.3465 16.3384)">
<stop offset="0.27" stop-color="#81FF7C"/>
<stop offset="0.32" stop-color="#70DE6B"/>
<stop offset="0.39" stop-color="#5DB958"/>
<stop offset="0.45" stop-color="#52A24D"/>
<stop offset="0.48" stop-color="#4E9A49"/>
<stop offset="0.53" stop-color="#3D7939" stop-opacity="0.79"/>
<stop offset="0.6" stop-color="#2A5428" stop-opacity="0.55"/>
<stop offset="0.66" stop-color="#1B3519" stop-opacity="0.35"/>
<stop offset="0.74" stop-color="#0F1E0E" stop-opacity="0.2"/>
<stop offset="0.81" stop-color="#060D06" stop-opacity="0.09"/>
<stop offset="0.9" stop-color="#010301" stop-opacity="0.02"/>
<stop offset="1" stop-opacity="0"/>
</radialGradient>
<radialGradient id="paint2_radial_604_1200" cx="0" cy="0" r="1" gradientUnits="userSpaceOnUse" gradientTransform="translate(284.895 470.759) rotate(10.3146) scale(10.7065 10.7012)">
<stop stop-color="#81FF7C"/>
<stop offset="0.09" stop-color="#6CD567" stop-opacity="0.84"/>
<stop offset="0.23" stop-color="#4F9D4C" stop-opacity="0.62"/>
<stop offset="0.36" stop-color="#376D35" stop-opacity="0.43"/>
<stop offset="0.5" stop-color="#234622" stop-opacity="0.27"/>
<stop offset="0.63" stop-color="#132713" stop-opacity="0.15"/>
<stop offset="0.76" stop-color="#081108" stop-opacity="0.07"/>
<stop offset="0.89" stop-color="#020402" stop-opacity="0.02"/>
<stop offset="1" stop-opacity="0"/>
</radialGradient>
<radialGradient id="paint3_radial_604_1200" cx="0" cy="0" r="1" gradientUnits="userSpaceOnUse" gradientTransform="translate(284.895 470.76) rotate(10.3146) scale(16.3465 16.3384)">
<stop offset="0.27" stop-color="#81FF7C"/>
<stop offset="0.32" stop-color="#70DE6B"/>
<stop offset="0.39" stop-color="#5DB958"/>
<stop offset="0.45" stop-color="#52A24D"/>
<stop offset="0.48" stop-color="#4E9A49"/>
<stop offset="0.53" stop-color="#3D7939" stop-opacity="0.79"/>
<stop offset="0.6" stop-color="#2A5428" stop-opacity="0.55"/>
<stop offset="0.66" stop-color="#1B3519" stop-opacity="0.35"/>
<stop offset="0.74" stop-color="#0F1E0E" stop-opacity="0.2"/>
<stop offset="0.81" stop-color="#060D06" stop-opacity="0.09"/>
<stop offset="0.9" stop-color="#010301" stop-opacity="0.02"/>
<stop offset="1" stop-opacity="0"/>
</radialGradient>
<radialGradient id="paint4_radial_604_1200" cx="0" cy="0" r="1" gradientUnits="userSpaceOnUse" gradientTransform="translate(360.184 443.916) rotate(10.3146) scale(10.7065 10.7012)">
<stop stop-color="#81FF7C"/>
<stop offset="0.09" stop-color="#6CD567" stop-opacity="0.84"/>
<stop offset="0.23" stop-color="#4F9D4C" stop-opacity="0.62"/>
<stop offset="0.36" stop-color="#376D35" stop-opacity="0.43"/>
<stop offset="0.5" stop-color="#234622" stop-opacity="0.27"/>
<stop offset="0.63" stop-color="#132713" stop-opacity="0.15"/>
<stop offset="0.76" stop-color="#081108" stop-opacity="0.07"/>
<stop offset="0.89" stop-color="#020402" stop-opacity="0.02"/>
<stop offset="1" stop-opacity="0"/>
</radialGradient>
<radialGradient id="paint5_radial_604_1200" cx="0" cy="0" r="1" gradientUnits="userSpaceOnUse" gradientTransform="translate(360.184 443.915) rotate(10.3146) scale(16.3465 16.3384)">
<stop offset="0.27" stop-color="#81FF7C"/>
<stop offset="0.32" stop-color="#70DE6B"/>
<stop offset="0.39" stop-color="#5DB958"/>
<stop offset="0.45" stop-color="#52A24D"/>
<stop offset="0.48" stop-color="#4E9A49"/>
<stop offset="0.53" stop-color="#3D7939" stop-opacity="0.79"/>
<stop offset="0.6" stop-color="#2A5428" stop-opacity="0.55"/>
<stop offset="0.66" stop-color="#1B3519" stop-opacity="0.35"/>
<stop offset="0.74" stop-color="#0F1E0E" stop-opacity="0.2"/>
<stop offset="0.81" stop-color="#060D06" stop-opacity="0.09"/>
<stop offset="0.9" stop-color="#010301" stop-opacity="0.02"/>
<stop offset="1" stop-opacity="0"/>
</radialGradient>
<radialGradient id="paint6_radial_604_1200" cx="0" cy="0" r="1" gradientUnits="userSpaceOnUse" gradientTransform="translate(421.751 392.918) rotate(10.3146) scale(10.7065 10.7012)">
<stop stop-color="#81FF7C"/>
<stop offset="0.09" stop-color="#6CD567" stop-opacity="0.84"/>
<stop offset="0.23" stop-color="#4F9D4C" stop-opacity="0.62"/>
<stop offset="0.36" stop-color="#376D35" stop-opacity="0.43"/>
<stop offset="0.5" stop-color="#234622" stop-opacity="0.27"/>
<stop offset="0.63" stop-color="#132713" stop-opacity="0.15"/>
<stop offset="0.76" stop-color="#081108" stop-opacity="0.07"/>
<stop offset="0.89" stop-color="#020402" stop-opacity="0.02"/>
<stop offset="1" stop-opacity="0"/>
</radialGradient>
<radialGradient id="paint7_radial_604_1200" cx="0" cy="0" r="1" gradientUnits="userSpaceOnUse" gradientTransform="translate(421.751 392.918) rotate(10.3146) scale(16.3465 16.3384)">
<stop offset="0.27" stop-color="#81FF7C"/>
<stop offset="0.32" stop-color="#70DE6B"/>
<stop offset="0.39" stop-color="#5DB958"/>
<stop offset="0.45" stop-color="#52A24D"/>
<stop offset="0.48" stop-color="#4E9A49"/>
<stop offset="0.53" stop-color="#3D7939" stop-opacity="0.79"/>
<stop offset="0.6" stop-color="#2A5428" stop-opacity="0.55"/>
<stop offset="0.66" stop-color="#1B3519" stop-opacity="0.35"/>
<stop offset="0.74" stop-color="#0F1E0E" stop-opacity="0.2"/>
<stop offset="0.81" stop-color="#060D06" stop-opacity="0.09"/>
<stop offset="0.9" stop-color="#010301" stop-opacity="0.02"/>
<stop offset="1" stop-opacity="0"/>
</radialGradient>
<radialGradient id="paint8_radial_604_1200" cx="0" cy="0" r="1" gradientUnits="userSpaceOnUse" gradientTransform="translate(462.11 323.93) rotate(10.3146) scale(10.7065 10.7012)">
<stop stop-color="#81FF7C"/>
<stop offset="0.09" stop-color="#6CD567" stop-opacity="0.84"/>
<stop offset="0.23" stop-color="#4F9D4C" stop-opacity="0.62"/>
<stop offset="0.36" stop-color="#376D35" stop-opacity="0.43"/>
<stop offset="0.5" stop-color="#234622" stop-opacity="0.27"/>
<stop offset="0.63" stop-color="#132713" stop-opacity="0.15"/>
<stop offset="0.76" stop-color="#081108" stop-opacity="0.07"/>
<stop offset="0.89" stop-color="#020402" stop-opacity="0.02"/>
<stop offset="1" stop-opacity="0"/>
</radialGradient>
<radialGradient id="paint9_radial_604_1200" cx="0" cy="0" r="1" gradientUnits="userSpaceOnUse" gradientTransform="translate(462.11 323.93) rotate(10.3146) scale(16.3465 16.3384)">
<stop offset="0.27" stop-color="#81FF7C"/>
<stop offset="0.32" stop-color="#70DE6B"/>
<stop offset="0.39" stop-color="#5DB958"/>
<stop offset="0.45" stop-color="#52A24D"/>
<stop offset="0.48" stop-color="#4E9A49"/>
<stop offset="0.53" stop-color="#3D7939" stop-opacity="0.79"/>
<stop offset="0.6" stop-color="#2A5428" stop-opacity="0.55"/>
<stop offset="0.66" stop-color="#1B3519" stop-opacity="0.35"/>
<stop offset="0.74" stop-color="#0F1E0E" stop-opacity="0.2"/>
<stop offset="0.81" stop-color="#060D06" stop-opacity="0.09"/>
<stop offset="0.9" stop-color="#010301" stop-opacity="0.02"/>
<stop offset="1" stop-opacity="0"/>
</radialGradient>
<radialGradient id="paint10_radial_604_1200" cx="0" cy="0" r="1" gradientUnits="userSpaceOnUse" gradientTransform="translate(476.474 245.356) rotate(10.3146) scale(10.7065 10.7012)">
<stop stop-color="#81FF7C"/>
<stop offset="0.09" stop-color="#6CD567" stop-opacity="0.84"/>
<stop offset="0.23" stop-color="#4F9D4C" stop-opacity="0.62"/>
<stop offset="0.36" stop-color="#376D35" stop-opacity="0.43"/>
<stop offset="0.5" stop-color="#234622" stop-opacity="0.27"/>
<stop offset="0.63" stop-color="#132713" stop-opacity="0.15"/>
<stop offset="0.76" stop-color="#081108" stop-opacity="0.07"/>
<stop offset="0.89" stop-color="#020402" stop-opacity="0.02"/>
<stop offset="1" stop-opacity="0"/>
</radialGradient>
<radialGradient id="paint11_radial_604_1200" cx="0" cy="0" r="1" gradientUnits="userSpaceOnUse" gradientTransform="translate(476.474 245.355) rotate(10.3146) scale(16.3465 16.3384)">
<stop offset="0.27" stop-color="#81FF7C"/>
<stop offset="0.32" stop-color="#70DE6B"/>
<stop offset="0.39" stop-color="#5DB958"/>
<stop offset="0.45" stop-color="#52A24D"/>
<stop offset="0.48" stop-color="#4E9A49"/>
<stop offset="0.53" stop-color="#3D7939" stop-opacity="0.79"/>
<stop offset="0.6" stop-color="#2A5428" stop-opacity="0.55"/>
<stop offset="0.66" stop-color="#1B3519" stop-opacity="0.35"/>
<stop offset="0.74" stop-color="#0F1E0E" stop-opacity="0.2"/>
<stop offset="0.81" stop-color="#060D06" stop-opacity="0.09"/>
<stop offset="0.9" stop-color="#010301" stop-opacity="0.02"/>
<stop offset="1" stop-opacity="0"/>
</radialGradient>
<radialGradient id="paint12_radial_604_1200" cx="0" cy="0" r="1" gradientUnits="userSpaceOnUse" gradientTransform="translate(463.083 166.586) rotate(10.3146) scale(10.7065 10.7012)">
<stop stop-color="#81FF7C"/>
<stop offset="0.09" stop-color="#6CD567" stop-opacity="0.84"/>
<stop offset="0.23" stop-color="#4F9D4C" stop-opacity="0.62"/>
<stop offset="0.36" stop-color="#376D35" stop-opacity="0.43"/>
<stop offset="0.5" stop-color="#234622" stop-opacity="0.27"/>
<stop offset="0.63" stop-color="#132713" stop-opacity="0.15"/>
<stop offset="0.76" stop-color="#081108" stop-opacity="0.07"/>
<stop offset="0.89" stop-color="#020402" stop-opacity="0.02"/>
<stop offset="1" stop-opacity="0"/>
</radialGradient>
<radialGradient id="paint13_radial_604_1200" cx="0" cy="0" r="1" gradientUnits="userSpaceOnUse" gradientTransform="translate(463.083 166.585) rotate(10.3146) scale(16.3465 16.3384)">
<stop offset="0.27" stop-color="#81FF7C"/>
<stop offset="0.32" stop-color="#70DE6B"/>
<stop offset="0.39" stop-color="#5DB958"/>
<stop offset="0.45" stop-color="#52A24D"/>
<stop offset="0.48" stop-color="#4E9A49"/>
<stop offset="0.53" stop-color="#3D7939" stop-opacity="0.79"/>
<stop offset="0.6" stop-color="#2A5428" stop-opacity="0.55"/>
<stop offset="0.66" stop-color="#1B3519" stop-opacity="0.35"/>
<stop offset="0.74" stop-color="#0F1E0E" stop-opacity="0.2"/>
<stop offset="0.81" stop-color="#060D06" stop-opacity="0.09"/>
<stop offset="0.9" stop-color="#010301" stop-opacity="0.02"/>
<stop offset="1" stop-opacity="0"/>
</radialGradient>
<radialGradient id="paint14_radial_604_1200" cx="0" cy="0" r="1" gradientUnits="userSpaceOnUse" gradientTransform="translate(423.501 97.1787) rotate(10.3146) scale(10.7065 10.7012)">
<stop stop-color="#81FF7C"/>
<stop offset="0.09" stop-color="#6CD567" stop-opacity="0.84"/>
<stop offset="0.23" stop-color="#4F9D4C" stop-opacity="0.62"/>
<stop offset="0.36" stop-color="#376D35" stop-opacity="0.43"/>
<stop offset="0.5" stop-color="#234622" stop-opacity="0.27"/>
<stop offset="0.63" stop-color="#132713" stop-opacity="0.15"/>
<stop offset="0.76" stop-color="#081108" stop-opacity="0.07"/>
<stop offset="0.89" stop-color="#020402" stop-opacity="0.02"/>
<stop offset="1" stop-opacity="0"/>
</radialGradient>
<radialGradient id="paint15_radial_604_1200" cx="0" cy="0" r="1" gradientUnits="userSpaceOnUse" gradientTransform="translate(423.501 97.1781) rotate(10.3146) scale(16.3465 16.3384)">
<stop offset="0.27" stop-color="#81FF7C"/>
<stop offset="0.32" stop-color="#70DE6B"/>
<stop offset="0.39" stop-color="#5DB958"/>
<stop offset="0.45" stop-color="#52A24D"/>
<stop offset="0.48" stop-color="#4E9A49"/>
<stop offset="0.53" stop-color="#3D7939" stop-opacity="0.79"/>
<stop offset="0.6" stop-color="#2A5428" stop-opacity="0.55"/>
<stop offset="0.66" stop-color="#1B3519" stop-opacity="0.35"/>
<stop offset="0.74" stop-color="#0F1E0E" stop-opacity="0.2"/>
<stop offset="0.81" stop-color="#060D06" stop-opacity="0.09"/>
<stop offset="0.9" stop-color="#010301" stop-opacity="0.02"/>
<stop offset="1" stop-opacity="0"/>
</radialGradient>
<radialGradient id="paint16_radial_604_1200" cx="0" cy="0" r="1" gradientUnits="userSpaceOnUse" gradientTransform="translate(362.576 45.4475) rotate(10.3146) scale(10.7065 10.7012)">
<stop stop-color="#81FF7C"/>
<stop offset="0.09" stop-color="#6CD567" stop-opacity="0.84"/>
<stop offset="0.23" stop-color="#4F9D4C" stop-opacity="0.62"/>
<stop offset="0.36" stop-color="#376D35" stop-opacity="0.43"/>
<stop offset="0.5" stop-color="#234622" stop-opacity="0.27"/>
<stop offset="0.63" stop-color="#132713" stop-opacity="0.15"/>
<stop offset="0.76" stop-color="#081108" stop-opacity="0.07"/>
<stop offset="0.89" stop-color="#020402" stop-opacity="0.02"/>
<stop offset="1" stop-opacity="0"/>
</radialGradient>
<radialGradient id="paint17_radial_604_1200" cx="0" cy="0" r="1" gradientUnits="userSpaceOnUse" gradientTransform="translate(362.576 45.4479) rotate(10.3146) scale(16.3465 16.3384)">
<stop offset="0.27" stop-color="#81FF7C"/>
<stop offset="0.32" stop-color="#70DE6B"/>
<stop offset="0.39" stop-color="#5DB958"/>
<stop offset="0.45" stop-color="#52A24D"/>
<stop offset="0.48" stop-color="#4E9A49"/>
<stop offset="0.53" stop-color="#3D7939" stop-opacity="0.79"/>
<stop offset="0.6" stop-color="#2A5428" stop-opacity="0.55"/>
<stop offset="0.66" stop-color="#1B3519" stop-opacity="0.35"/>
<stop offset="0.74" stop-color="#0F1E0E" stop-opacity="0.2"/>
<stop offset="0.81" stop-color="#060D06" stop-opacity="0.09"/>
<stop offset="0.9" stop-color="#010301" stop-opacity="0.02"/>
<stop offset="1" stop-opacity="0"/>
</radialGradient>
<radialGradient id="paint18_radial_604_1200" cx="0" cy="0" r="1" gradientUnits="userSpaceOnUse" gradientTransform="translate(287.619 17.6761) rotate(10.3146) scale(10.7065 10.7012)">
<stop stop-color="#81FF7C"/>
<stop offset="0.09" stop-color="#6CD567" stop-opacity="0.84"/>
<stop offset="0.23" stop-color="#4F9D4C" stop-opacity="0.62"/>
<stop offset="0.36" stop-color="#376D35" stop-opacity="0.43"/>
<stop offset="0.5" stop-color="#234622" stop-opacity="0.27"/>
<stop offset="0.63" stop-color="#132713" stop-opacity="0.15"/>
<stop offset="0.76" stop-color="#081108" stop-opacity="0.07"/>
<stop offset="0.89" stop-color="#020402" stop-opacity="0.02"/>
<stop offset="1" stop-opacity="0"/>
</radialGradient>
<radialGradient id="paint19_radial_604_1200" cx="0" cy="0" r="1" gradientUnits="userSpaceOnUse" gradientTransform="translate(287.619 17.676) rotate(10.3146) scale(16.3465 16.3384)">
<stop offset="0.27" stop-color="#81FF7C"/>
<stop offset="0.32" stop-color="#70DE6B"/>
<stop offset="0.39" stop-color="#5DB958"/>
<stop offset="0.45" stop-color="#52A24D"/>
<stop offset="0.48" stop-color="#4E9A49"/>
<stop offset="0.53" stop-color="#3D7939" stop-opacity="0.79"/>
<stop offset="0.6" stop-color="#2A5428" stop-opacity="0.55"/>
<stop offset="0.66" stop-color="#1B3519" stop-opacity="0.35"/>
<stop offset="0.74" stop-color="#0F1E0E" stop-opacity="0.2"/>
<stop offset="0.81" stop-color="#060D06" stop-opacity="0.09"/>
<stop offset="0.9" stop-color="#010301" stop-opacity="0.02"/>
<stop offset="1" stop-opacity="0"/>
</radialGradient>
<radialGradient id="paint20_radial_604_1200" cx="0" cy="0" r="1" gradientUnits="userSpaceOnUse" gradientTransform="translate(207.695 17.1633) rotate(10.3146) scale(2.38985 2.38866)">
<stop stop-color="#81FF7C"/>
<stop offset="0.09" stop-color="#6CD567" stop-opacity="0.84"/>
<stop offset="0.23" stop-color="#4F9D4C" stop-opacity="0.62"/>
<stop offset="0.36" stop-color="#376D35" stop-opacity="0.43"/>
<stop offset="0.5" stop-color="#234622" stop-opacity="0.27"/>
<stop offset="0.63" stop-color="#132713" stop-opacity="0.15"/>
<stop offset="0.76" stop-color="#081108" stop-opacity="0.07"/>
<stop offset="0.89" stop-color="#020402" stop-opacity="0.02"/>
<stop offset="1" stop-opacity="0"/>
</radialGradient>
<radialGradient id="paint21_radial_604_1200" cx="0" cy="0" r="1" gradientUnits="userSpaceOnUse" gradientTransform="translate(207.695 17.1642) rotate(10.3146) scale(16.3465 16.3384)">
<stop offset="0.27" stop-color="#81FF7C"/>
<stop offset="0.32" stop-color="#70DE6B"/>
<stop offset="0.39" stop-color="#5DB958"/>
<stop offset="0.45" stop-color="#52A24D"/>
<stop offset="0.48" stop-color="#4E9A49"/>
<stop offset="0.53" stop-color="#3D7939" stop-opacity="0.79"/>
<stop offset="0.6" stop-color="#2A5428" stop-opacity="0.55"/>
<stop offset="0.66" stop-color="#1B3519" stop-opacity="0.35"/>
<stop offset="0.74" stop-color="#0F1E0E" stop-opacity="0.2"/>
<stop offset="0.81" stop-color="#060D06" stop-opacity="0.09"/>
<stop offset="0.9" stop-color="#010301" stop-opacity="0.02"/>
<stop offset="1" stop-opacity="0"/>
</radialGradient>
<radialGradient id="paint22_radial_604_1200" cx="0" cy="0" r="1" gradientUnits="userSpaceOnUse" gradientTransform="translate(132.398 44.0538) rotate(10.3146) scale(10.7065 10.7012)">
<stop stop-color="#81FF7C"/>
<stop offset="0.09" stop-color="#6CD567" stop-opacity="0.84"/>
<stop offset="0.23" stop-color="#4F9D4C" stop-opacity="0.62"/>
<stop offset="0.36" stop-color="#376D35" stop-opacity="0.43"/>
<stop offset="0.5" stop-color="#234622" stop-opacity="0.27"/>
<stop offset="0.63" stop-color="#132713" stop-opacity="0.15"/>
<stop offset="0.76" stop-color="#081108" stop-opacity="0.07"/>
<stop offset="0.89" stop-color="#020402" stop-opacity="0.02"/>
<stop offset="1" stop-opacity="0"/>
</radialGradient>
<radialGradient id="paint23_radial_604_1200" cx="0" cy="0" r="1" gradientUnits="userSpaceOnUse" gradientTransform="translate(132.398 44.0541) rotate(10.3146) scale(16.3465 16.3384)">
<stop offset="0.27" stop-color="#81FF7C"/>
<stop offset="0.32" stop-color="#70DE6B"/>
<stop offset="0.39" stop-color="#5DB958"/>
<stop offset="0.45" stop-color="#52A24D"/>
<stop offset="0.48" stop-color="#4E9A49"/>
<stop offset="0.53" stop-color="#3D7939" stop-opacity="0.79"/>
<stop offset="0.6" stop-color="#2A5428" stop-opacity="0.55"/>
<stop offset="0.66" stop-color="#1B3519" stop-opacity="0.35"/>
<stop offset="0.74" stop-color="#0F1E0E" stop-opacity="0.2"/>
<stop offset="0.81" stop-color="#060D06" stop-opacity="0.09"/>
<stop offset="0.9" stop-color="#010301" stop-opacity="0.02"/>
<stop offset="1" stop-opacity="0"/>
</radialGradient>
<radialGradient id="paint24_radial_604_1200" cx="0" cy="0" r="1" gradientUnits="userSpaceOnUse" gradientTransform="translate(70.8777 95.0601) rotate(10.3146) scale(10.7065 10.7012)">
<stop stop-color="#81FF7C"/>
<stop offset="0.09" stop-color="#6CD567" stop-opacity="0.84"/>
<stop offset="0.23" stop-color="#4F9D4C" stop-opacity="0.62"/>
<stop offset="0.36" stop-color="#376D35" stop-opacity="0.43"/>
<stop offset="0.5" stop-color="#234622" stop-opacity="0.27"/>
<stop offset="0.63" stop-color="#132713" stop-opacity="0.15"/>
<stop offset="0.76" stop-color="#081108" stop-opacity="0.07"/>
<stop offset="0.89" stop-color="#020402" stop-opacity="0.02"/>
<stop offset="1" stop-opacity="0"/>
</radialGradient>
<radialGradient id="paint25_radial_604_1200" cx="0" cy="0" r="1" gradientUnits="userSpaceOnUse" gradientTransform="translate(70.8777 95.06) rotate(10.3146) scale(16.3465 16.3384)">
<stop offset="0.27" stop-color="#81FF7C"/>
<stop offset="0.32" stop-color="#70DE6B"/>
<stop offset="0.39" stop-color="#5DB958"/>
<stop offset="0.45" stop-color="#52A24D"/>
<stop offset="0.48" stop-color="#4E9A49"/>
<stop offset="0.53" stop-color="#3D7939" stop-opacity="0.79"/>
<stop offset="0.6" stop-color="#2A5428" stop-opacity="0.55"/>
<stop offset="0.66" stop-color="#1B3519" stop-opacity="0.35"/>
<stop offset="0.74" stop-color="#0F1E0E" stop-opacity="0.2"/>
<stop offset="0.81" stop-color="#060D06" stop-opacity="0.09"/>
<stop offset="0.9" stop-color="#010301" stop-opacity="0.02"/>
<stop offset="1" stop-opacity="0"/>
</radialGradient>
<radialGradient id="paint26_radial_604_1200" cx="0" cy="0" r="1" gradientUnits="userSpaceOnUse" gradientTransform="translate(30.4807 163.993) rotate(10.3146) scale(2.38985 2.38865)">
<stop stop-color="#81FF7C"/>
<stop offset="0.09" stop-color="#6CD567" stop-opacity="0.84"/>
<stop offset="0.23" stop-color="#4F9D4C" stop-opacity="0.62"/>
<stop offset="0.36" stop-color="#376D35" stop-opacity="0.43"/>
<stop offset="0.5" stop-color="#234622" stop-opacity="0.27"/>
<stop offset="0.63" stop-color="#132713" stop-opacity="0.15"/>
<stop offset="0.76" stop-color="#081108" stop-opacity="0.07"/>
<stop offset="0.89" stop-color="#020402" stop-opacity="0.02"/>
<stop offset="1" stop-opacity="0"/>
</radialGradient>
<radialGradient id="paint27_radial_604_1200" cx="0" cy="0" r="1" gradientUnits="userSpaceOnUse" gradientTransform="translate(30.4807 163.993) rotate(10.3146) scale(16.3465 16.3384)">
<stop offset="0.27" stop-color="#81FF7C"/>
<stop offset="0.32" stop-color="#70DE6B"/>
<stop offset="0.39" stop-color="#5DB958"/>
<stop offset="0.45" stop-color="#52A24D"/>
<stop offset="0.48" stop-color="#4E9A49"/>
<stop offset="0.53" stop-color="#3D7939" stop-opacity="0.79"/>
<stop offset="0.6" stop-color="#2A5428" stop-opacity="0.55"/>
<stop offset="0.66" stop-color="#1B3519" stop-opacity="0.35"/>
<stop offset="0.74" stop-color="#0F1E0E" stop-opacity="0.2"/>
<stop offset="0.81" stop-color="#060D06" stop-opacity="0.09"/>
<stop offset="0.9" stop-color="#010301" stop-opacity="0.02"/>
<stop offset="1" stop-opacity="0"/>
</radialGradient>
<radialGradient id="paint28_radial_604_1200" cx="0" cy="0" r="1" gradientUnits="userSpaceOnUse" gradientTransform="translate(16.1081 242.614) rotate(10.3146) scale(10.7065 10.7012)">
<stop stop-color="#81FF7C"/>
<stop offset="0.09" stop-color="#6CD567" stop-opacity="0.84"/>
<stop offset="0.23" stop-color="#4F9D4C" stop-opacity="0.62"/>
<stop offset="0.36" stop-color="#376D35" stop-opacity="0.43"/>
<stop offset="0.5" stop-color="#234622" stop-opacity="0.27"/>
<stop offset="0.63" stop-color="#132713" stop-opacity="0.15"/>
<stop offset="0.76" stop-color="#081108" stop-opacity="0.07"/>
<stop offset="0.89" stop-color="#020402" stop-opacity="0.02"/>
<stop offset="1" stop-opacity="0"/>
</radialGradient>
<radialGradient id="paint29_radial_604_1200" cx="0" cy="0" r="1" gradientUnits="userSpaceOnUse" gradientTransform="translate(16.1081 242.615) rotate(10.3146) scale(16.3465 16.3384)">
<stop offset="0.27" stop-color="#81FF7C"/>
<stop offset="0.32" stop-color="#70DE6B"/>
<stop offset="0.39" stop-color="#5DB958"/>
<stop offset="0.45" stop-color="#52A24D"/>
<stop offset="0.48" stop-color="#4E9A49"/>
<stop offset="0.53" stop-color="#3D7939" stop-opacity="0.79"/>
<stop offset="0.6" stop-color="#2A5428" stop-opacity="0.55"/>
<stop offset="0.66" stop-color="#1B3519" stop-opacity="0.35"/>
<stop offset="0.74" stop-color="#0F1E0E" stop-opacity="0.2"/>
<stop offset="0.81" stop-color="#060D06" stop-opacity="0.09"/>
<stop offset="0.9" stop-color="#010301" stop-opacity="0.02"/>
<stop offset="1" stop-opacity="0"/>
</radialGradient>
<radialGradient id="paint30_radial_604_1200" cx="0" cy="0" r="1" gradientUnits="userSpaceOnUse" gradientTransform="translate(29.5541 321.346) rotate(10.3146) scale(2.38985 2.38866)">
<stop stop-color="#81FF7C"/>
<stop offset="0.09" stop-color="#6CD567" stop-opacity="0.84"/>
<stop offset="0.23" stop-color="#4F9D4C" stop-opacity="0.62"/>
<stop offset="0.36" stop-color="#376D35" stop-opacity="0.43"/>
<stop offset="0.5" stop-color="#234622" stop-opacity="0.27"/>
<stop offset="0.63" stop-color="#132713" stop-opacity="0.15"/>
<stop offset="0.76" stop-color="#081108" stop-opacity="0.07"/>
<stop offset="0.89" stop-color="#020402" stop-opacity="0.02"/>
<stop offset="1" stop-opacity="0"/>
</radialGradient>
<radialGradient id="paint31_radial_604_1200" cx="0" cy="0" r="1" gradientUnits="userSpaceOnUse" gradientTransform="translate(29.5541 321.346) rotate(10.3146) scale(16.3465 16.3384)">
<stop offset="0.27" stop-color="#81FF7C"/>
<stop offset="0.32" stop-color="#70DE6B"/>
<stop offset="0.39" stop-color="#5DB958"/>
<stop offset="0.45" stop-color="#52A24D"/>
<stop offset="0.48" stop-color="#4E9A49"/>
<stop offset="0.53" stop-color="#3D7939" stop-opacity="0.79"/>
<stop offset="0.6" stop-color="#2A5428" stop-opacity="0.55"/>
<stop offset="0.66" stop-color="#1B3519" stop-opacity="0.35"/>
<stop offset="0.74" stop-color="#0F1E0E" stop-opacity="0.2"/>
<stop offset="0.81" stop-color="#060D06" stop-opacity="0.09"/>
<stop offset="0.9" stop-color="#010301" stop-opacity="0.02"/>
<stop offset="1" stop-opacity="0"/>
</radialGradient>
<radialGradient id="paint32_radial_604_1200" cx="0" cy="0" r="1" gradientUnits="userSpaceOnUse" gradientTransform="translate(69.0809 390.79) rotate(10.3146) scale(2.38985 2.38866)">
<stop stop-color="#81FF7C"/>
<stop offset="0.09" stop-color="#6CD567" stop-opacity="0.84"/>
<stop offset="0.23" stop-color="#4F9D4C" stop-opacity="0.62"/>
<stop offset="0.36" stop-color="#376D35" stop-opacity="0.43"/>
<stop offset="0.5" stop-color="#234622" stop-opacity="0.27"/>
<stop offset="0.63" stop-color="#132713" stop-opacity="0.15"/>
<stop offset="0.76" stop-color="#081108" stop-opacity="0.07"/>
<stop offset="0.89" stop-color="#020402" stop-opacity="0.02"/>
<stop offset="1" stop-opacity="0"/>
</radialGradient>
<radialGradient id="paint33_radial_604_1200" cx="0" cy="0" r="1" gradientUnits="userSpaceOnUse" gradientTransform="translate(69.0809 390.79) rotate(10.3146) scale(16.3465 16.3384)">
<stop offset="0.27" stop-color="#81FF7C"/>
<stop offset="0.32" stop-color="#70DE6B"/>
<stop offset="0.39" stop-color="#5DB958"/>
<stop offset="0.45" stop-color="#52A24D"/>
<stop offset="0.48" stop-color="#4E9A49"/>
<stop offset="0.53" stop-color="#3D7939" stop-opacity="0.79"/>
<stop offset="0.6" stop-color="#2A5428" stop-opacity="0.55"/>
<stop offset="0.66" stop-color="#1B3519" stop-opacity="0.35"/>
<stop offset="0.74" stop-color="#0F1E0E" stop-opacity="0.2"/>
<stop offset="0.81" stop-color="#060D06" stop-opacity="0.09"/>
<stop offset="0.9" stop-color="#010301" stop-opacity="0.02"/>
<stop offset="1" stop-opacity="0"/>
</radialGradient>
<radialGradient id="paint34_radial_604_1200" cx="0" cy="0" r="1" gradientUnits="userSpaceOnUse" gradientTransform="translate(130.005 442.521) rotate(10.3146) scale(10.7065 10.7012)">
<stop stop-color="#81FF7C"/>
<stop offset="0.09" stop-color="#6CD567" stop-opacity="0.84"/>
<stop offset="0.23" stop-color="#4F9D4C" stop-opacity="0.62"/>
<stop offset="0.36" stop-color="#376D35" stop-opacity="0.43"/>
<stop offset="0.5" stop-color="#234622" stop-opacity="0.27"/>
<stop offset="0.63" stop-color="#132713" stop-opacity="0.15"/>
<stop offset="0.76" stop-color="#081108" stop-opacity="0.07"/>
<stop offset="0.89" stop-color="#020402" stop-opacity="0.02"/>
<stop offset="1" stop-opacity="0"/>
</radialGradient>
<radialGradient id="paint35_radial_604_1200" cx="0" cy="0" r="1" gradientUnits="userSpaceOnUse" gradientTransform="translate(130.005 442.521) rotate(10.3146) scale(16.3465 16.3384)">
<stop offset="0.27" stop-color="#81FF7C"/>
<stop offset="0.32" stop-color="#70DE6B"/>
<stop offset="0.39" stop-color="#5DB958"/>
<stop offset="0.45" stop-color="#52A24D"/>
<stop offset="0.48" stop-color="#4E9A49"/>
<stop offset="0.53" stop-color="#3D7939" stop-opacity="0.79"/>
<stop offset="0.6" stop-color="#2A5428" stop-opacity="0.55"/>
<stop offset="0.66" stop-color="#1B3519" stop-opacity="0.35"/>
<stop offset="0.74" stop-color="#0F1E0E" stop-opacity="0.2"/>
<stop offset="0.81" stop-color="#060D06" stop-opacity="0.09"/>
<stop offset="0.9" stop-color="#010301" stop-opacity="0.02"/>
<stop offset="1" stop-opacity="0"/>
</radialGradient>
</defs>
</svg>
