<svg width="301" height="301" viewBox="0 0 301 301" fill="none" xmlns="http://www.w3.org/2000/svg">
<path d="M78.9653 104.122L89.531 93.2511L91.1337 91.6061L91.2909 91.7558C108.744 77.0764 146.88 88.9787 178.259 119.478C209.645 149.98 222.712 187.828 208.522 205.696L208.609 205.782L207.006 207.427L196.441 218.297C179.877 235.339 140.15 223.596 107.713 192.07C75.2707 160.535 62.4014 121.163 78.9653 104.122Z" fill="url(#paint0_linear_1500_1364)"/>
<path d="M78.9653 104.122L89.5334 93.2438L91.9175 94.4194L82.2392 103.668C65.6752 120.71 77.5781 158.214 110.02 189.749C142.458 221.274 180.36 232.22 196.924 215.179L205.952 205.423L207.006 207.427L196.438 218.305C179.874 235.346 140.148 223.603 107.71 192.078C75.2707 160.535 62.4014 121.163 78.9653 104.122Z" fill="url(#paint1_linear_1500_1364)"/>
<path d="M89.5334 93.2438C106.097 76.2027 145.824 87.9455 178.261 119.471C210.698 150.996 223.575 190.371 207.011 207.412C190.447 224.453 150.721 212.71 118.283 181.185C85.8364 149.665 72.9671 110.292 89.5334 93.2438ZM124.677 174.608C153.734 202.849 188.528 214.171 202.4 199.903C216.272 185.635 203.959 151.174 174.901 122.933C145.844 94.6914 111.042 83.3674 97.1782 97.6378C83.3065 111.906 95.6194 146.366 124.677 174.608Z" fill="url(#paint2_linear_1500_1364)"/>
<path d="M97.1782 97.6378C83.314 111.908 95.6194 146.366 124.677 174.608C153.734 202.849 188.528 214.171 202.4 199.903C216.272 185.635 203.959 151.174 174.901 122.933C145.844 94.6914 111.042 83.3674 97.1782 97.6378Z" fill="url(#paint3_linear_1500_1364)"/>
<path d="M97.4415 108.585C94.1115 107.383 97.2023 100.204 102.508 97.2655C107.862 94.3015 113.111 94.9157 112.893 97.5689C112.779 99.0132 109.674 100.418 106.369 103.051C103.059 105.673 99.7683 109.429 97.4415 108.585Z" fill="white"/>
<path d="M203.505 181.326C206.46 182.596 205.693 187.63 204.625 190.444C203.557 193.258 201.157 197.591 198.141 196.894C195.125 196.196 196.905 192.074 198.229 188.85C199.554 185.625 201.612 180.515 203.505 181.326Z" fill="white"/>
<path d="M116.739 97.7616C116.566 94.2081 122.6 93.2584 123.807 97.2043C125.014 101.15 116.913 101.315 116.739 97.7616Z" fill="white"/>
<path d="M194.199 198.266C195.717 201.482 190.51 204.675 187.881 201.486C185.26 198.3 192.682 195.051 194.199 198.266Z" fill="white"/>
<path d="M154.695 144.307C154.735 144.311 154.767 144.313 154.797 144.323C154.851 144.333 154.906 144.342 154.963 144.344C155.003 144.349 155.057 144.358 155.097 144.363C155.146 144.362 155.188 144.359 155.23 144.357C155.287 144.359 155.347 144.353 155.399 144.345C155.423 144.345 155.456 144.347 155.483 144.34C155.525 144.337 155.557 144.314 155.594 144.302C155.666 144.284 155.74 144.258 155.806 144.23C155.826 144.22 155.861 144.215 155.88 144.205C155.942 144.167 156.003 144.13 156.057 144.09L158.732 141.879C158.663 141.939 158.575 141.984 158.488 142.022C158.422 142.05 158.348 142.075 158.276 142.093C158.214 142.106 158.15 142.126 158.088 142.139C158.036 142.147 157.979 142.145 157.92 142.15C157.836 142.156 157.747 142.152 157.653 142.138C157.598 142.128 157.541 142.126 157.487 142.117C157.345 142.096 157.199 142.065 157.035 142.012L131.622 133.738L123.292 112.055L120.617 114.266L128.94 135.946L154.353 144.22C154.472 144.259 154.586 144.288 154.695 144.307Z" fill="#88569C"/>
<path d="M132.293 125.825C132.328 125.819 132.357 125.804 132.392 125.799C132.419 125.791 132.451 125.794 132.483 125.796C132.526 125.793 132.575 125.793 132.622 125.8C132.654 125.802 132.677 125.809 132.709 125.811C132.786 125.828 132.863 125.845 132.945 125.871L149.15 131.146C149.277 131.187 149.406 131.245 149.537 131.296C149.793 131.395 150.062 131.507 150.318 131.631C150.402 131.675 150.489 131.711 150.574 131.755C150.681 131.806 150.79 131.875 150.895 131.933C151.034 132.011 151.173 132.089 151.317 132.177C151.427 132.246 151.537 132.314 151.646 132.382C151.761 132.461 151.885 132.534 152.007 132.615C152.365 132.854 152.719 133.109 153.066 133.385C153.125 133.43 153.175 133.479 153.235 133.523C153.554 133.782 153.863 134.047 154.173 134.337C154.235 134.398 154.307 134.454 154.37 134.516C154.712 134.832 155.039 135.169 155.364 135.512C155.431 135.584 155.504 135.665 155.571 135.736C155.876 136.065 156.168 136.407 156.451 136.753C156.481 136.788 156.516 136.832 156.546 136.866C156.926 137.344 157.292 137.841 157.633 138.338C157.673 138.392 157.713 138.446 157.743 138.505C157.994 138.874 158.225 139.254 158.446 139.638C158.504 139.739 158.557 139.83 158.607 139.929C158.753 140.19 158.889 140.456 159.025 140.722C159.08 140.831 159.133 140.947 159.188 141.055C159.327 141.339 159.448 141.625 159.562 141.909C159.6 141.995 159.638 142.081 159.668 142.165C159.802 142.513 159.909 142.844 160.001 143.17C160.057 143.353 160.098 143.531 160.141 143.701C160.154 143.763 160.175 143.827 160.193 143.899C160.247 144.138 160.293 144.376 160.317 144.606C160.357 144.89 160.374 145.167 160.389 145.427C160.389 145.501 160.385 145.566 160.386 145.64C160.382 145.828 160.374 146.006 160.351 146.18C160.341 146.259 160.332 146.338 160.315 146.415C160.289 146.571 160.256 146.725 160.208 146.874C160.189 146.934 160.174 147.003 160.155 147.063C160.082 147.261 160.007 147.443 159.902 147.615C159.761 147.848 159.587 148.055 159.378 148.218L162.052 146.007C162.256 145.834 162.428 145.635 162.577 145.403C162.68 145.239 162.757 145.05 162.827 144.859C162.847 144.8 162.868 144.733 162.88 144.671C162.919 144.527 162.959 144.375 162.988 144.212C163.004 144.135 163.014 144.055 163.023 143.976C163.046 143.803 163.055 143.624 163.058 143.436C163.057 143.362 163.062 143.298 163.061 143.223C163.056 142.958 163.037 142.689 162.99 142.402C162.992 142.395 162.987 142.385 162.99 142.377C162.956 142.152 162.914 141.925 162.865 141.695C162.852 141.633 162.832 141.569 162.814 141.497C162.778 141.354 162.742 141.211 162.701 141.058C162.694 141.031 162.681 140.993 162.666 140.964C162.574 140.638 162.46 140.305 162.333 139.959C162.318 139.93 162.31 139.902 162.297 139.865C162.275 139.809 162.245 139.749 162.227 139.703C162.113 139.419 161.984 139.13 161.853 138.849C161.828 138.8 161.818 138.755 161.793 138.706C161.765 138.639 161.72 138.575 161.692 138.509C161.563 138.245 161.418 137.984 161.272 137.723C161.237 137.654 161.201 137.585 161.164 137.523C161.149 137.494 161.126 137.462 161.103 137.43C160.882 137.045 160.649 136.673 160.401 136.297C160.383 136.275 160.373 136.255 160.363 136.235C160.341 136.203 160.311 136.169 160.29 136.129C159.952 135.625 159.584 135.135 159.204 134.658C159.198 134.648 159.193 134.638 159.186 134.636C159.163 134.604 159.131 134.577 159.108 134.545C158.826 134.198 158.533 133.857 158.228 133.527C158.161 133.456 158.096 133.378 158.021 133.304C157.696 132.96 157.369 132.624 157.027 132.307C156.965 132.246 156.893 132.19 156.83 132.128C156.518 131.846 156.204 131.572 155.893 131.314C155.833 131.27 155.783 131.221 155.723 131.177C155.369 130.898 155.015 130.643 154.664 130.406C154.632 130.379 154.592 130.35 154.557 130.33C154.475 130.279 154.386 130.225 154.303 130.174C154.194 130.106 154.084 130.037 153.975 129.969C153.831 129.881 153.691 129.803 153.552 129.725C153.448 129.666 153.336 129.605 153.229 129.554C153.194 129.535 153.159 129.515 153.124 129.496C153.075 129.471 153.022 129.455 152.973 129.43C152.709 129.304 152.448 129.194 152.193 129.095C152.14 129.078 152.086 129.044 152.034 129.027C151.959 129.003 151.877 128.977 151.803 128.952L135.597 123.678C135.538 123.658 135.471 123.637 135.416 123.627C135.394 123.62 135.376 123.623 135.362 123.618C135.329 123.616 135.3 123.606 135.275 123.606C135.25 123.606 135.228 123.599 135.203 123.599C135.178 123.599 135.161 123.602 135.136 123.602C135.104 123.6 135.077 123.608 135.045 123.606C135.027 123.608 135.012 123.603 135.002 123.608C134.985 123.611 134.965 123.621 134.946 123.631C134.909 123.644 134.872 123.657 134.835 123.669C134.825 123.674 134.807 123.677 134.798 123.682C134.768 123.697 134.736 123.72 134.704 123.742L132.029 125.953C132.064 125.923 132.113 125.898 132.16 125.88C132.214 125.84 132.251 125.828 132.293 125.825Z" fill="#88569C"/>
<path d="M159.529 157.302C159.784 157.401 160.053 157.513 160.316 157.64C160.401 157.683 160.488 157.72 160.572 157.764C160.679 157.815 160.789 157.883 160.893 157.942C161.032 158.02 161.172 158.098 161.316 158.186C161.426 158.254 161.535 158.322 161.645 158.391C161.759 158.469 161.883 158.542 162.005 158.623C162.364 158.863 162.718 159.117 163.064 159.394C163.124 159.438 163.174 159.487 163.234 159.531C163.553 159.791 163.867 160.065 164.179 160.347C164.241 160.409 164.306 160.463 164.376 160.527C164.718 160.843 165.045 161.179 165.37 161.523C165.437 161.594 165.502 161.673 165.577 161.747C165.882 162.076 166.174 162.418 166.457 162.764C166.487 162.799 166.522 162.843 166.552 162.877C166.932 163.354 167.298 163.851 167.639 164.349C167.679 164.403 167.719 164.457 167.757 164.518C168.007 164.888 168.238 165.267 168.459 165.651C168.517 165.752 168.57 165.843 168.62 165.942C168.766 166.203 168.902 166.469 169.038 166.736C169.093 166.844 169.146 166.96 169.202 167.068C169.34 167.352 169.462 167.638 169.575 167.922C169.613 168.008 169.651 168.095 169.681 168.178C169.816 168.526 169.922 168.857 170.022 169.186C170.078 169.368 170.119 169.546 170.162 169.717C170.175 169.778 170.196 169.843 170.214 169.914C170.268 170.154 170.314 170.391 170.338 170.621C170.378 170.906 170.395 171.183 170.41 171.443C170.41 171.517 170.406 171.581 170.406 171.655C170.403 171.844 170.395 172.022 170.371 172.195C170.362 172.275 170.353 172.354 170.336 172.431C170.31 172.587 170.277 172.741 170.229 172.89C170.209 172.949 170.195 173.019 170.176 173.078C170.103 173.277 170.028 173.458 169.923 173.63C169.781 173.864 169.6 174.069 169.398 174.234L172.073 172.023C172.277 171.85 172.449 171.651 172.598 171.419C172.7 171.255 172.778 171.066 172.848 170.875C172.868 170.815 172.889 170.748 172.901 170.686C172.94 170.542 172.98 170.391 173.009 170.227C173.025 170.15 173.035 170.071 173.044 169.992C173.067 169.818 173.076 169.64 173.076 169.459C173.076 169.385 173.08 169.321 173.08 169.246C173.075 168.982 173.055 168.712 173.016 168.428C173.018 168.42 173.013 168.41 173.016 168.403C172.989 168.18 172.94 167.95 172.891 167.721C172.878 167.659 172.858 167.595 172.84 167.523C172.804 167.38 172.768 167.236 172.727 167.083C172.719 167.056 172.707 167.019 172.692 166.989C172.6 166.663 172.486 166.33 172.351 165.982C172.336 165.953 172.329 165.926 172.316 165.888C172.293 165.832 172.263 165.773 172.245 165.726C172.131 165.442 172.003 165.153 171.872 164.872C171.847 164.823 171.836 164.779 171.811 164.729C171.783 164.663 171.738 164.599 171.71 164.532C171.582 164.268 171.436 164.007 171.29 163.746C171.255 163.677 171.22 163.608 171.182 163.546C171.167 163.517 171.144 163.485 171.122 163.453C170.901 163.068 170.667 162.696 170.419 162.32C170.402 162.298 170.392 162.278 170.382 162.258C170.359 162.226 170.329 162.192 170.309 162.152C169.97 161.648 169.602 161.158 169.222 160.681C169.217 160.671 169.212 160.661 169.204 160.659C169.182 160.627 169.15 160.6 169.127 160.568C168.844 160.221 168.549 159.887 168.254 159.553C168.187 159.482 168.114 159.401 168.047 159.329C167.722 158.986 167.395 158.649 167.053 158.333C166.991 158.271 166.919 158.215 166.856 158.154C166.544 157.872 166.23 157.597 165.919 157.34C165.859 157.296 165.809 157.247 165.749 157.203C165.395 156.923 165.041 156.669 164.69 156.432C164.658 156.405 164.618 156.375 164.583 156.356C164.501 156.305 164.412 156.251 164.329 156.2C164.22 156.131 164.11 156.063 164.001 155.994C163.857 155.906 163.717 155.828 163.578 155.75C163.474 155.692 163.362 155.631 163.255 155.58C163.22 155.56 163.185 155.541 163.15 155.521C163.101 155.497 163.048 155.48 162.999 155.456C162.735 155.329 162.474 155.22 162.219 155.121C162.166 155.104 162.112 155.07 162.059 155.053C161.985 155.029 161.903 155.002 161.829 154.978L136.617 146.769L133.288 138.095L130.613 140.306L133.942 148.98L159.154 157.189C159.275 157.195 159.404 157.254 159.529 157.302Z" fill="#88569C"/>
<path d="M167.925 168.087C167.866 168.092 167.807 168.098 167.75 168.096C167.658 168.099 167.562 168.092 167.465 168.086C167.408 168.084 167.353 168.074 167.291 168.062C167.143 168.039 166.989 168.006 166.818 167.95L150.612 162.675C150.553 162.656 150.486 162.634 150.431 162.625C150.416 162.62 150.391 162.62 150.377 162.615C150.344 162.613 150.315 162.604 150.29 162.604C150.265 162.604 150.243 162.597 150.218 162.597C150.193 162.597 150.176 162.6 150.151 162.6C150.119 162.598 150.092 162.605 150.06 162.603C150.042 162.606 150.027 162.601 150.018 162.606C150 162.609 149.98 162.619 149.961 162.629C149.924 162.641 149.887 162.654 149.85 162.667C149.84 162.672 149.823 162.675 149.813 162.68C149.783 162.695 149.751 162.717 149.719 162.74L147.044 164.951C147.079 164.921 147.128 164.896 147.175 164.878C147.212 164.865 147.249 164.853 147.286 164.84C147.321 164.835 147.35 164.819 147.385 164.814C147.412 164.807 147.444 164.809 147.476 164.811C147.518 164.808 147.568 164.808 147.615 164.815C147.647 164.817 147.672 164.817 147.702 164.826C147.779 164.843 147.856 164.86 147.937 164.886L164.143 170.161C164.27 170.202 164.384 170.231 164.498 170.26C164.537 170.264 164.57 170.266 164.609 170.271C164.671 170.283 164.728 170.285 164.783 170.294C164.83 170.301 164.877 170.308 164.924 170.315C164.974 170.315 165.018 170.305 165.068 170.304C165.127 170.299 165.191 170.303 165.243 170.295C165.268 170.295 165.3 170.297 165.327 170.29C165.372 170.279 165.401 170.264 165.438 170.252C165.52 170.229 165.592 170.211 165.661 170.175C165.68 170.165 165.715 170.16 165.735 170.15C165.804 170.115 165.868 170.07 165.924 170.022L168.599 167.811C168.52 167.876 168.432 167.922 168.335 167.964C168.266 168 168.187 168.015 168.113 168.041C168.059 168.056 167.995 168.076 167.925 168.087Z" fill="#88569C"/>
<path d="M178.298 180.877C178.206 180.93 178.103 180.971 177.997 181.019C177.851 181.087 177.706 181.155 177.548 181.21C177.437 181.249 177.311 181.282 177.192 181.317C177.037 181.366 176.876 181.404 176.708 181.44C176.55 181.471 176.387 181.493 176.216 181.511C176.112 181.527 176.001 181.54 175.892 181.546C175.689 181.563 175.484 181.562 175.271 181.559C175.179 181.562 175.087 181.565 174.991 181.559C174.691 181.544 174.379 181.517 174.064 181.473C173.985 181.463 173.908 181.447 173.831 181.43C173.596 181.395 173.355 181.35 173.11 181.295C172.681 181.197 172.246 181.089 171.792 180.942L146.58 172.733L138.277 151.067L135.602 153.278L143.925 174.959L169.137 183.168C169.592 183.315 170.031 183.433 170.455 183.521C170.494 183.525 170.537 183.547 170.584 183.554C170.785 183.595 170.981 183.625 171.184 183.658C171.263 183.667 171.34 183.684 171.417 183.701C171.717 183.74 172.012 183.77 172.296 183.78C172.314 183.777 172.329 183.782 172.346 183.78C172.442 183.786 172.529 183.773 172.626 183.78C172.839 183.783 173.044 183.784 173.239 183.765C173.348 183.759 173.452 183.743 173.563 183.73C173.685 183.711 173.808 183.71 173.932 183.684C173.976 183.674 174.013 183.661 174.058 183.651C174.226 183.615 174.379 183.574 174.542 183.528C174.661 183.493 174.777 183.464 174.898 183.421C175.056 183.365 175.201 183.297 175.347 183.229C175.426 183.189 175.517 183.161 175.596 183.121C175.615 183.111 175.628 183.098 175.647 183.088C175.899 182.947 176.13 182.792 176.344 182.614L179.019 180.403C178.785 180.591 178.546 180.744 178.298 180.877Z" fill="#88569C"/>
<path d="M148.571 120.285C156.207 122.775 165.211 131.963 169.173 141.171C169.343 141.563 169.492 141.941 169.641 142.318C171.626 147.496 171.521 151.527 169.755 153.728C173.964 157.881 177.64 163.145 179.632 168.325C179.776 168.692 179.918 169.067 180.03 169.433C183.029 178.337 179.518 183.462 171.881 180.971L146.67 172.762L138.344 151.089L163.556 159.298C165.552 159.945 167.905 162.41 168.824 164.806C169.277 165.998 169.297 166.951 168.948 167.521C168.606 168.093 167.885 168.288 166.895 167.967L150.689 162.692C150.19 162.53 149.832 162.62 149.664 162.911C149.48 163.197 149.489 163.678 149.717 164.27C150.175 165.472 151.357 166.702 152.355 167.025L168.56 172.3C170.556 172.947 171.981 172.561 172.68 171.421C173.38 170.274 173.354 168.373 172.436 165.977C170.595 161.192 165.875 156.256 161.9 154.96L136.688 146.751L133.36 138.077L158.571 146.286C160.567 146.933 161.993 146.547 162.691 145.407C163.392 144.26 163.366 142.359 162.447 139.963C160.607 135.178 155.886 130.242 151.912 128.946L135.706 123.672C135.207 123.51 134.849 123.6 134.681 123.891C134.497 124.177 134.506 124.657 134.734 125.249C135.192 126.451 136.374 127.681 137.372 128.005L153.786 133.347C155.662 133.955 157.888 136.281 158.751 138.544L158.938 139.032C159.809 141.297 158.991 142.629 157.114 142.021L131.702 133.747L123.359 112.076L148.571 120.285Z" fill="white"/>
<ellipse cx="150.112" cy="150.493" rx="130.331" ry="81.8147" transform="rotate(-135 150.112 150.493)" fill="url(#paint4_radial_1500_1364)" style="mix-blend-mode:screen"/>
<defs>
<linearGradient id="paint0_linear_1500_1364" x1="145.54" y1="227.2" x2="140.431" y2="84.4098" gradientUnits="userSpaceOnUse">
<stop offset="0.00266426" stop-color="#EBD4FF"/>
<stop offset="1" stop-color="#E8C2FF"/>
</linearGradient>
<linearGradient id="paint1_linear_1500_1364" x1="213.492" y1="187.398" x2="65.0037" y2="139.292" gradientUnits="userSpaceOnUse">
<stop offset="0.00267928" stop-color="#A943FF"/>
<stop offset="0.4406" stop-color="#A543FF"/>
<stop offset="1" stop-color="#AD43FF"/>
</linearGradient>
<linearGradient id="paint2_linear_1500_1364" x1="150.638" y1="216.521" x2="145.901" y2="84.1436" gradientUnits="userSpaceOnUse">
<stop stop-color="#F5EBFF"/>
<stop offset="0.3275" stop-color="#F7F4FA"/>
<stop offset="0.4179" stop-color="#F8F8F8"/>
<stop offset="0.4999" stop-color="#F6EEFD"/>
<stop offset="0.596" stop-color="white"/>
<stop offset="1" stop-color="#F6EFFD"/>
</linearGradient>
<linearGradient id="paint3_linear_1500_1364" x1="214.946" y1="168.699" x2="86.0641" y2="124.647" gradientUnits="userSpaceOnUse">
<stop stop-color="#9F67B9"/>
<stop offset="0.4963" stop-color="#9B90CD"/>
<stop offset="1" stop-color="#96BAE1"/>
</linearGradient>
<radialGradient id="paint4_radial_1500_1364" cx="0" cy="0" r="1" gradientUnits="userSpaceOnUse" gradientTransform="translate(150.112 150.493) rotate(90) scale(81.8147 130.331)">
<stop stop-color="#9F67B9"/>
<stop offset="1" stop-opacity="0"/>
</radialGradient>
</defs>
</svg>
