<svg width="142" height="105" viewBox="0 0 142 105" fill="none" xmlns="http://www.w3.org/2000/svg">
<path d="M5.95144 40.6739C5.78009 40.7527 5.69785 40.7892 5.52554 40.8641C5.93024 41.4574 5.97694 42.7089 5.97694 42.7089C5.98571 42.7109 6.26667 41.3593 5.95144 40.6739ZM87.1123 81.7299C85.036 81.6536 82.2057 82.7372 80.7118 84.209C50.5438 81.064 23.4984 68.8355 4.86326 44.366C4.72402 44.4577 4.5702 44.5405 4.40572 44.6135C23.1652 69.3055 50.4502 81.6001 80.8693 84.705C82.3701 83.2273 85.2062 82.134 87.2904 82.2084C88.1919 82.2382 89.0949 82.8888 89.0949 82.8888C89.1136 82.8802 88.3241 81.7756 87.1123 81.7299ZM110.842 78.8795C110.29 79.5929 110.011 79.9462 109.451 80.6576C107.26 80.9445 104.399 82.4661 102.985 84.1298C98.2836 84.5325 93.5627 84.6999 88.8465 84.6135C88.738 84.764 88.6061 84.9202 88.4547 85.0811C93.3728 85.1806 98.2997 85.0089 103.201 84.5783C104.618 82.9098 107.493 81.3766 109.687 81.0848C110.365 80.2288 110.7 79.7998 111.361 78.9398C111.13 78.9753 110.95 78.9525 110.842 78.8795ZM9.37286 39.0743C9.24654 39.1339 9.18385 39.1656 9.05752 39.2252C9.12223 39.3214 9.18812 39.5248 9.18812 39.5248C9.20957 39.5279 9.36682 39.2372 9.37286 39.0743ZM113.42 75.4762C113.055 75.9704 112.871 76.2179 112.498 76.7101C111.863 76.8061 111.038 77.2833 110.658 77.7812C110.369 78.1578 110.66 78.5591 110.733 78.5167C110.758 78.5022 110.817 78.3182 110.909 78.2007C111.289 77.7028 112.113 77.2256 112.755 77.1238C113.238 76.485 113.476 76.1666 113.95 75.5259C113.706 75.5641 113.532 75.5443 113.42 75.4762ZM12.3111 37.6167C12.1897 37.6792 12.127 37.711 12.0055 37.7736C12.0741 37.8687 12.1391 38.0683 12.1391 38.0683C12.1527 38.0732 12.3051 37.7796 12.3111 37.6167ZM115.89 72.0702C115.542 72.5644 115.366 72.8101 115.009 73.3024C114.38 73.4091 113.571 73.8953 113.207 74.3933C112.93 74.771 113.228 75.1625 113.3 75.1162C113.325 75.1017 113.38 74.9187 113.46 74.8041C113.831 74.3041 114.632 73.816 115.264 73.7082C115.726 73.0664 115.955 72.7499 116.408 72.1061C116.179 72.1532 116.001 72.1344 115.89 72.0702ZM94.3568 73.6635C93.7868 73.6692 93.0299 74.0142 92.6609 74.439C91.1858 76.1423 90.4282 76.9967 88.8682 78.6915C88.5702 79.0164 88.8081 79.4514 88.8757 79.4226C88.8982 79.413 88.9706 79.2505 89.0562 79.1594C90.622 77.4548 91.3806 76.6043 92.8665 74.8943C93.2355 74.4695 93.9963 74.1235 94.5663 74.1178C94.6981 74.1149 94.8782 74.1747 94.8968 74.1661C94.9262 74.1507 94.9344 73.9624 94.8949 73.885C94.8276 73.744 94.6418 73.6607 94.3568 73.6635ZM15.1501 36.1251C15.0326 36.1868 14.9747 36.2215 14.8533 36.2841C14.9209 36.3753 14.9898 36.5739 14.9898 36.5739C15.0064 36.574 15.1519 36.2862 15.1501 36.1251ZM118.256 68.6604C117.92 69.1558 117.753 69.4035 117.409 69.8968C116.787 70.0144 115.999 70.5035 115.645 71.0075C115.38 71.3824 115.692 71.7662 115.76 71.7208C115.785 71.7063 115.831 71.5212 115.915 71.4057C116.27 70.9056 117.053 70.4096 117.682 70.2901C118.123 69.6491 118.344 69.3306 118.776 68.6876C118.543 68.7357 118.37 68.7237 118.256 68.6604ZM17.9015 34.5969C17.7888 34.6615 17.731 34.6962 17.6173 34.7569C17.685 34.8481 17.7529 35.0428 17.7529 35.0428C17.7705 35.0469 17.9033 34.7579 17.9015 34.5969ZM120.867 64.7108C120.41 65.422 120.177 65.7765 119.708 66.4866C119.093 66.6149 118.316 67.1179 117.985 67.6123C117.732 67.9882 118.05 68.3584 118.118 68.313C118.143 68.2985 118.185 68.1144 118.261 68.0007C118.596 67.5015 119.367 66.9956 119.991 66.8692C120.588 65.9668 120.88 65.5151 121.457 64.6174C121.249 64.6638 121.05 64.6955 120.867 64.7108ZM100.937 65.4685C100.376 65.4967 99.6621 65.8644 99.3311 66.2924C98.0072 68.0046 97.3287 68.8605 95.9257 70.5711C95.657 70.8972 95.9224 71.3089 95.9851 71.2772C96.0076 71.2676 96.0644 71.1089 96.1382 71.0206C97.548 69.3042 98.2344 68.4464 99.5642 66.7245C99.8952 66.2965 100.613 65.9278 101.174 65.8996C101.304 65.8927 101.482 65.9408 101.5 65.9322C101.526 65.9177 101.522 65.7322 101.48 65.6597C101.406 65.5245 101.215 65.4548 100.937 65.4685ZM24.3916 30.6427C24.2562 30.7335 24.1876 30.775 24.0484 30.8667C24.4604 31.3879 24.6541 32.5624 24.6541 32.5624C24.657 32.5575 24.7395 31.2581 24.3916 30.6427ZM126.044 56.1934C125.613 56.9438 125.398 57.319 124.955 58.0722C122.898 58.5875 120.416 60.3031 119.352 61.9771C118.746 62.9311 119.231 64.0599 119.231 64.0599C119.245 64.0483 119.192 63.0592 119.642 62.3539C120.709 60.6751 123.201 58.9488 125.261 58.4287C125.789 57.5306 126.048 57.0826 126.559 56.1844C126.338 56.2463 126.16 56.244 126.044 56.1934ZM27.1982 28.7616C27.0991 28.8311 27.0491 28.864 26.95 28.9335C27.0197 29.016 27.0984 29.204 27.0984 29.204C27.1062 29.2021 27.2107 28.9159 27.1982 28.7616ZM106.794 57.2663C106.248 57.32 105.571 57.7036 105.277 58.1309C104.102 59.8402 103.497 60.6948 102.245 62.4103C102.005 62.7375 102.297 63.1222 102.356 63.0914C102.378 63.0779 102.423 62.922 102.492 62.8308C103.748 61.1143 104.359 60.2539 105.538 58.5398C105.832 58.1124 106.508 57.7249 107.058 57.6703C107.183 57.6565 107.366 57.6949 107.385 57.6863C107.41 57.6718 107.392 57.4941 107.342 57.4234C107.258 57.2989 107.07 57.2409 106.794 57.2663ZM127.935 52.8077C127.669 53.2986 127.534 53.5426 127.263 54.0306C126.668 54.1913 125.957 54.724 125.679 55.2178C125.464 55.593 125.818 55.9254 125.879 55.8731C125.9 55.8557 125.928 55.6793 125.991 55.5645C126.273 55.0698 126.98 54.5381 127.581 54.3716C127.932 53.7358 128.108 53.4198 128.452 52.786C128.228 52.8527 128.051 52.8583 127.935 52.8077ZM29.5239 27.1171C29.4288 27.1857 29.3797 27.2224 29.2845 27.2911C29.3542 27.3735 29.432 27.5576 29.432 27.5576C29.4446 27.5586 29.5404 27.2704 29.5239 27.1171ZM129.726 49.4339C129.471 49.922 129.345 50.168 129.087 50.657C128.499 50.8285 127.808 51.3604 127.539 51.8562C127.339 52.2276 127.699 52.5503 127.757 52.499C127.777 52.4815 127.798 52.3109 127.861 52.1962C128.13 51.7004 128.82 51.1646 129.415 50.9873C129.75 50.3553 129.914 50.0383 130.24 49.4043C130.02 49.4701 129.847 49.4747 129.726 49.4339ZM31.7581 25.4534C31.6678 25.525 31.6177 25.5578 31.5274 25.6294C31.5971 25.7119 31.6778 25.891 31.6778 25.891C31.6944 25.8911 31.7823 25.6048 31.7581 25.4534ZM131.423 46.0701C131.185 46.5544 131.062 46.7995 130.82 47.2887C130.239 47.471 129.559 48.0126 129.31 48.5037C129.118 48.8732 129.487 49.1852 129.545 49.1339C129.566 49.1165 129.583 48.9468 129.642 48.833C129.896 48.341 130.571 47.7964 131.16 47.6122C131.475 46.981 131.634 46.665 131.941 46.0357C131.717 46.1025 131.545 46.111 131.423 46.0701ZM111.955 49.109C111.418 49.1852 110.783 49.5876 110.525 50.0103C109.496 51.7089 108.965 52.5581 107.859 54.2631C107.648 54.5875 107.962 54.946 108.016 54.9122C108.034 54.8997 108.068 54.7506 108.128 54.6573C109.241 52.9427 109.775 52.0886 110.811 50.3842C111.068 49.9615 111.708 49.5581 112.243 49.478C112.367 49.4603 112.548 49.4909 112.566 49.4783C112.587 49.4609 112.558 49.2899 112.505 49.228C112.413 49.122 112.223 49.0689 111.955 49.109ZM33.9103 23.7764C33.8239 23.8471 33.7788 23.8829 33.6885 23.9544C33.7572 24.033 33.8418 24.2112 33.8418 24.2112C33.8535 24.2084 33.9336 23.924 33.9103 23.7764ZM133.221 42.2972C132.919 42.9499 132.767 43.2767 132.454 43.9323C131.879 44.1214 131.217 44.6711 130.979 45.1593C130.796 45.5308 131.174 45.8282 131.231 45.773C131.248 45.7566 131.261 45.5878 131.32 45.474C131.558 44.9858 132.219 44.4323 132.798 44.2422C133.198 43.3999 133.395 42.9796 133.778 42.1372C133.584 42.209 133.398 42.2584 133.221 42.2972ZM111.612 45.1675C111.412 45.1954 111.308 45.2122 111.107 45.2361C110.872 45.8727 111.378 46.7108 111.378 46.7108C111.385 46.7089 111.261 45.7867 111.612 45.1675ZM131.558 40.4769C131.362 40.5409 131.263 40.5733 131.067 40.6373C130.938 41.2483 131.521 41.9103 131.521 41.9103C131.53 41.8996 131.31 41.0919 131.558 40.4769Z" fill="#19D845"/>
<path d="M43.5062 53.1617C43.202 52.9828 42.8835 52.882 42.5548 52.8582C42.23 52.8334 41.9631 52.894 41.7669 53.0409C41.6589 53.1251 41.5879 53.2251 41.5636 53.3469C41.5375 53.4609 41.5581 53.5801 41.6246 53.7006C41.6901 53.8172 41.8162 53.9274 41.9814 54.0282C42.1514 54.1319 42.349 54.2123 42.575 54.2735C42.801 54.3346 43.0135 54.3576 43.2165 54.3581C43.3493 54.359 43.4831 54.3473 43.6043 54.3179C43.7216 54.2895 43.8126 54.255 43.8715 54.2076C44.0491 54.0693 44.1394 53.9977 44.3161 53.8555C44.2243 53.7328 44.1032 53.609 43.9528 53.484C43.8034 53.3629 43.6558 53.2496 43.5062 53.1617ZM32.755 44.8166C32.07 44.2457 31.7305 43.9553 31.0652 43.3631C30.4659 43.7775 30.1639 43.9832 29.5549 44.3917C30.1949 44.9652 30.5208 45.2506 31.1824 45.8106C31.3173 45.9229 31.469 46.002 31.6365 46.0442C31.8041 46.0864 31.9749 46.0905 32.1459 46.0615C32.313 46.0334 32.4715 45.9701 32.6167 45.8687C32.7579 45.7682 32.8593 45.6567 32.9187 45.5263C32.9792 45.3999 33.0025 45.2742 32.9819 45.1549C32.9583 45.0406 32.885 44.9259 32.755 44.8166ZM39.2871 48.0897C39.0978 47.9576 38.873 47.8672 38.6313 47.8098C38.3907 47.7564 38.1409 47.7507 37.8976 47.789C37.6543 47.8273 37.4164 47.9222 37.1851 48.0611C38.0696 48.7037 38.5183 49.0173 39.4303 49.6367C39.617 49.4672 39.7266 49.2875 39.7689 49.1033C39.8112 48.9191 39.7998 48.7356 39.721 48.5642C39.6392 48.3977 39.4969 48.2376 39.2871 48.0897ZM84.7464 63.9611C84.4792 63.9348 84.1872 63.96 83.8842 64.0252C83.5773 64.0914 83.2876 64.1947 83.0114 64.3362C82.7391 64.4767 82.485 64.6584 82.2609 64.8783C83.516 65.0171 84.1441 65.0801 85.415 65.1819C85.5767 64.9606 85.6523 64.7601 85.6437 64.5882C85.6352 64.4164 85.5582 64.2694 85.4125 64.164C85.2581 64.0565 85.039 63.9896 84.7464 63.9611ZM35.1685 42.7658C34.564 42.2706 34.2672 42.0196 33.6764 41.5127C33.131 41.91 32.8514 42.1061 32.2933 42.5022C32.8607 42.9982 33.1478 43.2432 33.7289 43.7276C33.8425 43.8201 33.9757 43.8913 34.1276 43.9373C34.2747 43.9803 34.4259 43.9892 34.5851 43.963C34.7405 43.9378 34.9011 43.8657 35.06 43.7527C35.2179 43.6357 35.3183 43.5203 35.365 43.4055C35.4117 43.2906 35.4213 43.1765 35.3918 43.0719C35.3574 42.9643 35.283 42.8622 35.1685 42.7658ZM88.8757 79.4225C88.5896 79.3014 88.5702 79.0162 88.8682 78.6914C90.4272 76.9927 91.1858 76.1421 92.6609 74.4389C93.0299 74.014 93.7829 73.67 94.3568 73.6634C94.6418 73.6605 94.8276 73.7438 94.894 73.881C94.9334 73.9583 94.9357 74.053 94.8959 74.162C94.866 74.2438 94.8136 74.3352 94.7329 74.4293C93.2674 76.155 92.5108 77.0134 90.9604 78.7307C90.5757 79.1594 89.7838 79.4963 89.209 79.4824C89.0763 79.4815 88.9633 79.4592 88.8757 79.4225ZM95.9851 71.2771C95.6989 71.1725 95.657 70.897 95.9257 70.571C97.3287 68.8604 98.0112 68.0035 99.3311 66.2923C99.6621 65.8643 100.377 65.5005 100.937 65.4683C101.215 65.4547 101.406 65.5244 101.479 65.6557C101.521 65.7282 101.528 65.8259 101.499 65.9281C101.477 66.008 101.429 66.0984 101.36 66.1897C100.045 67.9204 99.369 68.7881 97.9747 70.5173C97.6281 70.9491 96.875 71.3098 96.3147 71.3214C96.1829 71.3243 96.0717 71.3099 95.9851 71.2771ZM59.3628 63.3867C61.4187 61.5344 62.414 60.6016 64.3256 58.7346C65.1173 58.9774 65.5147 59.0964 66.3153 59.3246C64.4104 61.219 63.4189 62.1674 61.3696 64.0471C60.5614 63.7876 60.1573 63.6578 59.3628 63.3867ZM35.1848 51.1504C34.743 50.831 34.4292 50.493 34.2278 50.1403C34.0302 49.7865 33.9361 49.4326 33.9474 49.0862C33.9577 48.7359 34.0587 48.4009 34.2522 48.089C34.4447 47.7731 34.7122 47.493 35.0536 47.2446C35.5363 46.8957 36.0787 46.6566 36.6817 46.5311C37.2838 46.4017 37.9075 46.3954 38.5489 46.5132C39.1893 46.6271 39.8023 46.8842 40.3879 47.2846C40.9736 47.685 41.3716 48.1144 41.5616 48.5735C41.7516 49.0325 41.7659 49.4845 41.5998 49.9264C41.4346 50.3722 41.1292 50.7692 40.6749 51.1154C40.5875 51.1821 40.4914 51.2468 40.3944 51.3076C40.2973 51.3684 40.2101 51.4185 40.1424 51.4639C38.5502 50.4297 37.7752 49.8972 36.2645 48.7894C36.0573 48.9597 35.9311 49.1394 35.8868 49.3323C35.8455 49.5203 35.8705 49.7089 35.9668 49.8843C36.0592 50.0606 36.1977 50.2216 36.3831 50.3547C36.6278 50.5273 36.909 50.6454 37.2316 50.7121C37.5493 50.7759 37.8412 50.7672 38.0975 50.6802C38.4932 51.1681 38.6886 51.4106 39.0951 51.8917C38.6912 52.002 38.2644 52.0517 37.8166 52.0319C37.3736 52.0151 36.9194 51.9347 36.4666 51.7919C36.0147 51.6531 35.5819 51.4392 35.1848 51.1504ZM42.7897 51.1285C42.9801 50.7014 43.0724 50.4844 43.2589 50.0583C43.8305 50.1102 44.3646 50.2126 44.8603 50.3615C45.356 50.5105 45.8269 50.711 46.2779 50.966C47.1129 51.4385 47.6032 51.9407 47.7301 52.4813C47.8609 53.021 47.5925 53.5705 46.9152 54.1239C46.4037 54.5418 46.1445 54.7537 45.6243 55.1697C45.4721 55.2935 45.3894 55.3964 45.3801 55.4773C45.3707 55.5583 45.4268 55.6358 45.554 55.7167C45.0338 56.1326 44.7727 56.3367 44.2438 56.7506C44.0607 56.6957 43.9059 56.6379 43.7707 56.5755C43.6403 56.516 43.5227 56.4576 43.4274 56.4062C43.0969 56.2213 42.9138 56.0297 42.8653 55.8468C42.8198 55.6591 42.8778 55.4712 43.0313 55.2849C43.1031 55.2054 43.1386 55.1637 43.2143 55.0832C42.673 55.173 42.1518 55.1752 41.6498 55.0857C41.1488 55.0001 40.7078 54.8379 40.3337 54.6098C39.9684 54.3837 39.7145 54.1223 39.5663 53.8353C39.4171 53.5443 39.3879 53.2533 39.4671 52.965C39.5492 52.6718 39.7463 52.4087 40.0583 52.1757C40.387 51.9263 40.7756 51.77 41.227 51.702C41.6783 51.6339 42.1515 51.6558 42.6485 51.7589C43.1455 51.862 43.6233 52.0567 44.0908 52.3285C44.3173 52.4599 44.5261 52.6039 44.7085 52.7584C44.8909 52.9129 45.0391 53.0633 45.1366 53.2094C45.223 53.1388 45.2682 53.103 45.3546 53.0324C45.6284 52.8128 45.7412 52.595 45.693 52.3789C45.6448 52.1629 45.4316 51.9496 45.0555 51.7302C44.7513 51.5514 44.4135 51.4221 44.0491 51.3366C43.6897 51.2374 43.2676 51.17 42.7897 51.1285ZM65.8928 65.4721C65.3132 65.3186 64.8696 65.1115 64.563 64.8546C64.2565 64.5977 64.0702 64.3074 64.0021 63.9927C63.9341 63.678 63.9784 63.3484 64.1195 63.0078C64.2653 62.6702 64.5117 62.3372 64.8507 62.0107C65.3038 61.5738 65.8587 61.2157 66.5127 60.9246C67.1707 60.6326 67.8747 60.4454 68.6395 60.3552C69.3965 60.2669 70.1477 60.3084 70.9067 60.4846C71.6872 60.6639 72.2445 60.9304 72.5543 61.2859C72.868 61.6404 72.9734 62.0413 72.8677 62.4934C71.8761 62.502 71.3832 62.5014 70.3995 62.4914C70.4135 62.31 70.359 62.1535 70.2409 62.0248C70.1266 61.8951 69.937 61.7962 69.6905 61.7359C69.409 61.6675 69.1006 61.6594 68.7685 61.7068C68.4363 61.7542 68.1096 61.8583 67.7972 62.0044C67.4809 62.1515 67.1975 62.3485 66.9468 62.5956C66.6992 62.8379 66.5462 63.0778 66.4831 63.296C66.421 63.5181 66.4518 63.7135 66.5776 63.8735C66.7033 64.0334 66.9064 64.154 67.1811 64.2281C67.3623 64.2753 67.5535 64.2952 67.7438 64.2946C67.9341 64.294 68.1353 64.2701 68.3318 64.2266C68.5361 64.1812 68.717 64.1249 68.8737 64.0538C69.5055 64.4223 69.8233 64.6061 70.4619 64.9689C70.026 65.1863 69.5583 65.3577 69.0578 65.479C68.5572 65.6004 68.0346 65.665 67.4987 65.6748C66.9561 65.6739 66.4197 65.6134 65.8928 65.4721ZM80.9269 68.2905C80.3047 68.2178 79.8187 68.0748 79.4717 67.8732C79.1238 67.6677 78.8933 67.4172 78.79 67.1276C78.6827 66.8389 78.6958 66.5169 78.8163 66.1772C78.9398 65.8326 79.1618 65.4848 79.4825 65.1338C79.937 64.6344 80.5032 64.2031 81.1744 63.8292C81.8456 63.4554 82.5766 63.1746 83.3705 62.9822C84.1682 62.7888 84.9729 62.7262 85.7931 62.7964C86.6125 62.8628 87.2144 63.0398 87.5841 63.3353C87.9538 63.6307 88.1142 64.0017 88.0593 64.4415C88.0054 64.8852 87.7756 65.3549 87.3564 65.8458C87.2757 65.9399 87.1832 66.0368 87.0898 66.1298C86.9965 66.2229 86.912 66.3013 86.8422 66.372C84.6493 66.2246 83.5657 66.1271 81.4223 65.8766C81.2342 66.1085 81.1391 66.3138 81.1525 66.4886C81.1649 66.6595 81.2624 66.8056 81.4325 66.9093C81.6025 67.013 81.8109 67.0867 82.0742 67.1139C82.4224 67.1496 82.7924 67.122 83.1903 67.0379C83.5871 66.95 83.9268 66.8139 84.1974 66.6323C84.8165 66.8631 85.129 66.9737 85.7579 67.1939C85.3178 67.4621 84.835 67.6909 84.3076 67.8726C83.7803 68.0542 83.224 68.1849 82.6476 68.2667C82.0625 68.3465 81.4856 68.358 80.9269 68.2905ZM50.8449 54.7404C51.3878 54.5549 51.9116 54.4611 52.4173 54.4462C52.9278 54.4342 53.3704 54.5008 53.7275 54.6585C53.8102 54.6923 53.8714 54.723 53.9084 54.7388C53.9454 54.7547 53.9794 54.7755 54.0134 54.7962C53.482 55.2687 53.2129 55.5078 52.6689 55.9792C52.2272 55.7799 51.7763 55.6449 51.3005 55.5781C50.8247 55.5113 50.3991 55.5317 50.0137 55.6499C48.8138 56.6613 48.1993 57.1663 46.9448 58.1743C46.2223 57.8071 45.8625 57.621 45.1537 57.2422C47.2227 55.6144 48.2201 54.7929 50.1467 53.1417C50.7925 53.4654 51.1173 53.6268 51.7728 53.9399C51.4075 54.2603 51.219 54.422 50.8449 54.7404ZM89.0197 64.4405C89.4459 63.9273 89.6576 63.6731 90.0789 63.1569C90.4556 63.1732 90.6439 63.1814 91.0234 63.1929C91.6004 62.4817 91.883 62.1274 92.4473 61.4151C93.347 61.4371 93.7959 61.4443 94.6996 61.4487C94.1411 62.168 93.8604 62.53 93.2853 63.2491C93.8874 63.2563 94.187 63.2623 94.7911 63.2608C94.3765 63.7878 94.1707 64.0488 93.7482 64.5777C93.1422 64.5714 92.8387 64.5664 92.2356 64.5552C91.4991 65.4625 91.125 65.9175 90.3641 66.8266C90.2154 67.0158 90.1617 67.1531 90.2109 67.2364C90.2562 67.3206 90.3827 67.3645 90.5876 67.3728C90.7632 67.3799 90.9585 67.3657 91.1716 67.3223C91.3847 67.2789 91.5791 67.2442 91.757 67.2093C91.4828 67.752 91.3422 68.0262 91.0602 68.5707C90.8031 68.6372 90.5079 68.7005 90.1981 68.7549C89.8883 68.8093 89.5845 68.854 89.2759 68.8791C88.9683 68.9081 88.6715 68.9138 88.3915 68.903C88.0101 68.8837 87.7041 68.8171 87.4658 68.7051C87.2323 68.5961 87.1125 68.4264 87.1112 68.199C87.1099 67.9716 87.2632 67.6819 87.5664 67.3268C88.5455 66.191 89.0249 65.6234 89.966 64.4844C89.5894 64.468 89.3972 64.4608 89.0197 64.4405ZM26.7383 43.9773C29.5817 42.1452 30.9401 41.2073 33.5291 39.3167C34.8926 40.5347 35.595 41.1263 37.041 42.2746C37.3486 42.5188 37.5341 42.7885 37.5983 43.0876C37.6625 43.3867 37.6302 43.6802 37.4934 43.9701C37.3606 44.259 37.149 44.5132 36.8723 44.7211C36.5681 44.9521 36.1843 45.1114 35.7308 45.2048C35.2803 45.2933 34.3632 45.114 34.3632 45.114C34.3474 45.1344 34.7285 45.8867 34.6526 46.2736C34.5766 46.6605 34.3115 47.0188 33.8485 47.3463C33.4454 47.6304 33.007 47.7863 32.5404 47.8084C32.0737 47.8304 31.6029 47.7499 31.127 47.5631C30.6462 47.3732 30.208 47.1027 29.8006 46.7543C28.5435 45.6679 27.9287 45.113 26.7383 43.9773ZM56.7193 55.5397C57.2478 55.0555 57.5082 54.8143 58.025 54.3329C60.8025 55.44 62.2326 55.9421 65.158 56.8393C64.6478 57.3481 64.3873 57.6058 63.8684 58.1126C62.806 57.778 62.2793 57.6035 61.2395 57.2428C59.1779 59.2083 58.1072 60.1883 55.8788 62.1321C55.0807 61.8288 54.6866 61.6718 53.9012 61.3529C56.1371 59.4403 57.2117 58.4759 59.2799 56.5378C58.2423 56.1517 57.7294 55.949 56.7193 55.5397ZM64.8603 58.2075C65.3881 57.6862 65.6486 57.4284 66.1637 56.906C66.9526 57.1371 67.349 57.2522 68.1467 57.4687C67.6326 57.995 67.374 58.2605 66.8471 58.7857C66.0484 58.5653 65.6472 58.4473 64.8603 58.2075ZM70.1863 66.3938C72.9944 63.6138 74.3278 62.214 76.8531 59.4115C77.6923 59.56 78.1145 59.6274 78.9616 59.7574C77.4996 61.4119 76.7431 62.2371 75.1845 63.8861C76.9206 63.225 77.7818 62.8837 79.4987 62.1777C80.4083 62.3091 80.8657 62.368 81.7871 62.48C79.9702 63.2517 79.059 63.6258 77.2161 64.3417C77.2456 65.676 77.2555 66.3485 77.2625 67.6925C76.3265 67.555 75.8645 67.4766 74.9404 67.3197C74.9842 66.3733 75.0071 65.9041 75.0402 64.9644C74.5325 65.1248 74.2791 65.2069 73.7705 65.3633C73.1973 65.9536 72.9083 66.2473 72.3263 66.8355C71.4658 66.6674 71.038 66.5765 70.1863 66.3938ZM102.36 63.0903C102.069 62.9994 102.009 62.7365 102.249 62.4093C103.498 60.6985 104.106 59.8391 105.281 58.1298C105.575 57.7025 106.248 57.3199 106.798 57.2652C107.074 57.2399 107.262 57.2978 107.346 57.4224C107.395 57.4891 107.409 57.5809 107.389 57.6852C107.37 57.7641 107.334 57.8517 107.27 57.9459C106.107 59.6729 105.505 60.5391 104.26 62.2694C103.951 62.7005 103.24 63.0839 102.691 63.1219C102.556 63.1298 102.446 63.1192 102.36 63.0903ZM108.016 54.9121C107.725 54.8378 107.648 54.5874 107.859 54.2629C108.965 52.558 109.495 51.7049 110.525 50.0102C110.783 49.5875 111.418 49.185 111.955 49.1088C112.223 49.0688 112.417 49.1209 112.506 49.2318C112.559 49.2937 112.58 49.3836 112.567 49.4821C112.557 49.5591 112.524 49.6458 112.471 49.7371C111.45 51.4505 110.922 52.3114 109.828 54.034C109.556 54.4644 108.883 54.8675 108.346 54.9232C108.214 54.9428 108.105 54.9362 108.016 54.9121ZM131.215 40.1708C126.85 41.4982 122.582 42.632 118.134 43.6319C117.325 45.1652 115.082 46.7069 113.184 47.0056C112.366 47.1335 111.749 47.0139 111.379 46.7185C110.98 46.4014 110.874 45.8804 111.109 45.2438C111.162 45.1027 111.23 44.9578 111.317 44.8042C84.3014 47.8136 58.4059 42.1215 38.5424 22.7983C37.5472 23.5778 35.9567 23.3878 35.0207 22.3105C34.5063 22.7333 34.2471 22.9452 33.72 23.367C33.8245 23.4907 33.887 23.6288 33.9094 23.7724C33.9337 23.9238 33.9082 24.0749 33.8409 24.2072C33.8013 24.283 33.7442 24.3548 33.6706 24.4099C33.3584 24.6595 32.869 24.5877 32.5864 24.2587C32.186 24.5711 31.9799 24.7287 31.5707 25.0391C31.6752 25.1628 31.7347 25.3057 31.7571 25.4494C31.7775 25.6018 31.753 25.7568 31.6769 25.887C31.6334 25.9638 31.5753 26.0317 31.4988 26.0916C31.173 26.3362 30.6748 26.2624 30.3942 25.9247C29.9763 26.233 29.7653 26.3877 29.3395 26.6979C29.445 26.8256 29.5045 26.9685 29.5191 27.114C29.5355 27.2673 29.5071 27.4233 29.4271 27.5545C29.3797 27.6322 29.3177 27.7011 29.2402 27.7571C28.9018 28.0006 28.3929 27.917 28.1114 27.5753C27.6768 27.8836 27.4571 28.0362 27.0168 28.3376C27.1222 28.4652 27.1788 28.613 27.1933 28.7585C27.2059 28.9128 27.1735 29.0697 27.0887 29.1979C27.0413 29.2756 26.9745 29.3415 26.8931 29.3985C26.5419 29.641 26.0224 29.5475 25.7429 29.1971C25.1054 29.6249 24.7838 29.8354 24.1328 30.2582C24.2285 30.3799 24.3125 30.5044 24.3858 30.6357C24.7346 31.255 24.8215 31.9378 24.6473 32.5515C24.4952 33.0852 24.1531 33.5698 23.6148 33.9114C22.3334 34.7231 20.4415 34.3826 19.4989 33.1247C18.8031 33.5335 18.4513 33.7389 17.7379 34.1437C17.8413 34.2801 17.8919 34.4376 17.8948 34.586C17.9005 34.7461 17.8476 34.9038 17.7462 35.0319C17.6861 35.1086 17.6114 35.1764 17.5203 35.2274C17.1195 35.453 16.5641 35.3309 16.2867 34.9551C15.7723 35.2413 15.5126 35.3829 14.9885 35.6632C15.089 35.8045 15.1396 35.962 15.1424 36.1103C15.1442 36.2714 15.0874 36.43 14.9821 36.5591C14.922 36.6358 14.8425 36.7006 14.7475 36.7526C14.3331 36.9731 13.767 36.8413 13.4925 36.4606C12.9635 36.7379 12.6951 36.8775 12.1573 37.1528C12.2588 37.298 12.3055 37.4564 12.3053 37.6096C12.3042 37.7756 12.2425 37.9313 12.1294 38.0622C12.0644 38.1359 11.9849 38.2007 11.885 38.2498C11.457 38.4654 10.8802 38.3236 10.6078 37.9342C10.0603 38.2036 9.78312 38.3412 9.22687 38.6085C9.32831 38.7537 9.37204 38.917 9.36801 39.0712C9.36197 39.2341 9.3013 39.3937 9.18327 39.5217C9.11442 39.5964 9.03099 39.6622 8.93015 39.7073C8.48848 39.9179 7.90106 39.7663 7.63063 39.3682C6.86783 39.7229 6.484 39.8987 5.71148 40.2475C5.8032 40.3867 5.88319 40.5288 5.9505 40.6698C6.26573 41.3552 6.26443 42.0843 5.97694 42.7088C5.7262 43.2457 5.26321 43.7099 4.60042 43.999C4.70672 44.1471 4.75696 44.2177 4.86326 44.3658C23.4984 68.8353 50.5438 81.0638 80.7118 84.2089C82.2058 82.7371 85.036 81.6534 87.1123 81.7297C88.3241 81.7755 89.0148 82.2167 89.094 82.8848C89.1482 83.3644 88.8902 83.9569 88.2795 84.5976C88.5088 84.6042 88.6211 84.6059 88.8494 84.6085C93.5656 84.6949 98.2866 84.5275 102.988 84.1248C104.398 82.4621 107.259 80.9405 109.454 80.6526C110.014 79.9412 110.293 79.5879 110.845 78.8745C110.955 78.7319 111.012 78.6601 111.121 78.5135C110.965 78.5348 110.836 78.5329 110.735 78.5078C110.418 78.4313 110.371 78.149 110.66 77.7724C111.041 77.2783 111.865 76.7972 112.5 76.7012C112.873 76.209 113.057 75.9615 113.422 75.4673C113.527 75.3217 113.581 75.2508 113.687 75.1091C113.532 75.1343 113.403 75.1324 113.303 75.1112C112.988 75.0426 112.929 74.767 113.21 74.3883C113.575 73.8942 114.383 73.4042 115.012 73.2974C115.369 72.8051 115.545 72.5595 115.893 72.0652C115.995 71.9205 116.044 71.8506 116.145 71.7059C115.995 71.7341 115.866 71.7322 115.763 71.7158C115.445 71.6521 115.383 71.3774 115.648 71.0025C115.999 70.5034 116.79 70.0094 117.411 69.8918C117.751 69.3955 117.923 69.1508 118.259 68.6555C118.356 68.5117 118.406 68.4418 118.503 68.298C118.353 68.3262 118.226 68.3322 118.125 68.311C117.81 68.255 117.74 67.9862 117.993 67.6103C118.328 67.1149 119.1 66.609 119.716 66.4846C120.185 65.7745 120.418 65.4199 120.875 64.7088C120.995 64.5223 121.056 64.429 121.175 64.2386C120.275 64.4361 119.612 64.3484 119.239 64.0579C118.744 63.6727 118.75 62.9301 119.359 61.975C120.423 60.301 122.906 58.5855 124.963 58.0702C125.406 57.317 125.621 56.9418 126.052 56.1914C126.133 56.0476 126.173 55.9756 126.254 55.8318C126.111 55.8708 125.985 55.8806 125.883 55.8721C125.565 55.8415 125.471 55.591 125.683 55.2167C125.965 54.722 126.673 54.1942 127.267 54.0295C127.538 53.5415 127.672 53.2936 127.939 52.8066C128.016 52.6637 128.057 52.5917 128.134 52.4488C127.99 52.4878 127.866 52.5055 127.765 52.4969C127.448 52.4703 127.347 52.2256 127.547 51.8542C127.816 51.3584 128.507 50.8265 129.094 50.655C129.353 50.166 129.479 49.9199 129.734 49.4318C129.807 49.2899 129.843 49.2189 129.917 49.0769C129.774 49.1198 129.65 49.1375 129.548 49.1289C129.229 49.111 129.122 48.8721 129.313 48.4987C129.562 48.0077 130.242 47.466 130.823 47.2837C131.066 46.7984 131.189 46.5534 131.426 46.0651C131.496 45.9241 131.532 45.8531 131.602 45.7121C131.46 45.7589 131.34 45.7756 131.235 45.772C130.918 45.7619 130.804 45.5288 130.983 45.1582C131.221 44.67 131.882 44.1204 132.458 43.9312C132.767 43.2766 132.923 42.9488 133.225 42.2961C133.308 42.1103 133.353 42.0208 133.436 41.835C132.595 42.1218 131.938 42.1278 131.524 41.9092C131.107 41.6915 130.942 41.2473 131.071 40.6362C131.098 40.493 131.147 40.3362 131.215 40.1708Z" fill="#24EA5B"/>
<path d="M29.5519 44.3965C30.1609 43.988 30.463 43.7823 31.0623 43.3679C31.7266 43.9563 32.0661 44.2466 32.752 44.8215C32.8811 44.9268 32.9593 45.0445 32.976 45.1646C32.9966 45.2839 32.9733 45.4096 32.9128 45.536C32.8533 45.6664 32.7481 45.7788 32.6108 45.8784C32.4656 45.9798 32.3071 46.0431 32.14 46.0712C31.969 46.1002 31.7972 46.0922 31.6306 46.0539C31.4631 46.0117 31.3114 45.9326 31.1765 45.8203C30.5218 45.2545 30.1959 44.9691 29.5519 44.3965ZM32.2942 42.5061C32.8524 42.11 33.128 41.9148 33.6774 41.5166C34.2642 42.0244 34.565 42.2744 35.1695 42.7697C35.2879 42.8652 35.3623 42.9672 35.3927 43.0758C35.4222 43.1804 35.4126 43.2945 35.366 43.4093C35.3183 43.5203 35.2189 43.6396 35.0609 43.7566C34.903 43.8735 34.7454 43.9407 34.5861 43.9669C34.4307 43.9922 34.2756 43.9842 34.1286 43.9412C33.9776 43.8991 33.8444 43.8279 33.7299 43.7315C33.1527 43.2462 32.8655 43.0011 32.2942 42.5061ZM37.041 42.2745C35.595 41.1263 34.8887 40.5356 33.5291 39.3167C30.941 41.2111 29.5817 42.1452 26.7383 43.9773C27.9287 45.113 28.5435 45.6678 29.7996 46.7504C30.2071 47.0988 30.6462 47.3732 31.1261 47.5591C31.6068 47.749 32.0767 47.8255 32.5395 47.8044C33.0022 47.7833 33.4406 47.6274 33.8476 47.3424C34.3106 47.0148 34.5757 46.6566 34.6516 46.2697C34.7276 45.8828 34.3622 45.1101 34.3622 45.1101C34.378 45.0897 35.2803 45.2933 35.7299 45.2009C36.1844 45.1114 36.5632 44.9492 36.8713 44.7171C37.1519 44.5083 37.3597 44.2551 37.4925 43.9662C37.6293 43.6763 37.6616 43.3828 37.5974 43.0837C37.5331 42.7846 37.3477 42.5149 37.041 42.2745Z" fill="white"/>
<path d="M37.1821 48.0658C37.4174 47.926 37.6552 47.8311 37.8946 47.7937C38.1379 47.7555 38.3877 47.7612 38.6283 47.8146C38.8729 47.8671 39.0938 47.9585 39.2841 48.0945C39.4939 48.2424 39.6362 48.4025 39.715 48.5738C39.7938 48.7452 39.8091 48.9278 39.7629 49.1129C39.7206 49.2971 39.6071 49.4778 39.4244 49.6463C38.5153 49.022 38.0667 48.7085 37.1821 48.0658ZM40.3879 47.2845C39.8022 46.8841 39.1892 46.6269 38.5488 46.5131C37.9075 46.3953 37.2838 46.4016 36.6817 46.531C36.0796 46.6604 35.5372 46.8995 35.0536 47.2445C34.7151 47.488 34.4477 47.7682 34.2521 48.0888C34.0586 48.4008 33.9586 48.7397 33.9474 49.0861C33.94 49.4315 34.0302 49.7864 34.2277 50.1401C34.4253 50.4939 34.743 50.8309 35.1848 51.1503C35.5809 51.4351 36.0137 51.649 36.4626 51.7928C36.9154 51.9356 37.3696 52.0159 37.8126 52.0327C38.2595 52.0486 38.6863 51.999 39.0911 51.8925C38.6886 51.4105 38.4893 51.169 38.0936 50.6811C37.8372 50.7681 37.5454 50.7767 37.2277 50.713C36.9012 50.6472 36.62 50.5291 36.3792 50.3556C36.1937 50.2225 36.0563 50.0654 35.9629 49.8851C35.8704 49.7088 35.8415 49.5212 35.8829 49.3331C35.9272 49.1402 36.0495 48.9615 36.2605 48.7903C37.7712 49.898 38.5472 50.4345 40.1385 51.4647C40.21 51.4184 40.2973 51.3683 40.3904 51.3084C40.4875 51.2476 40.5806 51.1878 40.6709 51.1162C41.1252 50.77 41.4306 50.3731 41.5958 49.9272C41.762 49.4853 41.7467 49.0295 41.5576 48.5743C41.3716 48.1143 40.9735 47.6849 40.3879 47.2845Z" fill="white"/>
<path d="M41.9814 54.0285C41.8162 53.9278 41.6901 53.8175 41.6246 53.7009C41.5551 53.5853 41.5384 53.4651 41.5636 53.3472C41.5928 53.2284 41.6589 53.1254 41.7669 53.0412C41.9622 52.8904 42.2251 52.8308 42.5548 52.8585C42.8835 52.8823 43.202 52.9832 43.5062 53.162C43.6558 53.2499 43.8034 53.3632 43.9528 53.4843C44.1032 53.6093 44.2243 53.7332 44.3161 53.8558C44.1385 53.9941 44.0521 54.0647 43.8715 54.2079C43.8126 54.2553 43.7255 54.2888 43.6043 54.3182C43.4831 54.3476 43.3493 54.3593 43.2165 54.3584C43.0096 54.3589 42.801 54.3349 42.575 54.2738C42.349 54.2126 42.1544 54.1273 41.9814 54.0285ZM46.277 50.9624C45.8299 50.7064 45.355 50.5069 44.8593 50.3579C44.3636 50.209 43.8295 50.1066 43.258 50.0547C43.0724 50.4847 42.9792 50.6978 42.7887 51.1249C43.2676 51.1703 43.6888 51.2338 44.058 51.3223C44.4224 51.4079 44.7601 51.5372 45.0643 51.716C45.4395 51.9314 45.6537 52.1486 45.7019 52.3647C45.7501 52.5807 45.6373 52.7985 45.3635 53.0181C45.2771 53.0887 45.2319 53.1245 45.1455 53.1951C45.048 53.049 44.8998 52.8986 44.7174 52.7441C44.535 52.5896 44.3223 52.4466 44.0997 52.3142C43.6361 52.0415 43.1544 51.8478 42.6574 51.7447C42.1595 51.6377 41.6833 51.6206 41.2359 51.6877C40.7845 51.7557 40.3929 51.9169 40.0672 52.1615C39.7561 52.3984 39.5581 52.6575 39.476 52.9507C39.3929 53.24 39.4269 53.534 39.5752 53.821C39.7234 54.108 39.9773 54.3694 40.3426 54.5955C40.7177 54.8276 41.1538 54.9868 41.6587 55.0714C42.1597 55.157 42.6819 55.1588 43.2232 55.0689C43.1514 55.1484 43.1159 55.1902 43.0402 55.2706C42.8866 55.4569 42.8248 55.6458 42.8742 55.8326C42.9188 56.0164 43.1058 56.207 43.4363 56.3919C43.5276 56.4443 43.6453 56.5027 43.7796 56.5612C43.9148 56.6237 44.0656 56.6824 44.2526 56.7364C44.7816 56.3225 45.0427 56.1184 45.5629 55.7024C45.4366 55.6254 45.3796 55.544 45.389 55.4631C45.3983 55.3821 45.481 55.2793 45.6332 55.1554C46.1534 54.7395 46.4126 54.5276 46.924 54.1096C47.6014 53.5562 47.8698 53.0067 47.739 52.467C47.5983 51.938 47.109 51.4397 46.277 50.9624Z" fill="white"/>
<path d="M53.9103 54.7467C53.8733 54.7308 53.8081 54.7011 53.7293 54.6664C53.3684 54.5096 52.9297 54.442 52.4192 54.454C51.9126 54.465 51.3897 54.5628 50.8467 54.7483C51.2238 54.425 51.4084 54.2643 51.7816 53.942C51.126 53.6289 50.8022 53.4714 50.1555 53.1438C48.2289 54.795 47.2275 55.6174 45.1625 57.2443C45.8713 57.6231 46.232 57.8131 46.9536 58.1764C48.2051 57.1732 48.8196 56.6682 50.0224 55.652C50.4088 55.5376 50.8335 55.5133 51.3093 55.5802C51.7851 55.647 52.236 55.782 52.6776 55.9813C53.2217 55.5099 53.4908 55.2707 54.0222 54.7983C53.9852 54.7824 53.9473 54.7626 53.9103 54.7467Z" fill="white"/>
<path d="M65.158 56.8395C62.2287 55.9432 60.8025 55.4401 58.025 54.3331C57.5091 54.8184 57.2488 55.0595 56.7193 55.5398C57.7304 55.953 58.2423 56.1519 59.2751 56.535C57.2069 58.4731 56.1323 59.4375 53.8964 61.3501C54.6817 61.669 55.0758 61.826 55.874 62.1293C58.1023 60.1855 59.1731 59.2055 61.2347 57.24C62.2793 57.6036 62.8012 57.7752 63.8636 58.1098C64.3903 57.6011 64.6478 57.3482 65.158 56.8395Z" fill="white"/>
<path d="M66.3143 59.3209C65.5137 59.0927 65.1125 58.9746 64.3247 58.7309C62.4131 60.5979 61.4178 61.5307 59.3619 63.383C60.1602 63.6532 60.5604 63.7839 61.3677 64.0395C63.4179 62.1637 64.4103 61.2192 66.3143 59.3209ZM68.1467 57.4689C67.349 57.2524 66.9526 57.1373 66.1637 56.9063C65.6486 57.4286 65.3881 57.6864 64.8603 58.2077C65.6511 58.4466 66.0484 58.5655 66.8481 58.7899C67.374 58.2607 67.6335 57.9991 68.1467 57.4689Z" fill="white"/>
<path d="M70.9019 60.4818C70.1468 60.3046 69.3917 60.2641 68.6347 60.3524C67.8699 60.4426 67.1658 60.6298 66.5079 60.9218C65.8539 61.2129 65.3029 61.57 64.8459 62.0079C64.5069 62.3344 64.2605 62.6674 64.1146 63.005C63.9688 63.3426 63.9283 63.6712 63.9973 63.9899C64.0653 64.3046 64.2516 64.5948 64.5582 64.8518C64.8648 65.1087 65.3083 65.3158 65.8879 65.4693C66.4149 65.6106 66.9513 65.6711 67.4911 65.6603C68.0269 65.6504 68.5486 65.5819 69.0501 65.4645C69.5506 65.3432 70.0223 65.1708 70.4542 64.9543C69.8166 64.5955 69.4987 64.4117 68.866 64.0393C68.7094 64.1104 68.5284 64.1667 68.3241 64.212C68.1276 64.2555 67.9264 64.2795 67.7361 64.2801C67.5419 64.2816 67.3546 64.2608 67.1735 64.2136C66.8958 64.1443 66.6966 64.0228 66.5699 63.8589C66.4442 63.6989 66.4134 63.5035 66.4755 63.2815C66.5346 63.0642 66.6876 62.8243 66.9392 62.5811C67.1898 62.334 67.4781 62.1399 67.7895 61.9899C68.1019 61.8438 68.4296 61.7436 68.7608 61.6923C69.089 61.6458 69.3974 61.6539 69.6829 61.7213C69.9333 61.7807 70.119 61.8806 70.2332 62.0102C70.3513 62.1389 70.4059 62.2955 70.3919 62.4769C71.3756 62.4868 71.8684 62.4874 72.8601 62.4789C72.9697 62.0259 72.8603 61.6259 72.5466 61.2713C72.2397 60.9276 71.6824 60.6611 70.9019 60.4818Z" fill="white"/>
<path d="M78.9616 59.7574C78.1145 59.6274 77.6914 59.5561 76.8531 59.4115C74.3278 62.2141 72.9944 63.6138 70.1863 66.3938C71.0389 66.5805 71.4658 66.6674 72.3234 66.8405C72.9053 66.2522 73.1944 65.9585 73.7676 65.3683C74.2762 65.2118 74.5295 65.1297 75.0372 64.9694C75.0002 65.9099 74.9822 66.3822 74.9374 67.3246C75.8625 67.4854 76.3275 67.559 77.2595 67.6974C77.2525 66.3535 77.2427 65.681 77.2132 64.3466C79.0511 63.6278 79.9673 63.2566 81.7842 62.4849C80.8627 62.3729 80.4054 62.314 79.4957 62.1826C77.7828 62.8877 76.9176 63.23 75.1815 63.891C76.7432 62.2371 77.4956 61.4129 78.9616 59.7574Z" fill="white"/>
<path d="M82.257 64.8794C82.4811 64.6594 82.7352 64.4778 83.0075 64.3372C83.2838 64.1957 83.5734 64.0924 83.8803 64.0263C84.1872 63.9601 84.4763 63.9397 84.7425 63.9621C85.039 63.9896 85.2581 64.0566 85.4047 64.166C85.5504 64.2714 85.6274 64.4184 85.6359 64.5902C85.6445 64.762 85.5728 64.9616 85.4072 65.1839C84.1392 65.0773 83.5121 65.0181 82.257 64.8794ZM85.7854 62.7984C84.966 62.7321 84.1614 62.7946 83.3627 62.9841C82.5688 63.1766 81.8378 63.4573 81.1666 63.8312C80.4954 64.2051 79.9301 64.6403 79.4747 65.1357C79.154 65.4867 78.932 65.8345 78.8085 66.1792C78.688 66.5189 78.6789 66.8399 78.7822 67.1296C78.8855 67.4192 79.116 67.6697 79.4639 67.8752C79.8119 68.0807 80.2979 68.2237 80.9191 68.2925C81.4769 68.356 82.0537 68.3445 82.6311 68.2667C83.2075 68.1849 83.7637 68.0542 84.2911 67.8725C84.8184 67.6909 85.3012 67.462 85.7413 67.1938C85.1163 66.9727 84.8038 66.8622 84.1808 66.6323C83.9102 66.8138 83.5715 66.9539 83.1737 67.0379C82.7768 67.1258 82.4067 67.1535 82.0576 67.1139C81.7982 67.0857 81.5869 67.0168 81.4159 66.9092C81.2459 66.8055 81.1483 66.6594 81.1359 66.4885C81.1225 66.3138 81.2138 66.1095 81.4057 65.8766C83.5491 66.1271 84.6366 66.2237 86.8256 66.372C86.8924 66.3061 86.9799 66.2228 87.0733 66.1298C87.1667 66.0368 87.26 65.9437 87.3398 65.8457C87.7591 65.3549 87.9898 64.889 88.0427 64.4415C88.0976 64.0017 87.9363 63.6268 87.5675 63.3352C87.2066 63.0418 86.6047 62.8648 85.7854 62.7984Z" fill="white"/>
<path d="M94.6996 61.4485C93.7959 61.444 93.3431 61.4378 92.4473 61.4149C91.8869 62.1262 91.6004 62.4814 91.0234 63.1927C90.6438 63.1812 90.4555 63.173 90.0789 63.1566C89.6605 63.668 89.4498 63.9261 89.0196 64.4403C89.3972 64.4605 89.5894 64.4678 89.9699 64.4832C89.0288 65.6222 88.5494 66.1898 87.5702 67.3256C87.2662 67.6768 87.1128 67.9665 87.1151 68.1978C87.1154 68.4213 87.2353 68.591 87.4697 68.7039C87.708 68.8159 88.0139 68.8825 88.3954 68.9018C88.6725 68.9175 88.9722 68.9069 89.2798 68.8779C89.5874 68.8489 89.8922 68.8081 90.202 68.7537C90.5118 68.6993 90.8069 68.636 91.0641 68.5695C91.3461 68.025 91.4867 67.7508 91.7609 67.2082C91.586 67.2381 91.3886 67.2777 91.1755 67.3211C90.9624 67.3645 90.7671 67.3787 90.5915 67.3716C90.3876 67.3672 90.264 67.3185 90.2148 67.2352C90.1705 67.1548 90.2193 67.0146 90.368 66.8254C91.1289 65.9163 91.504 65.4652 92.2395 64.554C92.8435 64.5691 93.1461 64.5703 93.7521 64.5765C94.1745 64.0476 94.3804 63.7866 94.795 63.2596C94.1899 63.2572 93.8874 63.256 93.2892 63.2479C93.8604 62.5297 94.1421 62.1716 94.6996 61.4485Z" fill="white"/>
</svg>
