<svg width="144" height="132" viewBox="0 0 144 132" fill="none" xmlns="http://www.w3.org/2000/svg">
<path d="M124.369 51.0557L120.011 42.2132L119.349 40.8743L119.222 40.9354C111.367 28.3562 85.3892 28.0763 59.8644 40.6554C34.3294 53.2345 18.6602 74.0301 23.8629 87.9226L23.7916 87.9583L24.4534 89.2971L28.8111 98.1397C35.6428 112.002 62.5726 112.699 88.9578 99.6975C115.343 86.6958 131.201 64.9177 124.369 51.0557Z" fill="url(#paint0_linear_1499_1320)"/>
<path d="M124.369 51.0557L120.011 42.208L118.301 42.4575L122.429 50.1139C129.261 63.9759 114.381 84.7918 87.9906 97.7986C61.6054 110.8 35.9635 109.976 29.1318 96.1135L25.5021 88.2688L24.4483 89.2971L28.806 98.1447C35.6377 112.007 62.5675 112.704 88.9527 99.7025C115.343 86.6957 131.201 64.9177 124.369 51.0557Z" fill="url(#paint1_linear_1499_1320)"/>
<path d="M120.011 42.2079C113.18 28.3459 86.2497 27.6485 59.8646 40.6501C33.4743 53.6569 17.6218 75.435 24.4536 89.297C31.2853 103.159 58.2152 103.856 84.6003 90.8547C110.985 77.8531 126.838 56.075 120.011 42.2079ZM81.9582 85.4993C58.3221 97.1469 34.5281 97.1774 28.8061 85.5706C23.0893 73.9638 37.6131 55.1129 61.2492 43.4653C84.8854 31.8178 108.679 31.7872 114.401 43.394C120.118 55.0009 105.594 73.8518 81.9582 85.4993Z" fill="url(#paint2_linear_1499_1320)"/>
<path d="M114.401 43.3943C120.118 55.0011 105.599 73.852 81.9632 85.4995C58.327 97.1471 34.533 97.1776 28.8111 85.5708C23.0891 73.964 37.6129 55.1131 61.2491 43.4655C84.8853 31.818 108.679 31.7874 114.401 43.3943Z" fill="url(#paint3_linear_1499_1320)"/>
<path d="M112.044 50.1137C114.345 50.0374 113.872 44.9772 111.179 42.0958C108.46 39.189 105.09 38.5171 104.693 40.2021C104.474 41.1184 106.114 42.61 107.631 44.9008C109.153 47.1866 110.436 50.1697 112.044 50.1137Z" fill="white"/>
<path d="M31.8451 73.8571C29.763 74.0505 29.2285 77.3187 29.3252 79.2736C29.4219 81.2284 30.0379 84.3897 32.0437 84.5628C34.0494 84.7359 33.7745 81.8291 33.6014 79.5688C33.4283 77.3086 33.184 73.7349 31.8451 73.8571Z" fill="white"/>
<path d="M102.27 39.5506C103.09 37.387 99.5465 35.59 98.0091 37.7892C96.4768 39.9884 101.456 41.7141 102.27 39.5506Z" fill="white"/>
<path d="M34.2123 86.2019C32.6291 87.8869 35.2101 90.9057 37.4755 89.4599C39.7306 88.0142 35.7904 84.5168 34.2123 86.2019Z" fill="white"/>
<path d="M62.3538 54.1763C62.3538 54.1814 62.3538 54.1814 62.3538 54.1865C62.3538 54.1967 62.3589 54.2068 62.3589 54.2221C62.3589 54.2323 62.3639 54.2476 62.369 54.2578C62.3741 54.273 62.3792 54.2832 62.3843 54.2985C62.3894 54.3087 62.3945 54.3188 62.3945 54.3239L63.8046 57.0118C63.7792 56.966 63.7639 56.9151 63.7639 56.8642C63.7588 56.8387 63.7639 56.8184 63.7741 56.798C63.7792 56.7777 63.7893 56.7624 63.8046 56.7471C63.8148 56.7369 63.825 56.7268 63.8352 56.7166C63.8453 56.7064 63.8606 56.6911 63.8708 56.6809C63.8962 56.6606 63.9217 56.6453 63.9472 56.63C63.9472 56.63 63.9472 56.63 63.9522 56.63C63.9777 56.6148 64.0082 56.5995 64.0439 56.5842C64.0439 56.5842 64.049 56.5842 64.049 56.5791C64.0795 56.5638 64.1151 56.5537 64.1457 56.5384H64.1508C64.1813 56.5282 64.2119 56.518 64.2424 56.5078C64.2526 56.5028 64.2628 56.5028 64.278 56.4977C64.3086 56.4875 64.3391 56.4773 64.3646 56.4722C64.6293 56.4009 64.8991 56.3297 65.1791 56.2635C65.2504 56.2482 65.3115 56.238 65.3675 56.2279C65.3726 56.2279 65.3776 56.2279 65.3878 56.2279C65.4387 56.2228 65.4795 56.2177 65.5151 56.2177C65.5762 56.2177 65.6118 56.233 65.6271 56.2635L64.217 53.5756C64.2017 53.5501 64.1661 53.5349 64.105 53.5298C64.0846 53.5298 64.0642 53.5298 64.0388 53.5298C64.0184 53.5298 63.9981 53.5349 63.9726 53.5349C63.9675 53.5349 63.9624 53.5349 63.9573 53.5349C63.9522 53.5349 63.9522 53.5349 63.9472 53.5349C63.9064 53.54 63.8606 53.5501 63.8097 53.5603C63.7944 53.5654 63.7842 53.5654 63.769 53.5705C63.7079 53.5858 63.6468 53.6011 63.5857 53.6163C63.3719 53.6723 63.1581 53.7283 62.9545 53.7843C62.9341 53.7894 62.9137 53.7945 62.8985 53.7996C62.8883 53.8047 62.8781 53.8047 62.8679 53.8098C62.8577 53.8149 62.8425 53.8149 62.8323 53.82C62.8272 53.82 62.817 53.825 62.8119 53.825C62.7916 53.8301 62.7661 53.8403 62.7457 53.8505C62.7457 53.8505 62.7457 53.8505 62.7407 53.8505H62.7356C62.7203 53.8556 62.705 53.8607 62.6897 53.8658C62.6745 53.8709 62.6592 53.876 62.6439 53.8861C62.6388 53.8861 62.6388 53.8912 62.6338 53.8912H62.6287C62.6236 53.8963 62.6134 53.8963 62.6083 53.9014C62.5981 53.9065 62.5879 53.9116 62.5778 53.9167C62.5676 53.9218 62.5574 53.9269 62.5523 53.932C62.5472 53.932 62.5472 53.937 62.5421 53.937C62.5421 53.937 62.5421 53.937 62.537 53.937C62.5319 53.937 62.5319 53.9421 62.5268 53.9421C62.5167 53.9472 62.5116 53.9523 62.5065 53.9574C62.5014 53.9625 62.4912 53.9676 62.4861 53.9727C62.481 53.9778 62.4708 53.9829 62.4658 53.9879C62.4556 53.993 62.4505 53.9981 62.4454 54.0083C62.4403 54.0134 62.4352 54.0185 62.4301 54.0287C62.4199 54.0389 62.4098 54.049 62.4047 54.0592C62.3996 54.0643 62.3996 54.0643 62.3945 54.0694C62.3894 54.0745 62.3843 54.0847 62.3843 54.0898C62.3792 54.0949 62.3792 54.0999 62.3792 54.105V54.1101C62.3792 54.1152 62.3792 54.1152 62.3741 54.1203C62.3741 54.1254 62.3741 54.1305 62.369 54.1356C62.369 54.1407 62.369 54.1458 62.369 54.1509C62.369 54.1559 62.369 54.161 62.369 54.1661C62.3538 54.1661 62.3538 54.1712 62.3538 54.1763Z" fill="#88569C"/>
<path d="M69.5419 50.8824C69.6742 50.857 69.8117 50.8315 69.9491 50.8112C70.0509 50.7959 70.1477 50.7755 70.2495 50.7653C70.3258 50.7552 70.3971 50.745 70.4735 50.7348C70.6313 50.7144 70.7891 50.6941 70.9571 50.6686C71.1556 50.6432 71.3592 50.6177 71.5731 50.5872C71.6494 50.577 71.7258 50.5668 71.8021 50.5566C72.021 50.5261 72.2399 50.4955 72.4741 50.4599C72.4843 50.4599 72.4996 50.4548 72.5148 50.4548C72.8712 50.3988 73.2428 50.3377 73.6297 50.2563C73.6704 50.2461 73.7061 50.2461 73.7468 50.2359C73.8639 50.2104 73.9911 50.1799 74.1082 50.1544C74.2304 50.129 74.3475 50.1035 74.4748 50.073C74.5104 50.0628 74.546 50.0577 74.5868 50.0475C74.8057 49.9915 75.0296 49.9305 75.2587 49.8643C75.2893 49.8541 75.3249 49.8439 75.3554 49.8337C75.4522 49.8032 75.5489 49.7726 75.6405 49.7421C75.6863 49.7268 75.7271 49.7116 75.7678 49.6963C75.8034 49.6861 75.8391 49.6708 75.8696 49.6607C75.8951 49.6505 75.9205 49.6454 75.946 49.6352C76.0478 49.5996 76.1445 49.5588 76.2412 49.5232C76.2463 49.5232 76.2463 49.5181 76.2514 49.5181C76.2667 49.513 76.282 49.5079 76.2972 49.4977C76.3787 49.4621 76.4601 49.4316 76.5365 49.3959C76.5619 49.3858 76.5823 49.3756 76.6078 49.3654C76.6587 49.345 76.7045 49.3196 76.7503 49.2992C76.7859 49.2839 76.8267 49.2636 76.8674 49.2483C76.8928 49.233 76.9183 49.2228 76.9488 49.2076C77.0456 49.1618 77.1423 49.1159 77.2339 49.065C77.2594 49.0549 77.2848 49.0396 77.3103 49.0294C77.3256 49.0192 77.3408 49.0141 77.3561 49.0039C77.4834 48.9378 77.6055 48.8767 77.7277 48.8105C77.8448 48.7494 77.9619 48.6883 78.079 48.6272C78.1044 48.612 78.1299 48.6018 78.1553 48.5916C78.2521 48.5407 78.3488 48.4949 78.4455 48.4491C78.5422 48.4032 78.6339 48.3574 78.7357 48.3167C78.7408 48.3116 78.7459 48.3116 78.756 48.3065C78.8629 48.2607 78.9699 48.2149 79.0768 48.1742C79.0971 48.164 79.1175 48.1589 79.1378 48.1487C79.2448 48.108 79.3517 48.0723 79.4637 48.0316C79.484 48.0265 79.5044 48.0214 79.5197 48.0113C79.6367 47.9756 79.7589 47.94 79.8862 47.9094C79.8964 47.9044 79.9116 47.9044 79.9218 47.8993C80.0338 47.8738 80.1458 47.8484 80.2629 47.828C80.3138 47.8178 80.3647 47.8076 80.4156 47.8025C80.4462 47.7974 80.4818 47.7924 80.5174 47.7873C80.5123 47.8076 80.5072 47.8331 80.4971 47.8534C80.492 47.8789 80.4818 47.8993 80.4716 47.9247C80.4614 47.9451 80.4563 47.9705 80.4462 47.9909C80.4309 48.0316 80.4105 48.0723 80.3902 48.1131C80.3851 48.1283 80.3749 48.1436 80.3698 48.1589C80.324 48.2556 80.268 48.3472 80.212 48.4338C80.2069 48.4389 80.2069 48.444 80.2018 48.4491C80.156 48.5203 80.1102 48.5865 80.0644 48.6476C80.0593 48.6578 80.0491 48.668 80.044 48.6781C80.0033 48.7341 79.9625 48.785 79.9218 48.8309C79.9167 48.841 79.9065 48.8461 79.9015 48.8563C79.8658 48.897 79.8353 48.9378 79.8098 48.9632C79.8047 48.9683 79.7996 48.9734 79.7996 48.9785C79.7793 49.0039 79.7589 49.0192 79.7538 49.0294L81.1639 51.7173C81.169 51.7071 81.1894 51.6918 81.2149 51.6613C81.2199 51.6562 81.2199 51.6562 81.225 51.6511C81.2505 51.6206 81.281 51.5849 81.3167 51.5442C81.3218 51.534 81.3319 51.5289 81.337 51.5188C81.3727 51.4729 81.4134 51.422 81.4592 51.366C81.4643 51.3559 81.4745 51.3457 81.4796 51.3355C81.5254 51.2744 81.5712 51.2082 81.617 51.142C81.617 51.137 81.6221 51.137 81.6221 51.137C81.6221 51.1319 81.6272 51.1319 81.6272 51.1268C81.6832 51.0402 81.7341 50.9486 81.785 50.8519C81.785 50.8468 81.7901 50.8417 81.7901 50.8417C81.7952 50.8315 81.8003 50.8213 81.8054 50.8061C81.8257 50.7653 81.841 50.7246 81.8563 50.6839C81.8614 50.6737 81.8665 50.6635 81.8716 50.6533C81.8767 50.6432 81.8817 50.6279 81.8817 50.6177C81.8919 50.5922 81.897 50.5719 81.9072 50.5464C81.9123 50.5312 81.9174 50.521 81.9225 50.5057C81.9276 50.4904 81.9276 50.4752 81.9326 50.4548C81.9377 50.4395 81.9428 50.4243 81.9428 50.409C81.9428 50.3988 81.9479 50.3937 81.9479 50.3835C81.953 50.353 81.9581 50.3174 81.9632 50.2868V50.2817C81.9632 50.2766 81.9632 50.2715 81.9632 50.2664C81.9632 50.241 81.9683 50.2206 81.9683 50.1952C81.9683 50.1748 81.9683 50.1595 81.9683 50.1392C81.9683 50.1341 81.9683 50.129 81.9683 50.1239C81.9683 50.1188 81.9683 50.1188 81.9683 50.1137C81.9683 50.0883 81.9632 50.0628 81.9581 50.0374C81.953 50.0221 81.953 50.0119 81.9479 49.9966C81.9479 49.9915 81.9479 49.9865 81.9428 49.9814C81.9428 49.9763 81.9428 49.9712 81.9377 49.9661C81.9326 49.9406 81.9225 49.9203 81.9123 49.8948C81.9072 49.8796 81.897 49.8643 81.8919 49.849L80.7923 47.7516C80.8636 47.7415 80.94 47.7364 81.0112 47.7262C81.0825 47.7211 81.1487 47.7109 81.2199 47.7109C81.4388 47.6956 81.673 47.6855 81.9174 47.6855C82.961 47.716 83.47 48.0163 83.6839 48.4185L82.2737 45.7306C82.0599 45.3285 81.5508 45.023 80.5072 44.9976C80.2578 44.9976 80.0287 45.0077 79.8047 45.023C79.7793 45.023 79.7538 45.023 79.7284 45.0281C79.6826 45.0332 79.6418 45.0383 79.596 45.0434C79.4738 45.0536 79.3567 45.0688 79.2397 45.0841C79.204 45.0892 79.1633 45.0892 79.1277 45.0943C79.0818 45.0994 79.0411 45.1096 79.0004 45.1197C78.9495 45.1299 78.8986 45.135 78.8477 45.1452C78.8171 45.1503 78.7815 45.1554 78.756 45.1605C78.6695 45.1757 78.5881 45.1961 78.5066 45.2165C78.4964 45.2216 78.4811 45.2216 78.471 45.2266C78.4659 45.2266 78.4659 45.2266 78.4608 45.2266C78.3793 45.247 78.2979 45.2674 78.2164 45.2928C78.1808 45.303 78.1452 45.3183 78.1044 45.3285C78.0841 45.3335 78.0637 45.3386 78.0433 45.3488C78.0281 45.3539 78.0077 45.359 77.9924 45.3641C77.9212 45.3895 77.8499 45.415 77.7786 45.4405C77.7583 45.4506 77.7379 45.4557 77.7175 45.4659C77.6972 45.471 77.6768 45.4812 77.6564 45.4914C77.6259 45.5015 77.5954 45.5117 77.5648 45.527C77.4885 45.5575 77.4121 45.5881 77.3357 45.6237C77.3357 45.6237 77.3357 45.6237 77.3306 45.6237C77.3256 45.6237 77.3256 45.6288 77.3205 45.6288C77.2339 45.6644 77.1525 45.7052 77.0659 45.7459C77.0507 45.751 77.0354 45.7612 77.0201 45.7663C76.9234 45.8121 76.8267 45.863 76.7299 45.9088C76.7096 45.919 76.6892 45.9292 76.6689 45.9393C76.6638 45.9444 76.6587 45.9444 76.6536 45.9495C76.5365 46.0106 76.4194 46.0717 76.3023 46.1328C76.1801 46.199 76.058 46.2601 75.9307 46.3262C75.89 46.3466 75.8492 46.367 75.8085 46.3873C75.7169 46.4331 75.6202 46.484 75.5234 46.5299C75.4573 46.5604 75.3962 46.591 75.33 46.6215C75.2842 46.6419 75.2333 46.6673 75.1875 46.6877C75.0856 46.7335 74.9838 46.7793 74.8769 46.82C74.8616 46.8251 74.8464 46.8302 74.8311 46.8404C74.7089 46.8913 74.5817 46.9371 74.4493 46.9829C74.4137 46.9931 74.3831 47.0084 74.3475 47.0186C74.2151 47.0644 74.0777 47.1102 73.93 47.156C73.6297 47.2477 73.3395 47.324 73.0494 47.3902C72.9272 47.4207 72.805 47.4462 72.6828 47.4716C72.5199 47.5073 72.3621 47.5429 72.2043 47.5735C71.8225 47.6498 71.4458 47.716 71.0894 47.772C70.8502 47.8076 70.6109 47.8433 70.3818 47.8738C70.3004 47.884 70.224 47.8942 70.1477 47.9044C69.9389 47.9298 69.7353 47.9604 69.5368 47.9858C69.3739 48.0062 69.2161 48.0265 69.0582 48.0469C68.9819 48.0571 68.9004 48.0673 68.8292 48.0774C68.7884 48.0825 68.7477 48.0876 68.707 48.0927C68.6459 48.1029 68.5899 48.1131 68.5288 48.1233C68.3914 48.1436 68.2488 48.1691 68.1165 48.1945C68.0757 48.1996 68.035 48.2098 67.9943 48.2149C67.8721 48.2403 67.7499 48.2658 67.6328 48.2963C67.6227 48.2963 67.6125 48.3014 67.6023 48.3014L69.0124 50.9893C69.1957 50.9537 69.3688 50.9181 69.5419 50.8824Z" fill="#88569C"/>
<path d="M81.7493 47.9863L83.1595 50.6742C83.3173 50.7404 86.3615 51.9724 88.9323 52.4254L87.5222 49.7375C86.5601 49.5644 85.5317 49.2845 84.6103 48.9994C84.3049 48.9027 84.0096 48.8059 83.7347 48.7143C83.3224 48.5769 82.9507 48.4394 82.6453 48.3274C82.1311 48.139 81.8002 48.0067 81.7493 47.9863Z" fill="#88569C"/>
<path d="M52.493 64.7853C52.7018 65.1824 53.0021 65.498 53.4297 65.6559C53.9693 65.8595 55.8275 65.8595 58.0063 66.0427C59.4571 66.1649 61.0505 66.3686 62.4963 66.7605C64.3086 67.2492 66.7267 67.743 67.7092 69.6164L66.299 66.9285C65.3165 65.0552 62.8934 64.5614 61.0862 64.0726C59.6404 63.6756 58.047 63.477 56.5962 63.3549C54.4173 63.1716 52.5592 63.1665 52.0196 62.968C51.6989 62.8509 51.4494 62.6422 51.256 62.3825C51.1898 62.296 51.1338 62.1993 51.0829 62.1025L52.493 64.7853Z" fill="#88569C"/>
<path d="M92.45 50.6486C92.45 50.6079 92.4449 50.5722 92.4449 50.5315C92.4398 50.4806 92.4449 50.4246 92.4398 50.3737C92.4347 50.3075 92.4195 50.2413 92.4093 50.1802C92.4042 50.1497 92.4042 50.1192 92.394 50.0937C92.3889 50.0784 92.3889 50.0632 92.3889 50.053C92.3686 49.9461 92.3431 49.8443 92.3126 49.7424C92.3075 49.7272 92.3024 49.7119 92.2973 49.6966C92.2871 49.6661 92.2769 49.6355 92.2667 49.6101C92.2464 49.5541 92.2311 49.4981 92.2057 49.4421C92.1751 49.3759 92.1446 49.3097 92.1089 49.2436L90.6988 46.5557C90.7599 46.6728 90.8108 46.7949 90.8566 46.9222C90.8668 46.9527 90.877 46.9782 90.8872 47.0087C90.9279 47.136 90.9635 47.2684 90.989 47.4058C90.9941 47.4364 90.9992 47.4669 91.0043 47.4924C91.0195 47.6094 91.0348 47.7265 91.0399 47.8436C91.0399 47.8843 91.045 47.92 91.045 47.9607C91.0501 48.1134 91.045 48.2661 91.0297 48.429C91.0144 48.597 90.9839 48.7752 90.9483 48.9483C90.9381 49.0094 90.9177 49.0705 90.9024 49.1367C90.8617 49.2996 90.821 49.4625 90.765 49.6355C90.7039 49.829 90.6224 50.0326 90.541 50.2362C90.4901 50.3584 90.4341 50.4806 90.3781 50.6079C90.3017 50.7657 90.2254 50.9286 90.1388 51.0915C90.1032 51.1577 90.0676 51.2238 90.0319 51.2951C89.8945 51.5395 89.7468 51.7889 89.5839 52.0485C89.3956 52.3438 89.192 52.6391 88.968 52.9445C88.7491 53.2398 88.5251 53.5248 88.2909 53.8048C88.2196 53.8914 88.1433 53.9779 88.0669 54.0645C87.904 54.2579 87.736 54.4463 87.5629 54.6295C87.4764 54.7263 87.3848 54.8179 87.2931 54.9095C87.12 55.0877 86.9419 55.2557 86.7637 55.4288C86.6771 55.5102 86.5855 55.5968 86.4939 55.6782C86.2292 55.9175 85.9594 56.1517 85.6794 56.3706C85.4146 56.5793 85.1448 56.7778 84.875 56.9763C84.8139 57.0222 84.7529 57.068 84.6918 57.1087C84.4067 57.3072 84.1216 57.4956 83.8314 57.6789C83.7805 57.7094 83.7245 57.745 83.6736 57.7756C83.3885 57.9487 83.0984 58.1167 82.8082 58.2745C82.7675 58.2948 82.7268 58.3152 82.686 58.3407C82.3704 58.5087 82.0548 58.6665 81.7341 58.8141C81.6628 58.8446 81.5915 58.8803 81.5152 58.9108C81.4032 58.9617 81.2861 59.0075 81.1639 59.0584C81.1537 59.0635 81.1435 59.0635 81.1334 59.0686C80.9297 59.1501 80.7108 59.2366 80.4868 59.3181C80.4665 59.3232 80.4461 59.3333 80.4258 59.3384C80.2221 59.4148 80.0185 59.4861 79.8149 59.5573C79.7945 59.5624 79.7792 59.5726 79.7589 59.5777C79.5552 59.649 79.3516 59.7152 79.1582 59.7813C79.1124 59.7966 79.0716 59.8119 79.0258 59.8271C78.9698 59.8475 78.9138 59.8628 78.8629 59.8781C78.8171 59.8933 78.7764 59.9086 78.7305 59.9188C78.6796 59.9341 78.6287 59.9493 78.5829 59.9697C78.532 59.985 78.4811 60.0002 78.4302 60.0155C78.3946 60.0257 78.3589 60.041 78.3233 60.0511C78.2775 60.0664 78.2418 60.0766 78.2011 60.0919C78.1655 60.102 78.1248 60.1173 78.0891 60.1275C78.0484 60.1377 78.0178 60.1479 77.9822 60.1631C77.9568 60.1733 77.9262 60.1784 77.9008 60.1886C77.8091 60.2191 77.743 60.2395 77.687 60.2548C77.6513 60.2649 77.6208 60.2751 77.6055 60.2802C77.6004 60.2802 77.5902 60.2853 77.5851 60.2853L78.9953 62.9732C79.0054 62.9681 79.0462 62.9579 79.0971 62.9427C79.1836 62.9172 79.3211 62.8714 79.5043 62.8154C79.5196 62.8103 79.54 62.8052 79.5552 62.8001C79.6163 62.7798 79.6723 62.7645 79.7385 62.7441C79.7538 62.739 79.764 62.7339 79.7792 62.7289C79.8505 62.7085 79.9218 62.683 79.9981 62.6576C80.0287 62.6474 80.0643 62.6372 80.0949 62.627C80.1559 62.6067 80.2119 62.5914 80.273 62.571C80.3188 62.5558 80.3647 62.5405 80.4105 62.5252C80.4563 62.51 80.5021 62.4947 80.5479 62.4794C80.553 62.4794 80.5581 62.4743 80.5683 62.4743C80.5734 62.4743 80.5836 62.4692 80.5887 62.4692C80.6141 62.5303 80.6447 62.5914 80.665 62.6525C80.6701 62.6678 80.6752 62.6881 80.6803 62.7034C80.7261 62.8612 80.7566 63.0292 80.777 63.2023C80.777 63.2176 80.7821 63.2328 80.7821 63.2481C80.7974 63.4212 80.8025 63.6045 80.7974 63.7928C80.7974 63.8437 80.7923 63.8895 80.7923 63.9404C80.7821 64.1339 80.7617 64.3324 80.721 64.5411C80.7057 64.6175 80.6854 64.6939 80.6701 64.7702C80.6497 64.8669 80.6294 64.9586 80.6039 65.0604C80.5887 65.1164 80.5683 65.1724 80.553 65.2335C80.5123 65.3608 80.4716 65.4931 80.4207 65.6255C80.4003 65.6866 80.3748 65.7425 80.3494 65.8036C80.2629 66.0276 80.161 66.2618 80.0439 66.496C80.0389 66.5011 80.0389 66.5112 80.0338 66.5163C79.937 66.7098 79.8301 66.9083 79.7181 67.112C79.6825 67.173 79.6418 67.2392 79.6061 67.3054C79.5247 67.4479 79.4382 67.5854 79.3465 67.733C79.2753 67.845 79.1989 67.9621 79.1225 68.0792C79.0818 68.1352 79.0462 68.1963 79.0054 68.2523C78.8782 68.4355 78.7509 68.6188 78.6135 68.8123C78.3182 69.2195 77.9975 69.6064 77.6717 69.9933C77.5851 70.0951 77.4986 70.1969 77.407 70.2987C77.1117 70.6296 76.8113 70.9605 76.4957 71.2762C76.4499 71.322 76.4041 71.3729 76.3583 71.4187C76.007 71.7649 75.6405 72.0958 75.2638 72.4216C75.0907 72.5743 74.9074 72.7168 74.7292 72.8645C74.4034 73.1292 74.0776 73.399 73.7315 73.6535C73.6551 73.7095 73.5635 73.7757 73.4769 73.8317C73.1613 74.0557 72.8406 74.2746 72.5148 74.4833C72.5046 74.4884 72.4995 74.4935 72.4893 74.4986C72.1992 74.6818 71.909 74.86 71.6137 75.028C71.5526 75.0636 71.4865 75.0993 71.4203 75.14C71.1301 75.3029 70.8298 75.4658 70.5345 75.6185C70.4887 75.644 70.4378 75.6643 70.392 75.6898C70.0763 75.8476 69.7556 76.0003 69.4298 76.1429L68.1979 76.657C68.1724 76.6672 67.7143 76.8352 67.4699 76.9218C67.2968 76.9828 67.1237 77.0388 66.9506 77.0897C66.859 77.1203 66.7674 77.1457 66.6757 77.1763C66.5536 77.2119 66.4314 77.2476 66.3092 77.2781C66.1921 77.3086 66.075 77.3443 65.958 77.3748C65.8612 77.4003 65.7594 77.4206 65.6627 77.4461C65.4947 77.4868 65.3318 77.5225 65.1638 77.5581C64.9805 77.5988 64.8024 77.6345 64.6191 77.6701C64.3951 77.7108 64.166 77.7464 63.942 77.7821C63.9777 77.7057 64.0082 77.6243 64.0438 77.5428C64.0744 77.4715 64.0998 77.4003 64.1304 77.329C64.1762 77.2221 64.2169 77.1101 64.2627 76.9981C64.278 76.9574 64.2933 76.9218 64.3086 76.8759C64.3238 76.8403 64.334 76.8047 64.3442 76.769C64.4002 76.6214 64.4511 76.4738 64.502 76.321C64.5275 76.2498 64.5529 76.1785 64.5784 76.1021C64.6496 75.8934 64.7158 75.6745 64.7769 75.4556C64.782 75.4404 64.7871 75.4302 64.7922 75.4149V75.4098C64.8787 75.1044 64.95 74.7989 65.0111 74.4884C65.0162 74.4528 65.0314 74.412 65.0365 74.3764C65.0416 74.3509 65.0416 74.3204 65.0467 74.2949C65.0824 74.1066 65.1078 73.9233 65.1282 73.735C65.1333 73.6942 65.1434 73.6535 65.1485 73.6128C65.1485 73.6026 65.1485 73.5975 65.1485 73.5873C65.1587 73.4906 65.1587 73.399 65.1638 73.3074C65.1689 73.2106 65.1791 73.1139 65.1791 73.0223C65.1791 73.0121 65.1791 73.0019 65.1791 72.9917C65.1791 72.951 65.174 72.9103 65.174 72.8645C65.1689 72.7576 65.1689 72.6557 65.1587 72.5539C65.1536 72.5234 65.1485 72.4928 65.1434 72.4623C65.1384 72.4165 65.1333 72.3757 65.1231 72.335C65.1129 72.2841 65.1129 72.2281 65.1027 72.1772C65.0874 72.0907 65.062 72.0041 65.0365 71.9176C65.0314 71.9023 65.0314 71.887 65.0264 71.8718C65.0264 71.8667 65.0213 71.8616 65.0213 71.8514C64.9907 71.7547 64.9602 71.663 64.9194 71.5714C64.894 71.5154 64.8685 71.4594 64.8431 71.4085L63.433 68.7206C63.5093 68.8632 63.5704 69.021 63.6162 69.1839C63.6213 69.1991 63.6213 69.2144 63.6264 69.2297C63.662 69.362 63.6926 69.5046 63.7129 69.6471C63.718 69.6879 63.7282 69.7337 63.7333 69.7744C63.7486 69.9068 63.7537 70.0391 63.7588 70.1766C63.7588 70.2173 63.7639 70.258 63.7639 70.3038C63.7639 70.4056 63.7537 70.5075 63.7486 70.6144C63.7435 70.7111 63.7435 70.8027 63.7333 70.8994C63.7282 70.9503 63.718 70.9962 63.7129 71.0471C63.6926 71.2303 63.6671 71.4187 63.6315 71.607C63.6213 71.6732 63.606 71.7343 63.5908 71.8005C63.5297 72.111 63.4584 72.4165 63.3719 72.7219C63.3668 72.7372 63.3617 72.7525 63.3566 72.7677C63.2955 72.9866 63.2293 73.2004 63.1581 73.4143C63.1326 73.4855 63.1072 73.5568 63.0817 73.6332C63.0308 73.7859 62.9748 73.9335 62.9239 74.0811C62.8933 74.1575 62.8679 74.2339 62.8373 74.3102C62.7915 74.4222 62.7508 74.5342 62.705 74.6411C62.6744 74.7124 62.649 74.7837 62.6184 74.8549C62.5726 74.9618 62.5268 75.0636 62.4861 75.1655C62.4606 75.2215 62.4352 75.2825 62.4097 75.3385C62.3639 75.4454 62.3181 75.5422 62.2774 75.6338C62.2621 75.6694 62.2417 75.7102 62.2265 75.7407C62.1705 75.8578 62.1196 75.9698 62.0737 76.0563C61.9923 76.2192 61.9363 76.3261 61.921 76.3618L62.7406 77.9297C62.6795 77.9348 62.6184 77.945 62.5523 77.9501C62.3283 77.9653 62.1043 77.9755 61.8854 77.9857C61.7683 77.9908 61.6563 78.001 61.5392 78.001C61.1981 78.0112 60.8571 78.0112 60.516 78.001L59.4724 77.9704L58.1081 77.9348L46.1551 77.609L47.5652 80.2969L59.5182 80.6227L60.8825 80.6583L61.9261 80.6889C62.2672 80.6991 62.6134 80.6991 62.9493 80.6889C63.0664 80.6838 63.1784 80.6787 63.2955 80.6736C63.5144 80.6634 63.7333 80.6583 63.9522 80.638C63.9573 80.638 63.9624 80.638 63.9675 80.638C64.3798 80.6074 64.7871 80.5565 65.1943 80.5005C65.2351 80.4954 65.2809 80.4903 65.3216 80.4852C65.5558 80.4496 65.7849 80.4089 66.019 80.3682C66.1565 80.3427 66.2939 80.3173 66.4314 80.2867C66.4772 80.2765 66.5179 80.2663 66.5637 80.2562C66.7317 80.2205 66.8946 80.1798 67.0626 80.1442C67.1288 80.1289 67.2001 80.1136 67.2663 80.0984C67.2968 80.0882 67.3274 80.0831 67.3579 80.0729C67.475 80.0424 67.5921 80.0118 67.7092 79.9762C67.7957 79.9507 67.8873 79.9304 67.9739 79.9049C68.0095 79.8947 68.0401 79.8845 68.0757 79.8744C68.1673 79.8489 68.259 79.8184 68.3506 79.7878C68.4371 79.7624 68.5288 79.7369 68.6153 79.7064C68.7018 79.6758 68.7884 79.6504 68.8698 79.6198C69.1142 79.5333 69.5775 79.3653 69.5978 79.3551L70.8298 78.841C71.0334 78.7544 71.2319 78.6628 71.4305 78.5661C71.5526 78.5101 71.6748 78.449 71.7919 78.3879C71.8377 78.3624 71.8835 78.3421 71.9344 78.3166C71.965 78.3013 72.0006 78.2861 72.0312 78.2708C72.2348 78.1639 72.4384 78.057 72.637 77.9501C72.6981 77.9144 72.7591 77.8788 72.8202 77.8432C72.8813 77.8075 72.9475 77.7719 73.0086 77.7363C73.09 77.6904 73.1766 77.6446 73.258 77.5937C73.4668 77.4665 73.6755 77.3392 73.8842 77.2068C73.8944 77.2017 73.8995 77.1967 73.9096 77.1916L73.9147 77.1865C74.1591 77.0287 74.4034 76.8658 74.6427 76.7029C74.7191 76.6469 74.7954 76.5959 74.8718 76.5399C74.9125 76.5145 74.9532 76.4839 74.9889 76.4585C75.0347 76.428 75.0805 76.3923 75.1212 76.3618C75.2841 76.2447 75.4419 76.1225 75.5998 76.0003C75.7779 75.8629 75.9459 75.7153 76.119 75.5727C76.2972 75.4251 76.4805 75.2825 76.6535 75.1298C76.7095 75.0789 76.7757 75.0331 76.8317 74.9822C77.1473 74.7022 77.4528 74.4171 77.748 74.1219C77.7939 74.076 77.8397 74.0251 77.8855 73.9793C78.2011 73.6637 78.5066 73.3328 78.8018 73.0019C78.8884 72.9001 78.98 72.8034 79.0665 72.7016C79.3923 72.3147 79.708 71.9278 80.0083 71.5205C80.1458 71.3322 80.2781 71.1438 80.4003 70.9605C80.441 70.8994 80.4767 70.8434 80.5174 70.7824C80.5785 70.6958 80.6396 70.6042 80.6905 70.5176C80.7057 70.4922 80.721 70.4616 80.7414 70.4362C80.833 70.2936 80.9196 70.1511 81.001 70.0086C81.0366 69.9475 81.0774 69.8813 81.113 69.8151C81.225 69.6115 81.3319 69.413 81.4286 69.2195V69.2144C81.4337 69.2093 81.4337 69.2042 81.4337 69.1991C81.5508 68.9599 81.6475 68.7308 81.7392 68.5017C81.7493 68.4712 81.7697 68.4406 81.7799 68.4101C81.7901 68.3795 81.8002 68.349 81.8104 68.3235C81.8613 68.1912 81.9021 68.0588 81.9428 67.9316C81.953 67.8908 81.9733 67.8501 81.9835 67.8094C81.9886 67.7941 81.9886 67.7788 81.9937 67.7636C82.0191 67.6668 82.0395 67.5701 82.0599 67.4734C82.0701 67.4174 82.0904 67.3614 82.1006 67.3105C82.1057 67.2901 82.1108 67.2698 82.1108 67.2494C82.1362 67.0967 82.1566 66.944 82.1719 66.8014C82.177 66.7505 82.177 66.6996 82.177 66.6487C82.182 66.5978 82.182 66.5469 82.182 66.5011C82.182 66.4553 82.1871 66.4043 82.1871 66.3636C82.1871 66.2313 82.182 66.104 82.1719 65.9818C82.1719 65.9767 82.1719 65.9665 82.1668 65.9615C82.1668 65.9462 82.1617 65.9309 82.1617 65.9156C82.1515 65.824 82.1413 65.7324 82.121 65.6458C82.1057 65.5695 82.0853 65.4931 82.065 65.4218C82.0599 65.4066 82.0548 65.3862 82.0548 65.3709C82.0497 65.3607 82.0497 65.3506 82.0497 65.3404C82.0191 65.2437 81.9835 65.152 81.9479 65.0604C81.9224 64.9993 81.8919 64.9382 81.8613 64.8822L80.6039 62.4896C80.777 62.4336 80.9552 62.3725 81.1385 62.3063C81.1588 62.2961 81.1843 62.291 81.2046 62.2809C81.4083 62.2096 81.6119 62.1383 81.8104 62.0671C81.8257 62.062 81.841 62.0569 81.8512 62.0518C81.8562 62.0518 81.8613 62.0467 81.8664 62.0467C82.0904 61.9652 82.3093 61.8787 82.5129 61.7973C82.518 61.7922 82.5282 61.7922 82.5333 61.7871C82.5384 61.7871 82.5384 61.782 82.5435 61.782C82.6657 61.7311 82.7828 61.6853 82.8947 61.6343C82.9049 61.6293 82.9202 61.6242 82.9304 61.6191C82.9915 61.5936 83.0577 61.5631 83.1136 61.5376C83.1747 61.5122 83.2358 61.4816 83.2969 61.4511C83.4649 61.3696 83.638 61.2882 83.806 61.2016C83.8925 61.1558 83.9791 61.11 84.0707 61.0591C84.1114 61.0387 84.1522 61.0184 84.1929 60.9929C84.2336 60.9675 84.2794 60.9471 84.3201 60.9267C84.4983 60.83 84.6714 60.7282 84.8496 60.6264C84.9209 60.5857 84.9921 60.5398 85.0583 60.494C85.1092 60.4635 85.1652 60.4279 85.2161 60.3973C85.2772 60.3566 85.3434 60.3209 85.4096 60.2802C85.6183 60.1479 85.8219 60.0104 86.0306 59.8679C86.0459 59.8577 86.0663 59.8424 86.0815 59.8322C86.1426 59.7915 86.2037 59.7406 86.2648 59.6999C86.4328 59.5777 86.6059 59.4555 86.7688 59.3283C86.8706 59.2519 86.9673 59.1755 87.0691 59.0941C87.3084 58.9057 87.5375 58.7123 87.7666 58.5137C87.8073 58.4781 87.848 58.4374 87.8887 58.4017C87.9804 58.3203 88.0669 58.2338 88.1585 58.1523C88.3367 57.9843 88.5149 57.8112 88.688 57.6331C88.7796 57.5414 88.8712 57.4498 88.9578 57.3531C89.1309 57.1698 89.2989 56.9814 89.4669 56.788C89.5432 56.7015 89.6196 56.6149 89.6908 56.5284C89.925 56.2484 90.149 55.9633 90.3679 55.668C90.5919 55.3626 90.7955 55.0622 90.9839 54.7721C90.989 54.767 90.9941 54.7619 90.9941 54.7568C91.1519 54.5074 91.2944 54.263 91.4268 54.0237C91.4624 53.9576 91.498 53.8863 91.5337 53.8201C91.5846 53.7285 91.6355 53.6318 91.6813 53.5401C91.7169 53.4688 91.7373 53.4027 91.7729 53.3314C91.8289 53.2041 91.8849 53.082 91.9358 52.9598C91.9613 52.8987 91.9969 52.8325 92.0173 52.7714C92.0682 52.634 92.1191 52.4965 92.1598 52.3591C92.1955 52.2573 92.226 52.1605 92.2515 52.0587C92.2718 51.9925 92.282 51.9264 92.2973 51.8602C92.3126 51.7991 92.3278 51.738 92.3431 51.6769C92.3482 51.6464 92.3584 51.6107 92.3686 51.5751C92.394 51.4377 92.4144 51.3002 92.4246 51.1678C92.4246 51.1628 92.4246 51.1577 92.4246 51.1577C92.4398 51.0253 92.4449 50.8929 92.4449 50.7657C92.4551 50.6944 92.45 50.674 92.45 50.6486Z" fill="#88569C"/>
<path d="M80.7567 64.5667C80.5429 65.7834 79.8454 67.2037 78.6542 68.8327C77.3204 70.6552 75.6914 72.2638 73.7671 73.6689C73.6908 73.7249 73.5991 73.7911 73.5126 73.847C72.245 74.7583 70.8909 75.527 69.4655 76.1531L68.2335 76.6673C68.2081 76.6775 67.7499 76.8455 67.5056 76.932C66.5638 77.2578 65.6169 77.5073 64.6548 77.6804C63.3108 77.9349 61.9465 78.0418 60.5618 78.0062L59.5182 77.9807L58.1539 77.9451L46.2009 77.6193L54.2901 66.5826C54.3359 66.5775 55.2166 66.5266 56.4842 66.5622C58.6172 66.6182 61.7225 66.9339 63.0563 68.1862C65.1791 70.1919 62.1298 76.0615 61.9719 76.372C62.2367 76.0819 67.251 70.5941 66.6758 67.9164C66.1005 65.2387 63.2039 64.6736 61.1218 64.1085C59.676 63.7114 58.0826 63.5129 56.6318 63.3907C54.453 63.2075 52.5949 63.2024 52.0552 63.0038C50.7673 62.5253 50.6044 60.6163 50.7571 59.252C50.8386 58.5291 51.0116 57.9589 51.144 57.852C51.1898 57.8113 51.3324 57.7553 51.536 57.6688C52.1163 57.4346 53.2261 57.0324 54.4937 56.5794C57.151 55.6376 60.5058 54.4667 60.9996 54.1358C61.7021 53.6624 62.1196 52.97 63.6926 51.9112C64.67 51.2799 65.7849 50.8421 65.846 50.8167C68.9411 49.7578 74.8107 48.9026 75.1722 48.8517C75.1925 48.8466 76.5416 46.5608 79.0157 46.6321C79.0869 46.6321 79.1633 46.6372 79.2345 46.6423C81.8563 46.8561 79.8912 48.9637 79.7894 49.0706C79.9422 49.1011 82.8031 49.6458 87.3542 49.768C87.4204 49.768 87.4917 49.7731 87.563 49.7731C84.9921 49.3149 81.953 48.083 81.7901 48.0219C81.8919 47.8793 83.7907 45.1253 80.5429 45.0387C77.2848 45.0387 76.6179 46.3979 73.9809 47.187C71.3389 47.9761 69.2313 47.9404 67.6634 48.3426L71.0283 43.7559L84.3762 44.1173C86.7739 44.1835 88.5149 44.5958 89.6094 45.3543C90.7039 46.1179 91.1926 47.1514 91.0654 48.4597C91.0297 48.8415 90.9381 49.2436 90.8006 49.6611C90.485 50.669 89.8843 51.7737 89.0036 52.97C88.0568 54.258 86.9622 55.4034 85.7099 56.4012C84.4627 57.399 83.1442 58.2084 81.7697 58.8447C80.4309 59.4658 77.7684 60.265 77.631 60.3058C77.7277 60.3414 79.5807 61.0032 80.1763 61.6853C80.777 62.393 80.9705 63.35 80.7567 64.5667ZM63.1072 54.5533C63.4788 54.4718 63.8911 54.1969 64.1253 53.8864C64.2933 53.6624 64.3086 53.5606 64.1406 53.5555C64.0642 53.5555 63.9573 53.5707 63.8097 53.6013C63.5297 53.6675 63.2599 53.7438 62.9952 53.81C62.7101 53.8864 62.369 54.0238 62.3945 54.2122C62.4047 54.3802 62.5472 54.5482 62.7559 54.5787C62.7814 54.5838 62.8119 54.5838 62.8374 54.5838C62.9239 54.5889 63.0105 54.5787 63.1072 54.5533Z" fill="white"/>
<ellipse cx="71.9299" cy="66.0629" rx="57.7792" ry="45.1753" transform="rotate(-25.1713 71.9299 66.0629)" fill="url(#paint4_radial_1499_1320)" style="mix-blend-mode:screen"/>
<defs>
<linearGradient id="paint0_linear_1499_1320" x1="58.5132" y1="113.854" x2="90.2919" y2="26.5423" gradientUnits="userSpaceOnUse">
<stop offset="0.00266426" stop-color="#EBD4FF"/>
<stop offset="1" stop-color="#E8C2FF"/>
</linearGradient>
<linearGradient id="paint1_linear_1499_1320" x1="24.4522" y1="75.6117" x2="125.954" y2="75.6117" gradientUnits="userSpaceOnUse">
<stop offset="0.00267928" stop-color="#A943FF"/>
<stop offset="0.4406" stop-color="#A543FF"/>
<stop offset="1" stop-color="#AD43FF"/>
</linearGradient>
<linearGradient id="paint2_linear_1499_1320" x1="57.5" y1="106.225" x2="86.9613" y2="25.281" gradientUnits="userSpaceOnUse">
<stop stop-color="#F5EBFF"/>
<stop offset="0.3275" stop-color="#F7F4FA"/>
<stop offset="0.4179" stop-color="#F8F8F8"/>
<stop offset="0.4999" stop-color="#F6EEFD"/>
<stop offset="0.596" stop-color="white"/>
<stop offset="1" stop-color="#F6EFFD"/>
</linearGradient>
<linearGradient id="paint3_linear_1499_1320" x1="27.3007" y1="63.7525" x2="115.861" y2="62.3305" gradientUnits="userSpaceOnUse">
<stop stop-color="#9F67B9"/>
<stop offset="0.4963" stop-color="#9B90CD"/>
<stop offset="1" stop-color="#96BAE1"/>
</linearGradient>
<radialGradient id="paint4_radial_1499_1320" cx="0" cy="0" r="1" gradientUnits="userSpaceOnUse" gradientTransform="translate(71.9299 66.0629) rotate(90) scale(45.1753 57.7792)">
<stop stop-color="#9F67B9"/>
<stop offset="1" stop-opacity="0"/>
</radialGradient>
</defs>
</svg>
