<svg width="354" height="355" viewBox="0 0 354 355" fill="none" xmlns="http://www.w3.org/2000/svg">
<path d="M318.745 145.927L318.747 145.933C320.938 155.651 322.068 165.649 322.16 175.831L322.16 175.832C322.285 187.889 320.856 200.155 317.811 212.35L178.958 177.221L316.823 138.195C317.547 140.76 318.185 143.309 318.745 145.927Z" fill="white" stroke="url(#paint0_radial_606_726)"/>
<path d="M255.135 178.886C255.146 179.399 255.023 179.833 254.765 180.189C254.508 180.536 254.154 180.804 253.705 180.993C253.265 181.182 252.78 181.282 252.25 181.293L247.855 181.385L247.664 172.287L252.533 172.184C252.96 172.175 253.33 172.283 253.642 172.507C253.963 172.723 254.209 173.008 254.378 173.364C254.557 173.71 254.65 174.076 254.658 174.46C254.667 174.896 254.565 175.313 254.351 175.71C254.137 176.108 253.818 176.405 253.395 176.602C253.919 176.745 254.335 177.014 254.643 177.409C254.959 177.804 255.123 178.297 255.135 178.886ZM253.347 178.59C253.342 178.36 253.291 178.156 253.193 177.978C253.095 177.792 252.964 177.65 252.8 177.551C252.644 177.443 252.463 177.391 252.258 177.395L249.541 177.452L249.592 179.849L252.219 179.793C252.432 179.789 252.623 179.734 252.792 179.628C252.969 179.513 253.107 179.365 253.206 179.183C253.305 179.001 253.352 178.804 253.347 178.59ZM249.464 173.762L249.512 176.056L251.87 176.006C252.066 176.002 252.245 175.951 252.405 175.854C252.565 175.756 252.691 175.621 252.781 175.448C252.88 175.275 252.927 175.069 252.922 174.83C252.917 174.599 252.866 174.4 252.768 174.231C252.679 174.062 252.557 173.932 252.401 173.841C252.254 173.75 252.086 173.707 251.899 173.711L249.464 173.762Z" fill="black"/>
<path d="M260.423 181.185C259.697 181.2 259.075 181.094 258.558 180.865C258.048 180.628 257.631 180.299 257.306 179.879C256.99 179.458 256.753 178.98 256.596 178.445C256.44 177.901 256.355 177.335 256.343 176.745L256.245 172.106L258.014 172.069L258.111 176.708C258.119 177.084 258.161 177.451 258.237 177.808C258.321 178.157 258.452 178.47 258.628 178.749C258.805 179.027 259.036 179.244 259.322 179.401C259.607 179.557 259.959 179.631 260.378 179.622C260.805 179.613 261.158 179.524 261.436 179.356C261.723 179.179 261.945 178.948 262.101 178.663C262.266 178.377 262.383 178.059 262.453 177.707C262.522 177.346 262.553 176.982 262.545 176.615L262.448 171.976L264.203 171.939L264.301 176.578C264.314 177.202 264.249 177.789 264.107 178.339C263.973 178.888 263.748 179.376 263.433 179.801C263.125 180.218 262.722 180.551 262.223 180.801C261.724 181.042 261.124 181.17 260.423 181.185Z" fill="black"/>
<path d="M271.455 174.171C271.394 174.113 271.281 174.034 271.117 173.935C270.961 173.836 270.767 173.741 270.534 173.652C270.31 173.563 270.065 173.487 269.798 173.424C269.532 173.353 269.262 173.32 268.989 173.326C268.51 173.336 268.149 173.433 267.905 173.618C267.67 173.802 267.555 174.057 267.562 174.381C267.567 174.629 267.648 174.824 267.805 174.966C267.962 175.108 268.195 175.227 268.505 175.323C268.815 175.419 269.201 175.522 269.665 175.632C270.266 175.765 270.787 175.933 271.227 176.138C271.676 176.333 272.019 176.6 272.257 176.937C272.503 177.265 272.632 177.706 272.644 178.262C272.654 178.749 272.573 179.169 272.401 179.523C272.229 179.869 271.987 180.152 271.675 180.372C271.363 180.592 271.008 180.758 270.609 180.869C270.209 180.971 269.783 181.027 269.33 181.036C268.877 181.046 268.424 181.008 267.969 180.924C267.514 180.84 267.076 180.716 266.653 180.554C266.231 180.384 265.842 180.178 265.487 179.938L266.236 178.396C266.315 178.472 266.454 178.571 266.653 178.695C266.852 178.811 267.094 178.93 267.378 179.052C267.663 179.166 267.972 179.262 268.307 179.34C268.642 179.418 268.981 179.454 269.322 179.447C269.801 179.437 270.162 179.348 270.406 179.181C270.651 179.013 270.77 178.78 270.764 178.481C270.758 178.207 270.655 177.996 270.455 177.846C270.256 177.697 269.98 177.57 269.627 177.466C269.274 177.354 268.857 177.234 268.376 177.108C267.8 176.958 267.318 176.788 266.929 176.6C266.541 176.403 266.249 176.153 266.055 175.849C265.86 175.545 265.758 175.163 265.748 174.702C265.735 174.078 265.87 173.554 266.151 173.129C266.441 172.696 266.836 172.367 267.336 172.143C267.835 171.91 268.392 171.787 269.007 171.774C269.434 171.765 269.837 171.804 270.215 171.89C270.601 171.976 270.963 172.092 271.299 172.239C271.635 172.386 271.938 172.546 272.207 172.72L271.455 174.171Z" fill="black"/>
<path d="M274.035 180.835L273.843 171.737L277.15 171.667C278.141 171.646 278.974 171.834 279.648 172.23C280.323 172.618 280.835 173.154 281.182 173.839C281.53 174.515 281.712 175.272 281.73 176.109C281.749 177.032 281.583 177.839 281.23 178.53C280.877 179.221 280.367 179.762 279.7 180.152C279.041 180.542 278.255 180.746 277.341 180.766L274.035 180.835ZM279.949 176.147C279.936 175.557 279.819 175.043 279.596 174.603C279.373 174.155 279.058 173.811 278.651 173.572C278.244 173.324 277.755 173.206 277.182 173.218L275.644 173.25L275.77 179.247L277.308 179.215C277.889 179.203 278.378 179.064 278.774 178.8C279.17 178.526 279.465 178.161 279.661 177.704C279.865 177.238 279.961 176.719 279.949 176.147Z" fill="black"/>
<path d="M297.754 184.181C303.414 184.062 307.905 179.378 307.786 173.719C307.667 168.06 302.983 163.569 297.324 163.688C291.664 163.806 287.173 168.49 287.292 174.15C287.411 179.809 292.095 184.3 297.754 184.181Z" fill="#F0B90B"/>
<path d="M299.034 169.089L297.404 167.494L293.47 171.623L295.1 173.18L299.034 169.089Z" fill="white"/>
<path d="M301.507 171.454L299.877 169.858L293.572 176.453L295.201 178.011L301.507 171.454Z" fill="white"/>
<path d="M292.66 172.426L294.29 174.022L292.728 175.646L291.099 174.089L292.66 172.426Z" fill="white"/>
<path d="M303.98 173.818L302.35 172.222L296.045 178.818L297.674 180.375L303.98 173.818Z" fill="white"/>
<path d="M35.2552 208.638L35.254 208.632C33.0624 198.914 31.9325 188.916 31.8405 178.734L31.8405 178.733C31.7156 166.676 33.1447 154.41 36.1897 142.215L175.043 177.344L37.1775 216.37C36.4536 213.804 35.8151 211.256 35.2552 208.638Z" fill="white" stroke="url(#paint1_radial_606_726)"/>
<path d="M99.372 176.045C99.3689 175.532 99.4987 175.1 99.7615 174.748C100.024 174.405 100.382 174.142 100.833 173.96C101.277 173.777 101.763 173.685 102.293 173.682L106.689 173.655L106.744 182.755L101.874 182.785C101.446 182.787 101.078 182.674 100.769 182.445C100.452 182.225 100.211 181.936 100.046 181.578C99.8733 181.229 99.7856 180.862 99.7833 180.477C99.7807 180.042 99.8893 179.626 100.109 179.232C100.329 178.838 100.652 178.545 101.078 178.355C100.556 178.204 100.144 177.929 99.8424 177.529C99.5324 177.129 99.3756 176.634 99.372 176.045ZM101.156 176.367C101.157 176.598 101.205 176.803 101.3 176.982C101.395 177.169 101.524 177.314 101.687 177.415C101.842 177.525 102.022 177.58 102.227 177.579L104.944 177.562L104.93 175.165L102.302 175.181C102.088 175.183 101.896 175.235 101.726 175.339C101.547 175.451 101.407 175.597 101.306 175.777C101.204 175.957 101.154 176.154 101.156 176.367ZM104.966 181.254L104.952 178.959L102.594 178.973C102.398 178.975 102.218 179.023 102.057 179.118C101.895 179.213 101.767 179.346 101.675 179.517C101.573 179.689 101.523 179.894 101.524 180.134C101.526 180.364 101.574 180.565 101.669 180.735C101.756 180.905 101.876 181.037 102.03 181.13C102.176 181.223 102.343 181.269 102.531 181.268L104.966 181.254Z" fill="black"/>
<path d="M94.1192 173.667C94.8455 173.663 95.4657 173.778 95.9799 174.015C96.4855 174.259 96.8977 174.594 97.2164 175.02C97.5266 175.445 97.756 175.926 97.9045 176.464C98.0531 177.01 98.1291 177.578 98.1327 178.167L98.1607 182.807L96.392 182.818L96.3639 178.178C96.3617 177.802 96.3253 177.435 96.2547 177.076C96.1757 176.726 96.0499 176.411 95.8773 176.13C95.7047 175.849 95.4769 175.628 95.194 175.468C94.911 175.307 94.5602 175.228 94.1415 175.231C93.7142 175.233 93.3601 175.316 93.0791 175.481C92.7896 175.653 92.5646 175.881 92.4039 176.164C92.2347 176.447 92.1127 176.764 92.038 177.115C91.9632 177.474 91.927 177.837 91.9292 178.205L91.9572 182.845L90.2013 182.855L90.1732 178.215C90.1695 177.592 90.2428 177.006 90.3933 176.458C90.5353 175.91 90.7673 175.426 91.0895 175.005C91.4032 174.593 91.8114 174.266 92.3141 174.024C92.8168 173.79 93.4185 173.671 94.1192 173.667Z" fill="black"/>
<path d="M82.9836 180.515C83.0438 180.574 83.1553 180.655 83.3183 180.756C83.4727 180.858 83.6656 180.955 83.8969 181.048C84.1196 181.14 84.3636 181.22 84.6289 181.287C84.8943 181.362 85.1637 181.399 85.4371 181.397C85.9156 181.394 86.2782 181.302 86.5249 181.121C86.7631 180.941 86.8812 180.688 86.8793 180.363C86.8778 180.115 86.7997 179.919 86.645 179.775C86.4903 179.631 86.2588 179.508 85.9506 179.407C85.6424 179.307 85.2572 179.198 84.795 179.081C84.196 178.939 83.678 178.763 83.2409 178.552C82.7953 178.35 82.4562 178.078 82.2234 177.738C81.9821 177.406 81.8598 176.963 81.8565 176.407C81.8535 175.92 81.9407 175.501 82.118 175.149C82.2954 174.807 82.5415 174.527 82.8564 174.312C83.1713 174.096 83.5292 173.936 83.9302 173.831C84.3312 173.735 84.7582 173.685 85.211 173.682C85.6639 173.68 86.1171 173.724 86.5705 173.815C87.0239 173.906 87.4605 174.036 87.8803 174.205C88.3 174.381 88.6858 174.593 89.0377 174.838L88.265 176.368C88.1877 176.292 88.0503 176.19 87.853 176.063C87.6558 175.945 87.4158 175.822 87.133 175.696C86.8503 175.578 86.5421 175.477 86.2083 175.394C85.8746 175.31 85.5368 175.27 85.195 175.272C84.7165 175.275 84.3538 175.358 84.107 175.522C83.8602 175.686 83.7377 175.917 83.7395 176.216C83.7412 176.49 83.8407 176.703 84.0382 176.855C84.2356 177.008 84.5099 177.139 84.8609 177.248C85.2119 177.365 85.6271 177.491 86.1065 177.625C86.6799 177.784 87.1595 177.96 87.5452 178.154C87.931 178.357 88.2188 178.612 88.4086 178.918C88.5985 179.225 88.6948 179.609 88.6976 180.07C88.7014 180.694 88.5592 181.216 88.2713 181.636C87.9748 182.065 87.5751 182.388 87.0722 182.605C86.5694 182.83 86.0104 182.945 85.3952 182.948C84.968 182.951 84.5661 182.906 84.1895 182.815C83.8045 182.723 83.4448 182.601 83.1107 182.449C82.7765 182.298 82.4764 182.133 82.2104 181.955L82.9836 180.515Z" fill="black"/>
<path d="M80.5041 173.813L80.5591 182.914L77.2523 182.933C76.2611 182.939 75.431 182.739 74.7621 182.333C74.0931 181.936 73.59 181.392 73.2525 180.702C72.9151 180.02 72.7439 179.261 72.7389 178.423C72.7333 177.5 72.9121 176.696 73.2754 176.01C73.6387 175.325 74.1568 174.792 74.8295 174.412C75.4938 174.032 76.283 173.839 77.1973 173.833L80.5041 173.813ZM74.5205 178.413C74.524 179.002 74.634 179.518 74.8503 179.962C75.0666 180.413 75.3763 180.762 75.7794 181.007C76.1826 181.261 76.6704 181.386 77.2429 181.383L78.781 181.373L78.7447 175.375L77.2067 175.384C76.6256 175.388 76.1351 175.519 75.735 175.778C75.335 176.045 75.0339 176.406 74.8315 176.86C74.6207 177.322 74.517 177.84 74.5205 178.413Z" fill="black"/>
<path d="M56.9818 169.552C51.3216 169.489 46.6827 174.026 46.6201 179.687C46.5575 185.347 51.095 189.986 56.7551 190.048C62.4153 190.111 67.0542 185.573 67.1168 179.913C67.1794 174.253 62.6419 169.614 56.9818 169.552Z" fill="#F0B90B"/>
<path d="M55.2192 184.594L56.7972 186.242L60.8609 182.241L59.2824 180.632L55.2192 184.594Z" fill="white"/>
<path d="M52.823 182.152L54.401 183.799L60.9143 177.41L59.3358 175.801L52.823 182.152Z" fill="white"/>
<path d="M61.6964 181.464L60.1184 179.817L61.732 178.243L63.3105 179.852L61.6964 181.464Z" fill="white"/>
<path d="M50.4268 179.71L52.0048 181.357L58.5181 174.967L56.9397 173.358L50.4268 179.71Z" fill="white"/>
<path opacity="0.5" d="M314.519 130.737L314.521 130.742L314.559 130.849C314.559 130.85 314.56 130.851 314.56 130.852C315.275 132.951 315.948 135.097 316.559 137.26L178.678 176.29L278.569 73.5721C287.639 82.4537 295.451 92.4799 301.89 103.326C307.02 111.977 311.257 121.189 314.519 130.737Z" fill="url(#paint2_radial_606_726)" stroke="url(#paint3_radial_606_726)"/>
<path d="M247.351 140.045C247.626 140.492 247.742 140.939 247.699 141.386C247.651 141.826 247.478 142.246 247.18 142.645C246.889 143.04 246.513 143.379 246.051 143.663L242.22 146.022L237.338 138.091L241.582 135.478C241.955 135.249 242.337 135.153 242.729 135.189C243.123 135.213 243.488 135.338 243.822 135.563C244.159 135.777 244.43 136.051 244.636 136.386C244.87 136.766 244.996 137.187 245.013 137.649C245.03 138.11 244.903 138.538 244.632 138.931C245.168 138.785 245.675 138.807 246.151 138.997C246.634 139.182 247.034 139.531 247.351 140.045ZM245.619 140.71C245.495 140.509 245.345 140.356 245.166 140.25C244.984 140.136 244.794 140.078 244.597 140.076C244.404 140.062 244.218 140.11 244.039 140.22L241.671 141.677L242.957 143.766L245.247 142.357C245.433 142.242 245.573 142.094 245.667 141.913C245.763 141.72 245.808 141.518 245.801 141.306C245.795 141.095 245.734 140.896 245.619 140.71ZM239.691 138.46L240.921 140.46L242.977 139.195C243.148 139.089 243.279 138.952 243.37 138.783C243.461 138.614 243.502 138.43 243.492 138.231C243.49 138.027 243.425 137.82 243.296 137.612C243.172 137.411 243.024 137.261 242.85 137.163C242.684 137.059 242.509 137.008 242.324 137.009C242.147 137.005 241.977 137.053 241.813 137.154L239.691 138.46Z" fill="white"/>
<path d="M254.486 136.607L255.318 137.959L249.812 141.348L244.93 133.418L250.336 130.09L251.168 131.442L247.303 133.821L248.479 135.731L251.819 133.675L252.589 134.926L249.249 136.982L250.521 139.048L254.486 136.607Z" fill="white"/>
<path d="M253.794 127.961L255.358 126.999L263.155 133.135L261.569 134.111L259.615 132.588L256.845 134.293L257.336 136.717L255.749 137.693L253.794 127.961ZM258.668 131.676L255.559 129.077L256.434 133.051L258.668 131.676Z" fill="white"/>
<path d="M264.025 132.599L259.143 124.669L262.65 122.51C263.015 122.285 263.396 122.153 263.793 122.114C264.197 122.071 264.589 122.107 264.969 122.222C265.355 122.333 265.704 122.509 266.016 122.748C266.335 122.983 266.596 123.264 266.797 123.592C267.004 123.927 267.143 124.287 267.217 124.674C267.293 125.048 267.294 125.416 267.22 125.78C267.147 126.144 267.003 126.479 266.791 126.784L270.436 128.652L268.738 129.698L265.471 128.043L263.93 128.992L265.566 131.65L264.025 132.599ZM263.098 127.64L265.03 126.451C265.224 126.332 265.361 126.17 265.441 125.967C265.516 125.756 265.539 125.526 265.509 125.278C265.48 125.029 265.391 124.786 265.245 124.547C265.089 124.294 264.902 124.107 264.683 123.985C264.459 123.855 264.231 123.785 263.999 123.774C263.774 123.759 263.568 123.808 263.382 123.923L261.516 125.071L263.098 127.64Z" fill="white"/>
<path d="M285.909 124.426C290.553 121.567 292 115.484 289.141 110.84C286.282 106.196 280.199 104.749 275.555 107.609C270.911 110.468 269.464 116.55 272.324 121.194C275.183 125.838 281.265 127.285 285.909 124.426Z" fill="url(#paint4_linear_606_726)"/>
<path d="M284.613 114.837C284.259 114.604 283.901 114.473 283.536 114.445C283.182 114.418 282.525 114.585 282.525 114.585C282.525 114.585 282.863 114.038 282.953 113.74C283.047 113.435 283.068 113.108 283.015 112.761C282.963 112.413 282.827 112.064 282.61 111.712C282.409 111.385 282.178 111.114 281.916 110.901C281.809 110.812 281.696 110.732 281.578 110.663C281.174 110.427 280.727 110.326 280.235 110.358C279.745 110.391 279.225 110.575 278.678 110.912L275.627 112.791L276.397 114.042C276.611 113.747 277.085 113.447 277.405 112.932C277.726 112.417 277.423 112.094 278.14 111.62C278.882 111.163 279.396 111.935 279.396 111.935C279.396 111.935 280.526 111.686 281.24 111.388C280.179 112.047 279.301 112.401 279.301 112.401C279.301 112.401 279.025 111.732 278.379 112.077C277.736 112.421 278.217 113.03 278.217 113.03C278.217 113.03 278.216 113.031 278.214 113.034C278.152 113.095 277.143 114.09 276.812 114.716C276.812 114.716 276.706 114.962 276.7 115.21C276.702 115.614 276.837 115.79 276.839 115.971C276.84 116.097 276.489 116.779 276.213 117.322C276.084 117.581 275.972 117.81 275.923 117.933C275.904 117.978 275.893 118.008 275.895 118.021C275.902 118.06 276.053 118.179 276.272 118.311C276.685 118.56 277.35 118.853 277.791 118.745C277.975 118.7 278.384 118.431 278.923 118.145C279.282 117.954 279.7 117.757 280.147 117.612C280.789 117.403 281.613 117.076 282.618 117.438C283.624 117.8 284.366 119.527 284.366 119.527C284.366 119.527 283.038 118.033 281.912 118.009C280.786 117.984 279.459 119.016 279.459 119.016L281.312 122.025L284.046 120.342L284.358 120.15L284.596 120.003C284.913 119.808 285.177 119.593 285.388 119.355C285.541 119.186 285.667 119.007 285.768 118.817C285.793 118.767 285.841 118.666 285.841 118.666L285.936 118.428C285.936 118.428 285.936 118.425 285.937 118.421C285.938 118.417 285.939 118.41 285.943 118.402C286.05 118.091 286.092 117.766 286.072 117.43C286.073 117.408 286.071 117.385 286.07 117.363C286.03 116.85 285.857 116.346 285.551 115.849C285.28 115.409 284.966 115.071 284.613 114.837ZM277.281 115.478L277.283 115.477C277.356 115.388 277.393 115.39 277.446 115.478C277.496 115.564 277.496 115.669 277.441 115.737C277.425 115.761 277.402 115.78 277.374 115.792C277.319 115.818 277.23 115.81 277.174 115.784C277.106 115.755 277.136 115.685 277.173 115.63C277.207 115.58 277.242 115.528 277.281 115.478Z" fill="white"/>
<path opacity="0.5" d="M39.4845 223.815L39.4827 223.81L39.4446 223.702C39.4443 223.701 39.4439 223.7 39.4436 223.699C38.7283 221.601 38.0554 219.454 37.4445 217.292L175.326 178.261L75.4346 280.98C66.365 272.098 58.5529 262.072 52.1137 251.226C46.9834 242.575 42.747 233.363 39.4845 223.815Z" fill="url(#paint5_radial_606_726)" stroke="url(#paint6_radial_606_726)"/>
<path d="M106.653 214.506C106.378 214.06 106.262 213.613 106.304 213.165C106.352 212.725 106.525 212.306 106.823 211.906C107.114 211.512 107.491 211.172 107.952 210.888L111.783 208.529L116.665 216.46L112.421 219.073C112.049 219.302 111.666 219.399 111.275 219.363C110.88 219.339 110.516 219.214 110.182 218.988C109.845 218.774 109.573 218.5 109.367 218.165C109.133 217.785 109.008 217.364 108.99 216.903C108.973 216.441 109.1 216.014 109.372 215.621C108.835 215.766 108.328 215.744 107.852 215.555C107.369 215.37 106.969 215.02 106.653 214.506ZM108.384 213.841C108.508 214.042 108.659 214.196 108.837 214.302C109.02 214.415 109.209 214.473 109.406 214.475C109.599 214.489 109.786 214.442 109.964 214.332L112.332 212.874L111.047 210.785L108.757 212.195C108.571 212.309 108.431 212.457 108.337 212.638C108.24 212.831 108.195 213.033 108.202 213.245C108.209 213.456 108.269 213.655 108.384 213.841ZM114.313 216.091L113.082 214.091L111.027 215.357C110.855 215.462 110.724 215.599 110.633 215.768C110.542 215.937 110.501 216.121 110.511 216.321C110.513 216.525 110.579 216.731 110.707 216.939C110.831 217.14 110.98 217.29 111.153 217.389C111.319 217.492 111.495 217.543 111.679 217.543C111.856 217.546 112.027 217.498 112.19 217.397L114.313 216.091Z" fill="white"/>
<path d="M99.5169 217.944L98.6849 216.593L104.192 213.203L109.073 221.133L103.667 224.461L102.835 223.11L106.7 220.731L105.524 218.821L102.184 220.877L101.414 219.626L104.754 217.57L103.482 215.503L99.5169 217.944Z" fill="white"/>
<path d="M100.209 226.59L98.6455 227.553L90.8483 221.417L92.4344 220.44L94.3887 221.964L97.1588 220.258L96.6678 217.834L98.2539 216.858L100.209 226.59ZM95.3349 222.875L98.4441 225.474L97.5688 221.5L95.3349 222.875Z" fill="white"/>
<path d="M89.9785 221.952L94.8603 229.883L91.353 232.042C90.9882 232.266 90.6072 232.398 90.2103 232.437C89.8058 232.481 89.414 232.445 89.0347 232.329C88.648 232.218 88.2989 232.043 87.9872 231.803C87.6681 231.568 87.4077 231.287 87.206 230.96C86.9997 230.624 86.8599 230.264 86.7865 229.878C86.7103 229.504 86.7091 229.135 86.7829 228.771C86.8568 228.407 86.9999 228.073 87.2124 227.767L83.5671 225.899L85.2649 224.854L88.5321 226.508L90.0735 225.559L88.4371 222.901L89.9785 221.952ZM90.9055 226.911L88.9731 228.1C88.7795 228.22 88.6426 228.381 88.5625 228.584C88.4869 228.795 88.464 229.025 88.4938 229.273C88.5236 229.522 88.6119 229.766 88.7586 230.004C88.9144 230.257 89.1018 230.445 89.3206 230.567C89.5441 230.696 89.7721 230.766 90.0046 230.777C90.2298 230.792 90.4354 230.743 90.6216 230.628L92.4869 229.48L90.9055 226.911Z" fill="white"/>
<path d="M68.0933 229.603C63.4496 232.463 62.0033 238.546 64.8628 243.189C67.7224 247.833 73.8051 249.279 78.4488 246.42C83.0925 243.56 84.5389 237.478 81.6793 232.834C78.8197 228.19 72.7371 226.744 68.0933 229.603Z" fill="url(#paint7_linear_606_726)"/>
<path d="M69.3905 239.192C69.7441 239.425 70.102 239.556 70.4671 239.584C70.821 239.611 71.4788 239.443 71.4788 239.443C71.4788 239.443 71.1406 239.99 71.0504 240.288C70.9568 240.594 70.9352 240.92 70.989 241.268C71.0411 241.616 71.1771 241.965 71.3935 242.316C71.5949 242.643 71.826 242.915 72.0877 243.127C72.195 243.217 72.308 243.297 72.4258 243.365C72.8298 243.601 73.2767 243.702 73.7686 243.67C74.2587 243.638 74.7784 243.453 75.3258 243.116L78.3771 241.237L77.6067 239.986C77.3929 240.281 76.919 240.581 76.5984 241.096C76.2778 241.612 76.5808 241.934 75.8638 242.408C75.1213 242.865 74.6074 242.093 74.6074 242.093C74.6074 242.093 73.4773 242.342 72.7633 242.64C73.8243 241.981 74.7023 241.627 74.7023 241.627C74.7023 241.627 74.9783 242.296 75.6243 241.951C76.2681 241.607 75.7864 240.998 75.7864 240.998C75.7864 240.998 75.788 240.997 75.7895 240.994C75.852 240.933 76.8602 239.938 77.1914 239.312C77.1914 239.312 77.2973 239.066 77.3038 238.818C77.3016 238.414 77.166 238.239 77.1646 238.057C77.1631 237.931 77.5146 237.249 77.7902 236.706C77.9193 236.447 78.0311 236.218 78.0805 236.095C78.0997 236.05 78.1098 236.02 78.1078 236.007C78.1013 235.968 77.9502 235.849 77.731 235.717C77.318 235.468 76.6527 235.175 76.2123 235.283C76.0279 235.328 75.6194 235.597 75.0799 235.883C74.7209 236.074 74.3035 236.272 73.8565 236.416C73.2145 236.626 72.3905 236.952 71.3849 236.59C70.3793 236.229 69.6372 234.502 69.6372 234.502C69.6372 234.502 70.9651 235.995 72.0911 236.02C73.2171 236.044 74.544 235.013 74.544 235.013L72.6909 232.003L69.9574 233.687L69.6455 233.879L69.4067 234.026C69.0905 234.22 68.8263 234.435 68.6146 234.674C68.4624 234.843 68.336 235.021 68.2353 235.212C68.2105 235.262 68.1622 235.363 68.1622 235.363L68.0676 235.601C68.0676 235.601 68.0669 235.603 68.066 235.607C68.065 235.612 68.0639 235.619 68.0606 235.627C67.9529 235.938 67.9108 236.263 67.9307 236.599C67.9305 236.621 67.9321 236.644 67.9335 236.665C67.9737 237.179 68.146 237.683 68.452 238.18C68.7233 238.62 69.0369 238.958 69.3905 239.192ZM76.7223 238.55L76.7206 238.551C76.6478 238.64 76.6109 238.638 76.5579 238.55C76.5072 238.464 76.5072 238.359 76.562 238.292C76.5785 238.267 76.6016 238.249 76.6298 238.236C76.6847 238.21 76.7732 238.218 76.8295 238.244C76.8973 238.273 76.8676 238.343 76.8308 238.399C76.7961 238.448 76.7614 238.5 76.7223 238.55Z" fill="white"/>
<path d="M77.8658 71.2809L77.8658 71.2809L77.8721 71.2751C85.3549 64.2754 93.5182 58.0986 102.297 52.8649L102.299 52.8639C113.129 46.353 124.809 41.2245 137.035 37.7629L176.046 175.621L73.3002 75.7587C74.7222 74.2922 76.192 72.8628 77.6923 71.4377L77.8658 71.2809Z" fill="white" stroke="url(#paint8_radial_606_726)"/>
<path d="M158.623 137.515C158.94 138.029 159.136 138.58 159.212 139.17C159.284 139.753 159.245 140.332 159.096 140.906C158.935 141.478 158.669 142.012 158.297 142.509C157.925 143.005 157.453 143.43 156.88 143.784C156.336 144.119 155.767 144.336 155.171 144.437C154.568 144.541 153.976 144.531 153.396 144.406C152.815 144.282 152.276 144.049 151.779 143.709C151.281 143.368 150.863 142.923 150.523 142.372C150.064 141.628 149.832 140.892 149.826 140.167C149.808 139.438 149.977 138.779 150.333 138.19L151.89 138.817C151.62 139.261 151.493 139.729 151.509 140.223C151.521 140.708 151.658 141.163 151.919 141.588C152.126 141.923 152.385 142.184 152.696 142.372C153.007 142.56 153.348 142.679 153.717 142.729C154.087 142.778 154.466 142.76 154.855 142.674C155.239 142.581 155.61 142.425 155.967 142.204C156.347 141.97 156.662 141.699 156.913 141.39C157.16 141.073 157.338 140.737 157.448 140.382C157.553 140.019 157.589 139.653 157.556 139.283C157.515 138.917 157.39 138.564 157.178 138.221C156.931 137.819 156.59 137.5 156.157 137.264C155.719 137.02 155.2 136.862 154.601 136.79L156.119 135.854C157.242 136.076 158.077 136.629 158.623 137.515ZM154.257 137.157L155.241 138.753L154.114 139.449L152.344 136.579L156.419 134.066L157.204 135.339L154.257 137.157Z" fill="black"/>
<path d="M154.145 130.128C154.438 130.604 154.624 131.08 154.702 131.556C154.772 132.037 154.749 132.498 154.631 132.941C154.509 133.376 154.309 133.776 154.031 134.143C153.754 134.509 153.414 134.816 153.012 135.064C152.603 135.316 152.172 135.484 151.72 135.568C151.269 135.651 150.821 135.65 150.377 135.564C149.929 135.47 149.51 135.282 149.12 134.999C148.722 134.72 148.376 134.343 148.082 133.866C147.789 133.39 147.609 132.915 147.543 132.442C147.465 131.966 147.485 131.507 147.603 131.065C147.72 130.622 147.92 130.222 148.202 129.863C148.48 129.497 148.823 129.187 149.233 128.935C149.634 128.687 150.061 128.521 150.513 128.438C150.961 128.347 151.408 128.348 151.856 128.442C152.3 128.528 152.72 128.71 153.118 128.989C153.509 129.272 153.851 129.652 154.145 130.128ZM152.062 133.523C152.405 133.312 152.668 133.057 152.854 132.758C153.032 132.463 153.124 132.155 153.13 131.832C153.137 131.509 153.051 131.203 152.872 130.913C152.697 130.63 152.465 130.419 152.173 130.28C151.875 130.146 151.554 130.092 151.211 130.119C150.856 130.142 150.507 130.26 150.165 130.471C149.83 130.678 149.572 130.934 149.391 131.241C149.206 131.54 149.11 131.851 149.103 132.173C149.097 132.496 149.181 132.799 149.355 133.082C149.534 133.372 149.773 133.584 150.071 133.718C150.363 133.857 150.683 133.911 151.034 133.88C151.377 133.853 151.72 133.734 152.062 133.523Z" fill="black"/>
<path d="M149.969 123.357C150.263 123.834 150.449 124.31 150.527 124.786C150.597 125.266 150.573 125.728 150.456 126.17C150.333 126.605 150.134 127.006 149.856 127.372C149.579 127.738 149.239 128.046 148.837 128.293C148.428 128.546 147.997 128.714 147.545 128.797C147.093 128.881 146.646 128.879 146.202 128.793C145.754 128.7 145.335 128.512 144.944 128.228C144.547 127.95 144.201 127.572 143.907 127.096C143.613 126.62 143.434 126.145 143.368 125.672C143.29 125.196 143.31 124.737 143.428 124.294C143.545 123.852 143.745 123.451 144.027 123.092C144.304 122.726 144.648 122.417 145.057 122.164C145.459 121.916 145.886 121.751 146.338 121.667C146.785 121.576 147.233 121.578 147.681 121.671C148.125 121.757 148.545 121.94 148.943 122.218C149.333 122.501 149.675 122.881 149.969 123.357ZM147.887 126.753C148.229 126.542 148.493 126.286 148.678 125.987C148.856 125.693 148.949 125.384 148.955 125.062C148.962 124.739 148.876 124.433 148.696 124.142C148.522 123.859 148.289 123.649 147.998 123.51C147.7 123.375 147.379 123.322 147.036 123.348C146.68 123.372 146.332 123.489 145.989 123.701C145.654 123.907 145.397 124.164 145.216 124.47C145.031 124.77 144.935 125.08 144.928 125.403C144.921 125.726 145.005 126.028 145.18 126.311C145.359 126.601 145.598 126.814 145.896 126.948C146.187 127.087 146.508 127.141 146.859 127.109C147.202 127.083 147.545 126.964 147.887 126.753Z" fill="black"/>
<path d="M144.644 121.519C144.078 121.867 143.499 122.07 142.908 122.127C142.309 122.188 141.753 122.104 141.242 121.875C140.731 121.646 140.319 121.278 140.007 120.772C139.741 120.34 139.61 119.887 139.615 119.411C139.608 118.933 139.708 118.496 139.916 118.101L136.589 120.152L135.667 118.656L142.142 114.663C142.298 114.567 142.394 114.472 142.429 114.378C142.463 114.285 142.449 114.17 142.386 114.035L143.603 113.284C143.816 113.513 143.973 113.709 144.074 113.872C144.239 114.14 144.31 114.405 144.286 114.666C144.257 114.92 144.142 115.125 143.94 115.28L143.585 115.53C144.083 115.52 144.544 115.642 144.967 115.895C145.385 116.141 145.718 116.464 145.966 116.866C146.214 117.268 146.365 117.688 146.42 118.127C146.47 118.558 146.436 118.985 146.316 119.408C146.193 119.824 145.992 120.215 145.714 120.581C145.425 120.944 145.068 121.257 144.644 121.519ZM142.596 116.448L141.2 117.309C141.03 117.516 140.91 117.755 140.84 118.024C140.77 118.293 140.748 118.558 140.775 118.819C140.795 119.084 140.867 119.317 140.991 119.518C141.133 119.749 141.31 119.928 141.521 120.054C141.733 120.18 141.964 120.264 142.215 120.304C142.461 120.337 142.715 120.324 142.977 120.266C143.234 120.2 143.482 120.093 143.72 119.946C143.958 119.799 144.162 119.622 144.332 119.415C144.49 119.204 144.601 118.976 144.666 118.731C144.73 118.486 144.748 118.239 144.718 117.99C144.683 117.734 144.595 117.491 144.452 117.26C144.365 117.119 144.256 116.991 144.124 116.877C143.98 116.761 143.828 116.664 143.668 116.588C143.496 116.509 143.321 116.458 143.142 116.435C142.951 116.409 142.769 116.413 142.596 116.448Z" fill="black"/>
<path d="M141.167 109.335L133.241 114.223L132.291 112.682L138.866 108.627L136.374 104.586L137.725 103.753L141.167 109.335Z" fill="black"/>
<path d="M135.083 104.365L131.421 106.624L130.498 105.128L133.836 103.069C134.283 102.794 134.571 102.503 134.701 102.197C134.823 101.895 134.785 101.585 134.588 101.265C134.469 101.071 134.314 100.904 134.125 100.764C133.924 100.621 133.697 100.52 133.444 100.46C133.187 100.392 132.905 100.376 132.598 100.412L128.97 102.649L128.047 101.153L132.222 98.5782C132.379 98.4819 132.474 98.387 132.509 98.2935C132.539 98.1927 132.523 98.0744 132.46 97.9387L133.677 97.1883C133.791 97.3233 133.884 97.4407 133.956 97.5403C134.03 97.6279 134.093 97.7126 134.143 97.7945C134.308 98.0624 134.384 98.3187 134.371 98.5633C134.345 98.8051 134.234 99.0074 134.036 99.1703L133.588 99.4929C134.143 99.5102 134.651 99.6592 135.112 99.9401C135.565 100.225 135.943 100.614 136.246 101.105C136.618 101.708 136.707 102.285 136.513 102.836C136.311 103.392 135.834 103.902 135.083 104.365Z" fill="black"/>
<path d="M131.412 93.2659C131.706 93.7423 131.892 94.2184 131.969 94.6944C132.04 95.175 132.016 95.6364 131.898 96.0788C131.773 96.5257 131.574 96.9361 131.302 97.3098C131.024 97.6762 130.684 97.9832 130.282 98.2311C129.732 98.5708 129.154 98.7578 128.548 98.7921C127.931 98.8237 127.342 98.6936 126.782 98.402C126.222 98.1103 125.747 97.6482 125.357 97.0156C124.967 96.3829 124.769 95.7547 124.765 95.1309C124.76 94.507 124.912 93.9458 125.221 93.4471L126.57 94.6342C126.432 94.8938 126.371 95.1623 126.388 95.4395C126.398 95.7214 126.48 95.9888 126.636 96.2419C126.811 96.5247 127.046 96.7393 127.342 96.8857C127.625 97.0292 127.942 97.0853 128.293 97.054C128.636 97.0274 128.983 96.9062 129.332 96.6904C129.675 96.4793 129.939 96.2241 130.124 95.9249C130.297 95.6229 130.391 95.3083 130.405 94.9812C130.411 94.6586 130.327 94.356 130.153 94.0731C130.043 93.8945 129.91 93.7454 129.754 93.6258C129.593 93.4988 129.422 93.4042 129.24 93.3419C129.058 93.2796 128.881 93.26 128.71 93.2831L128.255 91.5452C128.628 91.5002 129.01 91.5367 129.401 91.655C129.788 91.7657 130.156 91.9547 130.506 92.2219C130.844 92.4862 131.146 92.8342 131.412 93.2659Z" fill="black"/>
<path d="M126.629 85.7604L125.16 89.0245L126.43 89.3352L128.172 88.2612L129.094 89.7572L120.944 94.7831L120.022 93.2871L124.956 90.244L120.88 89.5063L119.902 87.921L123.723 88.5696L125.645 84.1639L126.629 85.7604Z" fill="black"/>
<path d="M107.876 73.5492C109.215 74.929 110.622 75.7831 111.61 76.2701C110.572 75.9136 108.977 75.5195 107.071 75.5492C101.865 75.6305 103.527 81.3669 106.417 80.82C104.673 83.3196 109.06 87.1273 111.418 82.6035C112.303 80.9123 112.664 79.3119 112.812 78.2243C112.803 79.3254 112.935 80.9661 113.567 82.7817C115.259 87.6385 120.132 84.5971 118.766 81.8404C121.545 82.855 124.001 77.4598 118.869 76.5252C116.586 76.1085 114.671 76.3889 113.668 76.6098C114.069 76.4157 114.488 76.2201 114.917 76.0022C115.395 75.7637 115.887 75.5164 116.389 75.2633C116.882 74.9958 117.384 74.7224 117.884 74.4505C118.392 74.1868 118.871 73.875 119.353 73.5907C119.593 73.443 119.833 73.3016 120.069 73.1593C120.305 73.0169 120.541 72.8784 120.759 72.7237C121.203 72.4237 121.633 72.135 122.04 71.8608C122.446 71.5843 122.839 71.3353 123.176 71.0708C124.548 70.0426 125.463 69.3558 125.463 69.3558C125.468 69.3529 125.475 69.3485 125.48 69.3456C125.685 69.1793 125.712 68.878 125.544 68.67C125.377 68.4621 125.077 68.4319 124.872 68.5981L124.853 68.6098C124.853 68.6098 123.982 69.3257 122.669 70.3969C122.349 70.6738 121.968 70.9318 121.582 71.2232C121.192 71.5097 120.78 71.8133 120.354 72.1295C120.143 72.2924 119.918 72.4375 119.691 72.588C119.463 72.7385 119.235 72.889 119.004 73.0448C118.539 73.3478 118.077 73.6758 117.585 73.9558C117.101 74.2478 116.615 74.5375 116.141 74.8236C115.653 75.0945 115.173 75.3609 114.71 75.6196C114.249 75.8806 113.789 76.1151 113.363 76.3479C113.351 76.3552 113.341 76.3611 113.33 76.3684C113.959 75.6224 115.155 73.9844 115.846 71.6344C117.315 66.6292 111.392 66.4013 111.051 69.3401C109.199 66.8792 104.295 69.8702 107.878 73.5617L107.876 73.5492Z" fill="#24EA5B"/>
<path d="M276.135 283.284L276.135 283.284L276.128 283.289C268.646 290.289 260.482 296.466 251.703 301.7L251.702 301.701C240.871 308.211 229.191 313.34 216.966 316.802L177.954 178.944L280.7 278.806C279.278 280.272 277.808 281.702 276.308 283.127L276.135 283.284Z" fill="white" stroke="url(#paint9_radial_606_726)"/>
<path d="M195.377 217.049C195.061 216.536 194.864 215.984 194.788 215.394C194.717 214.811 194.755 214.233 194.904 213.658C195.065 213.086 195.332 212.552 195.704 212.056C196.075 211.559 196.548 211.134 197.121 210.781C197.664 210.446 198.234 210.228 198.83 210.128C199.433 210.023 200.024 210.033 200.605 210.158C201.185 210.283 201.724 210.516 202.222 210.856C202.719 211.196 203.138 211.642 203.478 212.193C203.937 212.937 204.169 213.672 204.175 214.398C204.193 215.126 204.024 215.785 203.668 216.375L202.11 215.748C202.381 215.304 202.508 214.835 202.492 214.342C202.48 213.856 202.343 213.401 202.081 212.977C201.875 212.642 201.616 212.38 201.305 212.192C200.993 212.004 200.653 211.885 200.283 211.836C199.914 211.786 199.535 211.804 199.146 211.89C198.761 211.983 198.391 212.14 198.033 212.36C197.654 212.594 197.338 212.866 197.087 213.175C196.841 213.491 196.662 213.827 196.553 214.182C196.448 214.545 196.412 214.912 196.445 215.282C196.485 215.647 196.611 216.001 196.822 216.343C197.07 216.745 197.411 217.064 197.844 217.3C198.282 217.544 198.8 217.702 199.4 217.774L197.881 218.71C196.758 218.489 195.924 217.935 195.377 217.049ZM199.744 217.408L198.759 215.811L199.887 215.116L201.656 217.985L197.581 220.498L196.796 219.225L199.744 217.408Z" fill="black"/>
<path d="M199.856 224.437C199.562 223.96 199.377 223.484 199.299 223.008C199.228 222.528 199.252 222.066 199.37 221.624C199.492 221.189 199.692 220.788 199.969 220.422C200.247 220.056 200.586 219.748 200.988 219.501C201.398 219.248 201.828 219.08 202.28 218.997C202.732 218.913 203.18 218.914 203.623 219.001C204.071 219.094 204.49 219.282 204.881 219.566C205.279 219.844 205.624 220.222 205.918 220.698C206.212 221.174 206.392 221.649 206.458 222.122C206.535 222.598 206.515 223.057 206.398 223.5C206.28 223.942 206.08 224.343 205.798 224.702C205.521 225.068 205.177 225.377 204.768 225.63C204.366 225.878 203.939 226.043 203.487 226.127C203.04 226.218 202.592 226.216 202.144 226.123C201.701 226.037 201.28 225.854 200.882 225.576C200.492 225.293 200.15 224.913 199.856 224.437ZM201.938 221.041C201.596 221.252 201.332 221.508 201.147 221.807C200.969 222.101 200.877 222.41 200.87 222.732C200.864 223.055 200.95 223.361 201.129 223.652C201.303 223.934 201.536 224.145 201.827 224.284C202.126 224.419 202.447 224.472 202.79 224.446C203.145 224.422 203.494 224.304 203.836 224.093C204.171 223.887 204.429 223.63 204.609 223.324C204.795 223.024 204.891 222.713 204.897 222.391C204.904 222.068 204.82 221.766 204.646 221.483C204.467 221.193 204.228 220.98 203.929 220.846C203.638 220.707 203.317 220.653 202.967 220.685C202.623 220.711 202.281 220.83 201.938 221.041Z" fill="black"/>
<path d="M204.031 231.207C203.738 230.731 203.552 230.255 203.474 229.779C203.404 229.298 203.427 228.837 203.545 228.394C203.667 227.959 203.867 227.559 204.144 227.192C204.422 226.826 204.762 226.519 205.164 226.271C205.573 226.019 206.004 225.851 206.455 225.767C206.907 225.684 207.355 225.685 207.798 225.771C208.247 225.865 208.666 226.053 209.056 226.336C209.454 226.615 209.8 226.992 210.094 227.469C210.387 227.945 210.567 228.42 210.633 228.893C210.711 229.369 210.691 229.828 210.573 230.27C210.456 230.713 210.256 231.113 209.974 231.472C209.696 231.838 209.353 232.148 208.943 232.4C208.541 232.648 208.115 232.814 207.663 232.897C207.215 232.988 206.768 232.987 206.32 232.893C205.876 232.807 205.455 232.625 205.058 232.346C204.667 232.063 204.325 231.683 204.031 231.207ZM206.114 227.812C205.771 228.023 205.507 228.278 205.322 228.577C205.144 228.872 205.052 229.18 205.045 229.503C205.039 229.825 205.125 230.132 205.304 230.422C205.479 230.705 205.711 230.916 206.002 231.055C206.301 231.189 206.622 231.243 206.965 231.216C207.32 231.192 207.669 231.075 208.011 230.864C208.346 230.657 208.604 230.401 208.785 230.094C208.97 229.795 209.066 229.484 209.073 229.161C209.079 228.839 208.995 228.536 208.821 228.253C208.642 227.963 208.403 227.751 208.104 227.616C207.813 227.478 207.492 227.424 207.142 227.455C206.799 227.482 206.456 227.601 206.114 227.812Z" fill="black"/>
<path d="M209.357 233.046C209.923 232.697 210.501 232.494 211.093 232.438C211.692 232.376 212.247 232.46 212.758 232.689C213.27 232.919 213.681 233.286 213.993 233.792C214.26 234.224 214.39 234.678 214.386 235.153C214.393 235.631 214.293 236.068 214.084 236.464L217.411 234.412L218.334 235.908L211.859 239.901C211.702 239.998 211.607 240.093 211.572 240.186C211.537 240.28 211.551 240.394 211.614 240.53L210.398 241.28C210.185 241.052 210.028 240.856 209.927 240.692C209.762 240.424 209.691 240.16 209.715 239.898C209.743 239.644 209.858 239.44 210.061 239.284L210.415 239.035C209.917 239.044 209.457 238.922 209.034 238.669C208.616 238.424 208.282 238.1 208.035 237.698C207.787 237.296 207.635 236.876 207.581 236.437C207.53 236.006 207.565 235.579 207.684 235.156C207.808 234.741 208.009 234.35 208.286 233.983C208.576 233.62 208.933 233.307 209.357 233.046ZM211.405 238.116L212.801 237.256C212.971 237.048 213.091 236.81 213.161 236.54C213.231 236.271 213.253 236.006 213.225 235.745C213.206 235.48 213.134 235.247 213.01 235.046C212.868 234.815 212.691 234.637 212.479 234.511C212.268 234.384 212.036 234.301 211.786 234.26C211.539 234.227 211.285 234.24 211.023 234.299C210.766 234.365 210.519 234.471 210.28 234.618C210.042 234.765 209.838 234.942 209.668 235.15C209.51 235.36 209.399 235.588 209.335 235.833C209.27 236.079 209.253 236.326 209.283 236.574C209.318 236.83 209.406 237.074 209.548 237.304C209.635 237.446 209.745 237.573 209.877 237.687C210.021 237.804 210.173 237.9 210.333 237.976C210.504 238.055 210.68 238.106 210.859 238.13C211.049 238.156 211.232 238.151 211.405 238.116Z" fill="black"/>
<path d="M212.833 245.23L220.76 240.341L221.71 241.882L215.134 245.937L217.626 249.979L216.276 250.812L212.833 245.23Z" fill="black"/>
<path d="M218.918 250.199L222.58 247.941L223.503 249.437L220.164 251.495C219.718 251.771 219.43 252.062 219.3 252.368C219.178 252.669 219.215 252.98 219.413 253.3C219.532 253.493 219.686 253.66 219.875 253.8C220.077 253.943 220.303 254.045 220.556 254.105C220.813 254.172 221.096 254.188 221.403 254.153L225.031 251.915L225.954 253.411L221.778 255.986C221.622 256.083 221.526 256.177 221.491 256.271C221.461 256.372 221.478 256.49 221.541 256.626L220.324 257.376C220.21 257.241 220.117 257.124 220.045 257.024C219.971 256.937 219.908 256.852 219.858 256.77C219.692 256.502 219.616 256.246 219.63 256.001C219.655 255.759 219.767 255.557 219.964 255.394L220.413 255.072C219.858 255.054 219.35 254.905 218.889 254.624C218.435 254.339 218.057 253.951 217.754 253.459C217.382 252.857 217.294 252.279 217.488 251.728C217.69 251.172 218.166 250.663 218.918 250.199Z" fill="black"/>
<path d="M222.589 261.299C222.295 260.822 222.109 260.346 222.031 259.87C221.961 259.39 221.985 258.928 222.102 258.486C222.227 258.039 222.426 257.628 222.699 257.255C222.977 256.888 223.316 256.581 223.718 256.333C224.269 255.994 224.847 255.807 225.453 255.772C226.07 255.741 226.659 255.871 227.219 256.162C227.779 256.454 228.254 256.916 228.644 257.549C229.034 258.182 229.231 258.81 229.236 259.434C229.241 260.057 229.088 260.619 228.78 261.117L227.431 259.93C227.569 259.671 227.629 259.402 227.612 259.125C227.603 258.843 227.52 258.576 227.364 258.323C227.19 258.04 226.955 257.825 226.659 257.679C226.375 257.535 226.058 257.479 225.708 257.51C225.365 257.537 225.018 257.658 224.668 257.874C224.326 258.085 224.062 258.34 223.877 258.64C223.703 258.942 223.61 259.256 223.596 259.583C223.589 259.906 223.673 260.208 223.848 260.491C223.958 260.67 224.091 260.819 224.247 260.939C224.407 261.066 224.579 261.16 224.761 261.223C224.943 261.285 225.119 261.304 225.29 261.281L225.746 263.019C225.373 263.064 224.99 263.028 224.599 262.909C224.212 262.799 223.844 262.61 223.494 262.343C223.157 262.078 222.855 261.73 222.589 261.299Z" fill="black"/>
<path d="M227.371 268.804L228.841 265.54L227.571 265.229L225.829 266.303L224.907 264.807L233.056 259.781L233.979 261.277L229.044 264.32L233.121 265.058L234.098 266.643L230.277 265.995L228.356 270.401L227.371 268.804Z" fill="black"/>
<path d="M246.124 281.016C244.786 279.636 243.378 278.782 242.391 278.295C243.429 278.652 245.024 279.046 246.93 279.016C252.135 278.935 250.473 273.199 247.583 273.745C249.328 271.246 244.941 267.438 242.583 271.962C241.698 273.653 241.337 275.254 241.189 276.341C241.197 275.24 241.066 273.599 240.434 271.784C238.741 266.927 233.868 269.968 235.235 272.725C232.456 271.71 230 277.106 235.132 278.04C237.415 278.457 239.33 278.177 240.332 277.956C239.932 278.15 239.512 278.345 239.084 278.563C238.606 278.802 238.114 279.049 237.612 279.302C237.119 279.57 236.617 279.843 236.117 280.115C235.608 280.379 235.13 280.69 234.647 280.975C234.408 281.122 234.168 281.264 233.932 281.406C233.695 281.549 233.46 281.687 233.241 281.842C232.798 282.142 232.367 282.43 231.96 282.705C231.555 282.981 231.162 283.23 230.824 283.495C229.452 284.523 228.537 285.21 228.537 285.21C228.533 285.213 228.525 285.217 228.521 285.22C228.316 285.386 228.289 285.687 228.456 285.895C228.624 286.103 228.924 286.134 229.129 285.967L229.148 285.956C229.148 285.956 230.019 285.24 231.332 284.169C231.652 283.892 232.033 283.634 232.419 283.342C232.809 283.056 233.22 282.752 233.647 282.436C233.857 282.273 234.082 282.128 234.31 281.977C234.538 281.827 234.766 281.676 234.997 281.521C235.462 281.218 235.924 280.89 236.415 280.61C236.9 280.318 237.385 280.028 237.86 279.742C238.348 279.471 238.828 279.204 239.29 278.946C239.751 278.685 240.212 278.45 240.638 278.218C240.65 278.21 240.659 278.204 240.671 278.197C240.041 278.943 238.846 280.581 238.155 282.931C236.686 287.936 242.609 288.164 242.95 285.225C244.801 287.686 249.705 284.695 246.123 281.004L246.124 281.016Z" fill="#24EA5B"/>
<path opacity="0.5" d="M36.4465 141.2C39.5831 128.973 44.1562 117.514 49.9868 107.007L49.9873 107.006C54.9097 98.0941 60.6905 89.844 67.2492 82.3038L67.2507 82.3021C68.9813 80.2945 70.7539 78.3589 72.6021 76.475L175.299 176.329L36.4465 141.2Z" fill="url(#paint10_radial_606_726)" stroke="url(#paint11_radial_606_726)"/>
<path d="M102.752 133.836C103.02 133.385 103.363 133.075 103.779 132.906C104.191 132.745 104.643 132.704 105.135 132.783C105.62 132.858 106.095 133.035 106.561 133.312L110.425 135.617L105.656 143.615L101.375 141.063C100.999 140.839 100.737 140.545 100.587 140.181C100.426 139.82 100.368 139.439 100.413 139.039C100.446 138.641 100.564 138.273 100.765 137.935C100.994 137.552 101.309 137.246 101.71 137.017C102.111 136.788 102.549 136.703 103.023 136.762C102.645 136.353 102.43 135.894 102.378 135.385C102.318 134.87 102.443 134.354 102.752 133.836ZM104.143 135.062C104.022 135.265 103.956 135.47 103.944 135.677C103.929 135.892 103.965 136.086 104.054 136.262C104.131 136.44 104.26 136.583 104.44 136.69L106.828 138.114L108.084 136.008L105.775 134.631C105.587 134.519 105.391 134.463 105.187 134.463C104.971 134.467 104.771 134.521 104.587 134.625C104.403 134.729 104.255 134.875 104.143 135.062ZM104.894 141.359L106.096 139.342L104.023 138.106C103.85 138.003 103.668 137.951 103.476 137.948C103.284 137.946 103.102 137.995 102.93 138.096C102.75 138.192 102.598 138.346 102.472 138.556C102.351 138.759 102.287 138.96 102.28 139.159C102.266 139.354 102.302 139.533 102.388 139.697C102.466 139.855 102.588 139.984 102.753 140.083L104.894 141.359Z" fill="white"/>
<path d="M98.1499 135.261L101.213 130.124L102.768 131.051L97.9984 139.05L96.7592 138.311L95.7683 130.573L92.6314 135.834L91.0767 134.907L95.8392 126.92L97.1348 127.692L98.1499 135.261Z" fill="white"/>
<path d="M86.502 124.147C86.7707 123.696 87.1133 123.386 87.5297 123.217C87.9417 123.056 88.3937 123.015 88.8858 123.094C89.3704 123.17 89.8455 123.346 90.3112 123.624L94.1753 125.928L89.406 133.926L85.125 131.374C84.7495 131.15 84.487 130.856 84.3375 130.492C84.1761 130.131 84.1181 129.75 84.1634 129.35C84.1968 128.952 84.3143 128.584 84.5158 128.246C84.7442 127.863 85.059 127.557 85.4603 127.328C85.8616 127.099 86.2992 127.014 86.7733 127.073C86.3957 126.664 86.1808 126.205 86.1284 125.696C86.0685 125.181 86.193 124.665 86.502 124.147ZM87.8933 125.374C87.7724 125.576 87.7062 125.781 87.6948 125.988C87.6789 126.203 87.7154 126.398 87.8044 126.573C87.8814 126.751 88.01 126.894 88.1902 127.001L90.5786 128.425L91.8347 126.319L89.5252 124.942C89.3375 124.83 89.1416 124.774 88.9377 124.775C88.7217 124.778 88.5217 124.832 88.3375 124.936C88.1533 125.04 88.0053 125.186 87.8933 125.374ZM88.644 131.67L89.8464 129.653L87.7735 128.417C87.6008 128.314 87.4184 128.262 87.2264 128.259C87.0345 128.257 86.8524 128.306 86.6802 128.407C86.5005 128.503 86.348 128.657 86.2226 128.867C86.1017 129.07 86.0378 129.271 86.0308 129.47C86.0164 129.665 86.0521 129.845 86.138 130.008C86.2164 130.167 86.3383 130.295 86.5035 130.394L88.644 131.67Z" fill="white"/>
<path d="M76.813 110.585C72.4466 107.982 66.7968 109.411 64.1933 113.777C61.5899 118.144 63.0189 123.794 67.3852 126.397C71.7516 129 77.4014 127.571 80.0049 123.205C82.6084 118.839 81.1793 113.189 76.813 110.585Z" fill="#F3BA2F"/>
<path d="M70.254 121.586L73.7552 120.7L74.2703 122.738L68.7321 124.138L67.3308 118.598L69.3679 118.083L70.254 121.586Z" fill="white"/>
<path d="M75.7087 122.374L77.7461 121.858L77.2307 119.821L75.1935 120.337L75.7087 122.374Z" fill="white"/>
<path d="M73.9443 115.397L74.8299 118.898L76.8677 118.385L75.4662 112.844L69.9262 114.245L69.9252 114.246L70.4415 116.283L73.9443 115.397Z" fill="white"/>
<path d="M66.9676 117.161L69.0049 116.646L68.4896 114.609L66.4524 115.124L66.9676 117.161Z" fill="white"/>
<path d="M70.8038 117.72L70.8042 117.72L70.8034 117.719L70.8045 117.719L72.8717 117.196L73.394 119.261L73.3947 119.264L73.3918 119.265L71.3266 119.787L70.8038 117.72Z" fill="white"/>
<path opacity="0.5" d="M317.557 213.352C314.421 225.579 309.848 237.038 304.017 247.544L304.016 247.545C299.094 256.458 293.313 264.708 286.755 272.248L286.753 272.25C285.022 274.257 283.25 276.193 281.402 278.077L178.704 178.223L317.557 213.352Z" fill="url(#paint12_radial_606_726)" stroke="url(#paint13_radial_606_726)"/>
<path d="M251.252 220.718C250.983 221.168 250.641 221.478 250.224 221.647C249.812 221.809 249.36 221.85 248.868 221.77C248.384 221.695 247.909 221.519 247.443 221.241L243.579 218.937L248.348 210.938L252.629 213.491C253.005 213.715 253.267 214.009 253.417 214.373C253.578 214.734 253.636 215.115 253.591 215.515C253.557 215.913 253.44 216.28 253.238 216.618C253.01 217.001 252.695 217.307 252.294 217.537C251.893 217.766 251.455 217.851 250.981 217.792C251.358 218.2 251.573 218.659 251.626 219.169C251.686 219.683 251.561 220.2 251.252 220.718ZM249.861 219.491C249.982 219.288 250.048 219.084 250.059 218.877C250.075 218.662 250.039 218.467 249.95 218.292C249.873 218.114 249.744 217.971 249.564 217.863L247.176 216.439L245.919 218.546L248.229 219.923C248.417 220.035 248.613 220.091 248.816 220.09C249.032 220.087 249.232 220.033 249.417 219.929C249.601 219.825 249.749 219.679 249.861 219.491ZM249.11 213.195L247.908 215.211L249.981 216.447C250.153 216.55 250.336 216.603 250.528 216.606C250.72 216.608 250.902 216.559 251.074 216.458C251.254 216.361 251.406 216.208 251.532 215.998C251.652 215.795 251.716 215.594 251.723 215.394C251.738 215.199 251.702 215.02 251.616 214.857C251.538 214.698 251.416 214.57 251.251 214.471L249.11 213.195Z" fill="white"/>
<path d="M255.854 219.293L252.791 224.43L251.236 223.503L256.005 215.504L257.245 216.243L258.235 223.981L261.372 218.72L262.927 219.647L258.165 227.634L256.869 226.862L255.854 219.293Z" fill="white"/>
<path d="M267.502 230.407C267.233 230.857 266.89 231.167 266.474 231.336C266.062 231.498 265.61 231.539 265.118 231.459C264.633 231.384 264.158 231.208 263.693 230.93L259.828 228.626L264.598 220.627L268.879 223.18C269.254 223.404 269.517 223.698 269.666 224.062C269.828 224.423 269.886 224.804 269.84 225.204C269.807 225.602 269.689 225.969 269.488 226.307C269.26 226.69 268.945 226.996 268.543 227.225C268.142 227.454 267.705 227.54 267.23 227.481C267.608 227.889 267.823 228.348 267.875 228.858C267.935 229.372 267.811 229.889 267.502 230.407ZM266.11 229.18C266.231 228.977 266.298 228.772 266.309 228.566C266.325 228.351 266.288 228.156 266.199 227.981C266.122 227.803 265.994 227.66 265.814 227.552L263.425 226.128L262.169 228.235L264.479 229.612C264.666 229.724 264.862 229.78 265.066 229.779C265.282 229.776 265.482 229.722 265.666 229.618C265.85 229.514 265.998 229.368 266.11 229.18ZM265.36 222.884L264.157 224.9L266.23 226.136C266.403 226.239 266.585 226.292 266.777 226.295C266.969 226.297 267.151 226.248 267.324 226.147C267.503 226.05 267.656 225.897 267.781 225.687C267.902 225.484 267.966 225.283 267.973 225.083C267.987 224.888 267.952 224.709 267.866 224.546C267.787 224.387 267.665 224.259 267.5 224.16L265.36 222.884Z" fill="white"/>
<path d="M277.191 243.968C281.557 246.572 287.207 245.143 289.81 240.776C292.414 236.41 290.985 230.76 286.619 228.157C282.252 225.553 276.602 226.982 273.999 231.349C271.395 235.715 272.824 241.365 277.191 243.968Z" fill="#F3BA2F"/>
<path d="M283.75 232.968L280.249 233.853L279.733 231.816L285.272 230.415L286.673 235.955L284.636 236.471L283.75 232.968Z" fill="white"/>
<path d="M278.295 232.18L276.258 232.695L276.773 234.732L278.81 234.217L278.295 232.18Z" fill="white"/>
<path d="M280.06 239.157L279.174 235.656L277.136 236.168L278.538 241.709L284.078 240.308L284.079 240.308L283.562 238.271L280.06 239.157Z" fill="white"/>
<path d="M287.036 237.393L284.999 237.908L285.514 239.945L287.551 239.43L287.036 237.393Z" fill="white"/>
<path d="M283.2 236.834L283.2 236.834L283.2 236.835L283.199 236.835L281.132 237.358L280.61 235.292L280.609 235.29L280.612 235.289L282.677 234.767L283.2 236.834Z" fill="white"/>
<path d="M176.04 178.97L140.903 317.855C138.632 317.272 136.425 316.646 134.205 315.956L134.204 315.956C124.241 312.888 114.867 308.841 106.083 303.951C95.0626 297.754 85.0021 290.269 76.1479 281.689L176.04 178.97Z" fill="white" stroke="url(#paint14_radial_606_726)"/>
<path d="M105.557 288.108L106.371 288.599C106.371 288.599 106.408 288.621 106.428 288.604C106.445 288.593 106.461 288.583 106.47 288.568C106.483 288.546 106.492 288.532 106.505 288.51C106.801 288.018 107.452 287.851 107.958 288.156C108.457 288.456 108.617 289.103 108.312 289.609C108.299 289.631 108.285 289.653 108.272 289.675C108.263 289.69 108.255 289.704 108.26 289.728C108.259 289.747 108.276 289.768 108.291 289.776L109.288 290.378C109.288 290.378 109.325 290.4 109.341 290.389C109.358 290.379 109.374 290.369 109.383 290.354C109.396 290.332 109.405 290.318 109.422 290.288C109.719 289.797 110.362 289.625 110.875 289.934C111.374 290.235 111.534 290.882 111.229 291.388C111.216 291.41 111.203 291.432 111.194 291.446C111.185 291.461 111.172 291.483 111.178 291.506C111.184 291.53 111.194 291.546 111.208 291.555L112.206 292.156C112.206 292.156 112.243 292.178 112.263 292.161C112.287 292.155 112.296 292.14 112.304 292.126C112.318 292.104 112.326 292.089 112.344 292.06C112.636 291.576 113.284 291.396 113.797 291.706C114.303 292.011 114.452 292.66 114.151 293.159C114.138 293.181 114.125 293.203 114.116 293.218C114.107 293.232 114.094 293.254 114.097 293.266C114.102 293.289 114.113 293.306 114.127 293.314L115.007 293.845C115.007 293.845 115.037 293.863 115.053 293.852C115.069 293.842 115.081 293.839 115.09 293.825L124.742 277.878C124.742 277.878 124.76 277.849 124.754 277.825C124.751 277.813 124.734 277.793 124.719 277.784L123.787 277.223C123.787 277.223 123.758 277.205 123.735 277.211C123.718 277.221 123.702 277.231 123.693 277.246C123.671 277.283 123.652 277.331 123.63 277.368C123.338 277.852 122.69 278.031 122.177 277.722C121.678 277.421 121.522 276.767 121.823 276.268C121.849 276.224 121.872 276.188 121.905 276.148C121.914 276.133 121.923 276.119 121.917 276.095C121.911 276.072 121.897 276.063 121.887 276.047L120.882 275.441C120.882 275.441 120.848 275.431 120.825 275.437C120.813 275.439 120.792 275.457 120.783 275.472C120.761 275.508 120.742 275.557 120.72 275.593C120.424 276.085 119.776 276.264 119.267 275.947C118.768 275.647 118.612 274.993 118.913 274.494C118.939 274.45 118.962 274.414 118.995 274.374C119.004 274.359 119.013 274.345 119.007 274.321C119.004 274.309 118.987 274.289 118.976 274.273L117.972 273.667C117.972 273.667 117.942 273.649 117.914 273.662C117.903 273.665 117.882 273.683 117.873 273.698C117.851 273.734 117.832 273.783 117.805 273.827C117.514 274.311 116.866 274.49 116.352 274.181C115.854 273.88 115.69 273.222 115.998 272.727C116.025 272.683 116.047 272.647 116.076 272.614C116.085 272.6 116.094 272.585 116.088 272.562C116.09 272.543 116.072 272.522 116.058 272.513L115.236 272.018C115.236 272.018 115.207 272 115.191 272.011C115.191 272.011 115.163 272.024 115.154 272.038L105.522 287.967C105.522 287.967 105.504 287.997 105.515 288.013C105.518 288.025 105.528 288.041 105.542 288.05L105.557 288.108Z" fill="#24EA5B"/>
<path d="M152.407 218.743C151.938 218.461 151.617 218.102 151.443 217.667C151.276 217.237 151.236 216.766 151.321 216.253C151.402 215.748 151.588 215.254 151.88 214.77L154.301 210.754L162.615 215.765L159.933 220.215C159.697 220.605 159.39 220.877 159.01 221.031C158.633 221.198 158.235 221.256 157.818 221.207C157.404 221.17 157.021 221.046 156.67 220.834C156.272 220.594 155.954 220.264 155.718 219.845C155.481 219.426 155.394 218.969 155.458 218.475C155.03 218.867 154.551 219.088 154.019 219.14C153.483 219.2 152.945 219.068 152.407 218.743ZM153.692 217.299C153.903 217.426 154.116 217.496 154.332 217.509C154.555 217.527 154.759 217.49 154.942 217.398C155.128 217.318 155.277 217.185 155.39 216.998L156.887 214.515L154.697 213.195L153.25 215.596C153.132 215.791 153.073 215.995 153.073 216.207C153.076 216.433 153.131 216.641 153.238 216.834C153.346 217.026 153.497 217.181 153.692 217.299ZM160.259 216.548L158.163 215.285L156.864 217.439C156.756 217.619 156.7 217.809 156.697 218.009C156.693 218.209 156.744 218.399 156.848 218.579C156.948 218.767 157.107 218.926 157.325 219.058C157.536 219.185 157.745 219.253 157.953 219.261C158.157 219.277 158.343 219.241 158.514 219.152C158.68 219.071 158.815 218.945 158.918 218.773L160.259 216.548Z" fill="black"/>
<path d="M147.763 221.335C148.06 220.843 148.41 220.448 148.814 220.148C149.225 219.854 149.66 219.653 150.119 219.546C150.585 219.444 151.052 219.428 151.521 219.497C151.993 219.58 152.44 219.748 152.861 220.002C153.447 220.355 153.904 220.806 154.232 221.355C154.556 221.913 154.717 222.52 154.714 223.178C154.714 223.849 154.514 224.516 154.114 225.18C153.71 225.851 153.215 226.335 152.632 226.633C152.056 226.935 151.451 227.065 150.816 227.023C150.185 226.993 149.592 226.812 149.037 226.478C148.944 226.421 148.849 226.358 148.752 226.289C148.663 226.225 148.589 226.17 148.532 226.125L151.39 221.382C151.059 221.225 150.732 221.15 150.408 221.158C150.08 221.173 149.783 221.259 149.517 221.418C149.254 221.59 149.04 221.812 148.875 222.085C148.687 222.398 148.585 222.735 148.568 223.098C148.555 223.473 148.643 223.786 148.831 224.038L147.645 225.159C147.422 224.823 147.274 224.441 147.202 224.014C147.125 223.595 147.129 223.156 147.214 222.696C147.307 222.242 147.49 221.788 147.763 221.335ZM152.407 221.947L150.473 225.156C150.804 225.313 151.127 225.385 151.443 225.373C151.762 225.374 152.055 225.295 152.321 225.136C152.595 224.982 152.819 224.76 152.993 224.471C153.162 224.19 153.251 223.893 153.259 223.579C153.271 223.277 153.204 222.981 153.06 222.692C152.918 222.415 152.7 222.167 152.407 221.947Z" fill="black"/>
<path d="M147.439 226.242C147.837 226.482 148.119 226.801 148.284 227.199C148.452 227.608 148.498 228.062 148.421 228.559C148.345 229.056 148.152 229.562 147.842 230.077C147.686 230.335 147.509 230.584 147.31 230.826C147.111 231.068 146.91 231.261 146.706 231.404L147.034 231.602C147.424 231.837 147.796 231.901 148.148 231.794C148.495 231.695 148.805 231.419 149.078 230.966C149.28 230.63 149.414 230.275 149.481 229.9C149.547 229.525 149.569 229.101 149.544 228.629L150.878 228.747C150.899 229.313 150.849 229.846 150.727 230.348C150.601 230.857 150.397 231.346 150.115 231.815C149.588 232.689 148.96 233.236 148.231 233.457C147.497 233.685 146.725 233.555 145.913 233.065L143.957 231.886C143.793 231.788 143.66 231.744 143.556 231.757C143.449 231.777 143.347 231.848 143.251 231.972L141.975 231.202C142.036 231.048 142.094 230.907 142.149 230.781C142.199 230.662 142.248 230.564 142.295 230.485C142.483 230.173 142.697 229.977 142.937 229.898C143.171 229.827 143.402 229.833 143.628 229.916L143.966 230.071C143.782 229.599 143.717 229.107 143.769 228.596C143.822 228.085 143.973 227.623 144.222 227.209C144.467 226.803 144.77 226.486 145.132 226.257C145.496 226.04 145.88 225.925 146.281 225.912C146.686 225.911 147.072 226.021 147.439 226.242ZM144.822 229.869C144.864 230.012 144.915 230.138 144.976 230.249C145.037 230.361 145.106 230.44 145.184 230.487L145.805 230.861C145.996 230.72 146.177 230.553 146.347 230.358C146.526 230.167 146.674 229.975 146.792 229.779C147.036 229.374 147.149 228.984 147.129 228.61C147.113 228.249 146.96 227.981 146.671 227.807C146.515 227.713 146.341 227.667 146.149 227.668C145.957 227.669 145.768 227.726 145.583 227.838C145.399 227.95 145.238 228.119 145.102 228.346C144.96 228.58 144.865 228.836 144.814 229.114C144.771 229.397 144.774 229.649 144.822 229.869Z" fill="black"/>
<path d="M143.892 238.827C144.179 238.351 144.342 237.869 144.38 237.381C144.427 236.898 144.328 236.471 144.083 236.1L140.371 233.863L141.317 232.294L147.453 235.992L146.585 237.433L145.273 236.642C145.563 237.115 145.728 237.592 145.767 238.074C145.807 238.555 145.725 238.99 145.523 239.379C145.471 239.465 145.431 239.531 145.403 239.578C145.375 239.625 145.347 239.662 145.321 239.688L143.892 238.827Z" fill="black"/>
<path d="M141.989 246.778L143.591 244.12L136.694 239.962L137.661 238.358L144.558 242.516L146.161 239.857L147.577 240.712L143.406 247.632L141.989 246.778Z" fill="black"/>
<path d="M134.562 243.5L140.698 247.199L139.752 248.768L133.616 245.069L134.562 243.5ZM141.552 247.714L143.11 248.653L142.164 250.222L140.606 249.283L141.552 247.714Z" fill="black"/>
<path d="M130.923 249.271C131.224 248.772 131.577 248.372 131.981 248.073C132.393 247.778 132.831 247.58 133.298 247.478C133.771 247.38 134.247 247.369 134.723 247.443C135.195 247.526 135.642 247.694 136.063 247.948C136.641 248.296 137.09 248.742 137.411 249.287C137.735 249.844 137.896 250.452 137.893 251.11C137.89 251.768 137.689 252.429 137.289 253.092C136.889 253.756 136.401 254.239 135.825 254.541C135.249 254.843 134.656 254.97 134.047 254.922L134.503 253.106C134.809 253.109 135.087 253.037 135.336 252.889C135.592 252.746 135.801 252.542 135.961 252.276C136.14 251.979 136.226 251.659 136.221 251.315C136.218 250.984 136.119 250.663 135.923 250.353C135.734 250.048 135.456 249.785 135.089 249.564C134.73 249.347 134.368 249.225 134.002 249.196C133.64 249.179 133.303 249.243 132.993 249.386C132.691 249.534 132.451 249.756 132.272 250.053C132.159 250.24 132.085 250.435 132.048 250.636C132.007 250.845 132.001 251.049 132.031 251.248C132.06 251.447 132.126 251.62 132.229 251.767L130.836 253.018C130.616 252.694 130.468 252.323 130.39 251.904C130.308 251.492 130.308 251.061 130.388 250.609C130.472 250.17 130.65 249.724 130.923 249.271Z" fill="black"/>
<path d="M126.252 257.286L129.978 257.09L129.659 255.765L127.833 254.664L128.778 253.094L137.326 258.247L136.381 259.816L131.205 256.696L132.467 260.826L131.465 262.489L130.242 258.638L125.242 258.961L126.252 257.286Z" fill="black"/>
<path d="M123.203 262.079C123.5 261.587 123.85 261.191 124.254 260.892C124.666 260.597 125.101 260.397 125.559 260.29C126.025 260.187 126.492 260.171 126.961 260.241C127.433 260.323 127.88 260.491 128.301 260.745C128.887 261.098 129.344 261.549 129.673 262.099C129.997 262.656 130.157 263.264 130.154 263.922C130.154 264.592 129.954 265.259 129.554 265.923C129.15 266.594 128.656 267.079 128.072 267.376C127.496 267.678 126.891 267.808 126.256 267.766C125.625 267.737 125.032 267.555 124.478 267.221C124.384 267.165 124.289 267.102 124.192 267.033C124.103 266.969 124.03 266.914 123.972 266.868L126.831 262.126C126.499 261.969 126.172 261.894 125.849 261.901C125.52 261.916 125.223 262.003 124.957 262.162C124.694 262.333 124.48 262.556 124.315 262.829C124.127 263.141 124.025 263.479 124.009 263.841C123.995 264.216 124.083 264.53 124.272 264.782L123.085 265.903C122.862 265.566 122.715 265.184 122.642 264.758C122.565 264.338 122.569 263.899 122.654 263.44C122.747 262.985 122.93 262.531 123.203 262.079ZM127.847 262.691L125.913 265.899C126.244 266.056 126.568 266.129 126.883 266.117C127.202 266.117 127.495 266.038 127.761 265.879C128.035 265.725 128.259 265.504 128.433 265.215C128.602 264.934 128.691 264.636 128.7 264.322C128.711 264.02 128.645 263.725 128.5 263.435C128.358 263.158 128.14 262.91 127.847 262.691Z" fill="black"/>
<path d="M118.944 270.124C118.97 269.958 119.004 269.76 119.046 269.531C119.089 269.301 119.157 269.065 119.25 268.823C119.33 268.584 119.436 268.355 119.567 268.137C119.742 267.848 119.952 267.613 120.2 267.432C120.447 267.251 120.725 267.153 121.033 267.136C121.344 267.132 121.679 267.238 122.038 267.455L125.563 269.579L126.05 268.771L127.256 269.498L126.769 270.306L128.759 271.506L127.813 273.075L125.823 271.875L125.046 273.163L123.84 272.436L124.617 271.148L121.619 269.341C121.404 269.222 121.216 269.189 121.057 269.242C120.897 269.294 120.768 269.403 120.669 269.567C120.57 269.731 120.501 269.907 120.462 270.096C120.422 270.285 120.394 270.439 120.376 270.556L118.944 270.124Z" fill="black"/>
<path d="M177.96 175.595L213.098 36.7093C215.369 37.2924 217.575 37.9187 219.796 38.6082L219.797 38.6085C229.76 41.6763 239.133 45.7235 247.917 50.6135C258.938 56.8105 268.999 64.2959 277.853 72.8753L177.96 175.595Z" fill="white" stroke="url(#paint15_radial_606_726)"/>
<path d="M244.63 62.8156L243.784 62.3825C243.784 62.3825 243.746 62.363 243.727 62.3819C243.711 62.3933 243.696 62.4046 243.688 62.4199C243.676 62.4427 243.668 62.458 243.657 62.4809C243.395 62.9916 242.758 63.2038 242.232 62.9346C241.713 62.6692 241.509 62.0354 241.778 61.5094C241.79 61.4866 241.801 61.4637 241.813 61.4408C241.821 61.4256 241.829 61.4103 241.821 61.3873C241.821 61.3681 241.802 61.3488 241.787 61.341L240.75 60.8103C240.75 60.8103 240.712 60.7908 240.697 60.8022C240.681 60.8135 240.666 60.8248 240.658 60.8401C240.647 60.863 240.639 60.8782 240.623 60.9087C240.362 61.4194 239.732 61.6356 239.198 61.3624C238.68 61.0971 238.475 60.4632 238.744 59.9373C238.756 59.9144 238.768 59.8915 238.775 59.8763C238.783 59.861 238.795 59.8382 238.788 59.8151C238.78 59.7921 238.769 59.7766 238.753 59.7688L237.717 59.2382C237.717 59.2382 237.679 59.2187 237.659 59.2376C237.636 59.2451 237.629 59.2603 237.621 59.2755C237.609 59.2984 237.601 59.3137 237.586 59.3442C237.328 59.8472 236.694 60.071 236.16 59.7979C235.634 59.5286 235.441 58.8911 235.707 58.3727C235.718 58.3499 235.73 58.327 235.738 58.3117C235.746 58.2965 235.757 58.2736 235.754 58.2621C235.746 58.2391 235.735 58.2236 235.72 58.2158L234.805 57.7476C234.805 57.7476 234.774 57.732 234.759 57.7433C234.744 57.7547 234.732 57.7584 234.724 57.7736L226.2 74.3506C226.2 74.3506 226.184 74.3811 226.192 74.4042C226.196 74.4157 226.215 74.435 226.23 74.4428L227.198 74.9384C227.198 74.9384 227.228 74.954 227.251 74.9465C227.267 74.9352 227.282 74.9239 227.29 74.9086C227.31 74.8705 227.325 74.8209 227.345 74.7827C227.602 74.2796 228.236 74.0559 228.77 74.329C229.288 74.5944 229.489 75.2358 229.224 75.7542C229.2 75.7999 229.181 75.838 229.15 75.8799C229.142 75.8951 229.134 75.9103 229.142 75.9334C229.149 75.9564 229.164 75.9642 229.176 75.9797L230.22 76.5143C230.22 76.5143 230.254 76.5222 230.277 76.5148C230.289 76.5111 230.308 76.4921 230.316 76.4769C230.336 76.4388 230.351 76.3891 230.371 76.351C230.632 75.8403 231.266 75.6165 231.796 75.8973C232.314 76.1626 232.515 76.8041 232.25 77.3224C232.226 77.3682 232.207 77.4063 232.176 77.4481C232.168 77.4634 232.16 77.4786 232.168 77.5017C232.171 77.5132 232.19 77.5325 232.202 77.5479L233.246 78.0825C233.246 78.0825 233.276 78.0981 233.303 78.0831C233.315 78.0793 233.334 78.0604 233.342 78.0451C233.362 78.007 233.377 77.9574 233.401 77.9116C233.658 77.4085 234.292 77.1848 234.826 77.4579C235.344 77.7233 235.553 78.3686 235.28 78.8831C235.256 78.9288 235.237 78.9669 235.21 79.0011C235.202 79.0164 235.194 79.0316 235.201 79.0547C235.201 79.0738 235.22 79.0931 235.235 79.1009L236.089 79.538C236.089 79.538 236.12 79.5536 236.135 79.5422C236.135 79.5422 236.162 79.5272 236.17 79.5119L244.675 62.9539C244.675 62.9539 244.69 62.9234 244.679 62.908C244.675 62.8965 244.664 62.881 244.649 62.8732L244.63 62.8156Z" fill="#24EA5B"/>
<path d="M202.699 135.26C203.186 135.51 203.532 135.845 203.736 136.267C203.931 136.684 204.004 137.152 203.955 137.669C203.909 138.178 203.757 138.684 203.5 139.187L201.363 143.362L192.722 138.939L195.089 134.314C195.297 133.908 195.585 133.615 195.954 133.435C196.318 133.243 196.711 133.157 197.13 133.177C197.546 133.185 197.936 133.283 198.302 133.47C198.715 133.682 199.055 133.989 199.32 134.391C199.585 134.793 199.703 135.242 199.674 135.739C200.074 135.319 200.537 135.065 201.063 134.976C201.594 134.879 202.14 134.974 202.699 135.26ZM201.517 136.79C201.298 136.678 201.08 136.623 200.864 136.625C200.64 136.623 200.44 136.674 200.264 136.778C200.083 136.87 199.943 137.014 199.844 137.208L198.523 139.788L200.799 140.954L202.076 138.459C202.18 138.256 202.225 138.048 202.21 137.836C202.192 137.612 202.123 137.407 202.002 137.223C201.882 137.038 201.72 136.894 201.517 136.79ZM195.018 137.994L197.196 139.109L198.343 136.87C198.438 136.683 198.481 136.49 198.47 136.29C198.46 136.09 198.397 135.904 198.28 135.732C198.168 135.552 197.998 135.403 197.771 135.287C197.552 135.175 197.338 135.122 197.13 135.128C196.926 135.126 196.742 135.175 196.578 135.276C196.419 135.368 196.293 135.503 196.202 135.682L195.018 137.994Z" fill="black"/>
<path d="M207.152 132.353C206.891 132.864 206.569 133.283 206.186 133.609C205.796 133.932 205.376 134.162 204.926 134.301C204.468 134.435 204.003 134.484 203.531 134.447C203.054 134.397 202.597 134.26 202.159 134.036C201.55 133.725 201.063 133.306 200.697 132.781C200.335 132.248 200.133 131.652 200.09 130.996C200.044 130.327 200.197 129.647 200.55 128.958C200.907 128.26 201.366 127.743 201.928 127.405C202.482 127.064 203.076 126.892 203.712 126.89C204.344 126.876 204.948 127.016 205.525 127.311C205.622 127.361 205.721 127.417 205.823 127.479C205.916 127.537 205.993 127.587 206.054 127.628L203.53 132.557C203.871 132.691 204.203 132.743 204.526 132.713C204.852 132.676 205.142 132.568 205.397 132.391C205.647 132.202 205.845 131.965 205.991 131.681C206.157 131.357 206.235 131.013 206.227 130.65C206.214 130.275 206.105 129.968 205.899 129.73L207.005 128.53C207.251 128.85 207.424 129.221 207.526 129.641C207.633 130.054 207.659 130.493 207.606 130.957C207.544 131.417 207.393 131.882 207.152 132.353ZM202.477 132.064L204.184 128.729C203.843 128.596 203.515 128.546 203.201 128.579C202.883 128.601 202.597 128.7 202.342 128.877C202.08 129.05 201.872 129.286 201.718 129.586C201.568 129.879 201.5 130.182 201.514 130.496C201.523 130.797 201.61 131.088 201.774 131.366C201.935 131.633 202.169 131.865 202.477 132.064Z" fill="black"/>
<path d="M207.135 127.435C206.722 127.223 206.419 126.925 206.227 126.54C206.031 126.142 205.953 125.693 205.995 125.192C206.036 124.691 206.194 124.173 206.468 123.637C206.605 123.37 206.765 123.108 206.946 122.853C207.128 122.598 207.316 122.392 207.509 122.235L207.168 122.06C206.762 121.853 206.388 121.814 206.044 121.946C205.704 122.069 205.414 122.366 205.173 122.836C204.995 123.185 204.885 123.549 204.845 123.928C204.805 124.306 204.813 124.73 204.87 125.2L203.531 125.175C203.471 124.612 203.484 124.076 203.57 123.567C203.661 123.05 203.831 122.548 204.08 122.062C204.545 121.153 205.134 120.563 205.846 120.293C206.562 120.014 207.342 120.091 208.185 120.523L210.218 121.563C210.388 121.65 210.525 121.684 210.627 121.665C210.733 121.637 210.829 121.559 210.916 121.429L212.243 122.108C212.192 122.267 212.144 122.411 212.098 122.541C212.056 122.663 212.014 122.765 211.973 122.846C211.807 123.17 211.607 123.38 211.374 123.476C211.145 123.563 210.914 123.573 210.683 123.506L210.335 123.374C210.551 123.833 210.65 124.319 210.633 124.832C210.616 125.346 210.498 125.818 210.277 126.248C210.061 126.67 209.781 127.007 209.436 127.261C209.087 127.502 208.713 127.643 208.313 127.684C207.909 127.713 207.517 127.63 207.135 127.435ZM209.495 123.635C209.443 123.496 209.383 123.373 209.315 123.267C209.247 123.16 209.172 123.086 209.091 123.045L208.446 122.714C208.265 122.868 208.096 123.047 207.939 123.254C207.774 123.456 207.64 123.659 207.536 123.861C207.32 124.283 207.235 124.68 207.28 125.051C207.322 125.411 207.493 125.667 207.793 125.821C207.955 125.904 208.132 125.938 208.324 125.923C208.516 125.909 208.7 125.839 208.876 125.715C209.053 125.59 209.201 125.41 209.321 125.175C209.446 124.931 209.524 124.669 209.555 124.388C209.578 124.103 209.558 123.852 209.495 123.635Z" fill="black"/>
<path d="M209.802 114.635C209.548 115.13 209.419 115.622 209.415 116.111C209.402 116.596 209.531 117.015 209.8 117.368L213.658 119.343L212.824 120.974L206.446 117.709L207.213 116.212L208.576 116.91C208.254 116.459 208.056 115.994 207.983 115.516C207.911 115.039 207.962 114.599 208.137 114.197C208.182 114.108 208.218 114.039 208.243 113.99C208.267 113.941 208.292 113.903 208.317 113.875L209.802 114.635Z" fill="black"/>
<path d="M211.149 106.571L209.735 109.334L216.904 113.003L216.05 114.671L208.882 111.001L207.467 113.764L205.995 113.01L209.677 105.817L211.149 106.571Z" fill="black"/>
<path d="M218.786 109.326L212.409 106.062L213.244 104.431L219.621 107.695L218.786 109.326ZM211.52 105.607L209.902 104.778L210.736 103.147L212.355 103.976L211.52 105.607Z" fill="black"/>
<path d="M222.016 103.317C221.75 103.836 221.426 104.259 221.044 104.586C220.653 104.908 220.229 105.136 219.772 105.271C219.306 105.401 218.832 105.445 218.352 105.404C217.875 105.355 217.418 105.218 216.98 104.993C216.379 104.686 215.9 104.272 215.542 103.751C215.18 103.217 214.978 102.622 214.936 101.966C214.893 101.309 215.048 100.636 215.401 99.946C215.754 99.2564 216.207 98.7409 216.761 98.3997C217.314 98.0584 217.897 97.8907 218.508 97.8965L218.179 99.74C217.873 99.7575 217.601 99.8487 217.363 100.014C217.117 100.174 216.923 100.393 216.782 100.668C216.624 100.977 216.56 101.302 216.59 101.645C216.615 101.975 216.736 102.288 216.954 102.584C217.163 102.875 217.458 103.119 217.839 103.314C218.213 103.505 218.583 103.602 218.95 103.606C219.312 103.597 219.644 103.51 219.943 103.346C220.234 103.178 220.458 102.939 220.616 102.631C220.716 102.436 220.777 102.237 220.799 102.033C220.825 101.822 220.817 101.618 220.774 101.422C220.731 101.226 220.653 101.058 220.54 100.918L221.843 99.573C222.085 99.881 222.259 100.241 222.365 100.654C222.475 101.059 222.506 101.489 222.457 101.945C222.404 102.389 222.257 102.846 222.016 103.317Z" fill="black"/>
<path d="M226.121 94.9974L222.417 95.4515L222.827 96.7517L224.725 97.7236L223.891 99.3545L215.006 94.8065L215.841 93.1756L221.22 95.9293L219.675 91.8973L220.56 90.169L222.046 93.9254L227.012 93.257L226.121 94.9974Z" fill="black"/>
<path d="M228.83 90.0056C228.568 90.5168 228.246 90.9356 227.864 91.2622C227.474 91.5846 227.054 91.815 226.604 91.9535C226.146 92.0877 225.681 92.1363 225.208 92.0992C224.732 92.0499 224.275 91.913 223.837 91.6888C223.228 91.3773 222.741 90.9589 222.375 90.4336C222.013 89.9002 221.811 89.3052 221.768 88.6485C221.721 87.9795 221.875 87.3001 222.228 86.6105C222.585 85.9127 223.044 85.3952 223.606 85.0581C224.159 84.7169 224.754 84.5452 225.39 84.5431C226.022 84.5287 226.626 84.6689 227.202 84.9638C227.3 85.0137 227.399 85.0696 227.5 85.1317C227.594 85.1897 227.67 85.2393 227.731 85.2807L225.208 90.2098C225.549 90.3434 225.881 90.3955 226.203 90.3659C226.53 90.3283 226.82 90.221 227.075 90.044C227.325 89.8548 227.523 89.6182 227.668 89.3342C227.834 89.0096 227.913 88.6659 227.904 88.303C227.892 87.9279 227.782 87.6211 227.577 87.3827L228.683 86.1825C228.928 86.5028 229.102 86.8733 229.204 87.2942C229.31 87.7069 229.337 88.1454 229.283 88.6096C229.222 89.0697 229.071 89.535 228.83 90.0056ZM224.155 89.7167L225.862 86.382C225.521 86.2483 225.193 86.1983 224.879 86.232C224.561 86.2535 224.274 86.3527 224.02 86.5296C223.757 86.7024 223.549 86.9389 223.396 87.2391C223.246 87.5312 223.178 87.8343 223.191 88.1483C223.201 88.4501 223.288 88.7403 223.452 89.0191C223.613 89.2856 223.847 89.5181 224.155 89.7167Z" fill="black"/>
<path d="M232.521 81.6847C232.507 81.8517 232.487 82.0513 232.46 82.2834C232.434 82.5155 232.383 82.7555 232.307 83.0035C232.243 83.2475 232.153 83.4831 232.037 83.7102C231.884 84.0105 231.69 84.2593 231.455 84.4569C231.221 84.6544 230.951 84.7721 230.645 84.8099C230.335 84.8355 229.993 84.7528 229.62 84.5617L225.957 82.6865L225.527 83.5262L224.273 82.8845L224.703 82.0448L222.634 80.9856L223.469 79.3548L225.538 80.4139L226.223 79.0752L227.477 79.7169L226.791 81.0556L229.907 82.6505C230.13 82.7546 230.32 82.7747 230.475 82.711C230.631 82.6472 230.752 82.5301 230.839 82.3598C230.926 82.1894 230.983 82.0085 231.009 81.8171C231.036 81.6258 231.054 81.4711 231.063 81.3529L232.521 81.6847Z" fill="black"/>
<path opacity="0.5" d="M212.096 36.4555L176.967 175.308L137.965 37.4842C149.907 34.1293 162.301 32.2594 174.924 32.1125L174.925 32.1125C184.978 31.988 195.148 32.8852 205.33 34.9483L205.333 34.9488C207.614 35.3982 209.825 35.8894 212.096 36.4555Z" fill="url(#paint16_radial_606_726)" stroke="url(#paint17_radial_606_726)"/>
<path d="M178.265 109.693C178.812 109.685 179.274 109.819 179.652 110.096C180.021 110.373 180.305 110.751 180.504 111.231C180.702 111.702 180.806 112.221 180.814 112.786L180.886 117.475L171.179 117.623L171.1 112.428C171.093 111.972 171.21 111.578 171.452 111.246C171.683 110.905 171.989 110.646 172.369 110.467C172.74 110.279 173.131 110.181 173.541 110.175C174.006 110.168 174.45 110.28 174.872 110.51C175.295 110.741 175.61 111.083 175.818 111.535C175.974 110.977 176.263 110.535 176.687 110.209C177.11 109.875 177.636 109.703 178.265 109.693ZM177.938 111.599C177.692 111.602 177.474 111.656 177.284 111.759C177.086 111.862 176.933 112.001 176.826 112.176C176.71 112.342 176.654 112.534 176.657 112.753L176.701 115.651L179.258 115.612L179.215 112.81C179.211 112.582 179.154 112.378 179.041 112.197C178.92 112.008 178.763 111.86 178.57 111.753C178.377 111.647 178.166 111.595 177.938 111.599ZM172.764 115.711L175.211 115.674L175.173 113.159C175.169 112.949 175.116 112.758 175.014 112.587C174.911 112.415 174.767 112.281 174.583 112.183C174.4 112.077 174.18 112.025 173.925 112.029C173.679 112.033 173.465 112.086 173.285 112.189C173.104 112.283 172.964 112.413 172.867 112.578C172.769 112.735 172.721 112.913 172.724 113.114L172.764 115.711Z" fill="white"/>
<path d="M180.833 105.036C180.842 105.611 180.754 106.132 180.57 106.599C180.376 107.067 180.113 107.468 179.781 107.801C179.44 108.134 179.052 108.395 178.617 108.584C178.173 108.764 177.705 108.858 177.213 108.866C176.53 108.876 175.903 108.735 175.333 108.443C174.763 108.142 174.306 107.711 173.96 107.151C173.605 106.582 173.421 105.91 173.41 105.136C173.398 104.352 173.561 103.679 173.898 103.118C174.227 102.557 174.672 102.126 175.232 101.826C175.784 101.517 176.383 101.357 177.03 101.348C177.14 101.346 177.254 101.349 177.372 101.356C177.482 101.364 177.573 101.371 177.646 101.379L177.73 106.916C178.094 106.874 178.412 106.764 178.682 106.587C178.953 106.401 179.159 106.169 179.301 105.894C179.433 105.609 179.497 105.307 179.492 104.988C179.487 104.624 179.395 104.283 179.217 103.967C179.03 103.642 178.789 103.422 178.496 103.308L178.909 101.729C179.277 101.897 179.604 102.143 179.891 102.466C180.179 102.781 180.408 103.156 180.579 103.591C180.74 104.026 180.825 104.508 180.833 105.036ZM176.569 106.975L176.512 103.229C176.148 103.271 175.835 103.38 175.573 103.558C175.302 103.726 175.096 103.948 174.954 104.223C174.804 104.499 174.731 104.806 174.736 105.143C174.741 105.471 174.823 105.771 174.982 106.042C175.132 106.304 175.345 106.519 175.621 106.688C175.888 106.848 176.204 106.944 176.569 106.975Z" fill="white"/>
<path d="M178.511 100.701C178.046 100.708 177.638 100.587 177.288 100.337C176.929 100.078 176.65 99.7175 176.451 99.2556C176.253 98.7938 176.149 98.262 176.14 97.6605C176.135 97.3598 176.153 97.0541 176.194 96.7435C176.235 96.433 176.304 96.163 176.401 95.9336L176.018 95.9395C175.562 95.9464 175.213 96.0884 174.972 96.3656C174.729 96.6337 174.612 97.032 174.621 97.5606C174.627 97.9525 174.701 98.3251 174.843 98.6785C174.985 99.0319 175.191 99.4025 175.461 99.7903L174.267 100.397C173.95 99.9273 173.71 99.4478 173.548 98.958C173.385 98.4591 173.3 97.9362 173.292 97.3894C173.276 96.3687 173.519 95.5719 174.021 94.999C174.523 94.4171 175.247 94.1189 176.195 94.1044L178.478 94.0696C178.67 94.0667 178.806 94.0328 178.887 93.9677C178.968 93.8935 179.016 93.7789 179.032 93.6236L180.522 93.6009C180.552 93.7646 180.577 93.9146 180.597 94.051C180.618 94.1784 180.628 94.2876 180.63 94.3787C180.635 94.7433 180.557 95.0225 180.396 95.2164C180.235 95.4012 180.036 95.5182 179.8 95.5673L179.431 95.614C179.837 95.9177 180.153 96.3004 180.379 96.7618C180.605 97.2233 180.721 97.6956 180.729 98.1786C180.736 98.6525 180.647 99.0823 180.461 99.468C180.266 99.8448 180.002 100.145 179.668 100.369C179.325 100.584 178.939 100.695 178.511 100.701ZM178.812 96.2387C178.701 96.1402 178.59 96.0598 178.48 95.9977C178.37 95.9355 178.269 95.9052 178.178 95.9065L177.453 95.9176C177.366 96.1377 177.301 96.3757 177.259 96.6316C177.208 96.8876 177.185 97.1296 177.188 97.3574C177.195 97.8313 177.306 98.2216 177.521 98.5283C177.726 98.826 177.997 98.9723 178.334 98.9672C178.516 98.9644 178.689 98.9116 178.851 98.8089C179.014 98.7061 179.144 98.5583 179.241 98.3654C179.338 98.1724 179.385 97.9438 179.381 97.6795C179.377 97.4061 179.323 97.138 179.218 96.8752C179.105 96.6126 178.969 96.4004 178.812 96.2387Z" fill="white"/>
<path d="M174.86 88.1462C174.868 88.7022 174.985 89.1972 175.211 89.6313C175.427 90.0656 175.737 90.3754 176.141 90.5607L180.475 90.4947L180.503 92.3266L173.339 92.4357L173.314 90.7542L174.845 90.7308C174.349 90.4831 173.956 90.1655 173.668 89.7779C173.379 89.3903 173.218 88.978 173.184 88.5409C173.183 88.4407 173.181 88.3632 173.181 88.3085C173.18 88.2538 173.184 88.2082 173.192 88.1716L174.86 88.1462Z" fill="white"/>
<path d="M174.157 85.0704L180.391 84.9755L180.419 86.862L170.713 87.0099L170.69 85.5061L177.012 80.3914L170.627 80.4887L170.599 78.6021L180.291 78.4545L180.315 80.0266L174.157 85.0704Z" fill="white"/>
<path d="M180.261 76.4353L170.554 76.5832L170.455 70.0622L172.109 70.037L172.18 74.6714L174.681 74.6333L174.623 70.7781L176.154 70.7548L176.213 74.61L180.232 74.5487L180.261 76.4353Z" fill="white"/>
<path d="M171.978 61.4487L172.026 64.552L180.078 64.4293L180.106 66.3022L172.054 66.4249L172.101 69.5282L170.447 69.5534L170.324 61.4739L171.978 61.4487Z" fill="white"/>
<path fill-rule="evenodd" clip-rule="evenodd" d="M165.625 51.2826L165.625 51.2825L165.625 51.2825L174.443 45.0602L172.589 51.1764L172.589 51.1765L174.629 57.2334L165.625 51.2826L165.625 51.2826L165.625 51.2826Z" fill="#24EA5B"/>
<path fill-rule="evenodd" clip-rule="evenodd" d="M176.619 51.1148L172.585 51.1762L174.621 57.2292L176.619 51.1148ZM176.619 51.1145L172.585 51.176L174.436 45.0638L176.619 51.1145Z" fill="#15AB3E"/>
<path fill-rule="evenodd" clip-rule="evenodd" d="M184.25 50.9987L184.25 50.9987L184.25 50.9987L175.432 57.221L177.286 51.1047L175.246 45.0479L184.25 50.9986L184.25 50.9986L184.25 50.9987Z" fill="#24EA5B"/>
<path opacity="0.5" d="M141.905 318.11L177.034 179.257L216.035 317.081C204.094 320.436 191.699 322.306 179.076 322.453L179.076 322.453C169.023 322.577 158.853 321.68 148.67 319.617L148.668 319.617C146.387 319.167 144.176 318.676 141.905 318.11Z" fill="url(#paint18_radial_606_726)" stroke="url(#paint19_radial_606_726)"/>
<path d="M177.19 244.46C176.643 244.466 176.181 244.329 175.804 244.051C175.437 243.772 175.155 243.392 174.959 242.911C174.763 242.439 174.661 241.92 174.656 241.355L174.608 236.666L184.315 236.566L184.368 241.762C184.372 242.217 184.253 242.611 184.011 242.941C183.777 243.281 183.47 243.539 183.089 243.716C182.717 243.902 182.326 243.998 181.916 244.002C181.451 244.007 181.008 243.893 180.586 243.66C180.164 243.427 179.851 243.084 179.646 242.63C179.487 243.188 179.196 243.629 178.771 243.952C178.346 244.285 177.819 244.454 177.19 244.46ZM177.526 242.556C177.772 242.554 177.99 242.502 178.18 242.399C178.38 242.297 178.533 242.159 178.641 241.984C178.758 241.819 178.815 241.627 178.813 241.408L178.783 238.51L176.227 238.536L176.255 241.339C176.258 241.567 176.314 241.771 176.426 241.952C176.546 242.143 176.703 242.291 176.895 242.399C177.088 242.506 177.298 242.559 177.526 242.556ZM182.721 238.47L180.273 238.495L180.299 241.01C180.301 241.22 180.353 241.411 180.455 241.583C180.557 241.755 180.7 241.89 180.883 241.989C181.067 242.096 181.286 242.149 181.541 242.146C181.788 242.144 182.001 242.091 182.182 241.989C182.364 241.896 182.504 241.767 182.602 241.602C182.701 241.446 182.749 241.268 182.747 241.067L182.721 238.47Z" fill="white"/>
<path d="M174.598 249.104C174.592 248.53 174.683 248.01 174.869 247.543C175.065 247.076 175.33 246.677 175.664 246.345C176.007 246.013 176.396 245.754 176.832 245.567C177.277 245.39 177.745 245.298 178.237 245.293C178.921 245.286 179.547 245.43 180.115 245.725C180.683 246.029 181.139 246.462 181.482 247.024C181.834 247.594 182.014 248.267 182.022 249.042C182.03 249.826 181.864 250.497 181.523 251.057C181.192 251.616 180.745 252.045 180.183 252.342C179.63 252.649 179.03 252.805 178.383 252.812C178.273 252.813 178.159 252.81 178.041 252.802C177.931 252.794 177.84 252.786 177.767 252.777L177.71 247.24C177.346 247.28 177.028 247.388 176.757 247.564C176.485 247.75 176.278 247.98 176.135 248.254C176.001 248.538 175.936 248.84 175.939 249.159C175.943 249.523 176.033 249.864 176.209 250.182C176.395 250.508 176.634 250.729 176.927 250.844L176.506 252.421C176.139 252.252 175.813 252.004 175.527 251.679C175.241 251.363 175.014 250.987 174.846 250.551C174.686 250.115 174.604 249.633 174.598 249.104ZM178.872 247.187L178.91 250.933C179.275 250.893 179.588 250.785 179.851 250.609C180.122 250.442 180.33 250.221 180.473 249.947C180.625 249.671 180.699 249.365 180.696 249.028C180.692 248.7 180.612 248.4 180.454 248.128C180.306 247.865 180.094 247.649 179.818 247.478C179.552 247.317 179.237 247.22 178.872 247.187Z" fill="white"/>
<path d="M176.899 253.451C177.364 253.446 177.771 253.57 178.12 253.821C178.478 254.082 178.755 254.444 178.951 254.907C179.147 255.37 179.248 255.902 179.255 256.503C179.258 256.804 179.238 257.11 179.196 257.42C179.153 257.73 179.083 258 178.985 258.229L179.368 258.225C179.824 258.22 180.173 258.08 180.416 257.804C180.66 257.537 180.779 257.14 180.773 256.611C180.769 256.219 180.697 255.846 180.557 255.492C180.417 255.138 180.212 254.766 179.944 254.377L181.141 253.777C181.456 254.248 181.693 254.728 181.853 255.219C182.013 255.719 182.096 256.242 182.102 256.789C182.112 257.81 181.865 258.605 181.36 259.175C180.856 259.755 180.13 260.049 179.182 260.059L176.898 260.083C176.707 260.085 176.571 260.118 176.489 260.182C176.408 260.256 176.359 260.371 176.342 260.526L174.852 260.541C174.823 260.377 174.799 260.227 174.779 260.091C174.76 259.963 174.749 259.854 174.748 259.763C174.745 259.398 174.824 259.119 174.986 258.926C175.148 258.742 175.348 258.626 175.584 258.578L175.953 258.534C175.549 258.228 175.235 257.844 175.011 257.381C174.788 256.918 174.673 256.446 174.669 255.962C174.664 255.488 174.755 255.059 174.942 254.674C175.139 254.299 175.405 254 175.74 253.777C176.084 253.564 176.471 253.455 176.899 253.451ZM176.575 257.912C176.686 258.011 176.796 258.092 176.906 258.155C177.016 258.217 177.117 258.248 177.208 258.247L177.932 258.24C178.021 258.02 178.087 257.782 178.13 257.527C178.182 257.271 178.207 257.029 178.205 256.801C178.2 256.327 178.091 255.937 177.878 255.629C177.675 255.33 177.404 255.182 177.067 255.186C176.885 255.188 176.712 255.24 176.549 255.342C176.386 255.444 176.255 255.591 176.157 255.783C176.059 255.976 176.011 256.204 176.014 256.468C176.016 256.742 176.069 257.01 176.172 257.273C176.284 257.537 176.419 257.749 176.575 257.912Z" fill="white"/>
<path d="M180.487 266.024C180.481 265.468 180.367 264.972 180.144 264.537C179.929 264.102 179.621 263.79 179.218 263.603L174.884 263.648L174.865 261.816L182.029 261.742L182.046 263.424L180.515 263.439C181.01 263.69 181.401 264.009 181.687 264.398C181.974 264.787 182.133 265.2 182.165 265.638C182.166 265.738 182.167 265.815 182.167 265.87C182.168 265.925 182.164 265.97 182.155 266.007L180.487 266.024Z" fill="white"/>
<path d="M181.175 269.103L174.94 269.167L174.921 267.28L184.628 267.181L184.644 268.685L178.297 273.768L184.681 273.703L184.701 275.589L175.007 275.689L174.991 274.116L181.175 269.103Z" fill="white"/>
<path d="M175.028 277.708L184.735 277.608L184.802 284.13L183.147 284.147L183.1 279.512L180.598 279.538L180.637 283.393L179.106 283.409L179.067 279.553L175.047 279.595L175.028 277.708Z" fill="white"/>
<path d="M183.235 292.736L183.204 289.632L175.151 289.715L175.132 287.842L183.184 287.759L183.153 284.656L184.807 284.639L184.89 292.719L183.235 292.736Z" fill="white"/>
<path fill-rule="evenodd" clip-rule="evenodd" d="M189.538 302.933L189.538 302.933L189.538 302.933L180.689 309.111L182.573 303.005L182.573 303.004L180.564 296.937L189.538 302.933L189.538 302.933L189.538 302.933Z" fill="#24EA5B"/>
<path fill-rule="evenodd" clip-rule="evenodd" d="M178.543 303.046L182.577 303.004L180.571 296.941L178.543 303.046ZM178.543 303.046L182.577 303.005L180.696 309.107L178.543 303.046Z" fill="#15AB3E"/>
<path fill-rule="evenodd" clip-rule="evenodd" d="M170.912 303.124L170.912 303.124L170.912 303.124L179.761 296.946L177.876 303.053L179.886 309.12L170.912 303.124L170.912 303.124L170.912 303.124Z" fill="#24EA5B"/>
<defs>
<radialGradient id="paint0_radial_606_726" cx="0" cy="0" r="1" gradientUnits="userSpaceOnUse" gradientTransform="translate(256.531 159.8) rotate(104.198) scale(36.4153 72.7973)">
<stop stop-color="#727272"/>
<stop offset="1" stop-color="#727272"/>
</radialGradient>
<radialGradient id="paint1_radial_606_726" cx="0" cy="0" r="1" gradientUnits="userSpaceOnUse" gradientTransform="translate(97.4691 194.765) rotate(-75.8024) scale(36.4153 72.7973)">
<stop stop-color="#727272"/>
<stop offset="1" stop-color="#727272"/>
</radialGradient>
<radialGradient id="paint2_radial_606_726" cx="0" cy="0" r="1" gradientUnits="userSpaceOnUse" gradientTransform="translate(253.637 131.629) rotate(14.1976) scale(63.0488 63.0488)">
<stop stop-color="#717171"/>
<stop offset="1" stop-color="#494747"/>
</radialGradient>
<radialGradient id="paint3_radial_606_726" cx="0" cy="0" r="1" gradientUnits="userSpaceOnUse" gradientTransform="translate(253.625 131.609) rotate(104.198) scale(63.0655 63.0655)">
<stop stop-color="#727272"/>
<stop offset="1" stop-color="#727272"/>
</radialGradient>
<linearGradient id="paint4_linear_606_726" x1="289.422" y1="120.712" x2="272.043" y2="111.323" gradientUnits="userSpaceOnUse">
<stop stop-color="#9F67B9"/>
<stop offset="0.4963" stop-color="#9B90CD"/>
<stop offset="1" stop-color="#96BAE1"/>
</linearGradient>
<radialGradient id="paint5_radial_606_726" cx="0" cy="0" r="1" gradientUnits="userSpaceOnUse" gradientTransform="translate(100.367 222.923) rotate(-165.802) scale(63.0488 63.0488)">
<stop stop-color="#717171"/>
<stop offset="1" stop-color="#494747"/>
</radialGradient>
<radialGradient id="paint6_radial_606_726" cx="0" cy="0" r="1" gradientUnits="userSpaceOnUse" gradientTransform="translate(100.379 222.943) rotate(-75.8024) scale(63.0655 63.0655)">
<stop stop-color="#727272"/>
<stop offset="1" stop-color="#727272"/>
</radialGradient>
<linearGradient id="paint7_linear_606_726" x1="64.5812" y1="233.318" x2="81.9604" y2="242.705" gradientUnits="userSpaceOnUse">
<stop stop-color="#9F67B9"/>
<stop offset="0.4963" stop-color="#9B90CD"/>
<stop offset="1" stop-color="#96BAE1"/>
</linearGradient>
<radialGradient id="paint8_radial_606_726" cx="0" cy="0" r="1" gradientUnits="userSpaceOnUse" gradientTransform="translate(131.351 100.656) rotate(104.198) scale(63.0488 63.0655)">
<stop stop-color="#727272"/>
<stop offset="1" stop-color="#727272"/>
</radialGradient>
<radialGradient id="paint9_radial_606_726" cx="0" cy="0" r="1" gradientUnits="userSpaceOnUse" gradientTransform="translate(222.65 253.908) rotate(-75.8024) scale(63.0488 63.0655)">
<stop stop-color="#727272"/>
<stop offset="1" stop-color="#727272"/>
</radialGradient>
<radialGradient id="paint10_radial_606_726" cx="0" cy="0" r="1" gradientUnits="userSpaceOnUse" gradientTransform="translate(115.34 124.13) rotate(14.1976) scale(57.5591)">
<stop stop-color="#717171"/>
<stop offset="1" stop-color="#494747"/>
</radialGradient>
<radialGradient id="paint11_radial_606_726" cx="0" cy="0" r="1" gradientUnits="userSpaceOnUse" gradientTransform="translate(115.34 124.13) rotate(104.198) scale(36.3986 72.7973)">
<stop stop-color="#727272"/>
<stop offset="1" stop-color="#727272"/>
</radialGradient>
<radialGradient id="paint12_radial_606_726" cx="0" cy="0" r="1" gradientUnits="userSpaceOnUse" gradientTransform="translate(238.664 230.422) rotate(-165.802) scale(57.5591)">
<stop stop-color="#717171"/>
<stop offset="1" stop-color="#494747"/>
</radialGradient>
<radialGradient id="paint13_radial_606_726" cx="0" cy="0" r="1" gradientUnits="userSpaceOnUse" gradientTransform="translate(238.664 230.422) rotate(-75.8024) scale(36.3986 72.7973)">
<stop stop-color="#727272"/>
<stop offset="1" stop-color="#727272"/>
</radialGradient>
<radialGradient id="paint14_radial_606_726" cx="0" cy="0" r="1" gradientUnits="userSpaceOnUse" gradientTransform="translate(123.821 238.942) rotate(-75.8024) scale(72.8139 36.4153)">
<stop stop-color="#727272"/>
<stop offset="1" stop-color="#727272"/>
</radialGradient>
<radialGradient id="paint15_radial_606_726" cx="0" cy="0" r="1" gradientUnits="userSpaceOnUse" gradientTransform="translate(230.18 115.622) rotate(104.198) scale(72.8139 36.4153)">
<stop stop-color="#727272"/>
<stop offset="1" stop-color="#727272"/>
</radialGradient>
<radialGradient id="paint16_radial_606_726" cx="0" cy="0" r="1" gradientUnits="userSpaceOnUse" gradientTransform="translate(159.562 97.7389) rotate(14.1976) scale(57.5591)">
<stop stop-color="#717171"/>
<stop offset="1" stop-color="#494747"/>
</radialGradient>
<radialGradient id="paint17_radial_606_726" cx="0" cy="0" r="1" gradientUnits="userSpaceOnUse" gradientTransform="translate(159.562 97.7389) rotate(104.198) scale(72.7973 36.3986)">
<stop stop-color="#727272"/>
<stop offset="1" stop-color="#727272"/>
</radialGradient>
<radialGradient id="paint18_radial_606_726" cx="0" cy="0" r="1" gradientUnits="userSpaceOnUse" gradientTransform="translate(194.439 256.826) rotate(-165.802) scale(57.5591)">
<stop stop-color="#717171"/>
<stop offset="1" stop-color="#494747"/>
</radialGradient>
<radialGradient id="paint19_radial_606_726" cx="0" cy="0" r="1" gradientUnits="userSpaceOnUse" gradientTransform="translate(194.439 256.826) rotate(-75.8024) scale(72.7973 36.3986)">
<stop stop-color="#727272"/>
<stop offset="1" stop-color="#727272"/>
</radialGradient>
</defs>
</svg>
