<svg width="169" height="168" viewBox="0 0 169 168" fill="none" xmlns="http://www.w3.org/2000/svg">
<path style="mix-blend-mode:multiply" d="M101.697 55.4936L96.1744 52.8236L95.3371 52.4198L95.2974 52.4998C86.6302 49.3358 73.7786 59.1386 66.0669 75.0765C58.3527 91.0164 58.6223 107.213 66.4877 112.039L66.4685 112.083L67.3033 112.488L72.8264 115.158C81.4818 119.343 94.9607 109.382 102.934 92.9055C110.907 76.429 110.355 59.6812 101.697 55.4936Z" fill="url(#paint0_linear_605_1158)"/>
<path style="mix-blend-mode:screen" d="M101.698 55.4938L96.1745 52.8237L95.4295 53.6007L100.388 55.7768C109.043 59.9618 109.706 75.8681 101.733 92.3446C93.76 108.821 80.8655 118.229 72.2081 114.041L67.4274 111.58L67.304 112.484L72.827 115.154C81.4824 119.339 94.9613 109.378 102.935 92.9011C110.908 76.4246 110.356 59.6768 101.698 55.4893L101.698 55.4938Z" fill="url(#paint1_linear_605_1158)"/>
<path d="M96.1771 52.8214C87.5216 48.6364 74.0428 58.5978 66.0696 75.0743C58.0964 91.5508 58.6486 108.299 67.306 112.486C75.9615 116.671 89.4403 106.71 97.4135 90.2333C105.387 73.7568 104.835 57.009 96.1771 52.8214ZM94.0693 88.6142C86.9277 103.373 75.2658 112.493 68.0187 108.988C60.7716 105.484 60.6851 90.6784 67.8287 75.9221C74.9702 61.1633 86.6322 52.0436 93.8793 55.5479C101.126 59.0523 101.213 73.8579 94.0693 88.6142Z" fill="url(#paint2_linear_605_1158)"/>
<path style="mix-blend-mode:screen" d="M93.8767 55.5498C101.124 59.0542 101.21 73.8598 94.0667 88.6161C86.9251 103.375 75.2632 112.495 68.0161 108.99C60.769 105.486 60.6825 90.6802 67.8261 75.924C74.9676 61.1652 86.6296 52.0455 93.8767 55.5498Z" fill="url(#paint3_linear_605_1158)"/>
<path d="M95.2923 59.7463C96.3919 58.8275 94.2233 56.5282 91.7989 56.1462C89.3545 55.7594 87.4426 56.7201 87.8923 57.6996C88.1379 58.2343 89.5097 58.3396 91.1305 58.8791C92.7512 59.4186 94.5223 60.3917 95.2898 59.7483L95.2923 59.7463Z" fill="white"/>
<g style="mix-blend-mode:screen">
<path d="M65.0264 102.08C64.0795 102.969 65.0661 104.779 65.8623 105.7C66.6585 106.622 68.1695 107.936 69.2214 107.255C70.2734 106.573 69.0268 105.252 68.0758 104.21C67.1273 103.167 65.6362 101.506 65.0264 102.08Z" fill="#8F8F8F"/>
</g>
<path d="M86.4534 58.3035C86.0272 56.9302 83.6028 57.4011 83.69 59.0672C83.7773 60.7333 86.8795 59.6767 86.4534 58.3035Z" fill="white"/>
<g style="mix-blend-mode:screen">
<path d="M70.9095 107.232C70.778 108.665 73.198 109.156 73.7549 107.583C74.3118 106.011 71.0404 105.804 70.9095 107.232Z" fill="#8F8F8F"/>
</g>
<g style="mix-blend-mode:screen">
<path d="M76.8892 85.7236L79.5279 76.1495L85.3041 75.7373L86.8418 70.168L85.2556 69.4791L76.1205 70.1321L71.9421 85.273L73.5283 85.9618L76.8892 85.7236Z" fill="#9C9756"/>
<path d="M74.218 88.9652L70.8591 89.206L69.3233 94.7779L70.905 95.4663L74.2659 95.228L75.8042 89.6541L74.218 88.9652Z" fill="#9C9756"/>
<path d="M90.9879 69.0678L87.6245 69.3081L86.0887 74.88L87.6749 75.5689L91.0339 75.3281L92.5716 69.7587L90.9879 69.0678Z" fill="#9C9756"/>
<path d="M77.6734 84.8713L79.2571 85.5621L82.6623 85.3179L84.2242 79.6644L82.638 78.9755L79.2283 79.2192L77.6734 84.8713Z" fill="#9C9756"/>
<path d="M85.0063 78.8088L82.365 88.3849L76.5909 88.7996L75.0486 94.3684L76.6348 95.0573L85.7744 94.4049L89.952 79.2524L88.3678 78.5661L85.0063 78.8088Z" fill="#9C9756"/>
</g>
<path d="M70.8591 89.206L74.218 88.9652L72.6823 94.5371L69.3233 94.7779L70.8591 89.206Z" fill="white"/>
<path d="M76.1205 70.1321L85.2556 69.4791L83.7179 75.0485L77.9418 75.4607L75.3031 85.0347L71.9421 85.273L76.1205 70.1321Z" fill="white"/>
<path d="M79.2283 79.2192L82.638 78.9755L81.0807 84.6296L77.6734 84.8713L79.2283 79.2192Z" fill="white"/>
<path d="M87.6245 69.3081L90.9879 69.0678L89.4497 74.6417L86.0887 74.88L87.6245 69.3081Z" fill="white"/>
<path d="M85.0063 78.8088L88.3678 78.5661L84.1882 93.716L75.0486 94.3684L76.5909 88.7996L82.365 88.3849L85.0063 78.8088Z" fill="white"/>
<ellipse cx="84.5026" cy="83.9889" rx="49.1962" ry="40.3223" transform="rotate(-63.537 84.5026 83.9889)" fill="url(#paint4_radial_605_1158)" style="mix-blend-mode:screen"/>
<defs>
<linearGradient id="paint0_linear_605_1158" x1="93.4103" y1="111.497" x2="75.5925" y2="56.5121" gradientUnits="userSpaceOnUse">
<stop stop-color="#FFFAD4"/>
<stop offset="1" stop-color="#FFF9C2"/>
</linearGradient>
<linearGradient id="paint1_linear_605_1158" x1="62.0682" y1="105.771" x2="111.87" y2="66.93" gradientUnits="userSpaceOnUse">
<stop stop-color="#FFE843"/>
<stop offset="0.44" stop-color="#FFE643"/>
<stop offset="1" stop-color="#FFEA43"/>
</linearGradient>
<linearGradient id="paint2_linear_605_1158" x1="89.9969" y1="108.14" x2="73.4761" y2="57.1673" gradientUnits="userSpaceOnUse">
<stop stop-color="#FFFCEB"/>
<stop offset="0.33" stop-color="#F9F9F4"/>
<stop offset="0.42" stop-color="#F8F8F8"/>
<stop offset="0.5" stop-color="#FDFBEE"/>
<stop offset="0.6" stop-color="white"/>
<stop offset="1" stop-color="#FDFBEF"/>
</linearGradient>
<linearGradient id="paint3_linear_605_1158" x1="57.9283" y1="99.5169" x2="102.104" y2="66.2149" gradientUnits="userSpaceOnUse">
<stop stop-color="#928109"/>
<stop offset="0.24" stop-color="#8D7E09"/>
<stop offset="0.41" stop-color="#928927"/>
<stop offset="0.6" stop-color="#918C52"/>
<stop offset="1" stop-color="#908E79"/>
</linearGradient>
<radialGradient id="paint4_radial_605_1158" cx="0" cy="0" r="1" gradientUnits="userSpaceOnUse" gradientTransform="translate(84.5026 83.9889) rotate(90) scale(40.3223 49.1962)">
<stop stop-color="#F3BA2F"/>
<stop offset="1" stop-opacity="0"/>
</radialGradient>
</defs>
</svg>
