<svg width="27" height="26" viewBox="0 0 27 26" fill="none" xmlns="http://www.w3.org/2000/svg">
<path d="M13.1113 26C20.291 26 26.1113 20.1797 26.1113 13C26.1113 5.8203 20.291 0 13.1113 0C5.93163 0 0.111328 5.8203 0.111328 13C0.111328 20.1797 5.93163 26 13.1113 26Z" fill="url(#paint0_linear_1233_1543)"/>
<path d="M18.2758 14.3559C18.0405 13.8502 17.7298 13.4563 17.3398 13.1729C16.9615 12.8986 16.1087 12.6321 16.1087 12.6321C16.1087 12.6321 16.8653 12.2525 17.1721 11.9808C17.488 11.7026 17.7376 11.3516 17.917 10.9252C18.099 10.4988 18.1874 10.0139 18.1874 9.4705C18.1874 8.9648 18.1159 8.50071 17.969 8.0821C17.9105 7.90791 17.839 7.7402 17.7545 7.5816C17.4646 7.0382 17.033 6.61701 16.4597 6.31281C15.8877 6.01121 15.1779 5.8591 14.3316 5.8591H9.61394V7.7935C10.0572 7.6102 10.7956 7.6011 11.5106 7.2449C12.2256 6.8887 12.1086 6.318 13.2396 6.2816C14.3875 6.2816 14.4304 7.5023 14.4304 7.5023C14.4304 7.5023 15.8695 8.0028 16.8757 8.1614C15.2312 8.1679 14.0027 7.9586 14.0027 7.9586C14.0027 7.9586 14.1548 7.0187 13.1928 6.9589C12.2334 6.9004 12.353 7.9157 12.353 7.9157C12.353 7.9157 12.3504 7.9157 12.3465 7.9183C12.2347 7.943 10.4173 8.3629 9.61394 8.8361C9.61394 8.8361 9.32534 9.0389 9.14724 9.3119C8.87034 9.7669 8.90154 10.0568 8.77804 10.2609C8.69224 10.4039 7.82774 10.9252 7.14394 11.3438C6.82024 11.5453 6.53684 11.7247 6.39644 11.8287C6.34444 11.8651 6.31194 11.8924 6.30544 11.908C6.28594 11.9561 6.37304 12.194 6.52774 12.493C6.81894 13.0572 7.36234 13.845 7.93044 14.0283C8.16834 14.105 8.81184 14.0855 9.61394 14.1375C10.1482 14.1713 10.7527 14.2376 11.3533 14.3845C12.2178 14.5925 13.367 14.7953 14.2445 15.8951C15.122 16.9949 14.7619 19.4428 14.7619 19.4428C14.7619 19.4428 14.3043 16.8519 13.0589 16.0472C11.8135 15.2425 9.61394 15.483 9.61394 15.483V20.1357H13.8402H14.3225H14.6917C15.1805 20.1357 15.6251 20.0772 16.0268 19.9563C16.3141 19.8718 16.5793 19.7587 16.8237 19.6144C16.8861 19.5754 17.0096 19.4961 17.0096 19.4961L17.28 19.2946C17.28 19.2946 17.2826 19.292 17.2865 19.2881C17.2904 19.2842 17.2969 19.2764 17.306 19.2699C17.6414 18.9956 17.9131 18.6602 18.1224 18.2702C18.138 18.2455 18.1523 18.2182 18.1653 18.1935C18.4747 17.5903 18.6294 16.9065 18.6294 16.1382C18.6294 15.457 18.5111 14.8616 18.2758 14.3559ZM9.61394 10.0139H9.61654C9.75954 9.9645 9.79984 9.9918 9.79854 10.127C9.79594 10.2583 9.72314 10.3766 9.61524 10.4143C9.58014 10.4299 9.54114 10.4351 9.50084 10.4299C9.42154 10.4208 9.32794 10.3506 9.28244 10.283C9.22654 10.2037 9.30844 10.1452 9.38774 10.1088C9.46054 10.0776 9.53594 10.0425 9.61394 10.0139Z" fill="white"/>
<defs>
<linearGradient id="paint0_linear_1233_1543" x1="19.6124" y1="24.2608" x2="6.61024" y2="1.7404" gradientUnits="userSpaceOnUse">
<stop stop-color="#9F67B9"/>
<stop offset="0.4963" stop-color="#9B90CD"/>
<stop offset="1" stop-color="#96BAE1"/>
</linearGradient>
</defs>
</svg>
