<svg width="16" height="16" viewBox="0 0 16 16" fill="none" xmlns="http://www.w3.org/2000/svg">
<path d="M7.63232 15.5029C11.8066 15.5029 15.1904 12.1191 15.1904 7.94482C15.1904 3.7706 11.8066 0.386719 7.63232 0.386719C3.4581 0.386719 0.0742188 3.7706 0.0742188 7.94482C0.0742188 12.1191 3.4581 15.5029 7.63232 15.5029Z" fill="url(#paint0_linear_1409_990)"/>
<path d="M10.6351 8.73295C10.4983 8.43894 10.3177 8.20993 10.091 8.04516C9.87102 7.88568 9.37521 7.73074 9.37521 7.73074C9.37521 7.73074 9.81509 7.51005 9.99346 7.35208C10.1771 7.19034 10.3222 6.98627 10.4265 6.73836C10.5324 6.49046 10.5838 6.20854 10.5838 5.89261C10.5838 5.5986 10.5422 5.32878 10.4568 5.08541C10.4228 4.98413 10.3812 4.88663 10.3321 4.79442C10.1635 4.47849 9.91259 4.23361 9.57928 4.05675C9.24672 3.8814 8.83405 3.79297 8.34202 3.79297H5.59918V4.91762C5.85691 4.81105 6.28621 4.80576 6.70191 4.59867C7.11761 4.39157 7.04958 4.05977 7.70714 4.03861C8.37452 4.03861 8.39946 4.74831 8.39946 4.74831C8.39946 4.74831 9.23614 5.0393 9.82114 5.13151C8.86504 5.13529 8.1508 5.0136 8.1508 5.0136C8.1508 5.0136 8.23923 4.46715 7.67993 4.43239C7.12214 4.39837 7.19168 4.98866 7.19168 4.98866C7.19168 4.98866 7.19016 4.98866 7.1879 4.99017C7.1229 5.00454 6.06627 5.24866 5.59918 5.52378C5.59918 5.52378 5.43139 5.64168 5.32785 5.8004C5.16686 6.06494 5.185 6.23348 5.1132 6.35215C5.06331 6.43529 4.5607 6.73836 4.16314 6.98173C3.97495 7.09888 3.81018 7.20319 3.72855 7.26365C3.69832 7.28482 3.67942 7.30069 3.67565 7.30976C3.66431 7.33772 3.71495 7.47604 3.80489 7.64987C3.97419 7.97789 4.29012 8.43591 4.62041 8.54248C4.75872 8.58708 5.13285 8.57574 5.59918 8.60597C5.90982 8.62562 6.26127 8.66417 6.61046 8.74958C7.11307 8.87051 7.78121 8.98841 8.29138 9.62783C8.80155 10.2672 8.59219 11.6904 8.59219 11.6904C8.59219 11.6904 8.32615 10.1841 7.60208 9.71626C6.87801 9.24841 5.59918 9.38824 5.59918 9.38824V12.0933H8.05632H8.33673H8.55138C8.83556 12.0933 9.09405 12.0593 9.3276 11.989C9.49463 11.9399 9.64882 11.8741 9.79091 11.7902C9.82719 11.7675 9.89899 11.7214 9.89899 11.7214L10.0562 11.6043C10.0562 11.6043 10.0577 11.6028 10.06 11.6005C10.0622 11.5982 10.066 11.5937 10.0713 11.5899C10.2663 11.4304 10.4243 11.2354 10.546 11.0087C10.555 10.9943 10.5633 10.9785 10.5709 10.9641C10.7508 10.6134 10.8407 10.2158 10.8407 9.76916C10.8407 9.37312 10.7719 9.02696 10.6351 8.73295ZM5.59918 6.20854H5.60069C5.68383 6.17982 5.70726 6.19569 5.70651 6.2743C5.705 6.35063 5.66267 6.41941 5.59994 6.44133C5.57953 6.4504 5.55686 6.45342 5.53343 6.4504C5.48732 6.44511 5.4329 6.4043 5.40645 6.36499C5.37395 6.31889 5.42157 6.28488 5.46767 6.26371C5.51 6.24557 5.55383 6.22517 5.59918 6.20854Z" fill="white"/>
<defs>
<linearGradient id="paint0_linear_1409_990" x1="11.412" y1="14.4918" x2="3.85264" y2="1.39858" gradientUnits="userSpaceOnUse">
<stop stop-color="#9F67B9"/>
<stop offset="0.4963" stop-color="#9B90CD"/>
<stop offset="1" stop-color="#96BAE1"/>
</linearGradient>
</defs>
</svg>
