<svg width="38" height="39" viewBox="0 0 38 39" fill="none" xmlns="http://www.w3.org/2000/svg">
<path d="M18.9158 38.0039C29.363 38.0039 37.8316 29.4976 37.8316 19.0039C37.8316 8.51021 29.363 0.00390625 18.9158 0.00390625C8.4686 0.00390625 0 8.51021 0 19.0039C0 29.4976 8.4686 38.0039 18.9158 38.0039Z" fill="#F3BA2F"/>
<path d="M18.9158 11.5668L13.6678 16.8381L10.6145 13.7708L18.9158 5.4325L27.2198 13.7733L24.1663 16.8404L18.9158 11.5668Z" fill="white"/>
<path d="M8.4582 15.9362L5.40454 19.0039L8.45798 22.0705L11.5116 19.0033L8.4582 15.9362Z" fill="white"/>
<path d="M18.9158 26.4411L13.6678 21.17L10.6102 24.2327L18.9158 32.5754L27.2198 24.2347L27.2214 24.2331L24.1662 21.1675L18.9158 26.4411Z" fill="white"/>
<path d="M29.3736 15.938L26.32 19.0052L29.3735 22.0723L32.4271 19.005L29.3736 15.938Z" fill="white"/>
<path d="M22.0141 19.0023H22.013L22.0158 19.0038L22.0143 19.0055L18.9158 22.1178L15.82 19.0078L15.8156 19.0033L15.82 18.9991L18.9158 15.89L22.0141 19.0023Z" fill="white"/>
</svg>
