<svg width="33" height="33" viewBox="0 0 33 33" fill="none" xmlns="http://www.w3.org/2000/svg">
<path d="M16.5 33C25.6129 33 33 25.6129 33 16.5C33 7.38705 25.6129 0 16.5 0C7.38705 0 0 7.38705 0 16.5C0 25.6129 7.38705 33 16.5 33Z" fill="#F0B90B"/>
<path d="M19.0697 8.7523L16.5001 6.12857L10.0296 12.6416L12.5992 15.2036L19.0697 8.7523Z" fill="white"/>
<path d="M22.9706 12.6416L20.401 10.0179L10.0296 20.4202L12.5992 22.9821L22.9706 12.6416Z" fill="white"/>
<path d="M8.6983 13.9071L11.2679 16.5309L8.6983 19.0929L6.12866 16.5309L8.6983 13.9071Z" fill="white"/>
<path d="M26.8715 16.5309L24.3019 13.9071L13.9305 24.3094L16.5001 26.8714L26.8715 16.5309Z" fill="white"/>
</svg>
