<svg width="19" height="19" viewBox="0 0 19 19" fill="none" xmlns="http://www.w3.org/2000/svg">
<g clip-path="url(#clip0_1432_6042)">
<rect x="0.998047" y="0.390625" width="18" height="18" rx="9" fill="#F93939"/>
<path d="M23.798 0.390625H3.39805C2.07256 0.390625 0.998047 1.46514 0.998047 2.79063V15.9906C0.998047 17.3161 2.07256 18.3906 3.39805 18.3906H23.798C25.1235 18.3906 26.198 17.3161 26.198 15.9906V2.79063C26.198 1.46514 25.1235 0.390625 23.798 0.390625Z" fill="#F93939"/>
<path fill-rule="evenodd" clip-rule="evenodd" d="M7.59579 9.06663L5.83179 9.99423L6.16779 8.02983L4.74219 6.63783L6.71379 6.35343L7.59579 4.56543L8.47659 6.35343L10.4482 6.63783L9.02019 8.02983L9.35859 9.99303L7.59579 9.06663ZM11.7982 3.99063H12.9982V5.19063H11.7982V3.99063ZM12.9982 6.39063H14.1982V7.59063H12.9982V6.39063ZM12.9982 8.79063H14.1982V9.99063H12.9982V8.79063ZM11.7982 11.1906H12.9982V12.3906H11.7982V11.1906Z" fill="#FFDA2C"/>
</g>
<defs>
<clipPath id="clip0_1432_6042">
<rect x="0.998047" y="0.390625" width="18" height="18" rx="9" fill="white"/>
</clipPath>
</defs>
</svg>
