<svg width="21" height="22" viewBox="0 0 21 22" fill="none" xmlns="http://www.w3.org/2000/svg">
<g clip-path="url(#clip0_1432_4952)">
<rect y="0.170288" width="21" height="21" rx="10.5" fill="white"/>
<path fill-rule="evenodd" clip-rule="evenodd" d="M0 0.170288H12.6V9.97029H0V0.170288Z" fill="#1A47B8"/>
<path fill-rule="evenodd" clip-rule="evenodd" d="M12.6 0.170288V1.57029H29.4V0.170288H12.6ZM12.6 2.97029V4.37029H29.4V2.97029H12.6ZM12.6 5.77029V7.17029H29.4V5.77029H12.6ZM12.6 8.57029V9.97029H29.4V8.57029H12.6ZM0 11.3703V12.7703H29.4V11.3703H0ZM0 14.1703V15.5703H29.4V14.1703H0ZM0 16.9703V18.3703H29.4V16.9703H0ZM0 19.7703V21.1703H29.4V19.7703H0Z" fill="#F93939"/>
<path fill-rule="evenodd" clip-rule="evenodd" d="M1.40039 1.57028V2.97028H2.80039V1.57028H1.40039ZM4.20039 1.57028V2.97028H5.60039V1.57028H4.20039ZM7.00039 1.57028V2.97028H8.40039V1.57028H7.00039ZM9.80039 1.57028V2.97028H11.2004V1.57028H9.80039ZM8.40039 2.97028V4.37028H9.80039V2.97028H8.40039ZM5.60039 2.97028V4.37028H7.00039V2.97028H5.60039ZM2.80039 2.97028V4.37028H4.20039V2.97028H2.80039ZM1.40039 4.37028V5.77028H2.80039V4.37028H1.40039ZM4.20039 4.37028V5.77028H5.60039V4.37028H4.20039ZM7.00039 4.37028V5.77028H8.40039V4.37028H7.00039ZM9.80039 4.37028V5.77028H11.2004V4.37028H9.80039ZM1.40039 7.17028V8.57028H2.80039V7.17028H1.40039ZM4.20039 7.17028V8.57028H5.60039V7.17028H4.20039ZM7.00039 7.17028V8.57028H8.40039V7.17028H7.00039ZM9.80039 7.17028V8.57028H11.2004V7.17028H9.80039ZM8.40039 5.77028V7.17028H9.80039V5.77028H8.40039ZM5.60039 5.77028V7.17028H7.00039V5.77028H5.60039ZM2.80039 5.77028V7.17028H4.20039V5.77028H2.80039Z" fill="white"/>
</g>
<defs>
<clipPath id="clip0_1432_4952">
<rect y="0.170288" width="21" height="21" rx="10.5" fill="white"/>
</clipPath>
</defs>
</svg>
