<svg width="32" height="24" viewBox="0 0 32 24" fill="none" xmlns="http://www.w3.org/2000/svg">
<path d="M31.1824 9.90879C30.2886 3.85023 27.6331 0.325132 25.583 0.173585C21.5544 -0.124383 22.11 1.59937 20.0732 1.79374C18.0364 1.98812 13.9632 1.98812 11.9264 1.79374C9.88999 1.59937 10.4456 -0.124383 6.41698 0.173585C4.36694 0.325132 1.71145 3.85023 0.817562 9.90879C-0.0452828 15.7532 -0.478449 19.3479 0.817562 21.46C2.11357 23.5721 4.89079 24.3749 7.50374 19.711C10.1163 15.0471 16 15.6302 16 15.6302C16 15.6302 21.8837 15.0471 24.4963 19.711C27.1089 24.3749 29.8864 23.5721 31.1824 21.46C32.4784 19.3479 32.0453 15.7532 31.1824 9.90879Z" fill="#6FFBF8"/>
<path fill-rule="evenodd" clip-rule="evenodd" d="M7.56006 7.07126C7.15825 7.07126 6.83252 7.39699 6.83252 7.7988V9.34348H5.28784C4.8859 9.34348 4.56006 9.66931 4.56006 10.0713C4.56006 10.4732 4.8859 10.799 5.28784 10.799H6.83252V12.3437C6.83252 12.7455 7.15825 13.0713 7.56006 13.0713C7.96187 13.0713 8.2876 12.7455 8.2876 12.3437V10.799H9.83228C10.2342 10.799 10.5601 10.4732 10.5601 10.0713C10.5601 9.66931 10.2342 9.34348 9.83228 9.34348H8.2876V7.7988C8.2876 7.39699 7.96187 7.07126 7.56006 7.07126Z" fill="black"/>
<circle cx="22.4844" cy="10.0712" r="1.04457" transform="rotate(-90 22.4844 10.0712)" fill="black"/>
<circle cx="26.3953" cy="10.0712" r="1.04457" transform="rotate(-90 26.3953 10.0712)" fill="black"/>
<circle cx="24.4399" cy="8.11583" r="1.04457" fill="black"/>
<circle cx="24.4399" cy="12.0267" r="1.04457" fill="black"/>
<circle cx="16" cy="12.2523" r="2.18103" fill="black"/>
</svg>
