<svg width="19" height="19" viewBox="0 0 19 19" fill="none" xmlns="http://www.w3.org/2000/svg">
<rect x="0.998047" y="0.128143" width="18" height="18" rx="9" fill="white"/>
<path fill-rule="evenodd" clip-rule="evenodd" d="M14.1979 9.12816C14.1979 11.4478 12.3175 13.3282 9.99785 13.3282C7.67825 13.3282 5.79785 11.4478 5.79785 9.12816C5.79785 7.78416 8.61785 7.22016 10.9915 7.43256C11.2435 7.36536 11.5147 7.32816 11.7979 7.32816C13.1239 7.32816 14.1979 8.13456 14.1979 9.12816Z" fill="#232C80"/>
<path fill-rule="evenodd" clip-rule="evenodd" d="M9.39785 8.52813C9.39785 8.52813 10.4719 7.32813 11.7979 7.32813C13.1239 7.32813 14.1979 8.13453 14.1979 9.12813C14.1979 6.80853 12.3175 4.92813 9.99785 4.92813C8.32145 4.92813 6.87425 5.90973 6.20105 7.33053C5.79785 8.52813 5.79785 8.87853 5.79785 9.12813C6.39785 9.72813 7.06505 9.72813 7.59785 9.72813C8.13065 9.72813 8.60945 9.49653 8.93945 9.12813L9.39785 8.52813Z" fill="#F93939"/>
<path fill-rule="evenodd" clip-rule="evenodd" d="M15.3982 6.12815H17.7982L15.3982 3.72815H14.1982L15.3982 6.12815ZM4.59824 6.12815H2.19824L4.59824 3.72815H5.79824L4.59824 6.12815ZM15.3982 12.1281H17.7982L15.3982 14.5281H14.1982L15.3982 12.1281ZM4.59824 12.1281H2.19824L4.59824 14.5281H5.79824L4.59824 12.1281Z" fill="#151515"/>
</svg>
