<svg width="32" height="30" viewBox="0 0 32 30" fill="none" xmlns="http://www.w3.org/2000/svg">
<circle r="8.81216" transform="matrix(-0.933371 -0.358914 -0.358914 0.933371 16.2938 16.1724)" fill="#24EA5B"/>
<path d="M17.9536 20.759L14.3562 11.9162L14.9071 11.6921L18.5045 20.5349L17.9536 20.759ZM17.0048 14.2406C16.8646 13.9729 16.6612 13.8033 16.3947 13.732C16.1281 13.6606 15.8202 13.6959 15.4708 13.8381C15.2334 13.9346 15.0471 14.0507 14.9117 14.1863C14.7754 14.3196 14.6879 14.4639 14.6493 14.6191C14.6129 14.7735 14.6257 14.9267 14.6875 15.0787C14.7345 15.2071 14.8053 15.3072 14.8996 15.3788C14.9963 15.4496 15.109 15.499 15.2379 15.5271C15.3659 15.5528 15.5062 15.5642 15.6589 15.5611C15.8107 15.5557 15.9687 15.5398 16.1328 15.5133L16.8127 15.4138C17.1408 15.3608 17.4538 15.3409 17.7514 15.354C18.0491 15.3671 18.3239 15.4203 18.5759 15.5137C18.8279 15.6071 19.0507 15.7473 19.2442 15.9343C19.44 16.1204 19.5989 16.3603 19.7211 16.6542C19.895 17.088 19.9402 17.5071 19.8567 17.9114C19.7746 18.3125 19.5698 18.6817 19.2424 19.0189C18.9163 19.3528 18.4733 19.6337 17.9135 19.8615C17.3581 20.0874 16.8388 20.1967 16.3555 20.1893C15.8745 20.181 15.4489 20.0522 15.0787 19.8029C14.7097 19.5504 14.4161 19.172 14.1979 18.6676L15.6053 18.0951C15.7175 18.3259 15.8641 18.497 16.0452 18.6086C16.2276 18.7169 16.4337 18.7712 16.6636 18.7716C16.8948 18.7689 17.1357 18.7164 17.3866 18.6144C17.6329 18.5142 17.8318 18.3904 17.9832 18.2429C18.1368 18.0945 18.2373 17.9341 18.2847 17.7619C18.3321 17.5896 18.3211 17.4183 18.2518 17.2479C18.1871 17.089 18.0869 16.9741 17.951 16.9032C17.8174 16.8315 17.6478 16.7931 17.4422 16.7882C17.2389 16.7823 16.9992 16.7993 16.7231 16.8392L15.8953 16.9505C15.2563 17.0414 14.7061 17.0009 14.2446 16.8289C13.7832 16.657 13.4472 16.3092 13.2368 15.7856C13.0603 15.3582 13.0189 14.9389 13.1127 14.5277C13.2086 14.1156 13.4171 13.7395 13.7382 13.3996C14.0592 13.0596 14.4706 12.7876 14.9722 12.5835C15.4828 12.3758 15.9649 12.2843 16.4187 12.3091C16.8747 12.3329 17.2742 12.4616 17.6172 12.6951C17.9601 12.9287 18.2207 13.2548 18.3988 13.6735L17.0048 14.2406Z" fill="white"/>
<g filter="url(#filter0_bi_1077_6807)">
<path d="M-0.000162125 29.83V1.29779L2.64944 0.830048L7.1916 4.57198L9.8412 9.2494L10.5982 15.33L12.4908 19.072L18.547 21.8784L24.2247 20.943L29.9024 25.1526L31.4165 29.83H-0.000162125Z" fill="white" fill-opacity="0.1"/>
</g>
<defs>
<filter id="filter0_bi_1077_6807" x="-10" y="-9.16995" width="51.4165" height="49" filterUnits="userSpaceOnUse" color-interpolation-filters="sRGB">
<feFlood flood-opacity="0" result="BackgroundImageFix"/>
<feGaussianBlur in="BackgroundImageFix" stdDeviation="5"/>
<feComposite in2="SourceAlpha" operator="in" result="effect1_backgroundBlur_1077_6807"/>
<feBlend mode="normal" in="SourceGraphic" in2="effect1_backgroundBlur_1077_6807" result="shape"/>
<feColorMatrix in="SourceAlpha" type="matrix" values="0 0 0 0 0 0 0 0 0 0 0 0 0 0 0 0 0 0 127 0" result="hardAlpha"/>
<feOffset/>
<feGaussianBlur stdDeviation="1"/>
<feComposite in2="hardAlpha" operator="arithmetic" k2="-1" k3="1"/>
<feColorMatrix type="matrix" values="0 0 0 0 1 0 0 0 0 1 0 0 0 0 1 0 0 0 0.5 0"/>
<feBlend mode="normal" in2="shape" result="effect2_innerShadow_1077_6807"/>
</filter>
</defs>
</svg>
