<svg width="32" height="30" viewBox="0 0 32 30" fill="none" xmlns="http://www.w3.org/2000/svg">
<g filter="url(#filter0_bi_1077_6820)">
<circle cx="23.0179" cy="9.63362" r="8.80357" fill="#24EA5B"/>
</g>
<path d="M22.2394 14.2944V4.97296H22.8685V14.2944H22.2394ZM23.908 8.04976C23.8773 7.75604 23.7456 7.52786 23.5129 7.36522C23.2802 7.20258 22.9644 7.12126 22.5654 7.12126C22.2943 7.12126 22.0655 7.15767 21.8788 7.2305C21.6921 7.30089 21.5489 7.3992 21.4492 7.52543C21.352 7.65166 21.3034 7.79488 21.3034 7.95509C21.2983 8.0886 21.3277 8.20512 21.3916 8.30464C21.4581 8.40417 21.5489 8.49034 21.664 8.56317C21.779 8.63356 21.912 8.69546 22.0629 8.74887C22.2138 8.79985 22.3749 8.84354 22.5462 8.87995L23.2521 9.04016C23.5947 9.11299 23.9093 9.21008 24.1957 9.33146C24.4821 9.45283 24.7302 9.60212 24.9399 9.77932C25.1496 9.95653 25.312 10.1653 25.4271 10.4056C25.5447 10.6459 25.6048 10.9214 25.6074 11.2322C25.6048 11.6885 25.482 12.0842 25.2391 12.4192C24.9987 12.7517 24.6509 13.0103 24.1957 13.1948C23.7431 13.3768 23.1971 13.4678 22.5577 13.4678C21.9235 13.4678 21.3712 13.3756 20.9006 13.1911C20.4326 13.0066 20.0669 12.7335 19.8035 12.3718C19.5427 12.0077 19.4059 11.5574 19.3931 11.021H21.0003C21.0182 11.271 21.0937 11.4798 21.2267 11.6473C21.3622 11.8123 21.5425 11.9373 21.7675 12.0223C21.9951 12.1048 22.2521 12.1461 22.5386 12.1461C22.8199 12.1461 23.0641 12.1073 23.2712 12.0296C23.4809 11.9519 23.6433 11.8439 23.7584 11.7055C23.8735 11.5671 23.931 11.4081 23.931 11.2285C23.931 11.061 23.8786 10.9202 23.7738 10.8061C23.6715 10.692 23.5206 10.5949 23.3211 10.5148C23.1242 10.4347 22.8825 10.3619 22.5961 10.2964L21.7407 10.0925C21.0783 9.93954 20.5554 9.70043 20.1718 9.37515C19.7882 9.04987 19.5977 8.61172 19.6002 8.06068C19.5977 7.60918 19.7242 7.21472 19.98 6.8773C20.2383 6.53988 20.5924 6.27651 21.0425 6.08716C21.4926 5.89782 22.0041 5.80315 22.5769 5.80315C23.16 5.80315 23.6689 5.89782 24.1036 6.08716C24.541 6.27651 24.8811 6.53988 25.124 6.8773C25.367 7.21472 25.4923 7.60554 25.4999 8.04976H23.908Z" fill="white"/>
<g filter="url(#filter1_bi_1077_6820)">
<circle cx="12.6607" cy="17.9193" r="11.9107" fill="#A0A1A0" fill-opacity="0.1"/>
</g>
<path d="M10.2123 17.1985C9.798 17.1985 9.421 17.1115 9.08129 16.9375C8.74986 16.7635 8.48471 16.5274 8.28586 16.2291C8.09529 15.9308 8 15.5994 8 15.2348C8 14.8702 8.09529 14.5388 8.28586 14.2405C8.48471 13.9422 8.74986 13.7061 9.08129 13.5321C9.421 13.3581 9.798 13.2711 10.2123 13.2711C10.6266 13.2711 10.9994 13.3581 11.3309 13.5321C11.6706 13.7061 11.9357 13.9422 12.1263 14.2405C12.3251 14.5388 12.4246 14.8702 12.4246 15.2348C12.4246 15.5994 12.3251 15.9308 12.1263 16.2291C11.9357 16.5274 11.6706 16.7635 11.3309 16.9375C10.9994 17.1115 10.6266 17.1985 10.2123 17.1985ZM10.2123 16.0799C10.32 16.0799 10.4194 16.0426 10.5106 15.9681C10.6017 15.8852 10.6721 15.7816 10.7219 15.6574C10.7799 15.5248 10.8089 15.3839 10.8089 15.2348C10.8089 15.0774 10.7799 14.9365 10.7219 14.8122C10.6721 14.6879 10.6017 14.5885 10.5106 14.5139C10.4194 14.4311 10.32 14.3896 10.2123 14.3896C10.1046 14.3896 10.0051 14.4311 9.914 14.5139C9.82286 14.5885 9.74829 14.6879 9.69029 14.8122C9.64057 14.9365 9.61571 15.0774 9.61571 15.2348C9.61571 15.3839 9.64057 15.5248 9.69029 15.6574C9.74829 15.7816 9.82286 15.8852 9.914 15.9681C10.0051 16.0426 10.1046 16.0799 10.2123 16.0799ZM15.5441 22.3439C15.1299 22.3439 14.7529 22.2569 14.4131 22.0829C14.0817 21.9089 13.8166 21.6728 13.6177 21.3745C13.4271 21.0762 13.3319 20.7448 13.3319 20.3802C13.3319 20.0156 13.4271 19.6842 13.6177 19.3859C13.8166 19.0876 14.0817 18.8515 14.4131 18.6775C14.7529 18.5035 15.1299 18.4165 15.5441 18.4165C15.9584 18.4165 16.3313 18.5035 16.6627 18.6775C17.0024 18.8515 17.2676 19.0876 17.4581 19.3859C17.657 19.6842 17.7564 20.0156 17.7564 20.3802C17.7564 20.7448 17.657 21.0762 17.4581 21.3745C17.2676 21.6728 17.0024 21.9089 16.6627 22.0829C16.3313 22.2569 15.9584 22.3439 15.5441 22.3439ZM15.5441 21.2254C15.6519 21.2254 15.7513 21.1881 15.8424 21.1135C15.9336 21.0306 16.004 20.9271 16.0537 20.8028C16.1117 20.6702 16.1407 20.5294 16.1407 20.3802C16.1407 20.2228 16.1117 20.0819 16.0537 19.9576C16.004 19.8334 15.9336 19.7339 15.8424 19.6594C15.7513 19.5765 15.6519 19.5351 15.5441 19.5351C15.4364 19.5351 15.337 19.5765 15.2459 19.6594C15.1547 19.7339 15.0801 19.8334 15.0221 19.9576C14.9724 20.0819 14.9476 20.2228 14.9476 20.3802C14.9476 20.5294 14.9724 20.6702 15.0221 20.8028C15.0801 20.9271 15.1547 21.0306 15.2459 21.1135C15.337 21.1881 15.4364 21.2254 15.5441 21.2254ZM9.044 21.4118L12.5613 17.4471L15.6809 13.2586L16.7124 14.1908L13.3443 18.0312L10.0756 22.3439L9.044 21.4118Z" fill="white"/>
<defs>
<filter id="filter0_bi_1077_6820" x="12.7144" y="-0.669952" width="20.6069" height="20.6071" filterUnits="userSpaceOnUse" color-interpolation-filters="sRGB">
<feFlood flood-opacity="0" result="BackgroundImageFix"/>
<feGaussianBlur in="BackgroundImageFix" stdDeviation="0.75"/>
<feComposite in2="SourceAlpha" operator="in" result="effect1_backgroundBlur_1077_6820"/>
<feBlend mode="normal" in="SourceGraphic" in2="effect1_backgroundBlur_1077_6820" result="shape"/>
<feColorMatrix in="SourceAlpha" type="matrix" values="0 0 0 0 0 0 0 0 0 0 0 0 0 0 0 0 0 0 127 0" result="hardAlpha"/>
<feOffset/>
<feGaussianBlur stdDeviation="2.5"/>
<feComposite in2="hardAlpha" operator="arithmetic" k2="-1" k3="1"/>
<feColorMatrix type="matrix" values="0 0 0 0 1 0 0 0 0 1 0 0 0 0 1 0 0 0 0.5 0"/>
<feBlend mode="normal" in2="shape" result="effect2_innerShadow_1077_6820"/>
</filter>
<filter id="filter1_bi_1077_6820" x="-9.25" y="-3.99136" width="43.8213" height="43.8214" filterUnits="userSpaceOnUse" color-interpolation-filters="sRGB">
<feFlood flood-opacity="0" result="BackgroundImageFix"/>
<feGaussianBlur in="BackgroundImageFix" stdDeviation="5"/>
<feComposite in2="SourceAlpha" operator="in" result="effect1_backgroundBlur_1077_6820"/>
<feBlend mode="normal" in="SourceGraphic" in2="effect1_backgroundBlur_1077_6820" result="shape"/>
<feColorMatrix in="SourceAlpha" type="matrix" values="0 0 0 0 0 0 0 0 0 0 0 0 0 0 0 0 0 0 127 0" result="hardAlpha"/>
<feOffset/>
<feGaussianBlur stdDeviation="2.5"/>
<feComposite in2="hardAlpha" operator="arithmetic" k2="-1" k3="1"/>
<feColorMatrix type="matrix" values="0 0 0 0 1 0 0 0 0 1 0 0 0 0 1 0 0 0 0.5 0"/>
<feBlend mode="normal" in2="shape" result="effect2_innerShadow_1077_6820"/>
</filter>
</defs>
</svg>
