<svg width="13" height="13" viewBox="0 0 13 13" fill="none" xmlns="http://www.w3.org/2000/svg">
<circle cx="6.71222" cy="6.58075" r="6.00409" fill="white" fill-opacity="0.1"/>
<path d="M5.70881 7.63414C5.70881 7.4565 5.72546 7.28997 5.75877 7.13454C5.79763 6.97356 5.86701 6.82646 5.96693 6.69323C6.06685 6.56001 6.2084 6.44066 6.39159 6.33519C6.4693 6.28523 6.56922 6.22695 6.69134 6.16034C6.81902 6.09372 6.94114 6.01878 7.05771 5.93552C7.17428 5.8467 7.27143 5.74401 7.34914 5.62744C7.43241 5.50531 7.47404 5.36654 7.47404 5.21111C7.47404 5.05568 7.43518 4.92523 7.35747 4.81976C7.2853 4.71429 7.18816 4.6338 7.06604 4.57829C6.94947 4.52278 6.82179 4.49503 6.68302 4.49503C6.52204 4.49503 6.37771 4.53111 6.25004 4.60327C6.12236 4.66988 6.01412 4.75315 5.9253 4.85307C5.83648 4.95299 5.76155 5.05568 5.70048 5.16115L4.97607 4.66156C5.07599 4.43397 5.21199 4.23968 5.38408 4.0787C5.56171 3.91772 5.76432 3.7956 5.99191 3.71233C6.22506 3.62907 6.46653 3.58743 6.71632 3.58743C6.92726 3.58743 7.13543 3.62074 7.34081 3.68735C7.5462 3.74841 7.73216 3.84556 7.89869 3.97878C8.06522 4.11201 8.19845 4.28131 8.29837 4.4867C8.39829 4.69209 8.44824 4.93911 8.44824 5.22776C8.44824 5.4054 8.42604 5.5636 8.38163 5.70238C8.34277 5.84115 8.28449 5.96605 8.20677 6.07707C8.13461 6.18254 8.04302 6.27968 7.932 6.3685C7.82098 6.45732 7.70163 6.54336 7.57396 6.62662C7.42963 6.71544 7.28253 6.80148 7.13265 6.88475C6.98832 6.96801 6.8662 7.06793 6.76628 7.1845C6.67191 7.29552 6.62473 7.4454 6.62473 7.63414H5.70881ZM5.72546 9.57422V8.42516H6.64971V9.57422H5.72546Z" fill="white"/>
</svg>
