<svg width="19" height="22" viewBox="0 0 19 22" fill="none" xmlns="http://www.w3.org/2000/svg">
<g opacity="0.2">
<path d="M17.6947 3.47084C17.6574 3.44786 17.6212 3.42339 17.5857 3.39803C17.5854 3.39803 17.5854 3.39773 17.5851 3.39773C17.0673 3.02709 16.7243 2.41831 16.7068 1.72657H17.0023C17.067 1.72657 17.1197 1.67256 17.1197 1.60601V0.933367C17.1197 0.867118 17.067 0.812805 17.0023 0.812805H11.5211H2.5213C2.45632 0.812805 2.40357 0.867118 2.40357 0.933367V1.60631C2.40357 1.67286 2.45632 1.72687 2.5213 1.72687H2.81648C2.79813 2.44905 2.42485 3.0811 1.86857 3.44578C1.8674 3.44637 1.86682 3.44667 1.86682 3.44667C1.18174 3.8949 0.761841 4.66453 0.761841 5.49682V20.2042C0.761841 20.2415 0.763006 20.2785 0.765629 20.3149C0.779907 20.5292 0.835564 20.7324 0.925023 20.9159C0.929394 20.9252 0.933765 20.9342 0.938428 20.9431C1.02439 21.1117 1.13862 21.2633 1.27499 21.3907C1.46557 21.5692 1.69898 21.7002 1.95715 21.7656C2.0775 21.7963 2.20338 21.8124 2.33247 21.8124H17.2252C18.0703 21.8124 18.7618 21.104 18.7618 20.2385V5.40103C18.7618 4.61081 18.3541 3.88207 17.6947 3.47084Z" fill="#6FFBF8"/>
</g>
</svg>
