<svg width="18" height="21" viewBox="0 0 18 21" fill="none" xmlns="http://www.w3.org/2000/svg">
<path d="M16.9328 2.65804C16.8955 2.63506 16.8594 2.61059 16.8238 2.58522C16.8235 2.58522 16.8235 2.58492 16.8233 2.58492C16.3054 2.21429 15.9625 1.60551 15.945 0.913766H16.2405C16.3051 0.913766 16.3579 0.859751 16.3579 0.793204V0.120562C16.3579 0.0543127 16.3051 0 16.2405 0H10.7593H1.75946C1.69448 0 1.64173 0.0543127 1.64173 0.120562V0.793502C1.64173 0.86005 1.69448 0.914064 1.75946 0.914064H2.05464C2.03629 1.63624 1.66301 2.2683 1.10673 2.63297C1.10556 2.63357 1.10498 2.63387 1.10498 2.63387C0.419904 3.08209 0 3.85172 0 4.68402V19.3914C0 19.4287 0.00116559 19.4657 0.00378817 19.5021C0.0180666 19.7164 0.0737236 19.9196 0.163183 20.1031C0.167554 20.1124 0.171925 20.1213 0.176587 20.1303C0.262549 20.2989 0.376777 20.4505 0.513151 20.5779C0.703725 20.7564 0.937134 20.8874 1.19531 20.9527C1.31566 20.9835 1.44154 20.9996 1.57063 20.9996H16.4634C17.3084 20.9996 17.9999 20.2911 17.9999 19.4257V4.58823C17.9999 3.79801 17.5922 3.06926 16.9328 2.65804Z" fill="#6FFBF8"/>
<path d="M10.4074 13.7912H9.46584V14.3982H8.53419V13.7912H7.57281L6.07623 12.5587V11.6063H6.99797V12.1665L7.90979 12.9135H8.53419V10.9433H7.19619L6.07623 10.0376V8.4409L7.59263 7.20836H8.53419V6.60143H9.46584V7.20836H10.4272L11.9238 8.4409V9.2906H11.0021V8.84241L10.0902 8.08607H9.46584V10.0656H10.8038L11.9238 10.962V12.568L10.4074 13.7912ZM8.53419 8.08607H7.92961L6.99797 8.84241V9.62675L7.52326 10.0656H8.53419V8.08607ZM11.0021 11.3728L10.4768 10.9433H9.46584V12.9135H10.0704L11.0021 12.1572V11.3728Z" fill="black"/>
</svg>
