<svg width="15" height="12" viewBox="0 0 15 12" fill="none" xmlns="http://www.w3.org/2000/svg">
<path d="M14.2197 4.85987H2.76671L3.81967 3.815C3.97219 3.66248 4.05788 3.45562 4.05788 3.23992C4.05788 3.02423 3.97219 2.81736 3.81967 2.66484C3.66715 2.51232 3.46029 2.42664 3.24459 2.42664C3.02889 2.42664 2.82203 2.51232 2.66951 2.66484L0.239589 5.09476C0.163671 5.17006 0.103414 5.25964 0.0622926 5.35835C0.0211713 5.45705 0 5.56292 0 5.66984C0 5.77677 0.0211713 5.88264 0.0622926 5.98134C0.103414 6.08004 0.163671 6.16963 0.239589 6.24493L2.66951 8.67485C2.74481 8.75076 2.83439 8.81102 2.93309 8.85214C3.0318 8.89326 3.13766 8.91443 3.24459 8.91443C3.35152 8.91443 3.45739 8.89326 3.55609 8.85214C3.65479 8.81102 3.74437 8.75076 3.81967 8.67485C3.89559 8.59955 3.95585 8.50996 3.99697 8.41126C4.03809 8.31256 4.05926 8.20669 4.05926 8.09977C4.05926 7.99284 4.03809 7.88697 3.99697 7.78827C3.95585 7.68957 3.89559 7.59998 3.81967 7.52468L2.76671 6.47982H14.2197C14.4206 6.47 14.6107 6.38578 14.7529 6.24355C14.8952 6.10132 14.9794 5.91125 14.9892 5.71034V5.66984C14.9895 5.46186 14.9097 5.26175 14.7665 5.11096C14.6232 4.96018 14.4275 4.87027 14.2197 4.85987Z" fill="white"/>
<path d="M14.2202 9.7197H1.17963C0.754662 9.7197 0.410156 10.0642 0.410156 10.4892V10.5702C0.410156 10.9951 0.754662 11.3396 1.17963 11.3396H14.2202C14.6452 11.3396 14.9897 10.9951 14.9897 10.5702V10.4892C14.9897 10.0642 14.6452 9.7197 14.2202 9.7197Z" fill="white"/>
<path d="M14.2202 0H1.17963C0.754662 0 0.410156 0.344505 0.410156 0.769475V0.850472C0.410156 1.27544 0.754662 1.61995 1.17963 1.61995H14.2202C14.6452 1.61995 14.9897 1.27544 14.9897 0.850472V0.769475C14.9897 0.344505 14.6452 0 14.2202 0Z" fill="white"/>
</svg>
