<svg width="15" height="13" viewBox="0 0 15 13" fill="none" xmlns="http://www.w3.org/2000/svg">
<path d="M0.780268 5.69007H12.2333L11.1803 4.64521C11.0278 4.49268 10.9421 4.28582 10.9421 4.07012C10.9421 3.85443 11.0278 3.64756 11.1803 3.49504C11.3328 3.34252 11.5397 3.25684 11.7554 3.25684C11.9711 3.25684 12.178 3.34252 12.3305 3.49504L14.7604 5.92496C14.8363 6.00026 14.8966 6.08984 14.9377 6.18855C14.9788 6.28725 15 6.39312 15 6.50004C15 6.60697 14.9788 6.71284 14.9377 6.81154C14.8966 6.91024 14.8363 6.99983 14.7604 7.07513L12.3305 9.50505C12.2552 9.58096 12.1656 9.64122 12.0669 9.68234C11.9682 9.72346 11.8623 9.74464 11.7554 9.74464C11.6485 9.74464 11.5426 9.72346 11.4439 9.68234C11.3452 9.64122 11.2556 9.58096 11.1803 9.50505C11.1044 9.42975 11.0442 9.34017 11.003 9.24146C10.9619 9.14276 10.9407 9.03689 10.9407 8.92997C10.9407 8.82304 10.9619 8.71717 11.003 8.61847C11.0442 8.51977 11.1044 8.43018 11.1803 8.35488L12.2333 7.31002H0.780268C0.579361 7.3002 0.389295 7.21598 0.247063 7.07375C0.104831 6.93152 0.0206099 6.74145 0.0107918 6.54054V6.50004C0.0105314 6.29206 0.0902863 6.09195 0.233535 5.94116C0.376782 5.79038 0.572545 5.70047 0.780268 5.69007Z" fill="white"/>
<path d="M0.780283 10.5499H13.8209C14.2458 10.5499 14.5903 10.8944 14.5903 11.3194V11.4004C14.5903 11.8253 14.2458 12.1698 13.8209 12.1698H0.780283C0.355313 12.1698 0.010807 11.8253 0.010807 11.4004V11.3194C0.010807 10.8944 0.355313 10.5499 0.780283 10.5499Z" fill="white"/>
<path d="M0.780283 0.8302H13.8209C14.2458 0.8302 14.5903 1.17471 14.5903 1.59967V1.68067C14.5903 2.10564 14.2458 2.45015 13.8209 2.45015H0.780283C0.355313 2.45015 0.010807 2.10564 0.010807 1.68067V1.59967C0.010807 1.17471 0.355313 0.8302 0.780283 0.8302Z" fill="white"/>
</svg>
