<svg width="34" height="30" viewBox="0 0 34 30" fill="none" xmlns="http://www.w3.org/2000/svg">
<g filter="url(#filter0_b_1077_6757)">
<g filter="url(#filter1_i_1077_6757)">
<path d="M11.2499 24.4594C17.463 24.4594 22.4998 23.4015 22.4998 22.0964C22.4998 20.7914 17.463 19.7335 11.2499 19.7335C5.03675 19.7335 0 20.7914 0 22.0964C0 23.4015 5.03675 24.4594 11.2499 24.4594Z" fill="#24EA5B"/>
</g>
<g filter="url(#filter2_i_1077_6757)">
<path d="M22.4998 15.967V21.9242C22.4998 23.3242 17.463 24.4593 11.2499 24.4593C5.03677 24.4593 0 23.3242 0 21.9242V15.967C0 15.586 0.373145 15.2244 1.04141 14.9005C2.82911 14.0334 6.72763 13.4323 11.2499 13.4323C15.7722 13.4323 19.6707 14.0334 21.4584 14.9005C22.1266 15.2244 22.4998 15.586 22.4998 15.967Z" fill="#24EA5B" fill-opacity="0.8"/>
<path d="M11.2499 18.1582C17.463 18.1582 22.4998 17.1003 22.4998 15.7952C22.4998 14.4902 17.463 13.4323 11.2499 13.4323C5.03675 13.4323 0 14.4902 0 15.7952C0 17.1003 5.03675 18.1582 11.2499 18.1582Z" fill="#24EA5B" fill-opacity="0.8"/>
</g>
<path d="M10.815 17.1046V13.9541H11.4658V17.1046H10.815ZM12.5412 14.994C12.5095 14.8947 12.3732 14.8176 12.1325 14.7626C11.8917 14.7077 11.565 14.6802 11.1523 14.6802C10.8719 14.6802 10.6351 14.6925 10.442 14.7171C10.2489 14.7409 10.1007 14.7741 9.99757 14.8168C9.89704 14.8594 9.84678 14.9078 9.84678 14.962C9.84149 15.0071 9.87191 15.0465 9.93805 15.0801C10.0068 15.1138 10.1007 15.1429 10.2198 15.1675C10.3388 15.1913 10.4764 15.2122 10.6325 15.2303C10.7886 15.2475 10.9552 15.2623 11.1325 15.2746L11.8626 15.3287C12.2171 15.3534 12.5425 15.3862 12.8388 15.4272C13.1351 15.4682 13.3917 15.5187 13.6086 15.5786C13.8256 15.6385 13.9936 15.709 14.1126 15.7903C14.2343 15.8715 14.2965 15.9646 14.2991 16.0696C14.2965 16.2239 14.1695 16.3576 13.9182 16.4708C13.6695 16.5832 13.3097 16.6706 12.8388 16.733C12.3706 16.7945 11.8058 16.8253 11.1444 16.8253C10.4883 16.8253 9.91688 16.7941 9.43012 16.7317C8.94599 16.6694 8.56769 16.5771 8.2952 16.4548C8.02537 16.3318 7.88383 16.1796 7.87061 15.9982H9.53329C9.55181 16.0828 9.62985 16.1533 9.76741 16.2099C9.90762 16.2657 10.0941 16.308 10.3269 16.3367C10.5624 16.3646 10.8283 16.3785 11.1245 16.3785C11.4155 16.3785 11.6682 16.3654 11.8825 16.3391C12.0994 16.3129 12.2674 16.2764 12.3864 16.2296C12.5055 16.1828 12.565 16.1291 12.565 16.0684C12.565 16.0118 12.5108 15.9642 12.4023 15.9256C12.2965 15.8871 12.1404 15.8543 11.9341 15.8272C11.7304 15.8001 11.4804 15.7755 11.1841 15.7533L10.2992 15.6844C9.61398 15.6327 9.07298 15.5519 8.67615 15.442C8.27933 15.332 8.08224 15.1839 8.08489 14.9977C8.08224 14.8451 8.21319 14.7118 8.47774 14.5977C8.74494 14.4837 9.11134 14.3946 9.57694 14.3306C10.0425 14.2667 10.5716 14.2347 11.1642 14.2347C11.7674 14.2347 12.2938 14.2667 12.7436 14.3306C13.196 14.3946 13.5478 14.4837 13.7991 14.5977C14.0504 14.7118 14.1801 14.8439 14.188 14.994H12.5412Z" fill="white"/>
</g>
<g filter="url(#filter3_b_1077_6757)">
<g filter="url(#filter4_i_1077_6757)">
<path d="M11.2499 18.1582C17.463 18.1582 22.4998 17.1002 22.4998 15.7952C22.4998 14.4902 17.463 13.4323 11.2499 13.4323C5.03675 13.4323 0 14.4902 0 15.7952C0 17.1002 5.03675 18.1582 11.2499 18.1582Z" fill="#24EA5B"/>
</g>
<g filter="url(#filter5_i_1077_6757)">
<path d="M22.4998 9.66588V15.6231C22.4998 17.023 17.463 18.1582 11.2499 18.1582C5.03677 18.1582 0 17.023 0 15.6231V9.66588C0 9.28487 0.373145 8.9233 1.04141 8.59938C2.82911 7.73227 6.72763 7.13117 11.2499 7.13117C15.7722 7.13117 19.6707 7.73227 21.4584 8.59938C22.1266 8.9233 22.4998 9.28487 22.4998 9.66588Z" fill="#24EA5B" fill-opacity="0.8"/>
<path d="M11.2499 11.8571C17.463 11.8571 22.4998 10.7991 22.4998 9.49411C22.4998 8.1891 17.463 7.13117 11.2499 7.13117C5.03675 7.13117 0 8.1891 0 9.49411C0 10.7991 5.03675 11.8571 11.2499 11.8571Z" fill="#24EA5B" fill-opacity="0.8"/>
</g>
<path d="M10.815 10.8035V7.65295H11.4658V10.8035H10.815ZM12.5412 8.69289C12.5095 8.59362 12.3732 8.51649 12.1325 8.46152C11.8917 8.40655 11.565 8.37907 11.1523 8.37907C10.8719 8.37907 10.6351 8.39137 10.442 8.41599C10.2489 8.43978 10.1007 8.47301 9.99757 8.51567C9.89704 8.55834 9.84678 8.60674 9.84678 8.6609C9.84149 8.70602 9.87191 8.7454 9.93805 8.77904C10.0068 8.81268 10.1007 8.84181 10.2198 8.86642C10.3388 8.89022 10.4764 8.91114 10.6325 8.92919C10.7886 8.94642 10.9552 8.96119 11.1325 8.97349L11.8626 9.02764C12.2171 9.05226 12.5425 9.08508 12.8388 9.1261C13.1351 9.16712 13.3917 9.21758 13.6086 9.27747C13.8256 9.33737 13.9936 9.40793 14.1126 9.48915C14.2343 9.57038 14.2965 9.6635 14.2991 9.76852C14.2965 9.92277 14.1695 10.0565 13.9182 10.1697C13.6695 10.2821 13.3097 10.3695 12.8388 10.4319C12.3706 10.4934 11.8058 10.5242 11.1444 10.5242C10.4883 10.5242 9.91688 10.493 9.43012 10.4306C8.94599 10.3683 8.56769 10.276 8.2952 10.1537C8.02537 10.0307 7.88383 9.87847 7.87061 9.69714H9.53329C9.55181 9.78165 9.62985 9.85221 9.76741 9.90882C9.90762 9.96461 10.0941 10.0069 10.3269 10.0356C10.5624 10.0635 10.8283 10.0774 11.1245 10.0774C11.4155 10.0774 11.6682 10.0643 11.8825 10.038C12.0994 10.0118 12.2674 9.97528 12.3864 9.92851C12.5055 9.88175 12.565 9.82801 12.565 9.76729C12.565 9.71068 12.5108 9.66309 12.4023 9.62453C12.2965 9.58597 12.1404 9.55315 11.9341 9.52608C11.7304 9.499 11.4804 9.47439 11.1841 9.45223L10.2992 9.38331C9.61398 9.33163 9.07298 9.25081 8.67615 9.14087C8.27933 9.03093 8.08224 8.88283 8.08489 8.69659C8.08224 8.54398 8.21319 8.41065 8.47774 8.29661C8.74494 8.18256 9.11134 8.09354 9.57694 8.02955C10.0425 7.96555 10.5716 7.93355 11.1642 7.93355C11.7674 7.93355 12.2938 7.96555 12.7436 8.02955C13.196 8.09354 13.5478 8.18256 13.7991 8.29661C14.0504 8.41065 14.1801 8.54275 14.188 8.69289H12.5412Z" fill="white"/>
</g>
<g filter="url(#filter6_b_1077_6757)">
<g filter="url(#filter7_i_1077_6757)">
<path d="M11.2499 11.8571C17.463 11.8571 22.4998 10.7991 22.4998 9.49411C22.4998 8.1891 17.463 7.13117 11.2499 7.13117C5.03675 7.13117 0 8.1891 0 9.49411C0 10.7991 5.03675 11.8571 11.2499 11.8571Z" fill="#24EA5B"/>
</g>
<g filter="url(#filter8_i_1077_6757)">
<path d="M22.4998 3.36476V9.32197C22.4998 10.7219 17.463 11.8571 11.2499 11.8571C5.03677 11.8571 0 10.7219 0 9.32197V3.36476C0 2.98375 0.373145 2.62218 1.04141 2.29825C2.82911 1.43115 6.72763 0.830048 11.2499 0.830048C15.7722 0.830048 19.6707 1.43115 21.4584 2.29825C22.1266 2.62218 22.4998 2.98375 22.4998 3.36476Z" fill="#24EA5B" fill-opacity="0.8"/>
<path d="M11.2499 5.55593C17.463 5.55593 22.4998 4.498 22.4998 3.19299C22.4998 1.88797 17.463 0.830048 11.2499 0.830048C5.03675 0.830048 0 1.88797 0 3.19299C0 4.498 5.03675 5.55593 11.2499 5.55593Z" fill="#24EA5B" fill-opacity="0.8"/>
</g>
<path d="M10.815 4.50232V1.35173H11.4658V4.50232H10.815ZM12.5412 2.39167C12.5095 2.29239 12.3732 2.21527 12.1325 2.1603C11.8917 2.10533 11.565 2.07784 11.1523 2.07784C10.8719 2.07784 10.6351 2.09015 10.442 2.11476C10.2489 2.13856 10.1007 2.17179 9.99757 2.21445C9.89704 2.25711 9.84678 2.30552 9.84678 2.35967C9.84149 2.4048 9.87191 2.44418 9.93805 2.47782C10.0068 2.51146 10.1007 2.54058 10.2198 2.5652C10.3388 2.58899 10.4764 2.60991 10.6325 2.62796C10.7886 2.64519 10.9552 2.65996 11.1325 2.67227L11.8626 2.72642C12.2171 2.75103 12.5425 2.78385 12.8388 2.82488C13.1351 2.8659 13.3917 2.91636 13.6086 2.97625C13.8256 3.03614 13.9936 3.1067 14.1126 3.18793C14.2343 3.26916 14.2965 3.36228 14.2991 3.4673C14.2965 3.62155 14.1695 3.75528 13.9182 3.86851C13.6695 3.98091 13.3097 4.06829 12.8388 4.13065C12.3706 4.19218 11.8058 4.22295 11.1444 4.22295C10.4883 4.22295 9.91688 4.19177 9.43012 4.12941C8.94599 4.06706 8.56769 3.97476 8.2952 3.85251C8.02537 3.72944 7.88383 3.57724 7.87061 3.39592H9.53329C9.55181 3.48043 9.62985 3.55099 9.76741 3.6076C9.90762 3.66339 10.0941 3.70564 10.3269 3.73436C10.5624 3.76226 10.8283 3.7762 11.1245 3.7762C11.4155 3.7762 11.6682 3.76308 11.8825 3.73682C12.0994 3.71057 12.2674 3.67406 12.3864 3.62729C12.5055 3.58052 12.565 3.52678 12.565 3.46607C12.565 3.40946 12.5108 3.36187 12.4023 3.32331C12.2965 3.28475 12.1404 3.25193 11.9341 3.22485C11.7304 3.19778 11.4804 3.17316 11.1841 3.15101L10.2992 3.08209C9.61398 3.0304 9.07298 2.94959 8.67615 2.83964C8.27933 2.7297 8.08224 2.58161 8.08489 2.39536C8.08224 2.24276 8.21319 2.10943 8.47774 1.99539C8.74494 1.88134 9.11134 1.79232 9.57694 1.72832C10.0425 1.66433 10.5716 1.63233 11.1642 1.63233C11.7674 1.63233 12.2938 1.66433 12.7436 1.72832C13.196 1.79232 13.5478 1.88134 13.7991 1.99539C14.0504 2.10943 14.1801 2.24152 14.188 2.39167H12.5412Z" fill="white"/>
</g>
<g filter="url(#filter9_b_1077_6757)">
<g filter="url(#filter10_i_1077_6757)">
<path d="M33.7498 21.3377V27.2949C33.7498 28.6949 28.713 29.8301 22.4999 29.8301C16.2868 29.8301 11.25 28.6949 11.25 27.2949V21.3377C11.25 20.9567 11.6231 20.5952 12.2914 20.2712C14.0791 19.4041 17.9776 18.803 22.4999 18.803C27.0222 18.803 30.9207 19.4041 32.7084 20.2712C33.3766 20.5952 33.7498 20.9567 33.7498 21.3377Z" fill="white" fill-opacity="0.1"/>
<path d="M22.4999 23.5289C28.713 23.5289 33.7498 22.471 33.7498 21.166C33.7498 19.8609 28.713 18.803 22.4999 18.803C16.2868 18.803 11.25 19.8609 11.25 21.166C11.25 22.471 16.2868 23.5289 22.4999 23.5289Z" fill="white" fill-opacity="0.1"/>
</g>
<g filter="url(#filter11_i_1077_6757)">
<path d="M22.2301 22.3132V19.1626H22.8809V22.3132H22.2301ZM23.9562 20.2026C23.9245 20.1033 23.7882 20.0262 23.5475 19.9712C23.3068 19.9162 22.9801 19.8888 22.5674 19.8888C22.2869 19.8888 22.0502 19.9011 21.857 19.9257C21.6639 19.9495 21.5158 19.9827 21.4126 20.0254C21.3121 20.068 21.2618 20.1164 21.2618 20.1706C21.2565 20.2157 21.2869 20.2551 21.3531 20.2887C21.4219 20.3224 21.5158 20.3515 21.6348 20.3761C21.7539 20.3999 21.8914 20.4208 22.0475 20.4389C22.2036 20.4561 22.3703 20.4709 22.5475 20.4832L23.2777 20.5373C23.6322 20.5619 23.9576 20.5948 24.2539 20.6358C24.5501 20.6768 24.8068 20.7273 25.0237 20.7872C25.2406 20.8471 25.4086 20.9176 25.5277 20.9988C25.6493 21.0801 25.7115 21.1732 25.7142 21.2782C25.7115 21.4325 25.5845 21.5662 25.3332 21.6794C25.0845 21.7918 24.7247 21.8792 24.2539 21.9416C23.7856 22.0031 23.2208 22.0339 22.5594 22.0339C21.9033 22.0339 21.3319 22.0027 20.8452 21.9403C20.361 21.878 19.9827 21.7857 19.7102 21.6634C19.4404 21.5404 19.2989 21.3882 19.2856 21.2068H20.9483C20.9668 21.2913 21.0449 21.3619 21.1825 21.4185C21.3227 21.4743 21.5092 21.5166 21.742 21.5453C21.9774 21.5732 22.2433 21.5871 22.5396 21.5871C22.8306 21.5871 23.0832 21.574 23.2975 21.5477C23.5144 21.5215 23.6824 21.485 23.8015 21.4382C23.9205 21.3914 23.98 21.3377 23.98 21.277C23.98 21.2204 23.9258 21.1728 23.8173 21.1342C23.7115 21.0957 23.5554 21.0628 23.3491 21.0358C23.1454 21.0087 22.8954 20.9841 22.5991 20.9619L21.7142 20.893C21.029 20.8413 20.488 20.7605 20.0912 20.6506C19.6944 20.5406 19.4973 20.3925 19.4999 20.2063C19.4973 20.0537 19.6282 19.9203 19.8928 19.8063C20.16 19.6923 20.5264 19.6032 20.992 19.5392C21.4576 19.4752 21.9867 19.4432 22.5793 19.4432C23.1824 19.4432 23.7089 19.4752 24.1586 19.5392C24.611 19.6032 24.9628 19.6923 25.2142 19.8063C25.4655 19.9203 25.5951 20.0524 25.603 20.2026H23.9562Z" fill="white" fill-opacity="0.1"/>
</g>
</g>
<g filter="url(#filter12_b_1077_6757)">
<g filter="url(#filter13_i_1077_6757)">
<path d="M33.7498 14.8422V20.7994C33.7498 22.1993 28.713 23.3345 22.4999 23.3345C16.2868 23.3345 11.25 22.1993 11.25 20.7994V14.8422C11.25 14.4612 11.6231 14.0996 12.2914 13.7757C14.0791 12.9086 17.9776 12.3075 22.4999 12.3075C27.0222 12.3075 30.9207 12.9086 32.7084 13.7757C33.3766 14.0996 33.7498 14.4612 33.7498 14.8422Z" fill="white" fill-opacity="0.1"/>
<path d="M22.4999 17.0333C28.713 17.0333 33.7498 15.9754 33.7498 14.6704C33.7498 13.3654 28.713 12.3075 22.4999 12.3075C16.2868 12.3075 11.25 13.3654 11.25 14.6704C11.25 15.9754 16.2868 17.0333 22.4999 17.0333Z" fill="white" fill-opacity="0.1"/>
</g>
<g filter="url(#filter14_i_1077_6757)">
<path d="M22.2301 15.8176V12.667H22.8809V15.8176H22.2301ZM23.9562 13.7069C23.9245 13.6077 23.7882 13.5305 23.5475 13.4756C23.3068 13.4206 22.9801 13.3931 22.5674 13.3931C22.2869 13.3931 22.0502 13.4054 21.857 13.43C21.6639 13.4538 21.5158 13.4871 21.4126 13.5297C21.3121 13.5724 21.2618 13.6208 21.2618 13.6749C21.2565 13.7201 21.2869 13.7594 21.3531 13.7931C21.4219 13.8267 21.5158 13.8559 21.6348 13.8805C21.7539 13.9043 21.8914 13.9252 22.0475 13.9432C22.2036 13.9605 22.3703 13.9752 22.5475 13.9875L23.2777 14.0417C23.6322 14.0663 23.9576 14.0991 24.2539 14.1401C24.5501 14.1812 24.8068 14.2316 25.0237 14.2915C25.2406 14.3514 25.4086 14.422 25.5277 14.5032C25.6493 14.5844 25.7115 14.6775 25.7142 14.7826C25.7115 14.9368 25.5845 15.0706 25.3332 15.1838C25.0845 15.2962 24.7247 15.3836 24.2539 15.4459C23.7856 15.5074 23.2208 15.5382 22.5594 15.5382C21.9033 15.5382 21.3319 15.507 20.8452 15.4447C20.361 15.3823 19.9827 15.29 19.7102 15.1678C19.4404 15.0447 19.2989 14.8925 19.2856 14.7112H20.9483C20.9668 14.7957 21.0449 14.8663 21.1825 14.9229C21.3227 14.9787 21.5092 15.0209 21.742 15.0496C21.9774 15.0775 22.2433 15.0915 22.5396 15.0915C22.8306 15.0915 23.0832 15.0783 23.2975 15.0521C23.5144 15.0258 23.6824 14.9893 23.8015 14.9426C23.9205 14.8958 23.98 14.8421 23.98 14.7813C23.98 14.7247 23.9258 14.6771 23.8173 14.6386C23.7115 14.6 23.5554 14.5672 23.3491 14.5401C23.1454 14.513 22.8954 14.4884 22.5991 14.4663L21.7142 14.3974C21.029 14.3457 20.488 14.2649 20.0912 14.1549C19.6944 14.045 19.4973 13.8969 19.4999 13.7106C19.4973 13.558 19.6282 13.4247 19.8928 13.3107C20.16 13.1966 20.5264 13.1076 20.992 13.0436C21.4576 12.9796 21.9867 12.9476 22.5793 12.9476C23.1824 12.9476 23.7089 12.9796 24.1586 13.0436C24.611 13.1076 24.9628 13.1966 25.2142 13.3107C25.4655 13.4247 25.5951 13.5568 25.603 13.7069H23.9562Z" fill="white" fill-opacity="0.1"/>
</g>
</g>
<g filter="url(#filter15_b_1077_6757)">
<g filter="url(#filter16_i_1077_6757)">
<path d="M33.7498 8.16592V14.1231C33.7498 15.5231 28.713 16.6583 22.4999 16.6583C16.2868 16.6583 11.25 15.5231 11.25 14.1231V8.16592C11.25 7.78491 11.6231 7.42334 12.2914 7.09942C14.0791 6.23231 17.9776 5.63121 22.4999 5.63121C27.0222 5.63121 30.9207 6.23231 32.7084 7.09942C33.3766 7.42334 33.7498 7.78491 33.7498 8.16592Z" fill="white" fill-opacity="0.1"/>
<path d="M22.4999 10.3571C28.713 10.3571 33.7498 9.29916 33.7498 7.99415C33.7498 6.68913 28.713 5.63121 22.4999 5.63121C16.2868 5.63121 11.25 6.68913 11.25 7.99415C11.25 9.29916 16.2868 10.3571 22.4999 10.3571Z" fill="white" fill-opacity="0.1"/>
</g>
<g filter="url(#filter17_i_1077_6757)">
<path d="M22.2301 9.14149V5.99091H22.8809V9.14149H22.2301ZM23.9562 7.03085C23.9245 6.93157 23.7882 6.85445 23.5475 6.79947C23.3068 6.7445 22.9801 6.71702 22.5674 6.71702C22.2869 6.71702 22.0502 6.72932 21.857 6.75394C21.6639 6.77773 21.5158 6.81096 21.4126 6.85362C21.3121 6.89629 21.2618 6.9447 21.2618 6.99885C21.2565 7.04397 21.2869 7.08336 21.3531 7.11699C21.4219 7.15063 21.5158 7.17976 21.6348 7.20437C21.7539 7.22817 21.8914 7.24909 22.0475 7.26714C22.2036 7.28437 22.3703 7.29914 22.5475 7.31144L23.2777 7.36559C23.6322 7.39021 23.9576 7.42303 24.2539 7.46405C24.5501 7.50507 24.8068 7.55553 25.0237 7.61543C25.2406 7.67532 25.4086 7.74588 25.5277 7.82711C25.6493 7.90833 25.7115 8.00146 25.7142 8.10647C25.7115 8.26072 25.5845 8.39446 25.3332 8.50768C25.0845 8.62009 24.7247 8.70747 24.2539 8.76982C23.7856 8.83136 23.2208 8.86212 22.5594 8.86212C21.9033 8.86212 21.3319 8.83095 20.8452 8.76859C20.361 8.70623 19.9827 8.61393 19.7102 8.49168C19.4404 8.36861 19.2989 8.21642 19.2856 8.03509H20.9483C20.9668 8.1196 21.0449 8.19016 21.1825 8.24677C21.3227 8.30257 21.5092 8.34482 21.742 8.37354C21.9774 8.40143 22.2433 8.41538 22.5396 8.41538C22.8306 8.41538 23.0832 8.40225 23.2975 8.376C23.5144 8.34974 23.6824 8.31323 23.8015 8.26647C23.9205 8.2197 23.98 8.16596 23.98 8.10524C23.98 8.04863 23.9258 8.00104 23.8173 7.96248C23.7115 7.92392 23.5554 7.8911 23.3491 7.86403C23.1454 7.83695 22.8954 7.81234 22.5991 7.79019L21.7142 7.72127C21.029 7.66958 20.488 7.58876 20.0912 7.47882C19.6944 7.36888 19.4973 7.22078 19.4999 7.03454C19.4973 6.88193 19.6282 6.74861 19.8928 6.63456C20.16 6.52052 20.5264 6.4315 20.992 6.3675C21.4576 6.3035 21.9867 6.2715 22.5793 6.2715C23.1824 6.2715 23.7089 6.3035 24.1586 6.3675C24.611 6.4315 24.9628 6.52052 25.2142 6.63456C25.4655 6.74861 25.5951 6.8807 25.603 7.03085H23.9562Z" fill="white" fill-opacity="0.1"/>
</g>
</g>
<defs>
<filter id="filter0_b_1077_6757" x="-10" y="3.4323" width="42.5" height="31.0271" filterUnits="userSpaceOnUse" color-interpolation-filters="sRGB">
<feFlood flood-opacity="0" result="BackgroundImageFix"/>
<feGaussianBlur in="BackgroundImageFix" stdDeviation="5"/>
<feComposite in2="SourceAlpha" operator="in" result="effect1_backgroundBlur_1077_6757"/>
<feBlend mode="normal" in="SourceGraphic" in2="effect1_backgroundBlur_1077_6757" result="shape"/>
</filter>
<filter id="filter1_i_1077_6757" x="0" y="19.7335" width="22.5" height="4.72588" filterUnits="userSpaceOnUse" color-interpolation-filters="sRGB">
<feFlood flood-opacity="0" result="BackgroundImageFix"/>
<feBlend mode="normal" in="SourceGraphic" in2="BackgroundImageFix" result="shape"/>
<feColorMatrix in="SourceAlpha" type="matrix" values="0 0 0 0 0 0 0 0 0 0 0 0 0 0 0 0 0 0 127 0" result="hardAlpha"/>
<feOffset/>
<feGaussianBlur stdDeviation="1"/>
<feComposite in2="hardAlpha" operator="arithmetic" k2="-1" k3="1"/>
<feColorMatrix type="matrix" values="0 0 0 0 1 0 0 0 0 1 0 0 0 0 1 0 0 0 0.5 0"/>
<feBlend mode="normal" in2="shape" result="effect1_innerShadow_1077_6757"/>
</filter>
<filter id="filter2_i_1077_6757" x="0" y="13.4323" width="22.5" height="11.027" filterUnits="userSpaceOnUse" color-interpolation-filters="sRGB">
<feFlood flood-opacity="0" result="BackgroundImageFix"/>
<feBlend mode="normal" in="SourceGraphic" in2="BackgroundImageFix" result="shape"/>
<feColorMatrix in="SourceAlpha" type="matrix" values="0 0 0 0 0 0 0 0 0 0 0 0 0 0 0 0 0 0 127 0" result="hardAlpha"/>
<feOffset/>
<feGaussianBlur stdDeviation="1"/>
<feComposite in2="hardAlpha" operator="arithmetic" k2="-1" k3="1"/>
<feColorMatrix type="matrix" values="0 0 0 0 1 0 0 0 0 1 0 0 0 0 1 0 0 0 0.5 0"/>
<feBlend mode="normal" in2="shape" result="effect1_innerShadow_1077_6757"/>
</filter>
<filter id="filter3_b_1077_6757" x="-10" y="-2.86883" width="42.5" height="31.027" filterUnits="userSpaceOnUse" color-interpolation-filters="sRGB">
<feFlood flood-opacity="0" result="BackgroundImageFix"/>
<feGaussianBlur in="BackgroundImageFix" stdDeviation="5"/>
<feComposite in2="SourceAlpha" operator="in" result="effect1_backgroundBlur_1077_6757"/>
<feBlend mode="normal" in="SourceGraphic" in2="effect1_backgroundBlur_1077_6757" result="shape"/>
</filter>
<filter id="filter4_i_1077_6757" x="0" y="13.4323" width="22.5" height="4.72588" filterUnits="userSpaceOnUse" color-interpolation-filters="sRGB">
<feFlood flood-opacity="0" result="BackgroundImageFix"/>
<feBlend mode="normal" in="SourceGraphic" in2="BackgroundImageFix" result="shape"/>
<feColorMatrix in="SourceAlpha" type="matrix" values="0 0 0 0 0 0 0 0 0 0 0 0 0 0 0 0 0 0 127 0" result="hardAlpha"/>
<feOffset/>
<feGaussianBlur stdDeviation="1"/>
<feComposite in2="hardAlpha" operator="arithmetic" k2="-1" k3="1"/>
<feColorMatrix type="matrix" values="0 0 0 0 1 0 0 0 0 1 0 0 0 0 1 0 0 0 0.5 0"/>
<feBlend mode="normal" in2="shape" result="effect1_innerShadow_1077_6757"/>
</filter>
<filter id="filter5_i_1077_6757" x="0" y="7.13117" width="22.5" height="11.027" filterUnits="userSpaceOnUse" color-interpolation-filters="sRGB">
<feFlood flood-opacity="0" result="BackgroundImageFix"/>
<feBlend mode="normal" in="SourceGraphic" in2="BackgroundImageFix" result="shape"/>
<feColorMatrix in="SourceAlpha" type="matrix" values="0 0 0 0 0 0 0 0 0 0 0 0 0 0 0 0 0 0 127 0" result="hardAlpha"/>
<feOffset/>
<feGaussianBlur stdDeviation="1"/>
<feComposite in2="hardAlpha" operator="arithmetic" k2="-1" k3="1"/>
<feColorMatrix type="matrix" values="0 0 0 0 1 0 0 0 0 1 0 0 0 0 1 0 0 0 0.5 0"/>
<feBlend mode="normal" in2="shape" result="effect1_innerShadow_1077_6757"/>
</filter>
<filter id="filter6_b_1077_6757" x="-10" y="-9.16995" width="42.5" height="31.027" filterUnits="userSpaceOnUse" color-interpolation-filters="sRGB">
<feFlood flood-opacity="0" result="BackgroundImageFix"/>
<feGaussianBlur in="BackgroundImageFix" stdDeviation="5"/>
<feComposite in2="SourceAlpha" operator="in" result="effect1_backgroundBlur_1077_6757"/>
<feBlend mode="normal" in="SourceGraphic" in2="effect1_backgroundBlur_1077_6757" result="shape"/>
</filter>
<filter id="filter7_i_1077_6757" x="0" y="7.13117" width="22.5" height="4.72588" filterUnits="userSpaceOnUse" color-interpolation-filters="sRGB">
<feFlood flood-opacity="0" result="BackgroundImageFix"/>
<feBlend mode="normal" in="SourceGraphic" in2="BackgroundImageFix" result="shape"/>
<feColorMatrix in="SourceAlpha" type="matrix" values="0 0 0 0 0 0 0 0 0 0 0 0 0 0 0 0 0 0 127 0" result="hardAlpha"/>
<feOffset/>
<feGaussianBlur stdDeviation="1"/>
<feComposite in2="hardAlpha" operator="arithmetic" k2="-1" k3="1"/>
<feColorMatrix type="matrix" values="0 0 0 0 1 0 0 0 0 1 0 0 0 0 1 0 0 0 0.5 0"/>
<feBlend mode="normal" in2="shape" result="effect1_innerShadow_1077_6757"/>
</filter>
<filter id="filter8_i_1077_6757" x="0" y="0.830048" width="22.5" height="11.027" filterUnits="userSpaceOnUse" color-interpolation-filters="sRGB">
<feFlood flood-opacity="0" result="BackgroundImageFix"/>
<feBlend mode="normal" in="SourceGraphic" in2="BackgroundImageFix" result="shape"/>
<feColorMatrix in="SourceAlpha" type="matrix" values="0 0 0 0 0 0 0 0 0 0 0 0 0 0 0 0 0 0 127 0" result="hardAlpha"/>
<feOffset/>
<feGaussianBlur stdDeviation="1"/>
<feComposite in2="hardAlpha" operator="arithmetic" k2="-1" k3="1"/>
<feColorMatrix type="matrix" values="0 0 0 0 1 0 0 0 0 1 0 0 0 0 1 0 0 0 0.5 0"/>
<feBlend mode="normal" in2="shape" result="effect1_innerShadow_1077_6757"/>
</filter>
<filter id="filter9_b_1077_6757" x="1.25" y="8.80302" width="42.5" height="31.027" filterUnits="userSpaceOnUse" color-interpolation-filters="sRGB">
<feFlood flood-opacity="0" result="BackgroundImageFix"/>
<feGaussianBlur in="BackgroundImageFix" stdDeviation="5"/>
<feComposite in2="SourceAlpha" operator="in" result="effect1_backgroundBlur_1077_6757"/>
<feBlend mode="normal" in="SourceGraphic" in2="effect1_backgroundBlur_1077_6757" result="shape"/>
</filter>
<filter id="filter10_i_1077_6757" x="11.25" y="18.803" width="22.5" height="11.027" filterUnits="userSpaceOnUse" color-interpolation-filters="sRGB">
<feFlood flood-opacity="0" result="BackgroundImageFix"/>
<feBlend mode="normal" in="SourceGraphic" in2="BackgroundImageFix" result="shape"/>
<feColorMatrix in="SourceAlpha" type="matrix" values="0 0 0 0 0 0 0 0 0 0 0 0 0 0 0 0 0 0 127 0" result="hardAlpha"/>
<feOffset/>
<feGaussianBlur stdDeviation="1"/>
<feComposite in2="hardAlpha" operator="arithmetic" k2="-1" k3="1"/>
<feColorMatrix type="matrix" values="0 0 0 0 1 0 0 0 0 1 0 0 0 0 1 0 0 0 0.5 0"/>
<feBlend mode="normal" in2="shape" result="effect1_innerShadow_1077_6757"/>
</filter>
<filter id="filter11_i_1077_6757" x="19.2856" y="19.1626" width="6.42871" height="3.15059" filterUnits="userSpaceOnUse" color-interpolation-filters="sRGB">
<feFlood flood-opacity="0" result="BackgroundImageFix"/>
<feBlend mode="normal" in="SourceGraphic" in2="BackgroundImageFix" result="shape"/>
<feColorMatrix in="SourceAlpha" type="matrix" values="0 0 0 0 0 0 0 0 0 0 0 0 0 0 0 0 0 0 127 0" result="hardAlpha"/>
<feOffset/>
<feGaussianBlur stdDeviation="1"/>
<feComposite in2="hardAlpha" operator="arithmetic" k2="-1" k3="1"/>
<feColorMatrix type="matrix" values="0 0 0 0 1 0 0 0 0 1 0 0 0 0 1 0 0 0 0.5 0"/>
<feBlend mode="normal" in2="shape" result="effect1_innerShadow_1077_6757"/>
</filter>
<filter id="filter12_b_1077_6757" x="1.25" y="2.30746" width="42.5" height="31.027" filterUnits="userSpaceOnUse" color-interpolation-filters="sRGB">
<feFlood flood-opacity="0" result="BackgroundImageFix"/>
<feGaussianBlur in="BackgroundImageFix" stdDeviation="5"/>
<feComposite in2="SourceAlpha" operator="in" result="effect1_backgroundBlur_1077_6757"/>
<feBlend mode="normal" in="SourceGraphic" in2="effect1_backgroundBlur_1077_6757" result="shape"/>
</filter>
<filter id="filter13_i_1077_6757" x="11.25" y="12.3075" width="22.5" height="11.027" filterUnits="userSpaceOnUse" color-interpolation-filters="sRGB">
<feFlood flood-opacity="0" result="BackgroundImageFix"/>
<feBlend mode="normal" in="SourceGraphic" in2="BackgroundImageFix" result="shape"/>
<feColorMatrix in="SourceAlpha" type="matrix" values="0 0 0 0 0 0 0 0 0 0 0 0 0 0 0 0 0 0 127 0" result="hardAlpha"/>
<feOffset/>
<feGaussianBlur stdDeviation="1"/>
<feComposite in2="hardAlpha" operator="arithmetic" k2="-1" k3="1"/>
<feColorMatrix type="matrix" values="0 0 0 0 1 0 0 0 0 1 0 0 0 0 1 0 0 0 0.5 0"/>
<feBlend mode="normal" in2="shape" result="effect1_innerShadow_1077_6757"/>
</filter>
<filter id="filter14_i_1077_6757" x="19.2856" y="12.667" width="6.42871" height="3.15059" filterUnits="userSpaceOnUse" color-interpolation-filters="sRGB">
<feFlood flood-opacity="0" result="BackgroundImageFix"/>
<feBlend mode="normal" in="SourceGraphic" in2="BackgroundImageFix" result="shape"/>
<feColorMatrix in="SourceAlpha" type="matrix" values="0 0 0 0 0 0 0 0 0 0 0 0 0 0 0 0 0 0 127 0" result="hardAlpha"/>
<feOffset/>
<feGaussianBlur stdDeviation="1"/>
<feComposite in2="hardAlpha" operator="arithmetic" k2="-1" k3="1"/>
<feColorMatrix type="matrix" values="0 0 0 0 1 0 0 0 0 1 0 0 0 0 1 0 0 0 0.5 0"/>
<feBlend mode="normal" in2="shape" result="effect1_innerShadow_1077_6757"/>
</filter>
<filter id="filter15_b_1077_6757" x="1.25" y="-4.36879" width="42.5" height="31.027" filterUnits="userSpaceOnUse" color-interpolation-filters="sRGB">
<feFlood flood-opacity="0" result="BackgroundImageFix"/>
<feGaussianBlur in="BackgroundImageFix" stdDeviation="5"/>
<feComposite in2="SourceAlpha" operator="in" result="effect1_backgroundBlur_1077_6757"/>
<feBlend mode="normal" in="SourceGraphic" in2="effect1_backgroundBlur_1077_6757" result="shape"/>
</filter>
<filter id="filter16_i_1077_6757" x="11.25" y="5.63121" width="22.5" height="11.027" filterUnits="userSpaceOnUse" color-interpolation-filters="sRGB">
<feFlood flood-opacity="0" result="BackgroundImageFix"/>
<feBlend mode="normal" in="SourceGraphic" in2="BackgroundImageFix" result="shape"/>
<feColorMatrix in="SourceAlpha" type="matrix" values="0 0 0 0 0 0 0 0 0 0 0 0 0 0 0 0 0 0 127 0" result="hardAlpha"/>
<feOffset/>
<feGaussianBlur stdDeviation="1"/>
<feComposite in2="hardAlpha" operator="arithmetic" k2="-1" k3="1"/>
<feColorMatrix type="matrix" values="0 0 0 0 1 0 0 0 0 1 0 0 0 0 1 0 0 0 0.5 0"/>
<feBlend mode="normal" in2="shape" result="effect1_innerShadow_1077_6757"/>
</filter>
<filter id="filter17_i_1077_6757" x="19.2856" y="5.99091" width="6.42871" height="3.15059" filterUnits="userSpaceOnUse" color-interpolation-filters="sRGB">
<feFlood flood-opacity="0" result="BackgroundImageFix"/>
<feBlend mode="normal" in="SourceGraphic" in2="BackgroundImageFix" result="shape"/>
<feColorMatrix in="SourceAlpha" type="matrix" values="0 0 0 0 0 0 0 0 0 0 0 0 0 0 0 0 0 0 127 0" result="hardAlpha"/>
<feOffset/>
<feGaussianBlur stdDeviation="1"/>
<feComposite in2="hardAlpha" operator="arithmetic" k2="-1" k3="1"/>
<feColorMatrix type="matrix" values="0 0 0 0 1 0 0 0 0 1 0 0 0 0 1 0 0 0 0.5 0"/>
<feBlend mode="normal" in2="shape" result="effect1_innerShadow_1077_6757"/>
</filter>
</defs>
</svg>
