<svg width="33" height="33" viewBox="0 0 33 33" fill="none" xmlns="http://www.w3.org/2000/svg">
<path d="M16.5 33C25.6127 33 33 25.6127 33 16.5C33 7.3873 25.6127 0 16.5 0C7.3873 0 0 7.3873 0 16.5C0 25.6127 7.3873 33 16.5 33Z" fill="url(#paint0_linear_1233_777)"/>
<path d="M23.501 20.3181C23.501 20.4286 23.4977 20.5375 23.4894 20.6464C23.4911 20.6497 23.4894 20.6514 23.4894 20.6514C23.3178 23.3079 21.1085 25.4083 18.4091 25.4083H9.49909V19.0443H18.4091C19.112 19.0443 19.6812 19.6135 19.6812 20.3164C19.6812 20.6679 19.5377 20.9863 19.3083 21.2157C19.079 21.4467 18.7589 21.5886 18.4091 21.5886H12.6803C12.5054 21.5886 12.3453 21.6595 12.2298 21.775C12.1143 21.8889 12.0434 22.0489 12.0434 22.2255C12.0434 22.5769 12.3272 22.8624 12.6803 22.8624H18.4074C19.1103 22.8624 19.7472 22.5769 20.2076 22.1166C20.6679 21.6562 20.9534 21.0193 20.9534 20.3164C20.9534 18.9106 19.8132 17.7705 18.4074 17.7705H9.49744V15.2278H18.4074C19.1103 15.2278 19.7472 14.9424 20.2076 14.482C20.6679 14.0217 20.9534 13.3848 20.9534 12.6819C20.9534 11.2761 19.8132 10.1359 18.4074 10.1359H12.6803C12.5054 10.1359 12.3453 10.2069 12.2298 10.3224C12.1143 10.4362 12.0434 10.5963 12.0434 10.7728C12.0434 11.1243 12.3272 11.4097 12.6803 11.4097H18.48C19.1433 11.4097 19.6812 11.9476 19.6812 12.6109V12.7545C19.6812 13.4178 19.1433 13.9557 18.48 13.9557H9.49909V7.59H18.4091C21.1085 7.59 23.3178 9.6921 23.4894 12.3469C23.4894 12.3486 23.4911 12.3502 23.4894 12.3519C23.4977 12.4608 23.501 12.5697 23.501 12.6802C23.501 14.1999 22.8327 15.5661 21.7767 16.4983C22.8327 17.4339 23.501 18.7984 23.501 20.3181Z" fill="white"/>
<defs>
<linearGradient id="paint0_linear_1233_777" x1="24.751" y1="30.7918" x2="8.24822" y2="2.20819" gradientUnits="userSpaceOnUse">
<stop stop-color="#9F67B9"/>
<stop offset="0.4963" stop-color="#9B90CD"/>
<stop offset="1" stop-color="#96BAE1"/>
</linearGradient>
</defs>
</svg>
